<svg xmlns="http://www.w3.org/2000/svg" width="20" height="20"><g data-name="Group 18058"><g data-name="noun_Botany Experiment_2511755"><g data-name="Group 17825"><path data-name="Path 20123" d="M15.99 16.525c0-.807-.794-1.522-1.992-1.815v-4.248a1.741 1.741 0 00.4-1.1A1.791 1.791 0 0012.602 7.6l-1.961-1.91 1.154-1.667.4.263a.218.218 0 00.3-.058l.727-1.051a.219.219 0 00-.06-.307l-2.8-1.834a.218.218 0 00-.3.058l-.734 1.051a.219.219 0 00.06.307l.382.25-3.2 4.631-.392-.256a.218.218 0 00-.3.058l-.793 1.142a.219.219 0 00.06.308l2.8 1.831a.219.219 0 00.3-.058l.793-1.142a.219.219 0 00-.06-.308l-.393-.257.664-.959 1.53 1.487a1.677 1.677 0 00-.011.183 1.754 1.754 0 00.8 1.458v3.89c-1.186.29-1.974.993-1.99 1.79h-1.57a.719.719 0 00.037-.215c0-.548-.619-.986-1.444-1.053v-1.175a1.85 1.85 0 001.645-1.8.219.219 0 00-.064-.164.225.225 0 00-.164-.064 2.227 2.227 0 00-1.32.541 1.686 1.686 0 00-.316.43 1.686 1.686 0 00-.316-.43 2.226 2.226 0 00-1.32-.542.225.225 0 00-.164.064.219.219 0 00-.064.164 1.851 1.851 0 001.645 1.8v1.174c-.825.066-1.444.5-1.444 1.053a.72.72 0 00.037.215h-.54a.219.219 0 00-.219.219v1.549a.219.219 0 00.219.219h11.555a.219.219 0 00.219-.219v-1.548a.214.214 0 00-.013-.065 1.24 1.24 0 00.013-.128zm-2.756-1.94l-.112-.008c-.1-.006-.2-.01-.3-.011h-.074c-.1 0-.2 0-.3.011l-.11.008a4.4 4.4 0 00-.294.033h-.034v-3.582c.02.007.042.011.062.017l.094.025.1.02c.031.006.084.014.127.019h.046c.048 0 .1.009.144.009a1.843 1.843 0 00.61-.106l.025-.009c.049-.018.1-.038.146-.06l.064-.029c.034-.018.068-.036.1-.055l.03-.017v3.772h-.041c-.089-.022-.189-.029-.284-.037zM10.297 1.518l2.439 1.594-.478.691-.375-.245a.213.213 0 00-.023-.022l-1.653-1.084a.209.209 0 00-.043-.018l-.344-.225zM8.012 9.935L5.574 8.343l.543-.783 1 .654 1.044.682.392.256zm-.353-1.89l-.723-.472 3.2-4.631 1.292.841-1.246 1.8s-.006 0-.008.008l-.7 1.009-1.246 1.813zm2.162-1.17l.568-.82 1.667 1.62h-.006a2.043 2.043 0 00-.171.061l-.04.018q-.065.029-.127.062l-.045.025q-.066.038-.128.081l-.024.016a1.818 1.818 0 00-.143.114l-.021.02q-.057.052-.109.108l-.029.032q-.052.059-.1.122l-.015.02a1.75 1.75 0 00-.1.156l-.01.019a1.574 1.574 0 00-.07.143l-.01.02-1.4-1.362zm1.389 2.488a1.221 1.221 0 01.021-.226 1.355 1.355 0 011.294-1.1h.06a1.355 1.355 0 011.375 1.33 1.312 1.312 0 01-.342.875 1.386 1.386 0 01-.8.429 1.415 1.415 0 01-.92-.155 1.322 1.322 0 01-.688-1.153zm.623 5.734a4.8 4.8 0 011.435-.072 4.357 4.357 0 01.468.072c1.055.215 1.8.789 1.816 1.4h-5.537c.02-.61.761-1.185 1.818-1.397zM7.005 12.88a1.6 1.6 0 01.762-.377 1.507 1.507 0 01-.384.728 1.6 1.6 0 01-.764.377 1.5 1.5 0 01.386-.728zm-2-.378a1.592 1.592 0 01.763.378 1.507 1.507 0 01.384.729 1.593 1.593 0 01-.763-.378A1.508 1.508 0 015 12.5zm.158 3.782c0-.285.468-.6 1.145-.621a.205.205 0 00.159 0c.678.024 1.146.336 1.146.621a.346.346 0 01-.085.215l-2.285-.002a.347.347 0 01-.085-.212zm10.394 1.764l-11.12.001v-1.112h11.116z"/><path data-name="Path 20124" d="M12.547 10.047a.681.681 0 10-.693-.681.688.688 0 00.693.681zm0-.87a.19.19 0 11-.2.189.2.2 0 01.2-.189z"/></g></g></g></svg>