<svg xmlns="http://www.w3.org/2000/svg" width="20" height="20"><g data-name="Group 18055"><path data-name="Path 20125" d="M19.494 13.116a1.56 1.56 0 00-.562-.428V7.376l.4-.25a.357.357 0 00-.037-.624L9.929 2.034a.37.37 0 00-.307 0L.209 6.502a.357.357 0 00-.027.63l3.139 1.839v4.647c0 1.317 4.052 1.668 6.446 1.668s6.446-.351 6.446-1.668V9.094l2.01-1.268v4.789a1.758 1.758 0 00-1.076.714 1.92 1.92 0 00-.142 1.821 21.273 21.273 0 01.806 2.288.357.357 0 00.612.238 6.2 6.2 0 001.538-2.591 2.393 2.393 0 00-.467-1.969zm-9.732 1.456q-.663 0-1.254-.027c-2.755-.123-4.333-.633-4.478-.939v-1.753c1.269.638 3.956.832 5.732.832s4.465-.195 5.734-.833V13.6c-.145.348-2.186.972-5.734.972zM4.03 11.004V7.729c.154-.349 2.192-.969 5.732-.969s5.589.623 5.732.954V11c-.149.349-2.189.971-5.733.971-3.527-.001-5.565-.617-5.731-.967zm12.178-2.753v-.537c0-1.317-4.052-1.668-6.446-1.668s-6.446.351-6.446 1.668v.43l-2.2-1.286 8.652-4.106 8.629 4.116zm3.046 6.71a4.4 4.4 0 01-.926 1.731 51.195 51.195 0 00-.661-1.8 1.216 1.216 0 01.064-1.161.994.994 0 01.739-.44.69.69 0 01.479.282 1.714 1.714 0 01.305 1.387z"/></g></svg>