<svg xmlns="http://www.w3.org/2000/svg" width="20" height="20"><g data-name="Group 18056"><g data-name="Group 17830"><path data-name="Path 20127" d="M1.305 16.923h2.074v2.076a.305.305 0 00.305.305h3.173a.305.305 0 00.305-.305v-2.076h.68l2.084 2.28a.305.305 0 00.45 0l7.324-8.015a6.368 6.368 0 000-8.429 5.172 5.172 0 00-7.552-.235 5.172 5.172 0 00-7.548.234 6.368 6.368 0 000 8.429l.78.856v1.1H1.305a.305.305 0 00-.305.303v3.173a.305.305 0 00.305.304zm1.744-6.148a5.746 5.746 0 010-7.6 4.57 4.57 0 016.877 0 .315.315 0 00.45 0 4.57 4.57 0 016.877 0 5.746 5.746 0 010 7.6l-7.1 7.771-1.484-1.623h.568a.305.305 0 00.305-.305v-3.172a.305.305 0 00-.305-.305H7.162v-2.075a.305.305 0 00-.305-.305H3.684a.305.305 0 00-.305.305v.07zM1.61 13.751h2.074a.305.305 0 00.305-.305v-2.075h2.563v2.074a.305.305 0 00.305.305h2.074v2.562H6.857a.305.305 0 00-.305.305v2.074H3.989v-2.073a.305.305 0 00-.305-.305H1.61z"/><path data-name="Path 20128" d="M8.239 9.608L9.4 6.434l1.551 4.524a.34.34 0 00.321.23h.026a.34.34 0 00.309-.278l1.176-6.434.765 3.721a.34.34 0 00.333.272h3.725V7.79h-3.449l-1.062-5.16a.34.34 0 00-.332-.272.34.34 0 00-.33.279L11.176 9.51l-1.441-4.2a.34.34 0 00-.318-.23.368.368 0 00-.322.223L7.686 9.156H6.057v.679H7.92a.34.34 0 00.319-.227z"/></g></g></svg>