<svg xmlns="http://www.w3.org/2000/svg" width="20" height="20"><g data-name="Group 18361"><g data-name="Group 18262"><path data-name="Path 20921" d="M11.827 18.402h3.764a.539.539 0 00.538-.538V9.798a.538.538 0 10-1.076 0v7.529h-2.684v-4.3a.539.539 0 00-.538-.538H7.527a.539.539 0 00-.538.538v4.3H4.303V9.798a.538.538 0 00-1.076 0v8.062a.539.539 0 00.538.538h3.762a.539.539 0 00.538-.538v-4.3h3.227v4.3a.539.539 0 00.535.542z"/><path data-name="Path 20922" d="M.839 10.244L9.68 4.261l8.841 5.98a.518.518 0 00.3.094.538.538 0 00.3-.984L9.979 3.167a.535.535 0 00-.6 0L.237 9.351a.538.538 0 10.6.893z"/><path data-name="Path 20923" d="M3.227 2.538V5.5a.538.538 0 001.076 0V2.538a.538.538 0 00-1.076 0z"/></g></g></svg>