<svg xmlns="http://www.w3.org/2000/svg" width="20.1" height="20"><g data-name="Group 18366"><g data-name="Group 18324"><g data-name="Group 18263"><g data-name="Group 17599"><path data-name="Path 19377" d="M2.552 2.128a.227.227 0 00-.185.227v2.118H.327a.227.227 0 00-.227.224v12.666a.227.227 0 00.227.227h19.1a.227.227 0 100-.455H.555V4.928h1.812v10.558a.227.227 0 10.455 0V2.579h16.347v12.73a.227.227 0 10.455 0V2.352a.227.227 0 00-.224-.224H2.595a.227.227 0 00-.043 0zm2.495 2.58a.227.227 0 00-.178.227v5.16a.227.227 0 00.227.227h5.444a.227.227 0 00.227-.227V4.928a.227.227 0 00-.227-.227H5.1a.227.227 0 00-.053.004zm7.946 0a.229.229 0 10.05.455h4.08a.227.227 0 100-.455h-4.08a.227.227 0 00-.05-.003zm-7.669.455h4.989v4.705H5.324zm7.669 2.125a.229.229 0 10.05.455h4.08a.227.227 0 100-.455h-4.08a.228.228 0 00-.05-.003zm0 2.58a.229.229 0 10.05.455h4.08a.227.227 0 100-.455h-4.08a.227.227 0 00-.05-.003zm-8.173 2.58a.229.229 0 10.05.455h12.252a.227.227 0 100-.455H4.869a.228.228 0 00-.05-.003zm0 2.58a.229.229 0 00.05.455h12.217a.227.227 0 100-.455H4.869a.228.228 0 00-.05 0z" stroke="#000" stroke-width=".2"/></g></g></g></g></svg>