<svg xmlns="http://www.w3.org/2000/svg" width="20" height="20"><g data-name="Group 18057"><g data-name="noun_rural house_2720564"><g data-name="Group 17827"><path data-name="Path 20131" d="M11.759 12.29H8.482v3.277h3.277zm-.6 2.681l-2.077 3.277V12.89h2.085z"/><path data-name="Path 20132" d="M12.333 9.982a.894.894 0 10-.894-.893.894.894 0 00.894.893zm0-1.192a.3.3 0 11-.3.3.3.3 0 01.3-.295z"/><path data-name="Path 20133" d="M17.939 4.681v-.6h-.623a1.787 1.787 0 00-.3-.736l.438-.441-.411-.42-.441.438a1.787 1.787 0 00-.736-.3V2h-.611v.623a1.787 1.787 0 00-.736.3l-.441-.438-.42.42.438.441a1.787 1.787 0 00-.3.736h-.623v.6h.623a1.787 1.787 0 00.3.736l-.432.462.42.42.441-.438a1.787 1.787 0 00.736.3v.614h.6v-.623a1.787 1.787 0 00.736-.3l.456.432.405-.405-.438-.441a1.787 1.787 0 00.3-.736zm-2.383.894a1.192 1.192 0 111.192-1.192 1.191 1.191 0 01-1.192 1.192z"/><path data-name="Path 20134" d="M5.838 17.651h12.7v-.591h-.886v-5.315h1.1l-1.99-1.677V7.316h-2.063v1.013l-2.362-1.99-6.42 5.407h1.1v5.316h-2.36V9.341c1.013-.248 1.772-1.772 1.772-3.65C6.429 3.624 5.522 2 4.362 2S2.299 3.621 2.299 5.691c0 1.89.759 3.4 1.772 3.65v7.719H1.999v.591zm7.383-.591l-3.839-4.134h2.067v4.134zm-5.688-5.906l4.8-4.043L15.288 9.6V7.906h.886v2.436l.963.812h-.077v5.906h-1.182v-4.724H12.63v4.725H7.61v-5.906zM2.885 5.691c0-1.855.765-3.1 1.477-3.1s1.477 1.246 1.477 3.1-.765 3.1-1.477 3.1-1.477-1.245-1.477-3.1z"/></g></g></g></svg>