<svg xmlns="http://www.w3.org/2000/svg" width="90.534" height="91.263">
    <defs>
        <style>
            .cls-1{fill:#a50c22}
        </style>
    </defs>
    <g id="Group_4874" data-name="Group 4874" transform="translate(-212.595 -212.598)">
        <g id="Group_4576" data-name="Group 4576" transform="translate(212.595 212.598)">
            <path id="Path_8819" data-name="Path 8819" class="cls-1" d="M248.613 218a1.836 1.836 0 0 1-.2.066c-.9.108-.9.108-1.283-.71-.221-.472-.221-.47-.757-.427-.44.034-.88.072-1.317.089a.48.48 0 0 0-.533.434 8.777 8.777 0 0 1-.261.893l-1.091.083c.053-.2.086-.345.13-.484q.74-2.394 1.484-4.786c.12-.393.122-.4.529-.416.9-.025.664-.195 1.074.635.664 1.348 1.308 2.707 1.962 4.06.084.175.164.353.262.565m-3-3.91-.121.011c-.186.655-.374 1.307-.585 2.043l1.593-.107c-.314-.706-.581-1.335-.888-1.948" transform="translate(-204.292 -212.568)"/>
            <path id="Path_8820" data-name="Path 8820" class="cls-1" d="M249.581 215.979a2.052 2.052 0 1 1 2.084 2.021 1.93 1.93 0 0 1-2.084-2.019m3.089-.116-.043-.008a2.432 2.432 0 0 0 0-.272.981.981 0 0 0-1.926-.2 1.767 1.767 0 0 0-.033 1.073.971.971 0 0 0 .884.729.943.943 0 0 0 .959-.619 4.772 4.772 0 0 0 .161-.7" transform="translate(-202.552 -212.264)"/>
            <path id="Path_8821" data-name="Path 8821" class="cls-1" d="M254.36 218.356c-.328-.075-.617-.139-.959-.215.3-1.3.594-2.561.894-3.863l.866.175-.033.528c.156-.072.28-.137.409-.191a1.6 1.6 0 0 1 1.6.16.947.947 0 0 1 .444.847 3.479 3.479 0 0 1-.069.631c-.159.741-.333 1.479-.5 2.218-.019.086-.06.168-.106.3-.309-.074-.608-.142-.943-.22.14-.617.275-1.19.4-1.765a7.661 7.661 0 0 0 .154-.8c.046-.448-.093-.676-.436-.792a.814.814 0 0 0-.96.317 1.682 1.682 0 0 0-.207.5c-.158.617-.3 1.237-.45 1.855-.02.086-.053.172-.1.317" transform="translate(-201.514 -212.142)"/>
            <path id="Path_8822" data-name="Path 8822" class="cls-1" d="M248.045 212.6h.964c.067.912 0 1.814 0 2.715s-.027 1.816-.041 2.757h-1c-.02-1.82.092-3.615.08-5.471" transform="translate(-202.991 -212.598)"/>
            <path id="Path_8823" data-name="Path 8823" class="cls-1" d="M287.828 255.455a32.981 32.981 0 0 1-65.741.163 16.589 16.589 0 0 0 16.424 13.739 16.422 16.422 0 0 0 15.472-10.986l-.632-.4a11.789 11.789 0 0 1-4.317-4.473 8.407 8.407 0 0 1-1.052-3.787 7.638 7.638 0 0 1 1.12-4.261 15.737 15.737 0 0 1 1.452-1.98 19.985 19.985 0 0 0 2.777-3.94 9.563 9.563 0 0 0 1.062-3.882 12.137 12.137 0 0 0-.289-2.85c-.126-.64-.225-1.284-.331-1.929a2.969 2.969 0 0 1 0-.4 2.967 2.967 0 0 1 .361.186 21.314 21.314 0 0 1 7.116 8.093 15.043 15.043 0 0 1-.6 14.241 13.8 13.8 0 0 1-3.1 3.376c-.4.324-.8.655-1.2.987-.127.107-.236.235-.359.348a.543.543 0 0 0-.13.657 16.571 16.571 0 0 0 1.383 2.919 16.222 16.222 0 0 0 11.3 7.815 16.488 16.488 0 0 0 18.057-9.608 18.342 18.342 0 0 0 1.217-4.029" transform="translate(-210.017 -207.745)"/>
            <path id="Path_8824" data-name="Path 8824" class="cls-1" d="M220.772 259.229c-.107-.37-.206-.717-.314-1.085a1.169 1.169 0 0 1 .182-.128 1.97 1.97 0 0 0 1.263-2.233 4.41 4.41 0 0 0-.445-1.616 1.688 1.688 0 0 0-.9-.857 1.208 1.208 0 0 0-1.673.847 11.606 11.606 0 0 0-.183 1.671c-.046.665-.051 1.335-.1 2a4.371 4.371 0 0 1-.169.846 2.624 2.624 0 0 1-4.007 1.439 3.412 3.412 0 0 1-1.329-1.636 5.7 5.7 0 0 1-.387-3.389 3.168 3.168 0 0 1 2.262-2.453 1.319 1.319 0 0 1 .219-.027l.336 1.083a2.206 2.206 0 0 1-.224.133 2.267 2.267 0 0 0-1.485 2.01 3.87 3.87 0 0 0 .786 2.909 1.486 1.486 0 0 0 1.314.6 1.259 1.259 0 0 0 1.172-.8 4.129 4.129 0 0 0 .253-1.1c.061-.665.052-1.336.1-2a9.031 9.031 0 0 1 .209-1.574 2.274 2.274 0 0 1 2.16-1.842 2.523 2.523 0 0 1 2.369 1.18 4.97 4.97 0 0 1 .781 2.023 4.8 4.8 0 0 1 0 1.766 2.771 2.771 0 0 1-2.19 2.242" transform="translate(-212.595 -201.897)"/>
            <path id="Path_8825" data-name="Path 8825" class="cls-1" d="m223.135 264.066-.678.57.015.094a2.662 2.662 0 0 1 2.187 1.024 2.075 2.075 0 0 1 .3 2.4c.2.024.352.048.507.058a2.557 2.557 0 0 1 2.112 1.319 1.9 1.9 0 0 1-.233 2.431 3.83 3.83 0 0 1-.462.436q-1.9 1.493-3.807 2.977c-.06.046-.125.083-.238.162-.233-.292-.463-.58-.71-.893.141-.117.252-.219.369-.31 1.029-.806 2.06-1.607 3.086-2.415a7.164 7.164 0 0 0 .754-.66 1.1 1.1 0 0 0 .2-1.381 1.7 1.7 0 0 0-2.233-.835 4.081 4.081 0 0 0-.777.467c-.989.757-1.967 1.528-2.95 2.294-.13.1-.262.195-.42.313l-.706-.907c.142-.123.251-.224.367-.314 1.064-.835 2.134-1.662 3.192-2.5a4.651 4.651 0 0 0 .749-.726 1.079 1.079 0 0 0 .029-1.353 1.7 1.7 0 0 0-2.187-.671 6.157 6.157 0 0 0-1.116.7c-.874.657-1.728 1.341-2.591 2.014-.127.1-.262.2-.423.314l-.729-.916 5.738-4.488c.225.28.422.523.654.809" transform="translate(-211.468 -198.842)"/>
            <path id="Path_8826" data-name="Path 8826" class="cls-1" d="m234.9 226.752.682.877-.768.657c1.261 1.62 2.5 3.211 3.775 4.845a2.226 2.226 0 0 1-.331.092c-.181.02-.366 0-.546.036a.893.893 0 0 1-.952-.43c-.847-1.132-1.729-2.235-2.6-3.349-.1-.131-.209-.256-.334-.412a5.584 5.584 0 0 0-1.432 1.209c1.414 1.465 2.82 2.926 4.3 4.463-.514.086-.937.177-1.364.221-.1.011-.242-.106-.332-.2-.492-.5-.974-1-1.46-1.5-.1-.107-.215-.206-.369-.352-.432.478-.846.932-1.282 1.415l1.02.947a.5.5 0 0 1-.495.245c-.547-.006-1.094-.013-1.64-.023a.59.59 0 0 1-.624-.364.676.676 0 0 1 .164-.751c.586-.637 1.16-1.286 1.737-1.93.1-.113.2-.229.331-.387l-.9-.933c-1.087.933-1.911 2.051-2.913 3.063l-.843-.746 2.195-2.44c.13.092.234.164.338.235l.028-.034a8.673 8.673 0 0 1-.2-.3 32.117 32.117 0 0 1 4.819-4.159" transform="translate(-208.487 -208.755)"/>
            <path id="Path_8827" data-name="Path 8827" class="cls-1" d="m256.058 226.008.1.968c-.361.036-.675.064-.987.1a1.9 1.9 0 0 0-.4.093.475.475 0 0 0-.376.547.5.5 0 0 0 .442.5 4.617 4.617 0 0 0 .945-.032 3.158 3.158 0 0 0 .524-.149c-.015.189-.029.346-.043.5a12.545 12.545 0 0 0 1.018-2.763l-3.42-.956.3-1.064c.136.02.238.024.334.05q1.074.305 2.146.614l1.76.5a5.945 5.945 0 0 0-.401-.516 7.026 7.026 0 0 0-2.322-1.656.57.57 0 0 1-.42-.608c0-.3-.044-.6-.076-1a5.026 5.026 0 0 1 2.417 1.615 1.728 1.728 0 0 0-.031-.284c-.132-.387-.264-.776-.408-1.16a.922.922 0 0 0-.528-.646.336.336 0 0 1-.168-.239c-.048-.389-.071-.781-.112-1.264a10.18 10.18 0 0 1 1.277.6 1.24 1.24 0 0 1 .408.637c.22.679.422 1.363.584 2.057.177.753.318 1.516.432 2.281.055.359.16.605.544.665a1.286 1.286 0 0 1 .259.121l-.362 1.039-.955-.3c-.4.951-.713 1.93-1.072 2.89s-.7 1.9-1.077 2.946c-.3-.416-.558-.746-.782-1.1a.547.547 0 0 1 .011-.38c.12-.387.261-.769.416-1.218h-.57a1.794 1.794 0 0 1-1.863-1.733 1.323 1.323 0 0 1 .6-1.249 2.756 2.756 0 0 1 1.854-.407" transform="translate(-201.461 -210.816)"/>
            <path id="Path_8828" data-name="Path 8828" class="cls-1" d="M245.552 223.315a3.455 3.455 0 0 1-.079-.384c-.019-.225-.023-.451-.036-.716.5-.043.963-.084 1.427-.122.38-.029.758-.06 1.138-.081a.849.849 0 0 1 .687.125c.072.064.235.032.353.032H251.653a2.458 2.458 0 0 1 .038 1.123l-.951.045c-.011.183-.029.343-.029.506 0 1.7 0 3.4-.008 5.106a.682.682 0 0 0 .315.638 1.613 1.613 0 0 1 .512 1.848 1.448 1.448 0 0 1-1.448 1.035 2.319 2.319 0 0 1-1.573-.5 5.181 5.181 0 0 1-.661-.622 14.958 14.958 0 0 1-1.375-1.952.655.655 0 0 1 .839.313 5.473 5.473 0 0 0 1.246 1.443 1.751 1.751 0 0 0 1.692.412.761.761 0 0 0 .6-.716.59.59 0 0 0-.834-.628 2.291 2.291 0 0 0-.526.351 2.758 2.758 0 0 0-.3.328c-.216-.313-.4-.582-.585-.848a1.47 1.47 0 0 1 1.486-.776c-.037-.226-.209-.286-.337-.36a.563.563 0 0 1-.289-.567c.014-.729.006-1.458 0-2.188 0-.161-.013-.326-.024-.548-.715.06-1.392.1-2.064.178a.588.588 0 0 0-.478.717 2.427 2.427 0 0 0 .211.645 5.309 5.309 0 0 0 1.1 1.5c.1.094.207.175.357.3l-.445.331a1.72 1.72 0 0 1-.253-.2c-.432-.509-.886-1-1.283-1.537a3 3 0 0 1-.607-1.874 1.176 1.176 0 0 1 .331-.872.916.916 0 0 1 .462-.258c.814-.086 1.63-.139 2.493-.207.037.27.072.5.1.736a4.586 4.586 0 0 0 .019-1.727l-.434-.025c-.089-.006-.209.02-.267-.027-.272-.221-.575-.13-.871-.111-.636.042-1.272.093-1.907.136-.118.009-.235 0-.365 0" transform="translate(-203.677 -210.046)"/>
            <path id="Path_8829" data-name="Path 8829" class="cls-1" d="M259.839 278.122c-.4-1.19-.772-2.275-1.157-3.4.385-.131.722-.248 1.1-.38 1.1 3.185 2.183 6.336 3.286 9.539l-1.007.347c-.112-.266-.2-.484-.32-.767-.078.135-.132.215-.17.3a2.616 2.616 0 0 1-2.6 1.479 3.232 3.232 0 0 1-2.466-1.53 5.264 5.264 0 0 1-.888-3.325 2.781 2.781 0 0 1 3.9-2.38c.065.036.139.052.317.121m-3.061 2.669a5.017 5.017 0 0 0 .922 2.544 2.019 2.019 0 0 0 1.483.876 1.846 1.846 0 0 0 1.984-1.992 4.75 4.75 0 0 0-1.046-2.814 1.894 1.894 0 0 0-2.125-.637 1.948 1.948 0 0 0-1.217 2.023" transform="translate(-200.914 -195.833)"/>
            <path id="Path_8830" data-name="Path 8830" class="cls-1" d="m255.907 275.817.252 1.329c-.388.081-.727.149-1.086.222-.057-.083-.114-.16-.207-.291a1.259 1.259 0 0 0-.075.142q-.73 2.062-1.457 4.122l-1.724 4.9c-.149.423-.151.423-.61.437-.229.008-.454.013-.683.017-.045 0-.09-.01-.2-.022-1.4-3.263-2.8-6.554-4.246-9.919l1.383-.064 3.492 8.805a1.871 1.871 0 0 0 .14-.264l2.75-8.4c.117-.361.132-.366.511-.388.193-.011.388-.017.6-.027.028-.145.052-.256.081-.4l1.081-.2" transform="translate(-203.558 -195.432)"/>
            <path id="Path_8831" data-name="Path 8831" class="cls-1" d="M274.036 276.228c-.144.127-.243.219-.345.3-.187.155-.374.3-.581.47l-.713-.463c-.186.13-.156.352-.209.526a3.8 3.8 0 0 1-1.893 2.346 2.093 2.093 0 0 1-1.266.289 2.043 2.043 0 0 1-1.695-2.72 3.486 3.486 0 0 1 .749-1.186q.767-.843 1.521-1.695a5.8 5.8 0 0 0 .346-.488c-.2-.217-.381-.435-.59-.627a.99.99 0 0 0-.979-.22 2.941 2.941 0 0 0-1.743 1.376 1.249 1.249 0 0 0-.083.933c.034.16.093.318.161.543-.306.183-.621.375-.96.58a2.193 2.193 0 0 1-.228-2 4.638 4.638 0 0 1 2.928-2.613 1.6 1.6 0 0 1 1.673.445 9.046 9.046 0 0 1 .725.816c.407.492.792 1 1.207 1.485a6.571 6.571 0 0 0 1.975 1.9m-3.493-1.853c-.309.4-.568.757-.847 1.094s-.6.685-.9 1.027a2.275 2.275 0 0 0-.211.3 1.1 1.1 0 0 0 .036 1.316 1.147 1.147 0 0 0 1.31.367 2.549 2.549 0 0 0 1.577-2.156 2.944 2.944 0 0 0-.968-1.944" transform="translate(-198.263 -196.604)"/>
            <path id="Path_8832" data-name="Path 8832" class="cls-1" d="m237.944 278.988-1.011-.455a2.292 2.292 0 0 1 2.092-1.43 5.054 5.054 0 0 1 2.949.779 1.73 1.73 0 0 1 .837 2.075c-.248 1-.553 1.989-.82 2.986-.127.482-.252.969-.333 1.462a6.069 6.069 0 0 0-.009.943c-.264-.071-.481-.126-.7-.188-.5-.144-.52-.17-.491-.7.005-.088.014-.175.024-.284-.211-.081-.369.052-.525.109a3.782 3.782 0 0 1-3.17-.249 1.963 1.963 0 0 1-.907-2.642 1.985 1.985 0 0 1 1.84-1.2 11.208 11.208 0 0 1 1.539.114c.589.056 1.175.133 1.765.184.389.032.421-.005.528-.4a1.242 1.242 0 0 0-.724-1.653 5.238 5.238 0 0 0-1.256-.374 1.322 1.322 0 0 0-1.294.5c-.107.127-.209.254-.337.412m3.208 2.467a1.555 1.555 0 0 0-.211-.051c-.679-.055-1.359-.113-2.041-.16a6.583 6.583 0 0 0-.909-.028 1.043 1.043 0 0 0-.988.8 1.058 1.058 0 0 0 .421 1.205 2.58 2.58 0 0 0 .912.387 2.107 2.107 0 0 0 2.254-.718 3.8 3.8 0 0 0 .562-1.437" transform="translate(-206.325 -195.084)"/>
            <path id="Path_8833" data-name="Path 8833" class="cls-1" d="M227.5 279.263c-.339-.3-.61-.535-.907-.795l.345-.846-.565-.056a3.683 3.683 0 0 1-2.819-1.71 1.994 1.994 0 0 1 1.186-3.044 2.222 2.222 0 0 1 1.593.191c.365.183.706.411 1.057.623.533.32 1.057.657 1.6.963.353.2.393.174.646-.132a1.255 1.255 0 0 0 .02-1.842 5.093 5.093 0 0 0-.879-.782 1.386 1.386 0 0 0-1.586-.087c-.1.057-.211.111-.35.182-.243-.281-.479-.549-.739-.847a2.229 2.229 0 0 1 2.052-.547 4.736 4.736 0 0 1 2.875 2.23 1.691 1.691 0 0 1-.184 2.076c-.6.743-1.236 1.46-1.856 2.187l-.15.17a6.083 6.083 0 0 0-1.339 2.065m1.231-3.76c-.113-.076-.159-.111-.209-.137-.607-.342-1.213-.684-1.821-1.021a5.847 5.847 0 0 0-.723-.378 1.1 1.1 0 0 0-1.469.607 1.178 1.178 0 0 0 .2 1.2 2.575 2.575 0 0 0 1.228.9 1.93 1.93 0 0 0 2.1-.432c.226-.221.434-.46.689-.734" transform="translate(-209.71 -196.886)"/>
            <path id="Path_8834" data-name="Path 8834" class="cls-1" d="M278.724 260.678c-.163.333-.318.657-.486 1a2.316 2.316 0 0 1-1.362-2.232 5.2 5.2 0 0 1 .781-2.679 1.8 1.8 0 0 1 2.291-.9c.875.249 1.734.552 2.605.818a6.785 6.785 0 0 0 2.656.519c-.111.347-.206.647-.3.95a.281.281 0 0 1-.314.206c-.195-.008-.389-.02-.65-.034.056.211.1.394.155.573a3.759 3.759 0 0 1-.305 2.995 1.982 1.982 0 0 1-2.23 1.109 2.007 2.007 0 0 1-1.631-1.981 10.36 10.36 0 0 1 .136-1.49c.079-.632.187-1.263.262-1.893.046-.385.01-.412-.337-.525a1.271 1.271 0 0 0-1.739.71 5.465 5.465 0 0 0-.4 1.341 1.2 1.2 0 0 0 .416 1.106c.142.132.29.261.453.4m2.544-3.076c-.06.585-.112 1.143-.176 1.7-.048.406-.133.809-.16 1.216a1.122 1.122 0 0 0 .853 1.232 1.14 1.14 0 0 0 1.3-.6 2.593 2.593 0 0 0 .279-1.975 2.249 2.249 0 0 0-2.1-1.573" transform="translate(-195.14 -200.878)"/>
            <path id="Path_8835" data-name="Path 8835" class="cls-1" d="M281.333 268.115c-.188.346-.357.648-.557 1.011-2.959-1.625-5.877-3.255-8.831-4.892.2-.361.376-.673.579-1.031l3.145 1.736c-.036-.233-.05-.364-.075-.495a3.007 3.007 0 0 1 1.283-3.007 1.834 1.834 0 0 1 1.57-.228 5.226 5.226 0 0 1 1.007.413c1.321.717 2.633 1.452 3.947 2.181.065.037.125.081.229.151-.183.333-.359.657-.549 1-.17-.084-.3-.146-.435-.217-1.181-.654-2.36-1.313-3.548-1.962a3.751 3.751 0 0 0-.749-.326 1.315 1.315 0 0 0-1.467.463 1.87 1.87 0 0 0 .286 2.776c.694.484 1.456.875 2.192 1.3.565.324 1.142.632 1.711.95.078.043.149.1.262.175" transform="translate(-196.479 -199.421)"/>
            <path id="Path_8836" data-name="Path 8836" class="cls-1" d="M269.328 239.551c-.2.1-.347.178-.5.243-.331.145-.57-.006-.582-.37a.743.743 0 0 1 .024-.271c.14-.465.282-.931.443-1.389a.854.854 0 0 1 .233-.327c.318-.289.523-.253.751.109.047.074.1.142.188.256.509-.281 1.008-.558 1.537-.849a11.847 11.847 0 0 0-.947-1.612c-1.765 1.1-3.484 2.173-5.251 3.278a2.273 2.273 0 0 1-.042-.346c.008-.242.051-.484.039-.725a.617.617 0 0 1 .351-.622c1.256-.763 2.5-1.553 3.748-2.335.139-.088.276-.181.457-.3l-.412-.759.946-.6a56.955 56.955 0 0 1 3.284 5.545c-.306.172-.618.343-.961.535l-.593-1-1.582.877.82 1.514c-.367.207-.715.4-1.105.623-.287-.5-.554-.97-.848-1.485" transform="translate(-198.315 -207.075)"/>
            <path id="Path_8837" data-name="Path 8837" class="cls-1" d="m234.01 227.2 1.695-.943c.556-.309 1.11-.62 1.7-.947a1.31 1.31 0 0 0-.231-.2c-.472-.206-.94-.425-1.425-.6a1.629 1.629 0 0 0-1.448.123.592.592 0 0 1-.815-.086 8.837 8.837 0 0 0-.737-.565 2.837 2.837 0 0 1 2.3-.526 12.492 12.492 0 0 1 2.733 1.231.527.527 0 0 0 .741-.015l.565 1-1.008.6c.352.648.7 1.279 1.064 1.954l-.9.5c-.2.112-.4.217-.594.336a.846.846 0 0 0-.313 1.242 1.18 1.18 0 0 0 1.757.215c-.031-.043-.055-.094-.092-.137a.71.71 0 0 1-.137-.908.893.893 0 0 1 .905-.482.585.585 0 0 1 .322.148c.342.392.682.8.49 1.382a.679.679 0 0 0 0 .164 2.732 2.732 0 0 1 1.106.731c-.247.141-.476.272-.676.39-.308-.178-.579-.337-.852-.491a.415.415 0 0 0-.429.006 2.471 2.471 0 0 1-3.269-.952 2.843 2.843 0 0 1-.346-.928.985.985 0 0 1 .6-1.157l.791-.451c.025-.014.042-.043.107-.117-.149-.276-.31-.573-.5-.918l-2.546 1.4c-.189-.336-.361-.647-.554-.993" transform="translate(-207.123 -209.674)"/>
            <path id="Path_8838" data-name="Path 8838" class="cls-1" d="M217.822 266.058a2.8 2.8 0 0 1-1.823-.7 3.658 3.658 0 0 1-1.321-2.468 2.981 2.981 0 0 1 1.143-2.78 5.454 5.454 0 0 1 2.9-1.224 2.918 2.918 0 0 1 1.915.453 3.667 3.667 0 0 1 1.6 3.579 3.075 3.075 0 0 1-.8 1.609 5.554 5.554 0 0 1-3.615 1.53m1.189-5.985a4.324 4.324 0 0 0-2.739 1.266 2.07 2.07 0 0 0 1.539 3.511 4.04 4.04 0 0 0 2.847-1.254 1.954 1.954 0 0 0 .408-2.273 2.052 2.052 0 0 0-2.055-1.25" transform="translate(-212.036 -200.034)"/>
            <path id="Path_8839" data-name="Path 8839" class="cls-1" d="M226.391 237.323c-.168.245-.317.467-.49.718-.314-.193-.606-.371-.936-.571a34.36 34.36 0 0 1 3.428-5.2l.89.636-.567.844 5 3.649a5.966 5.966 0 0 1-1.286.458c-.125.028-.309-.092-.436-.184-1.184-.851-2.36-1.709-3.54-2.565-.145-.1-.295-.207-.472-.329a7.765 7.765 0 0 0-.959 1.455c1.767 1.063 3.5 2.109 5.288 3.184a5.057 5.057 0 0 1-1.24.6c-.1.039-.282-.071-.406-.146-1.238-.738-2.474-1.484-3.709-2.224-.179-.109-.364-.209-.57-.328" transform="translate(-209.235 -207.256)"/>
            <path id="Path_8840" data-name="Path 8840" class="cls-1" d="m260.091 276.964 1.111-.6 4.56 4.165a.765.765 0 0 0 .025-.182q-.347-2.274-.7-4.544c-.057-.376-.094-.754-.159-1.127a.33.33 0 0 1 .2-.406c.257-.121.507-.257.806-.411.1.731.2 1.405.285 2.078.268 2.017.542 4.032.792 6.053a12.3 12.3 0 0 1 .114 1.769 1.8 1.8 0 0 1-1.369 1.778c-.332.092-.366.083-.567-.2-.131-.186-.253-.374-.4-.6.176-.075.323-.136.469-.2a1.226 1.226 0 0 0 .842-1.355v-.046a1.888 1.888 0 0 0-.739-1.56c-1.675-1.4-3.3-2.87-4.942-4.316-.1-.086-.193-.181-.323-.306" transform="translate(-199.698 -195.962)"/>
            <path id="Path_8841" data-name="Path 8841" class="cls-1" d="M233.38 274.4c.415.22.759.4 1.121.6-.3 2.045-.6 4.061-.9 6.117l4.59-4.155.991.521a1.612 1.612 0 0 1-.2.263q-3.24 2.867-6.494 5.721a4.907 4.907 0 0 1-1.138.741 1.74 1.74 0 0 1-1.945-.338.368.368 0 0 1-.135-.477c.1-.234.191-.472.3-.745.179.121.324.225.476.315a1.237 1.237 0 0 0 1.592-.114 2.012 2.012 0 0 0 .868-1.5c.2-2.036.5-4.065.754-6.1.033-.254.074-.507.122-.848" transform="translate(-208.078 -195.818)"/>
            <path id="Path_8842" data-name="Path 8842" class="cls-1" d="M263.092 227.234c.216-.187.434-.371.689-.589.083.065.242.181.4.3.586.458 1.169.918 1.757 1.375.14.108.268.21.149.418.074-.042.149-.086.267-.151.907.846 1.825 1.7 2.787 2.6l-.751.832a37.411 37.411 0 0 0-3.746-3.211c-1.254 1.6-2.509 3.207-3.821 4.887-.159-.488-.306-.884-.409-1.287a.529.529 0 0 1 .126-.36c.225-.318.47-.623.743-.977a34.116 34.116 0 0 1-.317-.075 1.831 1.831 0 0 1-1.022-2.805 1.406 1.406 0 0 1 1.565-.562c.816.191.9.312.841 1.133-.008.088-.029.172-.052.292a3.7 3.7 0 0 0-.484-.181 5.847 5.847 0 0 0-.979-.161.856.856 0 0 0-.492.188.376.376 0 0 0 0 .651 1.464 1.464 0 0 0 .931.313h.957c.45-.577.933-1.2 1.439-1.845-.184-.153-.337-.273-.486-.4-.122-.1-.237-.2-.1-.375z" transform="translate(-199.829 -208.784)"/>
            <path id="Path_8843" data-name="Path 8843" class="cls-1" d="m240.214 223.717.3.584.057-.02-.136-.642a15.552 15.552 0 0 1 3.008-.847c.088.318.178.647.277 1-.334.109-.617.206-.955.32l1.685 5.914a5.344 5.344 0 0 1-1.311-.387c-.081-.029-.134-.188-.17-.3-.109-.328-.2-.661-.314-1.039-.154.113-.267.2-.388.287a1.835 1.835 0 0 1-2.755-1.083 1.682 1.682 0 0 1 1.216-1.887.351.351 0 0 1 .248.056c.225.174.439.362.678.565-.249.167-.47.3-.67.454a1.526 1.526 0 0 0-.606.776.539.539 0 0 0 .121.589c.172.156.367.1.554.011a1.966 1.966 0 0 0 .849-.8c.093-.15.195-.294.327-.5q-.313-1.081-.678-2.351c-1.157.416-2.224.914-3.385 1.344l-.434-1.05 2.483-1" transform="translate(-205.769 -209.83)"/>
            <path id="Path_8844" data-name="Path 8844" class="cls-1" d="M262.945 234.839c-.312-.037-.479-.161-.493-.462a8.9 8.9 0 0 1 .161-2.584 2.145 2.145 0 0 1 1.006-1.352 1.194 1.194 0 0 1 1.924.991c.006.1.014.207.022.309.985-.032 1.236.216 1.167 1.177l.431-.153c.122.141.251.271.357.413.318.426 1.1.172 1.28-.295a.489.489 0 0 0-.118-.507c-.221-.268-.435-.543-.678-.847l.858-.712c.7.778 1.307 1.6 2.005 2.436l-.868.713c-.193-.214-.364-.4-.561-.617-.086.1-.164.188-.233.28a2.185 2.185 0 0 1-1.278.811 1.552 1.552 0 0 1-1.039-.186.538.538 0 0 0 .017.749 2.035 2.035 0 0 0 1 .688c.184.065.381.1.645.164a10.343 10.343 0 0 1-1.065.857c-.061.043-.209.01-.3-.031A1.828 1.828 0 0 1 266 234.27c.118-.371.312-.72.47-1.086-.323-.53-.684-.581-1.116-.139-.253.261-.5.529-.791.839l-.413-.93c.2-.223.406-.446.61-.666.156-.169.336-.326.188-.591a.74.74 0 0 0-.777-.353 1.134 1.134 0 0 0-.731.641 5.141 5.141 0 0 0-.4 1.722c-.038.373-.064.748-.1 1.132" transform="translate(-199.063 -207.817)"/>
            <path id="Path_8845" data-name="Path 8845" class="cls-1" d="m268.8 271.649.828-.9c1.862.8 3.719 1.61 5.624 2.432a6.258 6.258 0 0 0-.526-1.1c-.175-.37-.369-.732-.556-1.1l-.557-1.1c-.186-.369-.374-.729-.559-1.094s-.366-.729-.561-1.113l.814-.877c.149.285.27.507.384.737l2.875 5.84c.2.409.2.412-.105.737-.539.568-.366.526-1.058.244q-3.1-1.257-6.192-2.527c-.121-.05-.24-.108-.409-.187" transform="translate(-197.333 -197.879)"/>
            <path id="Path_8846" data-name="Path 8846" class="cls-1" d="M218.042 236.717c.175.4.309.755.486 1.086a.744.744 0 0 0 .352.256c.387.173.781.326 1.227.509l-.39.985-5.123-2.073c.137-.338.257-.628.4-.977.745.294 1.467.579 2.186.865l.078-.079c-.066-.145-.127-.291-.195-.435-.352-.741-.7-1.484-1.062-2.219a.649.649 0 0 1-.02-.607c.139-.3.257-.608.413-.984.109.226.189.383.262.544.261.581.518 1.165.778 1.746.178.393.191.4.624.312.983-.191 1.966-.388 2.947-.58.159-.029.319-.046.552-.079-.168.421-.294.777-.458 1.114a.5.5 0 0 1-.334.177c-.792.13-1.588.243-2.384.361-.089.013-.174.039-.338.078" transform="translate(-212.052 -207.046)"/>
            <path id="Path_8847" data-name="Path 8847" class="cls-1" d="M235.586 221.05c.319-.085.634-.174.952-.249a.3.3 0 0 1 .206.061.638.638 0 0 0 .648.061c.65-.216.8-.534.57-1.183-.055-.155-.121-.305-.209-.516-.086.128-.146.2-.192.287a1.447 1.447 0 0 1-2.216.472 2.463 2.463 0 0 1-.949-2.379 1.5 1.5 0 0 1 2.041-1.219c.083.028.167.052.295.094l-.085-.487.8-.3a1.789 1.789 0 0 1 .137.242c.406 1.046.82 2.092 1.2 3.147a5.223 5.223 0 0 1 .245 1.1.973.973 0 0 1-.38.884 3.156 3.156 0 0 1-2.088.776.966.966 0 0 1-.977-.79m-.212-3.206a2.091 2.091 0 0 0 .426 1.165.84.84 0 0 0 .954.345.9.9 0 0 0 .628-.9 1.862 1.862 0 0 0-.5-1.235.866.866 0 0 0-1.509.626" transform="translate(-206.683 -211.759)"/>
            <path id="Path_8848" data-name="Path 8848" class="cls-1" d="m221.9 226.829.711-.676 2.279 1.2c.023-.02.047-.043.07-.066-.39-.758-.889-1.456-1.312-2.234l.669-.7 2.317 1.307a5.148 5.148 0 0 0-.612-1.222c-.2-.388-.427-.764-.655-1.165.215-.228.411-.432.607-.638a24.306 24.306 0 0 1 2.023 3.645l-.7.643c-.7-.383-1.43-.787-2.167-1.19l-.078.081c.394.725.858 1.411 1.284 2.164l-.678.72c-1.232-.614-2.452-1.218-3.755-1.865" transform="translate(-210.068 -209.874)"/>
            <path id="Path_8849" data-name="Path 8849" class="cls-1" d="M232.821 216.222c.9 1.621 1.773 3.2 2.67 4.819-.264.154-.506.3-.767.45-.109-.139-.2-.252-.314-.393a1.848 1.848 0 0 0-.114.212 1.532 1.532 0 0 1-2.537.671 2.872 2.872 0 0 1-.991-1.8 1.556 1.556 0 0 1 1.809-1.773c.071.009.144 0 .294 0l-.926-1.7c.294-.164.554-.309.875-.486m-.074 2.753a.888.888 0 0 0-.975.93 2.035 2.035 0 0 0 .657 1.307.858.858 0 0 0 1.041.168.88.88 0 0 0 .413-.973 2.1 2.1 0 0 0-.628-1.134 2.247 2.247 0 0 0-.509-.3" transform="translate(-207.665 -211.614)"/>
            <path id="Path_8850" data-name="Path 8850" class="cls-1" d="m267.561 224.011-.393.355c-.224-.175-.436-.342-.7-.546 1.118-1.461 2.243-2.881 3.384-4.342.15.107.285.2.412.3s.228.192.373.314c-.384.506-.751.993-1.162 1.533.178.022.276.037.375.043a1.55 1.55 0 0 1 1.441 1.942 2.72 2.72 0 0 1-1.437 1.793 1.5 1.5 0 0 1-2.239-1.129c-.006-.058-.025-.116-.055-.258m.558-.235a.814.814 0 0 0 1.266.734 2.09 2.09 0 0 0 .937-1.24.766.766 0 0 0-.243-.824.807.807 0 0 0-.838-.2 1.9 1.9 0 0 0-1.123 1.526" transform="translate(-197.966 -210.73)"/>
            <path id="Path_8851" data-name="Path 8851" class="cls-1" d="M285.369 255.349c-.065.384-.123.734-.189 1.143l-7.18-1.267.187-1.011.988.114c-.276-.336-.528-.594-.722-.888a1.228 1.228 0 0 1-.114-1.053 2.156 2.156 0 0 1 .57-.979c.315.183.634.369.968.561-.079.145-.14.248-.195.355a1.279 1.279 0 0 0 .612 1.9 6.3 6.3 0 0 0 1.38.44c1.085.217 2.179.389 3.268.58.12.022.235.058.431.106" transform="translate(-194.835 -202.059)"/>
            <path id="Path_8852" data-name="Path 8852" class="cls-1" d="M230.825 240.184v.71c-.244.086-.507.193-.779.271a.8.8 0 0 0-.605.542 1.623 1.623 0 0 1-.35.525.574.574 0 0 1-.665.164.7.7 0 0 1-.487-.551 1.066 1.066 0 0 1 .632-1.153.547.547 0 0 0 .312-.632c-.038-.327-.266-.47-.546-.305a9.41 9.41 0 0 0-.877.648c-.252.193-.486.415-.753.585a1.732 1.732 0 0 1-.629.244.7.7 0 0 1-.839-.8.477.477 0 0 1 .023-.135l1.142-3.035a4.2 4.2 0 0 1 1.057.341c-.308.825-.6 1.625-.9 2.425l.083.043a3.445 3.445 0 0 1 .3-.319 7.621 7.621 0 0 1 1.007-.769.978.978 0 0 1 1.438.412 6.762 6.762 0 0 1 .381.979c.123-.019.3-.043.468-.072s.352-.067.587-.112" transform="translate(-209.163 -205.902)"/>
            <path id="Path_8853" data-name="Path 8853" class="cls-1" d="M267.141 242.453c.116-.515.207-.912.289-1.308.043-.209.22-.234.37-.294q1.686-.689 3.373-1.367c.408-.165.811-.336 1.252-.516-.088-.276-.168-.53-.261-.83l1.026-.416c.4.974.776 1.907 1.18 2.9-.347.146-.673.284-1.041.436l-.415-.933-2.844 1.146c-.938.38-1.881.758-2.93 1.181" transform="translate(-197.783 -205.776)"/>
            <path id="Path_8854" data-name="Path 8854" class="cls-1" d="M274.551 232.145c.072-.147.13-.267.2-.4-.132-.061-.239-.112-.348-.159a1.673 1.673 0 0 1-.9-.973 1.1 1.1 0 0 1 .341-1.308 1.067 1.067 0 0 1 1.382-.018 8.449 8.449 0 0 1 .67.612c.178.164.353.332.535.495a.687.687 0 0 0 .147.078c.376-.229.446-.354.375-.64a.984.984 0 0 0-1-.743c-.055-.12-.122-.252-.178-.39-.051-.121-.089-.247-.14-.4a1.267 1.267 0 0 1 1.3.223 3.129 3.129 0 0 1 .89 1.353.965.965 0 0 1-.36 1.207c-.383.273-.778.525-1.172.782a4.115 4.115 0 0 0-1.244 1.055l-.5-.774m1.429-1.333a9.953 9.953 0 0 0-.872-.773.472.472 0 0 0-.757.384.853.853 0 0 0 .181.535c.36.446.9.394 1.448-.146" transform="translate(-196.081 -208.357)"/>
            <path id="Path_8855" data-name="Path 8855" class="cls-1" d="M222.231 227.14a2.1 2.1 0 0 1 .071 4.2 2.248 2.248 0 0 1-2.162-2.107 2.139 2.139 0 0 1 2.09-2.093m-.2.957a.947.947 0 0 0-.928 1.27 1.665 1.665 0 0 0 1.4 1 .952.952 0 0 0 .9-1.3 1.682 1.682 0 0 0-1.373-.971" transform="translate(-210.546 -208.649)"/>
            <path id="Path_8856" data-name="Path 8856" class="cls-1" d="m230.8 221.956.853-.388a1.473 1.473 0 0 1-.226 1.418 2.175 2.175 0 0 1-1.221.825 1.619 1.619 0 0 1-1.5-.334 2.7 2.7 0 0 1-.987-1.592 1.647 1.647 0 0 1 .661-1.725 1.71 1.71 0 0 1 1.879-.243 2.633 2.633 0 0 1 1.071 1.038c-.693.548-1.444 1-2.125 1.53a.893.893 0 0 0 1.088.473c.389-.132.526-.39.5-1m-.637-.891c-.42-.549-.9-.647-1.283-.32a.8.8 0 0 0 .014 1.211l1.269-.89" transform="translate(-208.499 -210.66)"/>
            <path id="Path_8857" data-name="Path 8857" class="cls-1" d="M239.276 217.421c.178.565.47.825.868.829s.626-.186.826-.773l.945-.079a1.54 1.54 0 0 1-.678 1.236 2.3 2.3 0 0 1-1.331.39 1.483 1.483 0 0 1-1.171-.518 2.555 2.555 0 0 1-.6-2.328 1.637 1.637 0 0 1 1.389-1.277 1.664 1.664 0 0 1 1.831.708 2.266 2.266 0 0 1 .427 1.118l-2.511.693m1.4-1.011c-.226-.683-.661-.931-1.147-.716a.775.775 0 0 0-.345 1.121c.484-.13.975-.264 1.492-.406" transform="translate(-205.678 -211.984)"/>
            <path id="Path_8858" data-name="Path 8858" class="cls-1" d="M278.967 236.995c-.379-.8-.739-1.568-1.1-2.326a.806.806 0 0 0-.685.847c.014.458.223.652.9.814l.24.858a1.344 1.344 0 0 1-1.284-.375 2.113 2.113 0 0 1-.673-1.452 1.921 1.921 0 0 1 .187-.871 2.621 2.621 0 0 1 2.614-1.162 1.839 1.839 0 0 1 .862 2.992 2.546 2.546 0 0 1-1.066.675m.1-1.191c.573-.219.791-.666.584-1.118s-.682-.571-1.242-.294l.659 1.411" transform="translate(-195.278 -206.983)"/>
            <path id="Path_8859" data-name="Path 8859" class="cls-1" d="m272.9 227.034-1.806-1.856a.849.849 0 0 0-.374 1.04c.156.4.42.518 1.13.472.1.145.216.3.324.465.059.086.1.181.165.291a1.379 1.379 0 0 1-1.478-.048 3.209 3.209 0 0 1-.755-.711 1.557 1.557 0 0 1-.13-1.8 2.727 2.727 0 0 1 1.344-1.249 1.818 1.818 0 0 1 2.293 2.525 2.913 2.913 0 0 1-.715.866m-.29-1.151c.488-.476.52-.955.134-1.3a.8.8 0 0 0-1.211.179c.351.365.7.735 1.077 1.125" transform="translate(-197.074 -209.641)"/>
            <path id="Path_8860" data-name="Path 8860" class="cls-1" d="m260.793 218.373-2.446-.781a.84.84 0 0 0 .149 1.087c.352.3.66.278 1.205-.123l.815.427a1.391 1.391 0 0 1-1.368.668 3.183 3.183 0 0 1-1.035-.3 1.546 1.546 0 0 1-.894-1.517 2.76 2.76 0 0 1 .587-1.69 1.724 1.724 0 0 1 1.959-.579 1.669 1.669 0 0 1 1.254 1.648 2.478 2.478 0 0 1-.226 1.163m-.781-.876a.824.824 0 0 0-.142-1.015.713.713 0 0 0-.837-.163.7.7 0 0 0-.486.7l1.465.473" transform="translate(-200.478 -211.82)"/>
            <path id="Path_8861" data-name="Path 8861" class="cls-1" d="M222.328 232.83c-.488-.281-.946-.545-1.406-.8-.276-.158-.549-.323-.837-.46-.422-.2-.712-.145-.933.154a.82.82 0 0 0 .067 1.083 2.763 2.763 0 0 0 .545.406c.455.277.917.535 1.376.8.114.07.225.145.364.235-.16.284-.309.544-.484.857a1348.11 1348.11 0 0 1-3.438-1.984c.154-.278.289-.525.429-.781.169.064.305.116.482.181a18.486 18.486 0 0 1-.051-.482 1.572 1.572 0 0 1 .175-.924 1.17 1.17 0 0 1 1.718-.566c.833.434 1.638.919 2.5 1.408-.175.306-.332.575-.506.875" transform="translate(-211.241 -207.773)"/>
            <path id="Path_8862" data-name="Path 8862" class="cls-1" d="M281.221 239.771c-.148-.257-.292-.5-.446-.771a1.013 1.013 0 0 0 .01-1.3c-.085-.144-.2-.284-.4-.216a.329.329 0 0 0-.2.371c.008.242.028.484.039.725a8.8 8.8 0 0 1 .034 1 1.062 1.062 0 0 1-1.467.952 1.372 1.372 0 0 1-.711-.543 2.757 2.757 0 0 1-.514-1.8 1.384 1.384 0 0 1 .648-1.094l.459.846a1 1 0 0 0-.174 1.344.886.886 0 0 0 .2.245.339.339 0 0 0 .593-.231 3.047 3.047 0 0 0-.022-.454c-.02-.393-.055-.787-.053-1.18a1.009 1.009 0 0 1 .69-1.02 1.069 1.069 0 0 1 1.24.315 2.773 2.773 0 0 1 .654 1.849 1.1 1.1 0 0 1-.573.965" transform="translate(-194.957 -206.091)"/>
            <path id="Path_8863" data-name="Path 8863" class="cls-1" d="m228.9 280.158-.993-.647 3.966-6.112c.341.221.651.42 1 .643l-3.97 6.116" transform="translate(-208.438 -196.088)"/>
            <path id="Path_8864" data-name="Path 8864" class="cls-1" d="M279.239 269.82c-.23.331-.436.624-.679.97l-5.966-4.177c.225-.329.434-.633.67-.98l5.975 4.187" transform="translate(-196.303 -198.197)"/>
            <path id="Path_8865" data-name="Path 8865" class="cls-1" d="m255.822 285.136-1.165.209-1.389-7.141c.394-.074.755-.144 1.165-.224.464 2.4.921 4.739 1.389 7.156" transform="translate(-201.55 -194.844)"/>
            <path id="Path_8866" data-name="Path 8866" class="cls-1" d="m264.551 216.269.932.514-2.221 4.018c.81.455 1.594.9 2.425 1.367l-.408.767c-1.133-.627-2.229-1.235-3.382-1.872.886-1.6 1.757-3.17 2.655-4.794" transform="translate(-199.208 -211.601)"/>
            <path id="Path_8867" data-name="Path 8867" class="cls-1" d="m276.61 234.223-.6.45a5.665 5.665 0 0 1-.49-.6.886.886 0 0 1 .314-1.391c.474-.3.966-.572 1.45-.858.156-.092.31-.187.487-.294l-.144-.462c.189-.114.382-.226.594-.352.112.123.21.23.311.343a.564.564 0 0 0 .179-.064.745.745 0 0 1 1.059.019c.116.089.247.159.432.28l-1.152.69.3.636-.618.384-.436-.6c-.613.36-1.214.706-1.808 1.066a.3.3 0 0 0-.083.472c.058.085.121.168.2.281" transform="translate(-195.564 -207.679)"/>
            <path id="Path_8868" data-name="Path 8868" class="cls-1" d="m225.05 221.282.779-.638c1.185 1.411 2.343 2.794 3.536 4.214l-.758.665-3.558-4.241" transform="translate(-209.213 -210.413)"/>
            <path id="Path_8869" data-name="Path 8869" class="cls-1" d="M256.76 227.472c.23-.449.423-.838.628-1.223.086-.163.242-.167.4-.131a1.571 1.571 0 0 1 1.08.838 2.489 2.489 0 0 1-.858 3.176.724.724 0 0 1-.926-.052.5.5 0 0 1 .13-.9 3.172 3.172 0 0 0 .641-.338 1.394 1.394 0 0 0 .4-.479.567.567 0 0 0-.356-.834 3.59 3.59 0 0 0-.759-.1 2.2 2.2 0 0 0-.38.042" transform="translate(-200.602 -208.932)"/>
            <path id="Path_8870" data-name="Path 8870" class="cls-1" d="m272.356 229.066-.629-.776 3.09-2.5c.2.239.37.448.559.678l-.3.379c.373.055.739.024.983.327a.9.9 0 0 1 .245.654l-.765.289c-.06-.114-.1-.21-.153-.3a.617.617 0 0 0-.914-.306 4.97 4.97 0 0 0-.8.519c-.436.326-.854.673-1.316 1.039" transform="translate(-196.538 -209.016)"/>
            <path id="Path_8871" data-name="Path 8871" class="cls-1" d="m223.457 240.854 1.486-3.872 1.066.407c-.5 1.3-.985 2.57-1.484 3.871l-1.068-.406" transform="translate(-209.645 -205.977)"/>
            <path id="Path_8872" data-name="Path 8872" class="cls-1" d="m267.228 219.3.854.531-2.1 3.371-.858-.529c.711-1.139 1.4-2.239 2.107-3.373" transform="translate(-198.332 -210.78)"/>
            <path id="Path_8873" data-name="Path 8873" class="cls-1" d="M266.362 239.855a1.717 1.717 0 0 1 .932.968.891.891 0 0 1 .017.792 4.077 4.077 0 0 1-.439.74c-.357.453-.744.881-1.124 1.315-.189.214-.2.207-.579.072.06-.1.109-.206.174-.3.342-.484.694-.96 1.027-1.45.228-.336.212-.425-.071-.708-.2-.2-.421-.392-.669-.622.12-.137.231-.272.351-.4l.38-.407" transform="translate(-198.319 -205.197)"/>
            <path id="Path_8874" data-name="Path 8874" class="cls-1" d="M260.75 226.624c-.82-.417-1.6-.816-2.4-1.226.175-.345.329-.655.512-1.017.807.411 1.587.8 2.407 1.221-.177.354-.337.67-.515 1.022" transform="translate(-200.172 -209.398)"/>
            <path id="Path_8875" data-name="Path 8875" class="cls-1" d="m262.872 227.586-.011.01c-.111.149-.233.1-.356.02-.68-.425-1.362-.848-2.084-1.3l.6-.97 2.266 1.413-.412.828" transform="translate(-199.608 -209.136)"/>
            <path id="Path_8876" data-name="Path 8876" class="cls-1" d="M271.909 266.127c-.394-.276-.746-.523-1.127-.787l.683-.963c.376.263.73.507 1.114.776-.225.327-.43.622-.67.974" transform="translate(-196.795 -198.538)"/>
            <path id="Path_8877" data-name="Path 8877" class="cls-1" d="m232.384 271.548.956.622a6.458 6.458 0 0 1-.72 1.165c-.323-.21-.633-.409-.983-.634.257-.4.491-.755.746-1.152" transform="translate(-207.424 -196.591)"/>
            <path id="Path_8878" data-name="Path 8878" class="cls-1" d="M267.041 219.05c.172-.277.313-.5.483-.778l.849.52-.481.783c-.29-.178-.54-.334-.852-.525" transform="translate(-197.811 -211.057)"/>
        </g>
    </g>
</svg>
