<svg xmlns="http://www.w3.org/2000/svg" width="146.166" height="50.29">
    <defs>
        <style>
            .cls-1{fill:#ce251a}
        </style>
    </defs>
    <g id="Help-a-Child-2" transform="translate(-322.034 -131.068)">
        <ellipse id="Ellipse_1632" data-name="Ellipse 1632" class="cls-1" cx="2.888" cy="3.31" rx="2.888" ry="3.31" transform="translate(363.566 131.068)"/>
        <path id="Path_18123" data-name="Path 18123" class="cls-1" d="m329.419 144.568-.618 1.5s21.419 6.325-6.766 33.981l1.147 1.324s23.213-29.1 21.3 0h1.692s-2.427-27.861 11.518-35.393c10.591-5.767 7.635 8.987 7.635 8.987l1.411-.617s.924-12.313 6.178-1.941l1.369-1.059s-6.73-10.591 3.183-18.8l-.918-1.279s-3.854 6.47-18.77 13.475a32.947 32.947 0 0 1-9.282 2.766s-10.106 1.911-19.079-2.944z" transform="translate(0 -.015)"/>
        <ellipse id="Ellipse_1633" data-name="Ellipse 1633" class="cls-1" cx="3.707" cy="4.465" rx="3.707" ry="4.465" transform="translate(342.062 137.06)"/>
        <path id="Path_18124" data-name="Path 18124" class="cls-1" d="M361.305 164.977h3.835l-.154 4.5h4.942v-4.5h4.016l-.555 12.18h-3.927l.309-5.053-5.009.067-.177 4.991h-3.84z" transform="translate(-2.929 -2.566)"/>
        <path id="Path_18125" data-name="Path 18125" class="cls-1" d="M386.389 173.086c.092-.256 1.017-5.149-4.457-5.149-6.619.177-5.163 6.65-5.163 6.65 1.017 4.575 8.459 2.794 8.459 2.794l.515-2.647c-6.046 2.218-5.6-1.545-5.6-1.545zm-4.646-2.92a1.423 1.423 0 0 1 1.512 1.313 1.372 1.372 0 0 1-.035.3h-2.865a1.109 1.109 0 0 1-.044-.3 1.347 1.347 0 0 1 1.433-1.313z" transform="translate(-4.131 -2.79)"/>
        <path id="Path_18126" data-name="Path 18126" class="cls-1" d="m389.182 164.977-.53 12.18h3.707l.53-12.18z" transform="translate(-5.041 -2.566)"/>
        <ellipse id="Ellipse_1634" data-name="Ellipse 1634" class="cls-1" cx="2.888" cy="3.31" rx="2.888" ry="3.31" transform="translate(363.032 131.255)"/>
        <path id="Path_18127" data-name="Path 18127" class="cls-1" d="m395.186 168.381-.586 13.269h3.648l.11-5.039s6.157 3.905 7.238-3.31c.004-4.81-2.696-6.136-10.41-4.92zm4.648 6.686c-1.953-.64-1.214-4.325-1.214-4.325s3.2-1.037 3.487 1.7c.242 3.088-2.273 2.625-2.273 2.625z" transform="translate(-5.491 -2.791)"/>
        <path id="Path_18128" data-name="Path 18128" class="cls-1" d="M421.325 164.978h-3.464l-6.356 12.21h3.068l2.01-4.266h4.722l1.479 4.266h2.89zm-3.882 6 1.809-4.015h.31l1.3 4.015z" transform="translate(-6.77 -2.566)"/>
        <path id="Path_18129" data-name="Path 18129" class="cls-1" d="M443.395 164.95v2.266s-7.356-2.766-7.65 4.414c.264 5.855 7.65 3.206 7.65 3.206l-.39 2.229s-9.819 2.251-10.062-5.454 8.385-7.367 10.452-6.661z" transform="translate(-8.392 -2.538)"/>
        <path id="Path_18131" data-name="Path 18131" class="cls-1" d="m449.264 164.883-.242 4.522a4.4 4.4 0 0 1 3.7-1.594c2.516.092 2.958 1.353 3.3 2.045s-.272 7.362-.272 7.362h-2.626l.287-6.167s.043-1.269-2.538-1.158-2.14 7.238-2.14 7.238l-2.582-.022.462-12.224z" transform="translate(-9.391 -2.559)"/>
        <path id="Path_18132" data-name="Path 18132" class="cls-1" d="m459.307 168.257-.383 9.217h2.706l.324-9.217z" transform="translate(-10.358 -2.814)"/>
        <path id="Path_18133" data-name="Path 18133" class="cls-1" d="M459.433 164.66v1.706h2.65v-1.647z" transform="translate(-10.397 -2.542)"/>
        <path id="Path_18134" data-name="Path 18134" class="cls-1" d="m464.742 164.883-.471 12.334h2.614l.5-12.334z" transform="translate(-10.763 -2.559)"/>
        <path id="Path_18135" data-name="Path 18135" class="cls-1" d="m476.748 164.883-.022 3.117s-2.106-.092-3.328 0c-2.251.169-5.927 4.1-3.354 7.959 3.4 3.651 6.466-.243 6.466-.243l-.111 1.5h2.472l.462-12.334zm-.43 9.411s-1.821 2.583-3.975.324c-1.672-2.446-.1-4.758 2.126-4.922.777-.056 2.114 0 2.114 0z" transform="translate(-11.133 -2.559)"/>
    </g>
</svg>
