<svg id="arrow-right" xmlns="http://www.w3.org/2000/svg" width="14.218" height="11.212">
    <defs>
        <style>
            .cls-1{fill:#fff;fill-rule:evenodd}
        </style>
    </defs>
    <path id="Path_47" data-name="Path 47" class="cls-1" d="M6.773.56a.8.8 0 0 0-1.134 0l-4.8 4.8a.8.8 0 0 0 0 1.134l4.8 4.8a.8.8 0 1 0 1.134-1.134L2.534 5.931l4.239-4.237a.8.8 0 0 0 0-1.134z" transform="translate(-.6 -.325)"/>
    <path id="Path_48" data-name="Path 48" class="cls-1" d="M18.616 1.276a.8.8 0 0 0-.8-.8H6a.8.8 0 1 0 0 1.6h11.816a.8.8 0 0 0 .8-.8z" transform="translate(-4.399 4.331)"/>
</svg>
