<svg xmlns="http://www.w3.org/2000/svg" width="15.989" height="22.7">
    <g data-name="Group 17625">
        <path data-name="Path 19464" d="M27.775 7a7.694 7.694 0 0 0-7.486 5.685 8.55 8.55 0 0 0-.258 2.285c.013 2.593 1.415 4.864 3.036 7.107s3.467 4.474 4.466 6.953a.258.258 0 0 0 .485 0c1-2.479 2.844-4.71 4.466-6.953s3.024-4.513 3.036-7.107a8.55 8.55 0 0 0-.258-2.285A7.694 7.694 0 0 0 27.775 7zm0 .517a7.18 7.18 0 0 1 6.985 5.306A8.049 8.049 0 0 1 35 14.97c-.012 2.407-1.333 4.585-2.94 6.808a39.315 39.315 0 0 0-4.288 6.566 39.315 39.315 0 0 0-4.288-6.566c-1.607-2.223-2.928-4.4-2.94-6.808a8.049 8.049 0 0 1 .242-2.148 7.18 7.18 0 0 1 6.989-5.306zm-.024 3.771a3.388 3.388 0 1 0 3.4 3.392 3.382 3.382 0 0 0-3.4-3.393zm0 .517a2.871 2.871 0 1 1-2.867 2.867 2.877 2.877 0 0 1 2.867-2.872z" transform="translate(-19.781 -6.749)" style="fill:#fff;stroke:#fff;stroke-width:.5px"/>
    </g>
</svg>
