<svg xmlns="http://www.w3.org/2000/svg" width="667" height="424">
    <defs>
        <clipPath id="clip-path">
            <path id="Rectangle_7084" data-name="Rectangle 7084" transform="translate(613 1040)" style="fill:#fff" d="M0 0h667v424H0z"/>
        </clipPath>
        <clipPath id="clip-path-2">
            <path id="Rectangle_19" data-name="Rectangle 19" class="cls-2" d="M0 0h843v406.085H0z"/>
        </clipPath>
        <style>
            .cls-2{fill:rgba(13,53,146,.11)}
        </style>
    </defs>
    <g id="Mask_Group_385" data-name="Mask Group 385" transform="translate(-613 -1040)" style="clip-path:url(#clip-path)">
        <g id="Mask_Group_4" data-name="Mask Group 4" transform="translate(668 1057.916)" style="clip-path:url(#clip-path-2)">
            <g id="Group_37" data-name="Group 37" transform="translate(-265.798 -880.461)" style="isolation:isolate">
                <g id="Group_4" data-name="Group 4">
                    <path id="Path_18" data-name="Path 18" class="cls-2" d="M977.477 917.55q-8.4 0-16.858-.615c-81.612-5.946-163.511-51.756-224.694-125.683-50.435-60.932-87.248-138.874-112.545-238.276-6.828-26.839-12.8-54.784-18.57-81.809-20.472-95.835-41.64-194.93-105.578-268.547-17.368-20-37.859-37.9-57.673-55.211-30.324-26.494-61.677-53.888-82.338-89.28-23.769-40.72-31.044-91.04-20.482-141.69 10.208-48.963 35.65-93.317 71.636-124.889 67.132-58.9 169.426-80.88 273.64-58.795 12.039 2.55 24.323 5.672 36.2 8.69 39.418 10.018 80.178 20.378 119.174 11.78 34.977-7.708 64.527-29.879 93.1-51.317 13.6-10.2 27.661-20.752 42.223-29.714 46.619-28.689 102.747-42.741 162.449-40.616a345.346 345.346 0 0 1 164.539 48.748c94.547 56.551 166.767 157.657 198.146 277.395 9.32 35.562 15.079 72.406 20.649 108.037 5.5 35.168 11.181 71.534 20.28 106.553 15.286 58.829 47.948 137.21 116.745 176.539 8.224 4.7 17.054 8.878 25.595 12.917 18.969 8.97 38.583 18.244 53.209 34C1759.1 420.293 1767 460 1756.468 496.922c-8.334 29.207-27.054 57.463-57.232 86.381-38.526 36.918-86.08 66.333-137.529 85.07a401.077 401.077 0 0 1-160.726 23.558c-11.81-.731-23.789-2-35.374-3.23-20.909-2.217-42.535-4.51-63.709-3.671-37.843 1.5-68.96 14.065-87.625 35.378-13.118 14.979-20.528 34.375-27.692 53.134-3.34 8.741-6.793 17.781-10.8 26.336-33.181 70.915-113.129 117.67-198.304 117.672zM604.924-271.582c-74.2 0-142.635 23.027-191.837 66.194-75.258 66.029-97.362 180.878-50.318 261.464 20.323 34.814 51.422 61.986 81.5 88.263 19.921 17.405 40.516 35.4 58.071 55.611 64.628 74.409 85.91 174.027 106.489 270.367 5.763 26.988 11.726 54.895 18.535 81.656C652.5 650.779 689.049 728.2 739.09 788.657 799.566 861.725 880.418 907 960.921 912.864q8.306.6 16.576.6c83.615 0 162.045-45.814 194.57-115.315 3.941-8.421 7.365-17.389 10.678-26.063 7.293-19.094 14.834-38.837 28.434-54.366 19.414-22.169 51.573-35.231 90.555-36.775 21.488-.854 43.255 1.456 64.307 3.69 11.54 1.223 23.473 2.491 35.2 3.216 107.6 6.657 217.957-33.52 295.152-107.494 29.641-28.4 48-56.06 56.13-84.553 10.153-35.582 2.614-73.764-19.21-97.27-14.088-15.175-33.34-24.278-51.955-33.081-8.612-4.074-17.514-8.284-25.88-13.066-70.031-40.038-103.186-119.47-118.669-179.057-9.152-35.215-14.853-71.681-20.366-106.949-5.554-35.529-11.3-72.269-20.562-107.633-31.11-118.712-102.655-218.921-196.287-274.926-101.916-60.953-231.6-64.228-322.719-8.157-14.4 8.864-28.389 19.355-41.913 29.5-28.925 21.7-58.836 44.142-94.687 52.044-39.956 8.8-81.194-1.676-121.071-11.81-11.842-3.01-24.083-6.12-36.041-8.654a377.832 377.832 0 0 0-78.239-8.327z" transform="translate(-334.012 368.631)"/>
                </g>
                <g id="Group_5" data-name="Group 5" transform="translate(17.384 5.554)">
                    <path id="Path_19" data-name="Path 19" class="cls-2" d="M959.544 887.539q-9.063 0-18.066-.711c-79.864-6.342-159.657-51.082-218.922-122.743-49.218-59.519-84.888-135.617-109.047-232.638-6.432-25.661-12.112-52.3-17.6-78.066-19.9-93.307-40.464-189.793-101.167-262.6-16.213-19.445-34.925-36.979-53.02-53.937-27.993-26.234-56.94-53.363-76.079-87.406-45.089-80.216-22.446-193.373 51.549-257.611 65.491-56.855 165.2-78.319 266.728-57.423 11.776 2.379 23.788 5.321 35.4 8.168 38.38 9.4 78.063 19.122 115.951 10.132 33.988-8.064 63.308-29.487 91.665-50.2 14.2-10.379 28.9-21.113 44.049-30.093 46.221-27.392 101.469-40.54 159.739-38.014a339.074 339.074 0 0 1 160.935 48.914c92.33 56.1 162.823 155.771 193.4 273.472 8.867 34.5 14.457 70.213 19.863 104.756 5.7 36.432 11.595 74.1 21.334 110.224 15.315 56.8 47.782 133.118 115.5 174.089 6.879 4.163 14 8.057 20.881 11.823 20.355 11.137 39.586 21.656 53.658 38.843 20.423 24.944 25.653 62.672 13.647 98.465-9.365 27.931-27.965 54.233-58.531 82.771-73.266 68.4-172.339 106.816-274.13 106.818q-8.73 0-17.469-.378c-14.939-.645-30.19-2.164-44.937-3.633-19.02-1.895-38.686-3.853-57.72-3.931-27.593-.1-65.261 4.7-88.066 28.315-13.052 13.517-20.278 31.486-27.269 48.863-3.149 7.833-6.407 15.933-10.176 23.6-17.715 36.058-47.741 65.566-86.827 85.337a235.455 235.455 0 0 1-105.273 24.794zM608.042-269.468c-72.772 0-139.962 22.383-188.23 64.289-72.629 63.052-94.894 174.044-50.69 252.679 18.837 33.51 46.279 59.227 75.332 86.454 18.183 17.04 36.983 34.659 53.352 54.29 61.333 73.56 82.006 170.532 102 264.308 5.486 25.73 11.159 52.336 17.574 77.931 24.015 96.439 59.425 172.022 108.255 231.076C784.215 832.4 863 876.614 941.794 882.871c87.044 6.908 171.853-37.175 206.261-107.206 3.7-7.537 6.932-15.568 10.057-23.333 7.131-17.73 14.5-36.062 28.1-50.137 23.78-24.628 62.574-29.685 90.955-29.536 19.225.08 38.99 2.048 58.1 3.951 14.693 1.464 29.887 2.975 44.713 3.618 106.85 4.619 212.024-33.785 288.7-105.371 30.065-28.07 48.328-53.851 57.478-81.135 11.575-34.512 6.61-70.8-12.955-94.7-13.583-16.588-32.482-26.927-52.491-37.873-6.92-3.786-14.073-7.7-21.03-11.908-68.844-41.655-101.771-118.947-117.274-176.451-9.792-36.33-15.707-74.109-21.424-110.643-5.397-34.447-10.971-70.071-19.784-104.377-30.32-116.707-100.162-215.511-191.614-271.071-100.464-61.034-224.719-65.306-316.56-10.879l-1.02-1.7 1.02 1.7c-14.988 8.884-29.6 19.559-43.728 29.883-28.676 20.95-58.327 42.615-93.1 50.864-38.836 9.217-78.994-.623-117.83-10.138-11.577-2.836-23.547-5.768-35.252-8.133a372.781 372.781 0 0 0-75.074-7.764z" transform="translate(-342.485 365.911)"/>
                </g>
                <g id="Group_6" data-name="Group 6" transform="translate(34.502 10.896)">
                    <path id="Path_20" data-name="Path 20" class="cls-2" d="M943.033 857.71q-10.217 0-20.559-.886c-78.118-6.734-155.808-50.4-213.15-119.8-48-58.108-82.527-132.362-105.551-227-6.021-24.419-11.4-49.7-16.6-74.14-19.334-90.855-39.324-184.8-96.787-256.831-14.984-18.783-31.832-35.84-48.123-52.332-26.937-27.272-52.38-53.028-70.06-85.864-20.859-38.729-26.694-85.783-16.43-132.49 10.034-45.663 34.314-86.912 68.369-116.15 63.479-54.5 160.607-75.452 259.809-56.052 11.189 2.187 22.585 4.88 33.606 7.483 37.67 8.9 76.625 18.1 113.735 8.648 32.943-8.39 61.954-29.036 90-49 14.884-10.591 30.276-21.546 46.092-30.557 92.321-52.6 215.717-47.237 314.361 13.666 90.49 55.864 159.255 154.112 188.66 269.549 8.579 33.685 14.02 68.583 19.28 102.33 5.833 37.414 11.862 76.1 22.186 113.038 21.646 77.456 62.219 138.413 114.242 171.636 4.6 2.936 9.18 5.768 13.7 8.564 21.96 13.57 42.7 26.388 56.565 45.861 17.746 24.921 20.487 61.617 7.154 95.761-10.375 26.565-28.826 50.978-59.827 79.16a418.536 418.536 0 0 1-132.1 81.272c-50.847 19.216-102.3 26.945-152.948 22.98-11.37-.892-23.065-1.917-34.375-2.91-23.748-2.083-48.305-4.239-71.744-5.315-41.414-1.891-71.2 5.25-88.518 21.26-12.992 12.01-19.719 27.8-26.844 44.514-2.96 6.949-6.025 14.136-9.556 20.944-32.679 62.989-105.198 102.657-184.587 102.661zM611.716-267.077c-71.72 0-137.851 21.7-185.047 62.213-69.943 60.05-92.372 167.183-51.058 243.9 17.417 32.348 42.672 57.915 69.409 84.98 16.361 16.566 33.282 33.7 48.394 52.638 58.03 72.739 78.116 167.138 97.544 258.43 5.195 24.415 10.567 49.659 16.574 74.025 22.885 94.069 57.158 167.82 104.78 225.469C769 803.183 845.723 846.341 922.807 852.985c85.707 7.388 166.6-32.683 201.375-99.7 3.465-6.677 6.5-13.8 9.433-20.68 6.969-16.354 14.174-33.263 27.774-45.833 18.111-16.74 48.82-24.239 91.333-22.285 23.519 1.08 48.115 3.238 71.9 5.325 11.3.992 22.989 2.017 34.341 2.906 98.6 7.718 201.453-29.91 282.133-103.253 30.539-27.762 48.681-51.73 58.83-77.711 12.867-32.954 10.3-68.261-6.7-92.139-13.411-18.839-33.83-31.456-55.449-44.814-4.54-2.808-9.142-5.65-13.753-8.6-52.825-33.736-93.979-95.477-115.883-173.846-10.381-37.154-16.431-75.957-22.28-113.481-5.248-33.659-10.672-68.463-19.208-101.973-29.162-114.481-97.3-211.88-186.942-267.224-97.456-60.171-219.293-65.508-310.4-13.6-15.647 8.917-30.958 19.813-45.764 30.351-28.342 20.172-57.652 41.03-91.3 49.6-38.044 9.689-77.466.374-115.594-8.631-10.982-2.6-22.341-5.278-33.454-7.451a373.006 373.006 0 0 0-71.483-7.023z" transform="translate(-350.829 363.294)"/>
                </g>
                <g id="Group_7" data-name="Group 7" transform="translate(51.776 16.472)">
                    <path id="Path_21" data-name="Path 21" class="cls-2" d="M925.456 827.733q-10.965 0-22.068-1.029c-76.366-7.128-151.953-49.718-207.375-116.856-46.457-56.3-79.842-128.707-102.058-221.363-5.4-22.545-10.323-45.792-15.079-68.275-18.858-89.11-38.355-181.256-92.928-253.01-13.634-17.926-28.492-34.314-42.861-50.163C418.358 89.762 395 64 378.675 32.154 359.319-5.6 354.219-51.021 364.314-95.735c9.938-44.017 33.625-83.714 66.7-111.776 61.64-52.3 156.177-72.735 252.895-54.682 10.748 2.007 21.687 4.482 32.265 6.877 36.817 8.331 74.887 16.948 111.062 7.083 31.848-8.684 60.449-28.521 88.109-47.707 15.639-10.846 31.809-22.063 48.371-31.119l.9 1.64-.9-1.64c91.5-50.045 212.42-43.593 308.044 16.435C1360.2-255.11 1427.227-158.293 1455.668-45c8.237 32.809 13.517 66.795 18.626 99.661 5.98 38.484 12.161 78.278 23.112 116.1 21.6 74.63 61.731 134.715 112.986 169.184l1.5 1.007c26.986 18.142 50.291 33.81 64.5 57.182 15.336 25.217 15.579 60 .659 93.052-14.32 31.717-40.185 57.036-61.117 75.552-75.013 66.354-165.884 103.131-252.934 103.135q-12.823 0-25.5-1.068c-17.278-1.462-35.213-2.881-52.556-4.253-18.934-1.5-38.514-3.044-57.074-4.637-43.425-3.733-72.55.917-89 14.21-12.927 10.444-19.473 24.838-26.406 40.076-2.771 6.1-5.64 12.4-8.934 18.375-32.3 58.537-102.077 95.153-178.074 95.157zM615.2-264.9c-70.526 0-135.545 21.032-181.746 60.232-68.32 57.966-90.432 159.046-51.43 235.121 16.1 31.406 39.3 56.99 63.854 84.075 14.422 15.908 29.335 32.358 43.068 50.415 55.079 72.422 74.666 164.982 93.607 254.495 4.752 22.459 9.667 45.681 15.058 68.177 22.081 92.092 55.219 164.008 101.3 219.858 54.793 66.372 129.448 108.472 204.826 115.508 82.82 7.725 161.8-29.326 196.494-92.206 3.227-5.85 6.064-12.086 8.807-18.118 6.805-14.963 13.844-30.437 27.456-41.436 17.247-13.934 47.226-18.851 91.7-15.035 18.546 1.593 38.118 3.14 57.045 4.637 17.348 1.372 35.286 2.791 52.575 4.253 93.573 7.921 194.018-28.944 275.626-101.131 20.653-18.269 46.16-43.223 60.188-74.291 14.416-31.929 14.25-65.418-.445-89.584-13.784-22.669-36.774-38.124-63.393-56.02l-1.5-1.009c-51.984-34.957-92.646-95.773-114.494-171.246-11.015-38.047-17.216-77.962-23.213-116.56-5.094-32.783-10.362-66.683-18.556-99.326-28.211-112.372-94.644-208.368-182.269-263.373-94.488-59.313-213.906-65.719-304.235-16.319-16.384 8.96-32.472 20.119-48.028 30.908-27.921 19.366-56.795 39.39-89.262 48.244-37.082 10.112-75.62 1.391-112.89-7.042-10.543-2.387-21.447-4.854-32.125-6.847a371.026 371.026 0 0 0-68.018-6.38z" transform="translate(-359.249 360.564)"/>
                </g>
                <g id="Group_8" data-name="Group 8" transform="translate(69.084 22.007)">
                    <path id="Path_22" data-name="Path 22" class="cls-2" d="M908.5 797.824a242.034 242.034 0 0 1-24.216-1.221c-74.614-7.518-148.094-49.038-201.6-113.914-45.142-54.768-77.382-125.332-98.562-215.725-4.882-20.852-9.4-42.284-13.77-63.009C551.98 316.8 532.981 226.671 481.5 155.368c-12.053-16.69-24.719-32.064-36.967-46.931-22.764-27.627-44.264-53.722-59.4-84.968-36.63-75.634-13.959-174.812 52.735-230.69 59.792-50.1 151.742-70.029 245.981-53.31 10.3 1.828 20.77 4.086 30.9 6.271 35.976 7.759 73.178 15.782 108.42 5.519 30.693-8.94 58.789-27.941 85.961-46.319 16.474-11.141 33.505-22.659 50.894-31.77 90.655-47.5 209.09-39.958 301.734 19.2 86.37 55.154 151.672 150.541 179.161 261.707 7.909 31.974 13.033 65.092 17.988 97.121 6.111 39.513 12.432 80.371 24.019 119.029 21.523 71.816 61.2 131.027 111.729 166.73 28.35 20.031 49.7 38.235 61.724 61.962 12.7 25.06 10.52 58.829-5.834 90.334-15.105 29.1-40.021 52.7-62.4 71.944-75.55 64.977-164.275 100.97-247.083 100.972q-12.479 0-24.746-1.094c-13.872-1.244-28.305-2.279-42.26-3.281-23.617-1.695-48.043-3.449-70.872-6.279-31.179-3.865-69.527-6.544-89.506 7.165-12.849 8.817-19.215 21.805-25.954 35.556-2.583 5.27-5.252 10.72-8.313 15.892-17.686 29.885-45.669 53.849-80.933 69.3a224.315 224.315 0 0 1-89.978 18.396zM618.737-262.71c-69.371 0-133.307 20.378-178.523 58.26-65.462 54.85-87.731 152.156-51.799 226.35 14.943 30.855 36.308 56.787 58.93 84.243 12.285 14.912 24.988 30.328 37.106 47.115 51.932 71.924 71.012 162.429 89.461 249.958 4.366 20.707 8.879 42.118 13.756 62.929 21.049 89.84 53.049 159.922 97.829 214.251 52.9 64.14 125.488 105.183 199.155 112.6 81.12 8.18 156.331-25.079 191.618-84.711 2.987-5.047 5.627-10.434 8.179-15.641 6.649-13.566 13.522-27.592 27.158-36.95 20.87-14.32 58.227-11.968 92.022-7.777 22.737 2.82 47.111 4.57 70.684 6.26 13.973 1 28.42 2.04 42.323 3.287 88.633 7.947 186.725-28.144 269.125-99.012 22.118-19.02 46.726-42.316 61.548-70.866 15.822-30.473 17.994-63.013 5.818-87.04-11.692-23.059-32.673-40.918-60.584-60.638-51.186-36.166-91.355-96.059-113.107-168.647-11.659-38.894-18-79.879-24.13-119.513-4.942-31.952-10.053-64.988-17.922-96.807-27.271-110.273-92-204.866-177.593-259.524-91.562-58.466-208.559-65.941-298.074-19.041-17.206 9.015-34.152 20.476-50.544 31.56-27.4 18.532-55.742 37.7-86.985 46.8-36.13 10.524-73.794 2.4-110.212-5.456-10.094-2.179-20.53-4.429-30.763-6.244a369.58 369.58 0 0 0-64.476-5.746z" transform="translate(-367.686 357.853)"/>
                </g>
                <g id="Group_9" data-name="Group 9" transform="translate(86.375 27.496)">
                    <path id="Path_23" data-name="Path 23" class="cls-2" d="M891.351 767.948a242.612 242.612 0 0 1-26.157-1.421c-72.866-7.91-144.243-48.357-195.829-110.971-43.835-53.241-74.93-121.961-95.066-210.087-4.331-18.945-8.4-38.359-12.342-57.13-17.924-85.437-36.462-173.784-84.9-244.777-9.973-14.618-20.048-28.221-29.788-41.379-21.303-28.767-41.42-55.936-55.669-87.383-16.248-35.862-19.853-78-10.151-118.667 9.724-40.752 32.2-77.347 63.282-103.045 58.8-48.61 145.94-67.54 239.067-51.938 9.837 1.65 19.832 3.692 29.5 5.666 35.143 7.184 71.482 14.616 105.802 3.957 29.472-9.152 56.953-27.284 83.526-44.82 17.4-11.482 35.393-23.353 53.707-32.53 89.761-44.959 205.724-36.338 295.421 21.965 84.285 54.782 147.858 148.741 174.415 257.782 7.591 31.172 12.56 63.456 17.362 94.679 6.234 40.513 12.681 82.409 24.912 121.863 21.4 69 60.627 127.341 110.465 164.271 29.93 22.179 48.184 43.068 57.445 65.739 10.293 25.205 5.8 57.139-12.319 87.61-15.707 26.418-39.888 48.458-63.68 68.34-45.647 38.141-134.878 98.851-240.13 98.857q-12.408 0-25.086-1.164c-13.725-1.282-28.04-2.209-41.888-3.106-24.992-1.615-50.833-3.288-74.742-7.124-35.317-5.666-71.36-10.326-90.04.116-12.75 7.126-18.938 18.7-25.488 30.945-2.394 4.478-4.87 9.109-7.693 13.507-32.207 50.216-94.767 80.243-163.936 80.245zM620.854-260.684c-67.9 0-129.2 19.549-173.868 56.475-62.523 51.687-84.95 145.22-52.171 217.571 14.092 31.1 34.1 58.127 55.287 86.738 9.761 13.183 19.855 26.816 29.866 41.489 48.833 71.569 67.442 160.259 85.438 246.029 3.937 18.759 8.005 38.157 12.33 57.073 20.009 87.583 50.872 155.83 94.352 208.64 51.008 61.911 121.529 101.9 193.485 109.708 77.94 8.46 151.231-21.855 186.749-77.223 2.745-4.282 5.189-8.85 7.55-13.266 6.5-12.158 13.226-24.725 26.873-32.356 19.674-10.994 56.4-6.287 92.329-.521 23.743 3.81 49.5 5.476 74.409 7.089 13.87.9 28.213 1.825 41.987 3.112 114.763 10.71 213.809-56.1 262.623-96.886 23.549-19.682 47.473-41.475 62.912-67.442 17.555-29.522 21.962-60.32 12.086-84.5-9.006-22.053-26.892-42.468-56.282-64.246-50.435-37.371-90.114-96.343-111.727-166.05-12.311-39.7-18.776-81.727-25.029-122.367-4.792-31.149-9.749-63.358-17.307-94.385-26.348-108.182-89.373-201.371-172.916-255.671-88.668-57.633-203.25-66.176-291.911-21.767l-.792-1.566.792 1.566c-18.127 9.078-36.031 20.893-53.344 32.317-26.775 17.671-54.475 35.944-84.421 45.243-35.2 10.932-71.984 3.408-107.566-3.863-9.634-1.968-19.6-4.006-29.372-5.644a377.788 377.788 0 0 0-62.362-5.297z" transform="translate(-376.114 355.165)"/>
                </g>
                <g id="Group_10" data-name="Group 10" transform="translate(103.627 32.933)">
                    <path id="Path_24" data-name="Path 24" class="cls-2" d="M874.87 738.161a247.745 247.745 0 0 1-28.752-1.685c-71.113-8.3-140.385-47.674-190.052-108.029-42.529-51.715-72.481-118.591-91.573-204.447-3.719-16.731-7.285-33.822-10.729-50.351-17.528-84.053-35.652-170.967-81.13-241.872-6.555-10.216-12.974-19.949-19.182-29.359-22.128-33.546-41.24-62.518-55.361-96.255-30.584-73.063-8.071-162.529 53.527-212.73 56.908-46.378 141.525-64.806 232.152-50.566 9.361 1.47 18.866 3.3 28.055 5.064 34.33 6.6 69.824 13.424 103.239 2.383 28.176-9.311 54.913-26.541 80.771-43.2 18.427-11.876 37.484-24.158 56.838-33.4l.737 1.529-.737-1.529c88.823-42.437 202.3-32.734 289.109 24.725 82.189 54.407 144.032 146.936 169.668 253.858 7.291 30.4 12.1 61.89 16.757 92.339 6.341 41.487 12.9 84.386 25.79 124.6 21.215 66.172 59.995 123.637 109.2 161.811 27.917 21.658 45.3 44.4 53.149 69.521 10.652 34.087-7.2 67.81-18.79 84.876-16.816 24.756-41.31 45.557-64.958 64.741-85.543 69.388-177.382 103.31-258.6 95.508-13.788-1.323-28.2-2.16-42.145-2.969-26.153-1.521-53.2-3.091-77.977-7.933l-4.472-.874c-35.354-6.926-68.751-13.468-86.13-6.065-12.621 5.378-18.648 15.529-25.027 26.275-2.2 3.706-4.479 7.541-7.055 11.2-32.569 46.183-90.835 72.832-156.322 72.834zM624.651-258.45c-66.864 0-127.181 18.9-170.872 54.507C393.315-154.67 371.22-66.856 401.236 4.858c14 33.444 33.03 62.294 55.065 95.7 6.214 9.419 12.64 19.159 19.2 29.4 45.815 71.43 64 158.656 81.594 243.007 3.442 16.519 7.006 33.6 10.721 50.306C586.794 508.59 616.52 575 658.7 626.3c49.114 59.681 117.569 98.61 187.814 106.806 75.638 8.829 145.335-17.9 181.883-69.737 2.5-3.545 4.741-7.322 6.91-10.975 6.378-10.742 12.972-21.85 26.618-27.666 18.359-7.818 52.249-1.176 88.132 5.854l4.468.874c24.553 4.8 51.479 6.36 77.519 7.874 13.973.811 28.422 1.65 42.274 2.981 80.34 7.708 171.283-25.946 256.124-94.763 23.449-19.024 47.729-39.635 64.285-64.01 11.247-16.562 28.588-49.236 18.361-81.97-7.636-24.44-24.641-46.633-51.992-67.852-49.74-38.588-88.928-96.637-110.348-163.454-12.976-40.471-19.553-83.5-25.915-125.122-4.64-30.382-9.443-61.8-16.7-92.061-25.441-106.1-86.761-197.883-168.242-251.82-85.82-56.814-197.983-66.425-285.746-24.493-19.157 9.152-38.122 21.373-56.462 33.191-26.036 16.78-52.958 34.13-81.549 43.578-34.258 11.318-70.2 4.409-104.956-2.273-9.164-1.76-18.638-3.582-27.944-5.046a377.908 377.908 0 0 0-58.583-4.666z" transform="translate(-384.523 352.502)"/>
                </g>
                <g id="Group_11" data-name="Group 11" transform="translate(121.049 38.312)">
                    <path id="Path_25" data-name="Path 25" class="cls-2" d="M857.141 708.349a243.076 243.076 0 0 1-30.184-1.895c-69.358-8.686-136.526-46.988-184.279-105.085-41.226-50.2-70.035-115.231-88.077-198.812-3.036-14.067-6-28.4-8.867-42.267-17.192-83.146-34.968-169.125-77.608-240.267C441.681 75.9 420.2 38.857 404.493-2.452c-12.956-34.061-15.017-72.914-5.8-109.4 9.614-38.075 30.266-70.7 59.726-94.342 55-44.138 137.09-62.072 225.236-49.2 8.871 1.3 17.867 2.91 26.565 4.47 35.073 6.285 68.2 12.225 100.72.809 26.8-9.409 52.657-25.7 77.665-41.461 19.57-12.331 39.8-25.083 60.315-34.406 87.843-39.933 198.847-29.144 282.8 27.488 80.084 54.023 140.2 145.12 164.925 249.933 7 29.665 11.657 60.387 16.164 90.095 6.434 42.431 13.089 86.305 26.651 127.239 20.981 63.328 59.312 119.919 107.929 159.35 26.465 21.462 42.9 46.125 48.849 73.3 6.985 31.913-9.88 62.282-25.259 82.14-16.6 21.434-38.856 39.611-66.228 61.147-56.118 44.148-139.718 94.414-229.36 94.416q-11.26 0-22.626-1.088c-13.9-1.354-28.447-2.107-42.52-2.836-27.277-1.415-55.482-2.877-81.089-8.737-6.711-1.537-13.306-3.118-19.724-4.658-30.43-7.3-56.708-13.6-71.471-9.352-12.465 3.588-18.359 12.319-24.6 21.562-1.994 2.957-4.058 6.016-6.37 8.948-32.781 41.571-88.451 65.384-149.85 65.384zM628.5-256.2c-65.9 0-125.285 18.251-168.021 52.549-58.179 46.704-79.94 128.962-52.907 200.039 15.647 41.144 36.14 76.5 63.382 121.957 42.924 71.618 60.758 157.872 78 241.286 2.866 13.856 5.828 28.184 8.863 42.241 17.928 83.059 46.519 147.636 87.406 197.424 47.229 57.452 113.617 95.325 182.146 103.904 71.814 8.988 139.658-14.863 177.031-62.264 2.236-2.836 4.265-5.844 6.227-8.752 6.294-9.323 12.8-18.963 26.415-22.882 15.61-4.488 42.278 1.905 73.158 9.313 6.407 1.536 12.992 3.116 19.689 4.647 25.33 5.8 53.389 7.253 80.523 8.66 14.11.731 28.7 1.489 42.67 2.846 97 9.448 189.283-45.165 249.623-92.635 28.1-22.108 49.261-39.394 65.663-60.575 14.952-19.308 31.366-48.763 24.647-79.442-5.785-26.432-21.839-50.474-47.711-71.456-49.1-39.821-87.8-96.95-108.976-160.863-13.651-41.2-20.324-85.213-26.781-127.776-4.5-29.644-9.143-60.3-16.115-89.836-24.54-104.021-84.158-194.4-163.565-247.971-83.017-56-192.756-66.691-279.585-27.219-20.3 9.232-40.446 21.92-59.921 34.194-25.16 15.855-51.178 32.25-78.33 41.783-33.339 11.7-68.448 5.411-102.4-.676-8.674-1.554-17.643-3.163-26.461-4.451a378.642 378.642 0 0 0-54.67-4.045z" transform="translate(-393.016 349.868)"/>
                </g>
                <g id="Group_12" data-name="Group 12" transform="translate(138.39 43.385)">
                    <path id="Path_26" data-name="Path 26" class="cls-2" d="M846.282 679.212a289.286 289.286 0 0 1-38.44-2.624c-67.6-9.072-132.667-46.3-178.51-102.14-39.933-48.7-67.6-111.882-84.581-193.172q-3.342-16.01-6.589-32.029c-16.952-83.024-34.482-168.872-74.5-240.822-22.456-40.377-37.732-74.95-52.729-119.339-23.847-70.586-1.509-150.678 54.321-194.756 53.073-41.9 132.65-59.334 218.32-47.823 8.366 1.123 16.837 2.526 25.031 3.88 34.256 5.662 66.613 11.014 98.248-.772 25.326-9.436 50.148-24.752 74.153-39.564 20.837-12.858 42.387-26.155 64.2-35.562 42.943-18.526 91.515-25.475 140.452-20.113a298.01 298.01 0 0 1 136.033 50.359c77.958 53.627 136.341 143.295 160.18 246.011 6.721 28.952 11.228 58.936 15.588 87.931 6.518 43.35 13.255 88.176 27.5 129.8 20.686 60.442 58.563 116.158 106.659 156.884 25.441 21.548 40.842 48.2 44.533 77.078 4.011 31.388-15.032 60.5-31.711 79.4s-37.588 34.8-61.807 53.224l-5.691 4.333c-88.8 67.693-171.34 98.365-245.366 91.144-14.012-1.364-28.7-2.04-42.9-2.693-28.4-1.3-57.765-2.654-84.2-9.552-38.583-10.071-73.948-18.157-92.29-21.107-9.876-1.58-14.519 5-19.912 12.619-2.784 3.937-5.664 8-9.437 10.984-23.023 37.038-74.507 58.419-136.555 58.421zM632.544-253.8c-65.011 0-123.525 17.613-165.319 50.609-54.8 43.268-76.709 121.922-53.279 191.273 14.929 44.195 30.139 78.617 52.495 118.814 40.253 72.375 57.831 158.468 74.832 241.725q3.268 16 6.587 32.013c16.876 80.782 44.33 143.525 83.93 191.819 45.339 55.223 109.661 92.039 176.475 101.007 77.611 10.416 145.134-11 172.017-54.564l.152-.247.23-.176c3.51-2.7 6.308-6.657 9.014-10.483 5.5-7.776 11.193-15.823 23.014-13.918 18.716 3.008 53.33 10.922 92.59 21.168 26.11 6.814 55.3 8.155 83.538 9.454 14.24.654 28.968 1.331 43.06 2.7 73.18 7.136 154.983-23.319 243.128-90.51l5.691-4.333c24.085-18.322 44.886-34.145 61.349-52.8 16.248-18.41 34.806-46.7 30.949-76.916-3.59-28.082-18.614-54.039-43.443-75.067-48.525-41.089-86.739-97.3-107.6-158.274-14.34-41.894-21.1-86.863-27.636-130.351-4.349-28.934-8.85-58.854-15.538-87.688-23.666-101.956-81.579-190.937-158.9-244.12-80.26-55.213-187.578-66.97-273.417-29.947-21.6 9.315-43.045 22.549-63.788 35.347-24.134 14.894-49.091 30.292-74.711 39.838-32.429 12.082-66.722 6.412-99.883.929-8.171-1.35-16.617-2.746-24.934-3.865a380.4 380.4 0 0 0-50.603-3.437z" transform="translate(-401.468 347.384)"/>
                </g>
                <g id="Group_13" data-name="Group 13" transform="translate(155.912 48.42)">
                    <path id="Path_27" data-name="Path 27" class="cls-2" d="M831 649.851a298.571 298.571 0 0 1-42.372-3.108c-65.844-9.458-128.8-45.614-172.737-99.2-38.641-47.19-65.163-108.533-81.081-187.532q-1.819-9.017-3.617-18.026c-16.87-84.245-34.31-171.359-72.085-245.139C439.28 58.115 430.293 26.4 421.6-4.269a2502.953 2502.953 0 0 0-4.315-15.094c-16.916-58.215-6.56-138.231 54.715-185.762 51.129-39.664 128.184-56.593 211.407-46.449 7.835.954 15.76 2.146 23.424 3.3 33.465 5.033 65.073 9.787 95.848-2.364 23.74-9.375 47.351-23.668 70.187-37.492 22.251-13.47 45.259-27.4 68.529-36.891l.58 1.409-.58-1.409c87.057-35.513 190.584-22.869 270.177 33.005 75.821 53.224 132.476 141.461 155.437 242.086 6.452 28.272 10.809 57.545 15.021 85.854 6.585 44.246 13.4 90 28.338 132.277 20.314 57.5 57.74 112.339 105.377 154.417 31.725 28.021 39.379 59.43 40.212 80.843.964 24.76-11.874 50.554-38.155 76.665-14.974 14.877-32.669 27.717-53.157 42.586a2288.603 2288.603 0 0 0-15.6 11.388c-82.669 61-152.544 89.969-217.809 89.972q-10.552 0-20.942-1c-14.113-1.36-28.906-1.958-43.214-2.536-29.54-1.193-60.089-2.426-87.36-10.383-17.147-5-33.243-10.279-47.446-14.932-19.362-6.346-34.694-11.371-44.986-13.27-9.587 1.7-14.434 5.736-19.561 10a64.216 64.216 0 0 1-9.158 6.7c-21.482 32.616-69.328 51.198-127.569 51.2zm-194.3-901.26c-64.223 0-121.948 16.985-162.814 48.687-60.15 46.656-70.286 125.285-53.659 182.514 1.471 5.064 2.9 10.091 4.321 15.112 8.651 30.529 17.6 62.1 37.287 100.558 37.968 74.156 55.451 161.478 72.36 245.927q1.8 9.008 3.617 18.024c15.817 78.5 42.134 139.411 80.453 186.207 43.454 53 105.709 88.758 170.8 98.107 75.813 10.893 141.417-7.578 167.135-47.05l.205-.312.322-.184a60.156 60.156 0 0 0 9.033-6.575c5.258-4.372 10.693-8.892 21.27-10.71l.267-.045.267.047c10.5 1.9 26.02 6.983 45.665 13.421 14.178 4.647 30.248 9.916 47.349 14.9 26.91 7.853 57.267 9.078 86.624 10.265 14.349.578 29.185 1.176 43.384 2.546 70.509 6.8 145.7-21.287 236.632-88.382a2356.145 2356.145 0 0 1 15.623-11.4c20.388-14.8 37.992-27.572 52.8-42.282 25.652-25.485 38.189-50.515 37.262-74.391-.812-20.821-8.27-51.374-39.186-78.683-48.02-42.414-85.748-97.705-106.235-155.685-15.036-42.555-21.867-88.453-28.475-132.84-4.206-28.252-8.555-57.467-14.98-85.627-22.8-99.9-79.007-187.475-154.216-240.271-78.746-55.278-181.153-67.8-267.249-32.675-23.049 9.4-45.954 23.265-68.1 36.675-22.942 13.889-46.666 28.25-70.647 37.72-31.54 12.456-65.036 7.416-97.434 2.544-7.646-1.15-15.551-2.338-23.34-3.289a383.373 383.373 0 0 0-46.341-2.853z" transform="translate(-410.009 344.918)"/>
                </g>
                <g id="Group_14" data-name="Group 14" transform="translate(167.896 53.624)">
                    <path id="Path_28" data-name="Path 28" class="cls-2" d="M820.4 620.64a317.763 317.763 0 0 1-48.141-3.831c-64.082-9.842-124.937-44.926-166.966-96.253-37.361-45.7-62.738-105.195-77.589-181.9-3.962-20.462-7.224-41.61-10.379-62.062-10.518-68.159-21.389-138.639-59.786-191.173l-.168-.235-.07-.278c-4.661-18.865-10.445-35.188-15.545-49.588C433.843 12.986 427-6.323 426.447-27.9c-26.28-55.619-2.107-133.2 55.135-176.77 49.165-37.42 123.7-53.855 204.495-45.079 7.277.79 14.635 1.779 21.75 2.736 32.7 4.392 63.59 8.543 93.517-3.971 22.027-9.209 44.227-22.426 65.7-35.207 23.827-14.185 48.464-28.852 73.381-38.431l.531 1.366-.531-1.366c85.918-33.03 187.022-19.327 263.871 35.762 73.667 52.812 128.592 139.617 150.689 238.164 6.193 27.617 10.4 56.212 14.475 83.865 6.643 45.114 13.512 91.763 29.155 134.664 19.867 54.484 56.84 108.448 104.1 151.948 31.6 29.089 36.952 62.062 35.875 84.6-1.18 24.678-15.762 48.861-44.58 73.931-13.068 11.365-28.463 21.836-44.763 32.924-8.134 5.533-16.544 11.255-25.266 17.477a477.4 477.4 0 0 1-231.85 86.787c-45.842 4.347-93.548-.484-134.326-13.591-27.778-8.929-52.821-19.167-71.108-26.643-8.711-3.563-16.252-6.646-21.951-8.717-9.384.353-14.028 2.943-18.942 5.683a58.279 58.279 0 0 1-8.688 4.188c-20.054 28.53-62.816 44.218-116.716 44.22zM460.091 83.932c38.677 53.085 49.589 123.815 60.142 192.221 3.153 20.425 6.411 41.545 10.363 61.951 14.757 76.214 39.937 135.291 76.982 180.6 41.57 50.772 101.758 85.472 165.13 95.206 75.177 11.551 137.348-3.6 162.256-39.539l.271-.39.447-.159a54.369 54.369 0 0 0 8.682-4.143c5.285-2.948 10.276-5.732 20.569-6.064l.285-.01.267.1c5.785 2.091 13.454 5.227 22.333 8.858 18.242 7.457 43.224 17.671 70.893 26.565 39.818 12.8 88.347 17.705 133.141 13.462a474.43 474.43 0 0 0 230.416-86.252c8.75-6.24 17.173-11.972 25.322-17.513 16.224-11.036 31.548-21.462 44.481-32.711 28.186-24.517 42.44-48.024 43.579-71.863 1.048-21.918-4.163-53.988-34.934-82.309-47.6-43.813-84.843-98.185-104.87-153.1-15.745-43.18-22.635-89.981-29.3-135.239-4.066-27.6-8.268-56.14-14.435-83.653-21.945-97.852-76.449-184.025-149.541-236.422-76.044-54.517-176.09-68.083-261.087-35.407-24.684 9.489-49.21 24.09-72.928 38.21-21.56 12.835-43.852 26.108-66.072 35.394-30.666 12.823-63.4 8.425-95.052 4.174-7.1-.954-14.437-1.94-21.676-2.726-80.036-8.684-153.812 7.524-202.386 44.493-56.278 42.835-80.055 119.031-54.13 173.47l.135.282.006.312c.486 21.232 7.283 40.413 15.149 62.623 5.103 14.388 10.878 30.693 15.562 49.579z" transform="translate(-415.851 342.369)"/>
                </g>
                <g id="Group_15" data-name="Group 15" transform="translate(184.553 58.748)">
                    <path id="Path_29" data-name="Path 29" class="cls-2" d="M1135.36 609.892c-35.83 0-71.584-5.574-101.861-16.17-44.59-15.6-81.294-35.744-93.663-42.553-9.371-1.049-13.674.078-18.651 1.38a66.654 66.654 0 0 1-7.939 1.709c-24.547 32.3-85.662 44.82-159.755 32.66-62.319-10.228-121.073-44.238-161.193-93.311-36.082-44.209-60.319-101.864-74.093-176.259-3.682-19.88-6.674-40.407-9.568-60.259-9.525-65.329-19.375-132.883-55.2-183.267l-.181-.255-.057-.308c-3.116-17.266-7-32.3-10.424-45.569-5.933-22.973-11.06-42.831-9.542-64.087-24.071-52.947.273-126.563 55.539-167.767 64.591-48.16 151.512-48.054 197.577-43.707 6.69.633 13.448 1.423 19.982 2.189 31.973 3.745 62.168 7.279 91.285-5.595 20.163-8.917 40.727-20.993 60.615-32.67 25.587-15.024 52.043-30.559 78.824-40.224l.484 1.323-.484-1.323c84.718-30.567 183.411-15.808 257.562 38.52 71.5 52.385 124.7 137.761 145.948 234.237 5.941 26.984 10.007 54.921 13.936 81.94 6.688 45.965 13.6 93.5 29.963 136.991 24.768 65.831 69.584 117.622 102.821 149.476 33.381 31.992 34.086 69.084 31.534 88.345-3.262 24.642-19.469 47.266-51 71.2-11.185 8.49-23.849 16.411-37.256 24.8-10.9 6.82-22.175 13.871-34.035 22.04-67.894 46.77-145.776 76.026-225.23 84.608a335.294 335.294 0 0 1-35.938 1.906zm-202.232-61.949a63.528 63.528 0 0 1 7.31.461l.277.031.246.135c12.071 6.646 48.812 26.865 93.476 42.5 40.066 14.02 89.841 19.165 136.558 14.118 78.986-8.531 156.419-37.62 223.923-84.122 11.913-8.206 23.211-15.276 34.14-22.11 13.352-8.351 25.964-16.241 37.047-24.652 30.894-23.449 46.755-45.479 49.912-69.329 2.481-18.737 1.791-54.815-30.693-85.95-33.446-32.056-78.555-84.192-103.506-150.517-16.47-43.776-23.406-91.461-30.113-137.573-3.924-26.969-7.98-54.856-13.9-81.741-21.1-95.816-73.9-180.586-144.861-232.573-73.4-53.778-171.075-68.39-254.918-38.139-26.539 9.575-52.876 25.04-78.35 40-19.959 11.72-40.6 23.837-60.906 32.818-29.827 13.193-60.4 9.611-92.765 5.819-6.518-.764-13.261-1.552-19.92-2.181-45.655-4.31-131.786-4.431-195.614 43.156-54.358 40.528-78.3 112.862-54.512 164.673l.152.329-.027.361c-1.567 20.93 3.288 39.733 9.435 63.538 3.416 13.236 7.287 28.225 10.411 45.463 36.07 50.904 45.949 118.679 55.505 184.228 2.893 19.825 5.882 40.326 9.552 60.153 13.686 73.921 37.73 131.162 73.509 175 39.687 48.544 97.809 82.191 159.455 92.306 73.408 12.045 133.711-.229 157.38-32.031l.357-.48.593-.08a62.748 62.748 0 0 0 8.184-1.721 44.736 44.736 0 0 1 12.663-1.89z" transform="translate(-423.97 339.859)"/>
                </g>
                <g id="Group_16" data-name="Group 16" transform="translate(201.171 63.784)">
                    <path id="Path_30" data-name="Path 30" class="cls-2" d="M1111.3 602.847c-36.281 0-72.056-5.942-102.08-17.27-41.1-15.508-75.578-35.846-94.239-49.771-9.979-2.706-14.125-2.934-19.363-3.224-1.8-.1-3.824-.21-6.247-.437-23.658 28.442-81.362 37.765-154.624 24.93-60.557-10.612-117.206-43.55-155.422-90.368-34.819-42.733-57.913-98.544-70.6-170.622-3.4-19.316-6.122-39.241-8.754-58.507-8.932-65.357-17.366-127.09-50.613-175.31l-.193-.276-.037-.337c-1.666-14.74-3.775-27.833-5.636-39.384-4.111-25.522-7.363-45.714-3.451-67.128-21.85-50.266 2.659-119.913 55.94-158.762 61.821-45.075 145.989-45.871 190.666-42.333 6.067.48 12.188 1.082 18.109 1.668 31.272 3.085 60.816 6 89.156-7.247 18.1-8.464 36.763-19.31 54.809-29.8 27.569-16.027 56.073-32.6 84.991-42.345l.435 1.278-.435-1.278c83.464-28.133 179.738-12.324 251.251 41.276 69.326 51.952 120.79 135.9 141.205 230.315 5.7 26.377 9.622 53.684 13.415 80.092 6.717 46.8 13.663 95.183 30.756 139.242 19.207 49.5 53.369 98.957 101.537 147 24.588 24.525 34.5 58.086 27.189 92.078-6.881 31.993-36.06 54.4-57.41 68.475-9.5 6.26-19.939 12.147-30.993 18.379-13.271 7.484-26.994 15.22-41.566 24.9-67.389 44.767-142.984 73.27-218.608 82.428a326.66 326.66 0 0 1-39.188 2.338zm-223.119-73.533.733.071c2.689.267 4.809.386 6.856.5 5.441.3 9.739.539 20.177 3.385l.455.223c18.462 13.818 52.8 34.094 93.78 49.561 40.446 15.261 91.464 20.646 139.978 14.773 75.205-9.107 150.39-37.461 217.43-81.995 14.656-9.736 28.422-17.5 41.734-25.005 11.011-6.207 21.41-12.072 30.83-18.281 20.954-13.811 49.583-35.762 56.257-66.789 3.367-15.651 7.523-55.711-26.457-89.6-48.437-48.309-82.806-98.083-102.15-147.936-17.2-44.344-24.171-92.886-30.911-139.832-3.785-26.361-7.7-53.62-13.38-79.906-20.277-93.791-71.373-177.158-140.183-228.724-70.8-53.063-166.121-68.726-248.751-40.873-28.656 9.658-57.041 26.161-84.492 42.118-18.094 10.52-36.809 21.4-55.022 29.914-29.021 13.56-58.92 10.608-90.579 7.49-5.908-.584-12.016-1.186-18.056-1.664-44.289-3.511-127.73-2.744-188.847 41.817-52.429 38.226-76.539 106.7-54.891 155.877l.17.38-.078.41c-3.943 21.107-.708 41.189 3.387 66.615 1.851 11.494 3.947 24.509 5.615 39.176 33.454 48.716 42.309 113.518 50.872 176.192 2.63 19.243 5.348 39.139 8.74 58.407C524.005 367.23 546.913 422.637 581.432 465c37.81 46.321 93.862 78.909 153.785 89.409 72.77 12.754 129.778 3.579 152.505-24.529z" transform="translate(-432.071 337.393)"/>
                </g>
                <g id="Group_17" data-name="Group 17" transform="translate(217.748 68.72)">
                    <path id="Path_31" data-name="Path 31" class="cls-2" d="M1087.5 595.879c-36.726 0-72.606-6.314-102.532-18.4-34.546-13.948-61.487-33.307-81.157-47.441-5.178-3.722-9.651-6.936-13.61-9.579-8.945-5.97-13.216-7.136-18.626-8.613-1.776-.486-3.767-1.029-6.068-1.787-22.67 24.472-77.05 30.755-149.483 17.213-58.791-10.994-113.337-42.856-149.649-87.424-33.561-41.269-55.51-95.234-67.1-164.982-3.12-18.771-5.57-38.108-7.937-56.808-7.9-62.358-15.364-121.259-46.035-167.3l-.2-.3-.014-.359c-.484-10.814-1.145-20.819-1.729-29.648-1.974-29.863-3.4-51.5 3.518-73.733-19.615-47.578 5.057-113.256 56.339-149.747 59-41.98 140.446-43.678 183.752-40.961 5.391.339 10.756.762 16.092 1.182 30.638 2.418 59.57 4.7 87.174-8.933 15.825-7.814 31.534-16.9 48.168-26.52 29.8-17.234 60.617-35.055 91.981-44.879 82.16-25.728 176.018-8.86 244.949 44.028 67.132 51.5 116.872 134.02 136.46 226.388 5.469 25.787 9.246 52.481 12.9 78.295 6.737 47.613 13.7 96.845 31.542 141.443 18.644 46.6 51.438 93.877 100.252 144.524 35.34 36.669 27.745 79.208 22.84 95.794-9.291 31.421-38.983 51.646-63.813 65.758-8.112 4.611-16.839 8.96-26.075 13.564-14.515 7.234-30.966 15.433-47.75 26.169-67.069 42.9-140.374 70.65-211.991 80.251a318.322 318.322 0 0 1-42.198 2.805zm-222.781-88.815.816.282c2.573.878 4.684 1.454 6.725 2.011 5.637 1.538 10.089 2.753 19.385 8.96 4 2.667 8.485 5.893 13.684 9.628 19.566 14.058 46.357 33.312 80.613 47.143 40.953 16.533 93.228 22.159 143.4 15.429 71.244-9.552 144.184-37.169 210.937-79.863 16.9-10.812 33.418-19.043 47.99-26.306 9.205-4.588 17.9-8.921 25.952-13.5 24.4-13.869 53.576-33.706 62.606-64.24 4.778-16.156 12.178-57.582-22.222-93.274-49.052-50.895-82.02-98.44-100.788-145.359-17.957-44.885-24.945-94.275-31.7-142.039-3.648-25.771-7.421-52.42-12.869-78.119-19.465-91.777-68.854-173.742-135.508-224.875-68.265-52.377-161.22-69.086-242.58-43.609l-.39-1.233.39 1.233c-31.091 9.736-61.78 27.484-91.457 44.648-16.671 9.642-32.418 18.749-48.32 26.6-28.246 13.948-57.535 11.639-88.532 9.195-5.324-.419-10.674-.841-16.051-1.178-42.963-2.7-123.734-1.033-182.078 40.483-50.494 35.929-74.772 100.537-55.27 147.084l.183.435-.142.451c-6.938 21.934-5.515 43.452-3.545 73.237.576 8.746 1.231 18.643 1.713 29.346 30.842 46.5 38.325 105.571 46.246 168.1 2.367 18.675 4.813 37.988 7.927 56.71 11.517 69.294 33.288 122.866 66.556 163.777 35.933 44.1 89.917 75.63 148.113 86.511 72.128 13.485 125.944 7.277 147.641-17.027z" transform="translate(-440.151 334.976)"/>
                </g>
                <g id="Group_18" data-name="Group 18" transform="translate(227.128 73.553)">
                    <path id="Path_32" data-name="Path 32" class="cls-2" d="M1067.565 588.988c-37.166 0-73.227-6.7-103.159-19.545-41.542-17.83-72.7-44.748-91.312-60.83l-3.959-3.416c-11.423-9.81-15.077-11.997-23.817-17.197-21.564 20.415-72.735 23.807-144.332 9.53-57.022-11.373-109.466-42.163-143.88-84.48-32.306-39.805-53.114-91.927-63.606-159.34-2.841-18.251-5.016-37.028-7.119-55.185-6.871-59.33-13.362-115.368-41.453-159.213l-.2-.316.008-.378q.178-7.231.31-13.862c.792-37.573 1.317-62.48 12.352-86.4-17.37-44.887 7.466-106.592 56.737-140.73 53.3-36.928 125.593-41.912 176.838-39.586 4.661.21 9.3.478 13.907.743 30.047 1.729 58.438 3.367 85.362-10.669 13.253-6.912 26.483-14.569 40.489-22.677 32.344-18.72 65.789-38.079 100.01-47.972l.347 1.186-.347-1.186c80.8-23.355 172.235-5.43 238.641 46.778 64.927 51.043 112.937 132.13 131.719 222.465 5.246 25.217 8.881 51.321 12.4 76.563 6.743 48.412 13.721 98.471 32.32 143.579 23.219 56.314 65.085 105.493 98.96 142.045 36.85 39.76 23.47 86.207 18.491 99.5-11.757 31.382-43.694 50.178-70.2 63.046-7.035 3.416-14.488 6.634-22.378 10.04-16.023 6.918-34.187 14.759-52.722 26.155C1251 548.8 1179.985 575.8 1112.59 585.707a310.464 310.464 0 0 1-45.025 3.281zM844.945 484.9l1.565.931c8.928 5.313 12.625 7.512 24.247 17.491l3.964 3.42c19.705 17.023 49.479 42.749 90.668 60.428 41.55 17.834 95.064 23.7 146.839 16.088 67.063-9.858 137.757-36.738 204.434-77.733 18.688-11.488 36.936-19.367 53.038-26.318 7.864-3.394 15.29-6.6 22.28-9.993 26.093-12.668 57.513-31.127 68.964-61.69 4.854-12.956 17.9-58.233-17.988-96.956-34.019-36.705-76.063-86.107-99.434-142.784-18.72-45.4-25.716-95.614-32.482-144.175-3.512-25.205-7.143-51.266-12.369-76.4-18.671-89.776-66.355-170.337-130.831-221.026-65.785-51.719-156.366-69.48-236.409-46.345-33.93 9.807-67.243 29.089-99.457 47.736-14.032 8.121-27.283 15.792-40.588 22.728-27.528 14.353-56.243 12.7-86.655 10.947-4.6-.263-9.226-.531-13.877-.741-50.876-2.311-122.581 2.614-175.308 39.149-48.552 33.636-73 94.381-55.654 138.29l.2.492-.226.482c-11.032 23.593-11.553 48.379-12.345 85.885q-.136 6.472-.3 13.5c28.227 44.277 34.735 100.462 41.622 159.938 2.1 18.136 4.273 36.887 7.107 55.091 10.426 66.97 31.062 118.708 63.085 158.17 34.058 41.873 85.976 72.349 142.44 83.61C773.012 509.38 823.724 506 844.26 485.582z" transform="translate(-444.723 332.609)"/>
                </g>
                <g id="Group_19" data-name="Group 19" transform="translate(231.564 78.275)">
                    <path id="Path_33" data-name="Path 33" class="cls-2" d="M1050.324 582.178c-37.611 0-73.9-7.089-103.943-20.717-44.594-20.235-76-50.478-95.741-71.467-3.781-4.023-6.643-7.21-9.164-10.024a144.948 144.948 0 0 0-13.8-14.022c-25.56 20.574-89.648 12.435-139.189 1.9-55.254-11.751-105.594-41.471-138.113-81.535-30.636-37.834-50.859-89.548-60.11-153.706-2.561-17.754-4.458-35.993-6.29-53.633C478.124 122.7 472.6 69.548 447.09 27.916l-.205-.335.037-.39c4.15-43.846 7.521-72.1 23.533-97.144-15.385-42.874 9.088-99.39 57.129-131.711 50.47-33.961 120.245-39.531 169.927-38.216 3.851.1 7.679.235 11.486.37 29.555 1.033 57.476 2.011 83.783-12.468 10.307-5.674 20.61-11.69 31.52-18.061 35.262-20.59 71.726-41.884 109.331-51.838l.3 1.137-.3-1.137c79.376-21.011 168.4-2.034 232.336 49.528 62.705 50.568 108.988 130.222 126.978 218.539 5.024 24.67 8.522 50.2 11.907 74.9 6.74 49.192 13.708 100.057 33.083 145.651 22.47 52.877 62.2 99.765 97.672 139.562 29.729 33.357 26.8 75.173 14.143 103.181-14.252 31.543-48.418 48.818-76.592 60.344-6.247 2.556-12.793 4.95-19.724 7.484-17.235 6.3-36.77 13.45-56.655 25.179-68.08 40.158-134.954 65.694-198.763 75.9a302.662 302.662 0 0 1-47.692 3.787zM827.7 462.847l.771.664A144.154 144.154 0 0 1 843.24 478.4c2.515 2.8 5.363 5.981 9.127 9.983 19.606 20.842 50.784 50.87 95 70.932 42.233 19.161 97 25.267 150.277 16.746 63.516-10.156 130.108-35.592 197.932-75.6 20.07-11.841 39.716-19.024 57.047-25.362 6.908-2.528 13.432-4.913 19.64-7.453 27.765-11.359 61.425-28.348 75.331-59.129 12.352-27.341 15.229-68.138-13.754-100.654-35.6-39.94-75.47-87-98.082-140.209-19.5-45.882-26.485-96.907-33.248-146.251-3.376-24.656-6.871-50.151-11.882-74.746-17.883-87.792-63.862-166.948-126.147-217.177-63.36-51.1-151.58-69.9-230.24-49.085-37.291 9.873-73.613 31.084-108.742 51.595-10.922 6.377-21.238 12.4-31.569 18.087-26.881 14.8-55.116 13.807-85.014 12.762-3.8-.133-7.621-.267-11.466-.37-49.321-1.3-118.589 4.2-168.538 37.814-47.376 31.874-71.463 87.547-56.034 129.5l.2.549-.318.492c-15.938 24.64-19.317 52.638-23.445 96.194 25.615 42.035 31.15 95.31 37.014 151.705 1.832 17.618 3.726 35.833 6.278 53.541C501.8 296 521.852 347.333 552.215 384.832c32.185 39.652 82.035 69.068 136.768 80.713 71.03 15.108 118.727 14.4 137.939-2.036z" transform="translate(-446.885 330.296)"/>
                </g>
                <g id="Group_20" data-name="Group 20" transform="translate(236.003 82.642)">
                    <path id="Path_34" data-name="Path 34" class="cls-2" d="M1033.207 575.576c-38.052 0-74.627-7.49-104.846-21.918-45.86-21.893-77.62-54.866-96.19-78.672-5.1-6.534-8.5-11.737-11.5-16.327a128.166 128.166 0 0 0-10.623-14.642c-18.913 12.356-62.8 10.491-134.066-5.674-54.267-12.311-101.268-40.221-132.345-78.593-29.421-36.419-48.467-86.238-56.614-148.067-2.277-17.3-3.89-35.041-5.451-52.2-4.831-53.171-9.4-103.394-32.326-142.784l-.2-.347.066-.4c7.156-43.178 14.785-71.032 34.406-94.038-13.085-40.119 11.54-92.747 57.513-122.694 37.55-24.458 91.25-36.852 159.645-36.852 1.122 0 2.24 0 3.368.01 2.938.016 5.863.049 8.77.082 29.179.319 56.729.623 82.509-14.357 6.848-3.978 13.813-8.125 20.883-12.333 38.653-23.006 78.623-46.8 120.306-56.812 79.07-18.994 163.573.547 226.036 52.279 60.471 50.078 105.026 128.3 122.239 214.614 4.813 24.133 8.171 49.11 11.421 73.266 6.725 49.965 13.676 101.632 33.84 147.689 22.074 50.423 60.578 95.326 94.547 134.943l1.832 2.138c30.225 35.26 24.167 79.6 9.8 106.857-16.814 31.888-53.174 47.556-82.97 57.643-5.7 1.93-11.62 3.716-17.889 5.607-18.212 5.493-38.85 11.718-59.774 23.531-69.555 39.276-132.41 63.393-192.155 73.725a295.772 295.772 0 0 1-50.232 4.326zm-222.78-134.545.667.762a126.376 126.376 0 0 1 11.466 15.645c2.975 4.553 6.35 9.713 11.39 16.174 18.421 23.617 49.92 56.324 95.384 78.027 42.988 20.525 99.021 26.87 153.719 17.407 59.484-10.287 122.1-34.318 191.429-73.466 21.139-11.937 41.907-18.2 60.231-23.727 6.251-1.885 12.155-3.665 17.815-5.583 29.4-9.954 65.259-25.377 81.707-56.565 14.043-26.637 19.978-69.954-9.517-104.362l-1.832-2.138c-34.072-39.735-72.688-84.774-94.9-135.5-20.288-46.343-27.263-98.169-34.006-148.285-3.245-24.121-6.6-49.065-11.4-73.127-17.114-85.819-61.386-163.575-121.469-213.332-61.919-51.276-145.679-70.652-224.069-51.819-41.351 9.932-81.171 33.634-119.68 56.557-7.076 4.21-14.049 8.362-20.9 12.345-26.319 15.29-54.165 14.979-83.668 14.659-2.9-.031-5.824-.063-8.758-.082-69.531-.406-123.98 11.863-161.768 36.479-45.378 29.557-69.629 81.452-56.415 120.711l.205.6-.417.484c-19.522 22.628-27.117 50.176-34.24 93.029 23 39.762 27.576 90.089 32.418 143.356 1.557 17.138 3.167 34.855 5.441 52.109 8.091 61.419 26.978 110.861 56.136 146.954 30.757 37.979 77.314 65.615 131.091 77.813 71.685 16.264 115.233 18.05 133.112 5.458z" transform="translate(-449.049 328.158)"/>
                </g>
                <g id="Group_21" data-name="Group 21" transform="translate(240.447 87.143)">
                    <path id="Path_35" data-name="Path 35" class="cls-2" d="M1016.2 568.933c-38.491 0-75.392-7.9-105.855-23.141-51.931-25.979-82.825-64.951-96.619-85.868a180.254 180.254 0 0 1-11.622-20.77 136.329 136.329 0 0 0-9.644-17.193c-21.621 10.583-74.711-.063-128.972-13.193-52.47-12.7-97.421-39.562-126.576-75.646-28.217-35.025-46.09-82.944-53.118-142.431-1.994-16.878-3.315-34.159-4.6-50.87-3.824-50.031-7.439-97.287-27.784-134.407l-.2-.357.094-.4c11.07-46.553 23.375-71.3 45.284-90.934-10.781-37.357 13.994-86.1 57.892-113.683 36.189-22.739 87.25-34.341 156.1-35.47l5.634-.084c28.943-.412 56.282-.8 81.651-16.364l8.03-4.937c40.653-25.019 86.731-53.379 133.5-63.454 77.511-16.7 159.653 3.874 219.732 55.023 59.08 50.3 100.808 125.126 117.5 210.692 4.6 23.613 7.829 48.052 10.949 71.685 6.692 50.729 13.614 103.182 34.587 149.68 20 44.344 52.125 82.94 83.194 120.266q6.013 7.225 11.889 14.328c30.687 37.226 22.118 82.8 5.455 110.52-19.476 32.4-57.981 46.39-89.347 54.952-5.334 1.458-10.844 2.779-16.681 4.178-19.005 4.557-40.549 9.726-62.268 21.44-45 24.266-113.2 58.086-185.549 71.552a288.49 288.49 0 0 1-52.656 4.886zM793.134 419.2l.544.78a133.611 133.611 0 0 1 10.334 18.23 178.637 178.637 0 0 0 11.488 20.548c13.678 20.74 44.311 59.379 95.792 85.135 43.815 21.92 101.106 28.505 157.17 18.069 72.052-13.409 140.046-47.133 184.923-71.332 21.968-11.845 43.655-17.048 62.787-21.636 5.818-1.4 11.316-2.714 16.615-4.161 30.982-8.458 68.991-22.238 88.079-53.994 16.306-27.127 24.711-71.708-5.274-108.082q-5.853-7.1-11.88-14.322c-31.161-37.432-63.38-76.143-83.5-120.75-21.1-46.782-28.042-99.394-34.757-150.272-3.114-23.6-6.337-48.009-10.928-71.559-16.6-85.1-58.073-159.491-116.79-209.481-59.579-50.723-141.035-71.122-217.893-54.562l-.226-1.039.226 1.039c-46.412 10-92.321 38.255-132.831 63.187l-8.032 4.935c-25.868 15.87-53.494 16.264-82.741 16.68l-5.627.084c-68.445 1.123-119.145 12.617-155 35.143-43.367 27.249-67.784 75.369-56.792 111.927l.195.647-.509.449C476.722-65.81 464.5-41.419 453.478 4.755c20.395 37.465 24.013 84.8 27.846 134.9 1.276 16.689 2.6 33.949 4.585 50.784 6.982 59.085 24.7 106.641 52.665 141.347 28.859 35.723 73.4 62.327 125.414 74.913 54.575 13.2 107.9 23.917 128.307 12.95z" transform="translate(-451.215 325.954)"/>
                </g>
                <g id="Group_22" data-name="Group 22" transform="translate(244.895 91.5)">
                    <path id="Path_36" data-name="Path 36" class="cls-2" d="M999.272 562.389c-38.93 0-76.18-8.317-106.951-24.391-56.883-29.712-86.809-74.971-97.036-93.052a178.953 178.953 0 0 1-11.3-24.768 152.237 152.237 0 0 0-9.1-20.243c-19.84 6.2-68.119-6.265-123.9-20.668-50.669-13.082-93.573-38.9-120.811-72.7-27.025-33.636-43.72-79.661-49.62-136.789-1.7-16.511-2.725-33.379-3.711-49.69C474.009 73.25 471.336 29.015 453.57-5.8l-.187-.363.121-.388c13.747-44.226 30.047-69.735 56.171-87.831-8.465-34.584 16.455-79.455 58.257-104.682 44.143-26.641 102.917-32.213 149.186-34.094l1.883-.076c28.947-1.17 56.284-2.275 81.411-18.551 44.943-29.115 92.919-58.315 141.864-67.635l.191.986-.191-.986c75.888-14.442 155.674 7.151 213.433 57.772 56.787 49.769 96.832 123.2 112.756 206.765 4.4 23.108 7.5 47.025 10.485 70.154 6.651 51.478 13.532 104.707 35.325 151.622 18.365 39.531 46.9 74.464 74.489 108.247 6.713 8.215 13.05 15.974 19.3 23.858 29.132 36.758 21.552 83.83 1.118 114.175-22.517 33.444-65.411 45.845-95.716 52.263-5.114 1.084-10.381 2.038-15.955 3.044-19.658 3.553-41.942 7.584-64.293 19.059-55.705 28.607-115.942 56.81-178.943 69.38a281.717 281.717 0 0 1-55.003 5.47zM775.81 397.493l.416.729c4.2 7.308 6.84 14.071 9.638 21.23a177.765 177.765 0 0 0 11.179 24.511c10.141 17.924 39.812 62.793 96.215 92.255 44.7 23.351 103.237 30.181 160.619 18.73 62.759-12.519 122.838-40.654 178.414-69.194 22.62-11.614 45.06-15.672 64.857-19.251 5.559-1 10.809-1.954 15.9-3.03 29.961-6.346 72.351-18.581 94.463-51.419 20.025-29.738 27.472-75.849-1.03-111.813-6.237-7.869-12.57-15.625-19.276-23.835-27.671-33.879-56.284-68.91-74.756-108.67-21.927-47.2-28.824-100.58-35.5-152.208-2.985-23.1-6.073-46.988-10.463-70.037-15.842-83.128-55.656-156.157-112.11-205.632-57.291-50.21-136.431-71.634-211.716-57.3-48.593 9.241-96.371 38.341-141.146 67.341-25.591 16.578-53.2 17.693-82.431 18.873l-1.881.078c-46.028 1.87-104.472 7.4-148.225 33.806-41.345 24.95-65.925 69.292-57.177 103.143l.176.68-.581.4c-25.975 17.785-42.169 42.941-55.843 86.779 17.791 35.129 20.468 79.422 23.3 126.308.983 16.29 2 33.136 3.7 49.6 5.861 56.74 22.411 102.41 49.189 135.742 26.968 33.463 69.492 59.038 119.742 72.014 56.226 14.518 104.784 27.057 123.527 20.45z" transform="translate(-453.383 323.819)"/>
                </g>
                <g id="Group_23" data-name="Group 23" transform="translate(249.348 95.705)">
                    <path id="Path_37" data-name="Path 37" class="cls-2" d="M982.423 555.953c-39.363 0-76.994-8.743-108.124-25.671-59.4-32.3-87.933-80.847-97.442-100.221-5.11-10.414-8.015-19.645-10.826-28.57-2.517-8-4.9-15.557-8.694-23.533-14.266 1.695-43.339-6.63-83.315-18.071-11.329-3.242-23.043-6.6-35.549-10.044-34.566-9.527-82.585-29.367-115.042-69.76-25.847-32.268-41.365-76.394-46.125-131.152-1.407-16.207-2.109-32.724-2.788-48.7-1.851-43.562-3.594-84.708-18.794-117.173l-.171-.363.144-.374c16.568-43.056 36.653-68.438 67.069-84.723-6.144-31.8 18.915-72.8 58.608-95.692 39.954-23.041 92-29.344 142.278-32.724 26.66-1.791 54.228-3.643 79.3-20.8 38.918-26.639 90.255-58.311 142.192-66.878 74.206-12.243 151.639 10.381 207.133 60.516 54.481 49.216 92.842 121.252 108.02 202.841 4.208 22.616 7.164 46.025 10.026 68.663 6.6 52.218 13.423 106.214 36.06 153.523 17.03 35.592 42.721 67.405 67.569 98.169 8.733 10.816 16.985 21.03 24.916 31.445 29.351 38.539 18.911 88.092-3.208 117.822-19.391 26.059-51.83 41.814-102.085 49.581-5.01.774-10.149 1.413-15.589 2.091-20.206 2.512-43.109 5.36-65.963 16.5-52.076 25.383-111.1 54.151-172.341 67.209a275.246 275.246 0 0 1-57.259 6.089zM758.451 375.889l.306.629c4.027 8.327 6.487 16.137 9.088 24.407 2.792 8.858 5.675 18.02 10.723 28.3 9.429 19.212 37.719 67.352 96.644 99.392 45.651 24.821 105.451 31.9 164.078 19.392 61.013-13.009 119.925-41.722 171.9-67.058 23.139-11.279 46.209-14.148 66.564-16.68 5.426-.674 10.551-1.311 15.532-2.081 49.731-7.688 81.774-23.206 100.847-48.838 21.711-29.181 31.981-77.788 3.225-115.551-7.915-10.393-16.158-20.6-24.885-31.4-24.916-30.849-50.679-62.748-67.805-98.54-22.766-47.585-29.61-101.734-36.228-154.1-2.858-22.612-5.812-45.994-10.009-68.557-15.1-81.182-53.254-152.843-107.427-201.783-55.065-49.747-131.909-72.2-205.543-60.048l-.156-.935.156.935c-51.567 8.507-102.669 40.044-141.427 66.57-25.5 17.454-53.336 19.325-80.252 21.134-50.055 3.363-101.836 9.623-141.453 32.47-39.305 22.667-64.049 63.236-57.558 94.365l.144.7-.628.333c-30.24 15.99-50.191 41.032-66.669 83.687 15.2 32.746 16.95 73.933 18.8 117.526.677 15.953 1.376 32.45 2.782 48.614 4.727 54.38 20.107 98.163 45.714 130.135 32.139 39.995 79.768 59.66 114.065 69.116 12.514 3.451 24.233 6.8 35.565 10.046 38.9 11.134 69.6 19.929 83.212 17.928z" transform="translate(-455.554 321.76)"/>
                </g>
                <g id="Group_24" data-name="Group 24" transform="translate(253.807 99.753)">
                    <path id="Path_38" data-name="Path 38" class="cls-2" d="M965.648 549.632c-39.8 0-77.833-9.184-109.37-26.982-61.6-34.769-88.944-86.679-97.84-107.382-4.955-11.531-7.669-22.069-10.291-32.256-2.365-9.185-4.6-17.869-8.325-26.957-9.533-.958-26.288-6.706-49.309-14.6-17.844-6.122-40.054-13.74-64.552-20.954-33.288-9.805-79.269-29.356-109.275-66.815-24.686-30.92-39.022-73.148-42.625-125.511-1.1-15.98-1.458-32.217-1.805-47.919-.89-40.211-1.732-78.193-14.377-108.25l-.152-.361.164-.353c19.434-42.263 43.5-67.462 77.979-81.611-3.9-29.452 20.757-65.807 58.947-86.718 40.557-22.212 95.355-27.492 135.367-31.349 27.491-2.648 52.127-6.207 75.316-22.982 53.291-38.561 99.908-60.189 142.52-66.121 72.468-10.089 147.544 13.562 200.835 63.258 52.158 48.642 88.838 119.286 103.281 198.916 4.015 22.14 6.842 45.055 9.576 67.215 6.534 52.951 13.29 107.7 36.784 155.385 15.906 32.278 39.281 61.382 61.889 89.527 10.36 12.9 20.144 25.081 29.3 37.592 29.684 40.585 16.9 91.412-7.537 121.463-26.992 33.191-69.627 51.607-108.645 46.9-25.513-3.073-54.885 2.283-82.665 15.086q-9.383 4.325-18.913 8.778c-47.187 21.979-95.981 44.7-146.827 56.263a268.686 268.686 0 0 1-59.45 6.738zM459.678-28.32c12.631 30.308 13.472 68.312 14.365 108.537.347 15.682.706 31.9 1.8 47.836 3.576 52 17.787 93.895 42.239 124.526 29.717 37.1 75.343 56.485 108.387 66.219 24.532 7.226 46.763 14.851 64.626 20.976 23.344 8.006 40.21 13.793 49.421 14.559l.544.047.207.5c3.9 9.387 6.185 18.277 8.61 27.692 2.605 10.124 5.3 20.591 10.2 32 8.826 20.54 35.951 72.032 97.081 106.534 46.67 26.341 107.732 33.653 167.539 20.056 50.656-11.514 99.362-34.2 146.465-56.136q9.53-4.441 18.922-8.782c28.077-12.939 57.769-18.351 83.631-15.237 38.409 4.627 80.424-13.53 107.037-46.255 24.024-29.538 36.612-79.471 7.482-119.3-9.127-12.478-18.9-24.646-29.249-37.528-22.667-28.221-46.106-57.4-62.1-89.854-23.627-47.95-30.4-102.855-36.952-155.952-2.731-22.136-5.556-45.026-9.562-67.115-14.375-79.257-50.862-149.553-102.743-197.934-52.9-49.334-127.437-72.8-199.366-62.795l-.125-.882.125.882c-42.315 5.889-88.672 27.413-141.718 65.8-23.552 17.04-48.441 20.64-76.194 23.314-39.857 3.843-94.443 9.1-134.677 31.137-37.245 20.4-62.155 57.194-57.941 85.593l.1.69-.649.263C502.918-95.06 479-70.188 459.678-28.32z" transform="translate(-457.727 319.778)"/>
                </g>
                <g id="Group_25" data-name="Group 25" transform="translate(258.267 103.637)">
                    <path id="Path_39" data-name="Path 39" class="cls-2" d="M949.752 543.242c-40.58 0-79.815-9.632-111.491-28.141-44.765-26.159-80.572-67.9-98.24-114.532-4.782-12.621-7.293-24.429-9.722-35.85-2.214-10.4-4.306-20.235-7.964-30.471-5.078-1.776-12.551-5.08-21.951-9.236-20.035-8.854-50.312-22.236-86.926-33.769-46.564-14.671-81.392-36.158-103.514-63.871-23.533-29.589-36.7-69.921-39.129-119.874-.772-15.851-.755-31.9-.739-47.425.041-36.75.076-71.463-10.046-99.045l-.129-.347.176-.329c22.364-41.716 50.628-66.676 88.908-78.491-1.526-26.592 23.271-59.183 59.273-77.762 35.151-18.138 80.24-23.856 120.025-28.9l8.434-1.074c28.539-3.673 50.427-9.164 71.328-25.167 34.394-26.336 87.1-59.056 142.842-65.357 70.671-7.98 143.394 16.684 194.537 66 49.824 48.042 84.819 117.291 98.543 194.994 3.826 21.669 6.524 44.1 9.132 65.79 6.456 53.682 13.128 109.191 37.5 157.225 14.941 29.438 36.386 56.165 57.123 82.009 11.692 14.573 22.737 28.335 32.761 42.612 28.635 40.789 15.711 93.807-11.856 125.1-29.031 32.948-74.14 50.306-114.97 44.219-27.5-4.1-57.334.014-84.012 11.586-11.394 4.943-23.184 10.287-34.591 15.457-40.2 18.22-81.764 37.061-124.555 47.413a259.083 259.083 0 0 1-60.747 7.236zM461.727-39.193c10.1 27.8 10.061 62.521 10.022 99.267-.017 15.5-.035 31.533.737 47.344 2.413 49.6 15.456 89.609 38.77 118.918 21.908 27.449 56.465 48.753 102.708 63.319 36.7 11.561 67.03 24.966 87.1 33.836 9.6 4.243 17.182 7.594 22.2 9.315l.38.131.133.374c3.781 10.477 5.906 20.476 8.161 31.062 2.417 11.359 4.913 23.106 9.65 35.609 17.537 46.278 53.081 87.714 97.522 113.685 47.054 27.5 110.974 35.241 171 20.721 42.633-10.316 84.127-29.124 124.255-47.313 11.411-5.17 23.209-10.518 34.614-15.467 26.965-11.694 57.121-15.853 84.93-11.706 40.253 6.007 84.8-11.136 113.462-43.67 27.142-30.8 39.89-82.961 11.745-123.047-9.993-14.234-21.02-27.978-32.7-42.527-20.792-25.914-42.292-52.708-57.307-82.3-24.508-48.293-31.2-103.951-37.672-157.776-2.606-21.669-5.3-44.077-9.119-65.7-13.661-77.358-48.488-146.284-98.059-194.085-50.79-48.971-123.014-73.472-193.187-65.541l-.094-.827.094.827c-55.361 6.258-107.784 38.814-142.011 65.024-21.2 16.231-43.316 21.789-72.134 25.5l-8.436 1.076c-39.644 5.027-84.579 10.722-119.465 28.725-35.736 18.44-60.266 50.752-58.331 76.827l.05.662-.638.194c-38.052 11.561-66.143 36.207-88.38 77.543z" transform="translate(-459.901 317.876)"/>
                </g>
                <g id="Group_26" data-name="Group 26" transform="translate(262.737 107.342)">
                    <path id="Path_40" data-name="Path 40" class="cls-2" d="M933.086 537.155c-41 0-80.679-10.089-112.847-29.512-46.039-27.794-81.987-72.143-98.631-121.676-4.6-13.693-6.91-26.747-9.144-39.37-2.058-11.639-4-22.639-7.593-34.039a469.421 469.421 0 0 0-103.925-50.484c-45.339-15.3-77.312-35.225-97.75-60.926-22.4-28.28-34.388-66.713-35.631-114.232-.415-15.857.031-31.839.459-47.295.925-33.15 1.8-64.463-5.843-89.478l-.1-.333.183-.3c25.339-41.328 58.005-65.984 99.846-75.365.859-23.7 25.785-52.546 59.583-68.82 30.2-14.546 68.495-20.407 102.273-25.579 6.589-1.009 13.044-2 19.28-3.022 21.908-3.6 45.232-9.409 67.34-27.347 26.906-21.83 81.284-59.248 143.158-64.6 68.841-5.95 139.192 19.749 188.243 68.739 47.477 47.415 80.792 115.272 93.808 191.067 3.642 21.211 6.21 43.168 8.693 64.4 6.364 54.407 12.943 110.667 38.218 159.032 14.1 26.971 33.9 51.591 53.057 75.4 12.239 15.21 24.9 30.939 35.52 46.723 28.851 42.851 13.7 97.193-16.172 128.726-30.984 32.7-78.6 49.008-121.293 41.544-20.874-3.649-52.626-5.207-85.366 8.086-15.152 6.154-30.156 12.866-46.036 19.97-34.48 15.427-70.134 31.378-106.511 40.734a252.791 252.791 0 0 1-62.819 7.957zM463.77-49.976c7.607 25.2 6.733 56.506 5.81 89.64-.429 15.435-.874 31.394-.459 47.211 1.233 47.178 13.109 85.3 35.3 113.313 20.244 25.459 51.984 45.224 97.029 60.42a471.192 471.192 0 0 1 104.5 50.8l.238.153.084.268c3.674 11.594 5.644 22.72 7.728 34.5 2.222 12.57 4.522 25.567 9.086 39.15 16.529 49.191 52.236 93.237 97.963 120.844 48.193 29.1 113.415 37.093 174.469 21.387 36.248-9.323 71.841-25.246 106.263-40.646 15.194-6.8 30.906-13.828 46.084-19.992 33.083-13.432 65.147-11.859 86.224-8.178 42.2 7.381 89.258-8.747 119.894-41.081 29.452-31.086 44.41-84.625 16.012-126.8-10.59-15.729-22.661-30.733-35.444-46.619-19.2-23.866-39.057-48.544-53.221-75.651-25.408-48.616-32.006-105.021-38.384-159.567-2.48-21.213-5.047-43.15-8.682-64.32-12.964-75.485-46.125-143.046-93.376-190.236-48.734-48.671-118.657-74.2-187-68.289l-.07-.77.07.77c-61.462 5.313-115.546 42.537-142.313 64.255-22.39 18.165-45.948 24.035-68.07 27.674-6.241 1.027-12.7 2.015-19.295 3.024-33.674 5.156-71.839 11-101.834 25.442-33.588 16.176-58.284 44.8-58.721 68.067l-.012.611-.6.131c-41.596 9.154-74.072 33.522-99.273 74.489z" transform="translate(-462.08 316.061)"/>
                </g>
                <g id="Group_27" data-name="Group 27" transform="translate(267.209 110.871)">
                    <path id="Path_41" data-name="Path 41" class="cls-2" d="M916.472 531.2c-41.4 0-81.544-10.565-114.252-30.925C755 470.881 718.9 423.93 703.2 371.463c-4.419-14.753-6.524-29.032-8.561-42.841-1.9-12.882-3.695-25.056-7.209-37.632-16.771-16.315-52.692-41.238-98.993-57.994-30.069-10.881-67.7-27.306-91.985-57.982-20.985-26.612-32.1-64.163-32.133-108.593-.014-16.037.94-32.1 1.863-47.636 1.744-29.373 3.391-57.116-1.846-79.444l-.072-.306.181-.261c28.365-41.024 65.643-65.325 110.8-72.226 3.293-21.107 27.809-45.663 59.888-59.9 25.659-11.388 56.337-16.754 86.007-21.944 10.046-1.758 19.535-3.418 28.642-5.282 26.709-5.466 45.657-14.3 63.351-29.532 43.858-37.759 96.151-61.024 143.472-63.832 66.895-3.982 134.933 22.749 181.948 71.477 45.118 46.76 76.75 113.224 89.072 187.145 3.461 20.756 5.9 42.243 8.257 63.021 6.261 55.138 12.732 112.152 38.932 160.831 13.349 24.8 31.746 47.536 49.536 69.521 13.134 16.233 26.715 33.016 37.734 50.1 13.282 20.595 17.627 45.071 12.564 70.785A121.639 121.639 0 0 1 1341.6 420.5c-32.855 32.456-82.95 47.711-127.616 38.876-32.931-6.514-61.3-5.019-86.722 4.584-17.918 6.767-36.433 15.033-54.339 23.027-29.725 13.272-60.463 27-91.62 35.511a246.534 246.534 0 0 1-64.831 8.702zM465.807-60.673c5.2 22.473 3.549 50.2 1.807 79.544-.921 15.512-1.873 31.554-1.861 47.548.027 30.757 5.568 74.409 31.827 107.708 24.056 30.392 61.454 46.7 91.345 57.522 46.646 16.88 82.831 42.037 99.647 58.452l.135.135.051.184c3.574 12.729 5.467 25.573 7.3 37.994 2.029 13.76 4.128 27.986 8.514 42.641 15.608 52.138 51.477 98.793 98.408 128.009 49.407 30.755 115.924 39 177.938 22.053 31.048-8.484 61.733-22.185 91.41-35.435 17.924-8 36.46-16.278 54.419-23.061 25.679-9.7 54.306-11.216 87.512-4.647 44.211 8.75 93.794-6.358 126.321-38.488 30.943-30.563 48.57-86.707 20.286-130.561-10.978-17.017-24.534-33.771-37.646-49.974-17.83-22.036-36.271-44.822-49.684-69.743-26.329-48.92-32.819-106.075-39.092-161.345-2.357-20.76-4.792-42.229-8.247-62.948-12.274-73.641-43.774-139.834-88.69-186.385-46.728-48.43-114.307-74.983-180.826-71.04l-.041-.715.041.715c-47.009 2.789-98.991 25.928-142.615 63.483-17.894 15.406-37.034 24.335-64.006 29.855-9.123 1.866-18.624 3.528-28.68 5.287-29.581 5.178-60.171 10.53-85.67 21.844-31.918 14.163-56.228 38.557-59.123 59.317l-.074.531-.533.078c-44.889 6.715-81.954 30.753-110.173 71.442z" transform="translate(-464.26 314.333)"/>
                </g>
                <g id="Group_28" data-name="Group 28" transform="translate(266.213 114.227)">
                    <path id="Path_42" data-name="Path 42" class="cls-2" d="M902.714 525.387C860.92 525.389 820.3 514.336 787 493a235.736 235.736 0 0 1-99.415-135.948c-4.226-15.792-6.13-31.268-7.97-46.235-1.662-13.523-3.381-27.506-6.819-41.281-13.721-18.706-46.549-47.05-94.067-65.533-32.1-12.486-64.767-27.794-86.228-55.038-25.148-32.054-29.453-73.678-28.635-102.951.462-16.454 2.05-32.8 3.586-48.6 2.466-25.358 4.794-49.31 1.838-68.788l-.043-.278.172-.221c31.421-40.771 73.517-64.651 121.763-69.084 5.751-18.1 30.4-39.013 60.18-50.99 21.4-8.6 46.553-13.438 70.885-18.11 13.034-2.5 25.345-4.868 36.86-7.743 23.51-5.875 41.821-15.657 59.367-31.719 41.459-37.949 95.208-61.525 143.778-63.066 65.04-2.077 130.632 25.685 175.657 74.215 42.738 46.061 72.69 111.131 84.339 183.22 3.282 20.309 5.594 41.336 7.828 61.672 6.14 55.864 12.492 113.632 39.636 162.6 12.683 22.875 29.846 43.907 46.443 64.249 13.9 17.036 28.274 34.649 39.517 52.865 28.779 46.619 8.709 104.852-24.787 135.977-38.758 36.017-94.176 39.584-133.851 36.223-5.506-.466-11.058-1.129-16.939-1.832-23.014-2.757-46.812-5.605-71.225 2.9-19.933 6.942-40.415 16.151-60.223 25.06-25.72 11.565-52.318 23.525-79.148 31.313a240.068 240.068 0 0 1-66.785 9.51zM470.64-71.289c2.917 19.588.591 43.511-1.871 68.833-1.535 15.782-3.122 32.1-3.58 48.51-.812 29.056 3.447 70.358 28.355 102.1 21.264 26.994 53.738 42.206 85.666 54.623 47.873 18.62 80.951 47.239 94.734 66.088l.1.229c3.481 13.893 5.211 27.962 6.883 41.565 1.834 14.92 3.73 30.351 7.933 46.055A234.4 234.4 0 0 0 787.719 491.9c50.7 32.481 118.511 40.975 181.409 22.72 26.742-7.761 53.295-19.7 78.974-31.249 19.834-8.919 40.342-18.14 60.33-25.1 24.707-8.6 49.739-5.609 71.822-2.965 5.867.7 11.409 1.366 16.892 1.83 39.394 3.328 94.43-.186 132.837-35.874 33.11-30.769 52.968-88.3 24.563-134.325-11.2-18.142-25.548-35.723-39.418-52.726-16.638-20.384-33.836-41.463-46.574-64.443-27.275-49.2-33.639-107.1-39.794-163.091-2.234-20.319-4.544-41.33-7.818-61.6-11.61-71.838-41.445-136.665-84.008-182.536-44.766-48.254-110.071-75.814-174.639-73.792l-.021-.658.021.658c-48.262 1.531-101.693 24.977-142.924 62.719-17.717 16.219-36.206 26.1-59.942 32.027-11.55 2.885-23.878 5.252-36.932 7.759-24.268 4.66-49.364 9.479-70.638 18.038-34.622 13.922-55.135 35.976-59.542 50.574l-.129.427-.445.039c-47.966 4.274-89.836 27.921-121.103 68.379z" transform="translate(-463.775 312.689)"/>
                </g>
                <g id="Group_29" data-name="Group 29" transform="translate(264.962 117.411)">
                    <path id="Path_43" data-name="Path 43" class="cls-2" d="M889.959 519.46c-42.559 0-84.458-11.539-118.039-33.644-49.409-32.528-85.787-84.676-99.807-143.078-3.41-14.2-4.323-28.507-5.2-42.341-1.161-18.214-2.257-35.417-8.594-52.2-7.976-21.126-38.639-51.919-89.162-73.092-29.875-12.521-60.7-26.857-80.467-52.1-23.81-30.522-26.812-69.764-25.135-97.309C464.6 8.5 467.029-8.379 469.378-24.7c3.03-21.032 5.888-40.9 5.006-57.3l-.012-.239.154-.182c35-41.116 80.884-63.908 132.726-65.927 6.988-12.762 28.295-30.635 60.475-42.1 17.3-6.16 37.25-10.218 56.544-14.142 15.8-3.212 30.718-6.246 44.3-10.338 20.911-6.3 37.473-16.437 55.383-33.908 39.816-38.833 93.677-62.121 144.081-62.3h.712c62.734 0 125.728 28.73 168.653 76.949 40.936 45.986 68.462 107.986 79.606 179.3 3.1 19.866 5.287 40.436 7.4 60.33 6.007 56.6 12.223 115.123 40.341 164.363 12.075 21.15 28.153 40.642 43.7 59.491 14.56 17.65 29.614 35.9 40.947 55.115 28.787 48.8 6.5 108.344-29.087 139.6-32.814 28.824-82.609 40.748-140.194 33.563-5.732-.713-11.486-1.644-17.578-2.628-23.252-3.759-47.294-7.645-71.927.19-21.367 6.8-43.146 16.733-64.2 26.345-22.312 10.185-45.384 20.715-68.583 27.866a230.873 230.873 0 0 1-67.866 10.112zM475.6-81.824c.851 16.476-2.006 36.307-5.028 57.3-2.345 16.294-4.774 33.146-5.818 50.3-1.664 27.339 1.3 66.274 24.883 96.5 19.59 25.009 50.252 39.268 79.983 51.726 50.854 21.313 81.756 52.412 89.822 73.778 6.4 16.95 7.5 34.241 8.668 52.546.88 13.783 1.787 28.035 5.174 42.137 13.951 58.109 50.142 110 99.3 142.353 51.3 33.771 122.144 42.737 184.887 23.39 23.123-7.13 46.157-17.642 68.437-27.811 21.092-9.625 42.9-19.58 64.336-26.4 24.91-7.923 49.1-4.014 72.489-.233 6.081.982 11.825 1.911 17.532 2.624 33.165 4.131 95.329 5.3 139.248-33.273 35.223-30.937 57.3-89.846 28.845-138.088-11.286-19.133-26.311-37.346-40.84-54.96-15.579-18.89-31.69-38.42-43.819-59.66-28.243-49.459-34.472-108.111-40.493-164.831-2.111-19.88-4.294-40.436-7.394-60.271-11.107-71.083-38.534-132.873-79.317-178.685-42.7-47.964-105.359-76.545-167.748-76.545h-.708v-.6.6c-50.1.174-103.644 23.335-143.24 61.953-18.058 17.614-34.771 27.841-55.88 34.2-13.635 4.108-28.582 7.147-44.406 10.365-19.256 3.916-39.166 7.963-56.38 14.1-32.135 11.447-53.28 29.26-59.981 41.835l-.162.306-.349.012c-51.557 1.914-97.21 24.506-132.041 65.332z" transform="translate(-463.164 311.13)"/>
                </g>
                <g id="Group_30" data-name="Group 30" transform="translate(263.52 120.436)">
                    <path id="Path_44" data-name="Path 44" class="cls-2" d="M876.53 513.91c-42.924 0-85.33-12.057-119.6-35.2-50.435-34.063-86.956-88.809-100.2-150.2-3.348-15.51-4.245-31.159-5.115-46.294-1.1-19.161-2.138-37.259-7.693-55.254-7.595-24.6-36.591-59.087-84.25-80.674l-1.272-.576c-25.79-11.678-55.022-24.915-73.435-48.573-17.565-22.663-25.244-55.217-21.631-91.671 1.824-18.44 5.449-36.183 8.953-53.339 3.326-16.284 6.467-31.666 7.3-44.673l.01-.192.133-.143c37.8-40.517 88.273-62.77 142.29-62.77h1.4c8.418-9.368 29.292-23.611 60.777-33.22 13.23-4.037 28.159-7.126 42.6-10.114 17.662-3.655 35.924-7.432 51.352-12.993 22.511-8.115 38.007-22.144 51.4-36.1 37.666-39.258 93.029-62.842 144.375-61.527 60.928 1.548 121.894 31.335 163.076 79.681 38.5 45.193 64.39 105.838 74.873 175.377 2.932 19.425 4.989 39.544 6.977 59 5.865 57.335 11.93 116.621 41.043 166.113 11.53 19.6 26.643 37.683 41.256 55.172 15.128 18.106 30.773 36.828 42.083 56.924 12.73 22.616 15.709 50.161 8.387 77.558a131.529 131.529 0 0 1-41.769 65.657c-47.8 39.848-112.33 36.466-146.537 30.906-5.978-.972-11.952-2.175-18.275-3.449-23.468-4.727-47.727-9.615-72.573-2.5-22.349 6.405-44.877 16.911-66.664 27.072-19.385 9.037-39.426 18.385-59.537 24.979a224.34 224.34 0 0 1-69.734 11.023zM480.659-92.28c-.852 13.038-3.984 28.385-7.3 44.626-3.5 17.13-7.115 34.843-8.937 53.228-3.584 36.176 4.021 68.457 21.412 90.9 18.248 23.447 47.352 36.624 73.027 48.25l1.27.576c47.969 21.726 77.174 56.51 84.843 81.343 5.595 18.12 6.686 37.128 7.74 55.511.866 15.092 1.762 30.7 5.09 46.129 13.185 61.12 49.54 115.623 99.746 149.531 52.755 35.631 124.934 44.848 188.364 24.058 20.05-6.571 40.062-15.9 59.415-24.93 21.826-10.179 44.4-20.7 66.826-27.131 25.107-7.194 49.5-2.281 73.09 2.473 6.313 1.272 12.278 2.473 18.236 3.443 34.025 5.531 98.189 8.9 145.659-30.667 37.279-31.074 61.56-91.349 33.13-141.853-11.261-20.007-26.871-38.69-41.97-56.759-14.64-17.522-29.782-35.643-41.357-55.317-29.234-49.7-35.311-109.1-41.187-166.552-1.99-19.445-4.046-39.552-6.971-58.95-10.455-69.339-36.261-129.8-74.627-174.834-40.985-48.115-101.647-77.76-162.272-79.3-51.163-1.3-106.1 22.149-143.558 61.19-13.483 14.05-29.091 28.182-51.814 36.37-15.5 5.587-33.8 9.374-51.5 13.036-14.412 2.983-29.314 6.066-42.5 10.089-31.481 9.6-52.238 23.82-60.448 33.08l-.164.186h-.248c-.544 0-1.091-.006-1.635-.006-53.652-.003-103.788 22.072-141.36 62.28z" transform="translate(-462.462 309.648)"/>
                </g>
                <g id="Group_31" data-name="Group 31" transform="translate(261.881 123.319)">
                    <path id="Path_45" data-name="Path 45" class="cls-2" d="M863.259 508.5c-43.269 0-86.2-12.6-121.207-36.824-51.426-35.584-88.091-92.929-100.591-157.327-3.276-16.872-4.14-33.943-4.973-50.449-.97-19.19-1.974-39.031-6.842-58.1-6.639-25.993-31.4-64.708-79.345-88.263q-3.262-1.6-6.6-3.218c-22.934-11.141-46.65-22.661-62.352-42.988-22.36-29.058-20.958-66.37-18.133-86.023 2.931-20.4 8.623-40.266 13.645-57.792 3.153-11 6.132-21.4 8.024-30.528l.03-.145.107-.1c41.839-41.2 96.751-62.364 154.632-59.6 13.815-9.184 36.636-18.279 61.1-24.348 9-2.234 18.448-4.112 28.447-6.105 20.351-4.053 41.4-8.243 58.612-15.631 19.715-8.46 33.134-22.349 47.409-38.292 36.16-40.391 91.611-63.679 144.666-60.753 58.859 3.234 117.471 34.043 156.787 82.413 36.048 44.342 60.3 103.631 70.146 171.453 2.755 18.986 4.686 38.651 6.555 57.672 5.7 58.082 11.6 118.143 41.747 167.869 11.027 18.191 25.273 34.99 39.051 51.235 15.62 18.418 31.774 37.465 42.971 58.345 12.558 23.421 15.026 51.77 6.953 79.828-7.488 26.012-23.753 50.435-44.627 67.007-37.525 29.789-93.242 40.087-152.874 28.252-6.247-1.239-12.457-2.726-19.032-4.3-23.648-5.656-48.107-11.508-73.162-5.154-22.975 5.832-45.813 16.78-67.9 27.37-16.843 8.076-34.26 16.427-51.723 22.52a217.491 217.491 0 0 1-71.521 11.976zM485.814-102.675c-1.9 9.133-4.87 19.492-8.013 30.457-5.012 17.5-10.695 37.326-13.616 57.661-2.8 19.5-4.2 56.52 17.941 85.294 15.563 20.147 39.174 31.615 62.008 42.708q3.329 1.617 6.6 3.218c48.24 23.7 73.168 62.7 79.858 88.9 4.893 19.161 5.9 39.053 6.868 58.29.835 16.474 1.7 33.508 4.956 50.315 12.457 64.15 48.974 121.271 100.191 156.712 54.31 37.583 127.823 47.06 191.845 24.725 17.413-6.073 34.8-14.412 51.623-22.475 22.13-10.612 45.015-21.583 68.084-27.437 25.285-6.414 49.863-.535 73.63 5.15 6.565 1.57 12.767 3.055 19 4.29 59.333 11.778 114.767 1.554 152.072-28.058 39.825-31.615 64.712-94.728 37.422-145.618-11.148-20.789-27.267-39.8-42.855-58.178-13.8-16.272-28.076-33.1-39.143-51.358C1224.026 122 1218.118 61.833 1212.4 3.641c-1.867-19.008-3.8-38.663-6.549-57.625-9.819-67.65-34-126.776-69.937-170.983-39.147-48.16-97.5-78.834-156.083-82.056-52.782-2.9-107.917 20.254-143.884 60.43-14.353 16.033-27.852 30-47.754 38.539-17.307 7.426-38.4 11.629-58.805 15.692-9.987 1.989-19.42 3.867-28.4 6.1-24.436 6.06-47.21 15.145-60.923 24.3l-.133.09-.164-.008c-57.612-2.801-112.286 18.233-153.954 59.205z" transform="translate(-461.663 308.237)"/>
                </g>
                <g id="Group_32" data-name="Group 32" transform="translate(260.02 126.071)">
                    <path id="Path_46" data-name="Path 46" class="cls-2" d="M850.552 503.086a220 220 0 0 1-28.451-1.852c-34.671-4.519-67.457-17.15-94.816-36.521-52.39-37.1-89.2-97.037-100.987-164.447-3.194-18.281-4-36.834-4.78-54.776-.87-20.025-1.768-40.732-6.036-60.767-6.505-30.557-29.477-71.787-74.436-95.867-3.385-1.811-6.928-3.643-10.356-5.413-19.409-10.03-39.478-20.4-52.843-37.849-15.383-20.164-20.719-49.459-14.634-80.376 4.628-23.513 13.87-46.071 21.3-64.2 2.086-5.095 4.058-9.909 5.81-14.428l.111-.163a219.713 219.713 0 0 1 165.559-56.432c15.678-5.585 37.492-11.079 61.435-15.48 4.249-.78 8.545-1.521 13.093-2.305 22.432-3.867 47.854-8.251 67.081-18.061 17.1-8.725 28.584-22.583 40.741-37.257l2.681-3.232c34.138-41.034 91.031-64.579 144.952-59.979 28.366 2.42 57.2 11.616 83.38 26.6a230.2 230.2 0 0 1 67.12 58.548c33.579 43.431 56.2 101.364 65.417 167.534 2.581 18.541 4.386 37.755 6.132 56.334 5.529 58.844 11.244 119.69 42.446 169.631 10.57 16.915 24.036 32.53 37.061 47.632 16.047 18.608 32.642 37.849 43.644 59.434 12.36 24.237 14.311 53.4 5.5 82.105-8.227 26.8-25.527 51.713-47.46 68.349-40.157 30.459-98.18 39.791-159.205 25.6-6.532-1.521-13.29-3.377-19.824-5.174-23.831-6.55-48.476-13.323-73.72-7.786-23.316 5.115-46.092 16.409-68.117 27.331-14.627 7.253-29.755 14.755-44.935 20.4a209.336 209.336 0 0 1-72.863 12.867zM491.086-113.008c-1.744 4.5-3.705 9.285-5.777 14.348-7.8 19.037-16.638 40.611-21.25 64.042-6.038 30.678-.761 59.724 14.474 79.691 13.247 17.3 33.229 27.621 52.554 37.606a832.974 832.974 0 0 1 10.369 5.421c45.218 24.219 68.322 65.7 74.869 96.443 4.282 20.1 5.182 40.848 6.054 60.908.777 17.916 1.584 36.44 4.77 54.666 11.749 67.191 48.431 126.927 100.634 163.9 55.988 39.646 130.837 49.375 195.331 25.4 15.136-5.627 30.242-13.117 44.851-20.362 22.072-10.947 44.9-22.263 68.316-27.4 25.459-5.587 50.2 1.217 74.134 7.8 6.526 1.795 13.273 3.649 19.789 5.164 60.76 14.134 118.534 4.86 158.49-25.446 41.788-31.692 68.817-96.235 41.718-149.384-10.959-21.493-27.517-40.7-43.534-59.264-13.044-15.124-26.532-30.765-37.135-47.736-31.31-50.112-37.036-111.063-42.576-170-1.744-18.571-3.549-37.773-6.128-56.3-9.2-66.025-31.758-123.817-65.245-167.13-37.334-48.287-93.37-79.992-149.893-84.813-53.639-4.576-110.25 18.849-144.217 59.673l-2.677 3.228c-12.217 14.745-23.757 28.668-41.012 37.475-19.344 9.869-44.836 14.265-67.327 18.142-4.546.784-8.838 1.525-13.085 2.305-23.943 4.4-45.747 9.9-61.39 15.474l-.088.033-.092-.008a218.855 218.855 0 0 0-164.927 56.124z" transform="translate(-460.756 306.889)"/>
                </g>
                <g id="Group_33" data-name="Group 33" transform="translate(258 128.665)">
                    <path id="Path_47" data-name="Path 47" class="cls-2" d="M838 497.8c-44.3 0-89.125-13.722-125.4-39.976-53.332-38.6-90.282-101.131-101.379-171.565-3.108-19.733-3.838-39.827-4.546-59.26-.759-20.825-1.543-42.357-5.272-63.275-7.816-43.817-33.81-82.5-69.531-103.471-4.185-2.458-8.621-4.884-12.91-7.228-16.336-8.933-33.229-18.171-44.535-33.091-14.26-18.873-18.423-46.809-11.134-74.73 7.424-28.438 19.3-53.576 32.578-68.967 41.6-48.211 110-52.769 176.5-53.306 10.971-.088 23.748-1.77 38.546-3.718 7.422-.978 15.1-1.989 23.256-2.893 24.867-2.755 53.088-6.722 73.3-19 13.985-8.5 23.19-20.907 32.937-34.045 2.1-2.83 4.271-5.754 6.493-8.641 16.086-20.9 38.469-37.526 64.726-48.083a165.428 165.428 0 0 1 80.5-11.118c27.927 3.251 55.036 12.921 80.568 28.744a230.006 230.006 0 0 1 63.647 59.127c31.544 43.047 51.965 98.1 60.688 163.616 2.411 18.093 4.091 36.848 5.716 54.986 5.334 59.622 10.855 121.271 43.146 171.408 10.145 15.751 22.91 30.277 35.253 44.326 16.415 18.681 33.389 38 44.135 60.218 12.127 25.068 13.555 55.035 4.017 84.384-8.965 27.59-27.286 52.989-50.263 69.686-22.2 16.133-48.87 26.124-79.273 29.7-27.552 3.243-57.375.907-86.267-6.746-6.823-1.807-13.842-3.974-20.63-6.066-24-7.4-48.823-15.061-74.263-10.4-23.433 4.294-45.825 15.845-67.479 27.018-12.687 6.546-25.806 13.315-39 18.555A201.1 201.1 0 0 1 838 497.8zm135.6-802.695c-49.169 0-97.21 22.441-126.106 59.981-2.218 2.881-4.386 5.805-6.485 8.631-9.79 13.2-19.038 25.663-33.149 34.237-20.341 12.358-48.658 16.341-73.6 19.1-8.151.9-15.823 1.915-23.242 2.891-14.82 1.954-27.622 3.639-38.641 3.729-66.328.533-134.55 5.07-175.942 53.047-13.206 15.308-25.025 40.338-32.421 68.671-7.233 27.7-3.12 55.4 11.007 74.1 11.21 14.792 28.03 23.99 44.3 32.887 4.3 2.348 8.735 4.776 12.929 7.239a140.1 140.1 0 0 1 47.881 46.982 161.351 161.351 0 0 1 22.007 57c3.738 20.97 4.523 42.529 5.283 63.377.708 19.412 1.438 39.486 4.54 59.172 11.066 70.242 47.908 132.6 101.079 171.081 56.914 41.193 134.952 51.432 198.816 26.067 13.161-5.225 26.262-11.986 38.934-18.524 21.7-11.2 44.145-22.775 67.684-27.088 25.636-4.7 50.535 2.991 74.623 10.422 6.778 2.093 13.79 4.255 20.6 6.06 62.17 16.466 122.28 8.145 164.909-22.835 43.683-31.741 72.838-97.705 46.018-153.151-10.7-22.128-27.644-41.406-44.026-60.05-12.363-14.069-25.146-28.617-35.319-44.413-32.392-50.29-37.918-112.031-43.265-171.741-1.623-18.13-3.3-36.879-5.707-54.958-8.709-65.394-29.082-120.329-60.553-163.275-35.537-48.5-89.256-81.235-143.7-87.573a159.651 159.651 0 0 0-18.454-1.066z" transform="translate(-459.771 305.618)"/>
                </g>
                <g id="Group_34" data-name="Group 34" transform="translate(255.773 131.116)">
                    <path id="Path_48" data-name="Path 48" class="cls-2" d="M825.216 492.856a215.56 215.56 0 0 1-127.193-41.839C643.77 410.924 606.676 345.8 596.252 272.336c-3.012-21.219-3.652-42.9-4.271-63.877-.636-21.587-1.3-43.909-4.55-65.645-4.286-28.614-18.378-81.094-64.624-111.083-4.653-3.018-9.651-5.9-14.482-8.692C494.693 15.167 480.6 7.03 471.113-5.647c-13.2-17.671-16.121-44.138-7.63-69.076 7.628-22.394 21.48-43.974 38-59.211 23.1-21.3 52.548-36.244 87.541-44.415 30.2-7.053 63.79-8.97 99.82-5.705a518.722 518.722 0 0 0 62.188 2.258c29.068-.794 51.42-6.73 66.429-17.638 11.659-8.472 19.157-20.078 27.095-32.368 2.669-4.129 5.428-8.4 8.346-12.517 30.674-43.3 89.151-66.793 145.5-58.421 27.1 4.021 53.264 14.41 77.772 30.88a230.33 230.33 0 0 1 60.163 59.718c29.013 41.947 47.84 95.678 55.962 159.7 2.238 17.64 3.791 35.931 5.291 53.618 5.129 60.418 10.43 122.89 43.852 173.207 9.755 14.685 21.88 28.2 33.6 41.279 16.73 18.655 34.027 37.945 44.465 60.741 11.868 25.924 12.767 56.712 2.528 86.691a143.286 143.286 0 0 1-53.057 71c-23.363 16.354-51.21 26.218-82.763 29.32-28.771 2.826-59.583-.29-89.108-9.017-7.125-2.107-14.408-4.582-21.451-6.979-24.171-8.219-49.175-16.717-74.793-13-23.363 3.388-45.084 15.12-66.09 26.465-10.99 5.936-22.353 12.072-33.826 16.952a193.58 193.58 0 0 1-75.731 15.021zM655.938-184.95c-63.657 0-117.555 17.842-154.023 51.474-16.451 15.169-30.24 36.658-37.834 58.954-8.428 24.746-5.539 50.995 7.538 68.5 9.406 12.574 23.447 20.678 37.022 28.517 4.84 2.793 9.843 5.681 14.512 8.709C541.495 43.1 556.584 59.852 568 80.991c9.784 18.118 16.718 39.464 20.052 61.731 3.26 21.773 3.918 44.113 4.559 65.719.62 20.954 1.258 42.623 4.263 63.807 10.4 73.3 47.4 138.272 101.524 178.266C757.24 494 836.651 504.5 900.7 477.252c11.45-4.868 22.8-11 33.772-16.925 21.055-11.371 42.826-23.131 66.3-26.535 25.78-3.741 50.847 4.786 75.088 13.031 7.037 2.393 14.313 4.866 21.428 6.969 62.707 18.536 126.758 10.979 171.33-20.215 51.947-36.162 74.048-105.089 50.318-156.918-10.4-22.71-27.665-41.963-44.36-60.583-11.741-13.091-23.88-26.629-33.662-41.351-33.508-50.449-38.817-113-43.952-173.5-1.5-17.683-3.053-35.966-5.289-53.594-8.11-63.92-26.9-117.556-55.855-159.42-34.255-49.526-84.378-82.452-137.51-90.334-56.13-8.325-114.353 15.047-144.9 58.162-2.909 4.108-5.664 8.372-8.329 12.5-7.972 12.339-15.5 23.994-27.251 32.534-15.116 10.985-37.584 16.96-66.786 17.761a519.606 519.606 0 0 1-62.26-2.262q-16.79-1.525-32.844-1.522z" transform="translate(-458.685 304.418)"/>
                </g>
                <g id="Group_35" data-name="Group 35" transform="translate(253.326 133.501)">
                    <path id="Path_49" data-name="Path 49" class="cls-2" d="M813.289 487.88a208.345 208.345 0 0 1-29.63-2.142 218.152 218.152 0 0 1-100.1-41.5c-28.168-21.234-51.524-48.94-69.418-82.348A302.3 302.3 0 0 1 581.4 258.445c-2.9-22.747-3.44-46.072-3.957-68.626-.513-22.314-1.044-45.387-3.867-67.881-4.758-37.9-18.979-89.25-59.708-118.7-4.873-3.516-10.156-6.738-15.268-9.85-11.228-6.842-22.84-13.92-30.693-24.585-12.2-16.568-13.826-41.463-4.126-63.418 7.7-17.446 21.906-33.622 43.417-49.449a264.021 264.021 0 0 1 198.211-46.945c7.433 1.264 14.937 2.879 22.2 4.439 13.154 2.828 26.758 5.754 40.386 6.693 24.522 1.691 45.667-4.092 59.579-16.28 9.763-8.556 16.174-20.215 22.37-31.488 2.86-5.2 5.814-10.577 9.068-15.6 14.445-22.294 36.472-39.556 63.708-49.922a155.817 155.817 0 0 1 82.062-7.716c51.151 9.272 99.138 43.286 131.651 93.323 26.842 41.306 43.6 92.261 51.241 155.779 2.066 17.172 3.49 34.982 4.868 52.207 4.9 61.243 9.966 124.57 44.557 175.05 9.394 13.711 20.94 26.3 32.1 38.48 16.991 18.532 34.564 37.7 44.641 61.014 11.571 26.776 11.919 58.368.983 88.958-10.584 29.589-30.4 55.285-55.79 72.351-47.45 31.886-114.067 38.486-178.2 17.658-7.424-2.411-14.966-5.2-22.261-7.894-24.354-9-49.538-18.3-75.334-15.6-23.15 2.42-43.94 14.257-64.049 25.7-9.5 5.407-19.321 11-29.308 15.559a183.977 183.977 0 0 1-76.592 16.178zM663.2-194.022c-55.414 0-111.359 17.748-155.7 50.37-21.435 15.774-35.584 31.88-43.253 49.243-9.623 21.793-8.027 46.488 4.071 62.913 7.8 10.583 19.362 17.632 30.549 24.45 5.115 3.118 10.405 6.344 15.29 9.875 40.881 29.555 55.147 81.051 59.917 119.047 2.827 22.52 3.358 45.606 3.869 67.932.519 22.543 1.054 45.855 3.955 68.575 9.751 76.361 46.914 143.956 101.963 185.454 59.985 45.216 142.688 56.232 205.8 27.406 9.964-4.551 19.777-10.138 29.267-15.539 20.154-11.473 40.994-23.337 64.25-25.769 25.9-2.71 51.161 6.616 75.566 15.633 7.289 2.693 14.827 5.478 22.243 7.886 63.985 20.778 130.437 14.2 177.755-17.6 53.912-36.23 77.9-106.81 54.622-160.686-10.044-23.239-27.585-42.37-44.547-60.871-11.179-12.188-22.735-24.793-32.152-38.535-34.669-50.592-39.738-113.989-44.646-175.3-1.376-17.219-2.8-35.025-4.864-52.185-7.63-63.438-24.364-114.324-51.159-155.563-32.441-49.918-80.3-83.851-131.317-93.1-56.936-10.318-116.661 13.291-145.245 57.412-3.243 5.007-6.2 10.377-9.049 15.568-6.22 11.314-12.65 23.012-22.481 31.625-14.018 12.28-35.313 18.112-59.956 16.407-13.665-.941-27.285-3.869-40.458-6.7-7.252-1.56-14.753-3.173-22.175-4.437a251.436 251.436 0 0 0-42.115-3.511z" transform="translate(-457.493 303.25)"/>
                </g>
            </g>
        </g>
    </g>
</svg>
