<svg xmlns="http://www.w3.org/2000/svg" width="32" height="32" viewBox="0 0 32 32"><g transform="translate(14481 -16085)"><rect width="32" height="32" transform="translate(-14481 16085)" fill="#fff" opacity="0"/><g transform="translate(-14480.3 16085.398)"><path d="M32.455,1.918l-.069.022c-.307.039-.307.039-.433-.238-.074-.164-.074-.16-.26-.147s-.3.026-.433.03a.164.164,0,0,0-.182.147,2.929,2.929,0,0,1-.087.3l-.372.03.043-.164L31.152.269c.039-.134.039-.139.177-.139.307,0,.225-.069.368.212.225.459.433.922.667,1.385l.091.19M31.434.589h-.039c-.065.221-.13.433-.2.693l.541-.035c-.108-.242-.2-.433-.3-.662" transform="translate(-17.404 -0.07)" fill="#b7202e"/><path d="M37,1.975a.7.7,0,0,1,1.394-.048.684.684,0,0,1-.684.736A.654.654,0,0,1,37,1.975m1.052-.039h0a.636.636,0,0,0,0-.091.333.333,0,0,0-.654-.069.593.593,0,0,0,0,.368.329.329,0,0,0,.3.247.32.32,0,0,0,.329-.212,1.367,1.367,0,0,0,.056-.238" transform="translate(-21.022 -0.711)" fill="#b7202e"/><path d="M41.135,3.092l-.325-.074c.1-.433.2-.866.3-1.3l.294.061v.177l.143-.065a.528.528,0,0,1,.541.056.32.32,0,0,1,.151.286,1.182,1.182,0,0,1-.022.216c-.056.251-.113.5-.173.753a.481.481,0,0,1-.035.1l-.32-.074.134-.6a2.018,2.018,0,0,0,.052-.273c0-.151-.03-.229-.147-.268a.273.273,0,0,0-.325.1.615.615,0,0,0-.074.173c-.052.208-.1.433-.151.632l-.035.108" transform="translate(-23.184 -0.975)" fill="#b7202e"/><path d="M35.413,0h.329c.022.312,0,.619,0,.922v.939H35.4c0-.619.03-1.229.026-1.861" transform="translate(-20.116)" fill="#b7202e"/><path d="M31.866,26.4a11.227,11.227,0,0,1-22.376.056,5.635,5.635,0,0,0,10.859.935l-.216-.134a4,4,0,0,1-1.467-1.515,2.8,2.8,0,0,1-.359-1.3A2.6,2.6,0,0,1,18.687,23a5.392,5.392,0,0,1,.493-.675,6.9,6.9,0,0,0,.948-1.337,3.263,3.263,0,0,0,.359-1.3,4.056,4.056,0,0,0-.1-.97c-.043-.221-.074-.433-.113-.658V17.92a.831.831,0,0,1,.126.065,7.241,7.241,0,0,1,2.419,2.753,5.1,5.1,0,0,1-.2,4.848,4.692,4.692,0,0,1-1.056,1.151l-.407.333c-.043.039-.078.082-.121.121a.177.177,0,0,0-.043.221,5.643,5.643,0,0,0,10.474.385,6.151,6.151,0,0,0,.411-1.372" transform="translate(-5.419 -10.164)" fill="#b7202e"/><path d="M2.832,41.87c-.035-.126-.069-.247-.108-.368l.065-.048a.671.671,0,0,0,.433-.757,1.532,1.532,0,0,0-.143-.55.584.584,0,0,0-.307-.294.433.433,0,0,0-.571.29,4.129,4.129,0,0,0-.061.567,4.526,4.526,0,0,1-.035.684,1.588,1.588,0,0,1-.056.286.892.892,0,0,1-1.363.489,1.164,1.164,0,0,1-.433-.554,1.926,1.926,0,0,1-.13-1.156,1.082,1.082,0,0,1,.736-.835H.932c.039.126.074.247.113.368a.407.407,0,0,1-.074.048.762.762,0,0,0-.489.675,1.3,1.3,0,0,0,.264.991.515.515,0,0,0,.433.2.433.433,0,0,0,.4-.277,1.372,1.372,0,0,0,.087-.372,4.7,4.7,0,0,1,.035-.684,2.766,2.766,0,0,1,.082-.532.77.77,0,0,1,.731-.628.866.866,0,0,1,.809.4,1.692,1.692,0,0,1,.264.688,1.562,1.562,0,0,1,0,.6.948.948,0,0,1-.744.762" transform="translate(-0.086 -22.354)" fill="#b7202e"/><path d="M6.367,50.933l-.234.195v.035a.9.9,0,0,1,.744.346.7.7,0,0,1,.1.818h.173a.866.866,0,0,1,.718.433.649.649,0,0,1-.078.827,1.3,1.3,0,0,1-.16.147c-.433.342-.866.68-1.3,1.017l-.082.052-.242-.3.126-.1,1.052-.822a2.112,2.112,0,0,0,.255-.225.377.377,0,0,0,.069-.472.576.576,0,0,0-.757-.281,1.3,1.3,0,0,0-.268.156l-1,.818-.143.1-.238-.307.126-.108c.364-.281.727-.563,1.086-.866a1.528,1.528,0,0,0,.255-.247.372.372,0,0,0,0-.459.58.58,0,0,0-.723-.216,2.069,2.069,0,0,0-.381.238c-.294.221-.589.454-.866.684l-.143.108-.247-.312L6.172,50.66c.078.1.143.177.225.273" transform="translate(-2.43 -28.733)" fill="#b7202e"/><path d="M17.571,14.15l.234.3-.26.225,1.3,1.649a.489.489,0,0,1-.113.03h-.182a.3.3,0,0,1-.325-.147c-.29-.385-.589-.762-.866-1.138l-.151-.117a1.852,1.852,0,0,0-.489.433L18.186,16.9c-.177.026-.32.056-.467.074a.2.2,0,0,1-.113-.065c-.169-.169-.329-.342-.5-.515-.035-.035-.069-.069-.126-.117l-.433.48.346.32a.173.173,0,0,1-.169.087h-.558a.2.2,0,0,1-.212-.126.229.229,0,0,1,.056-.255c.2-.216.394-.433.589-.658.035-.035.069-.078.113-.13l-.307-.316c-.368.316-.649.7-.991,1.043l-.286-.255.744-.831.117.078h0l-.052-.151a11.435,11.435,0,0,1,1.64-1.415" transform="translate(-8.619 -8.026)" fill="#b7202e"/><path d="M41.834,8.88a3.038,3.038,0,0,0,.035.329l-.338.035a.671.671,0,0,0-.134.03.164.164,0,0,0-.13.186.173.173,0,0,0,.151.173,1.588,1.588,0,0,0,.32,0,1,1,0,0,0,.182-.052v.173a4.224,4.224,0,0,0,.346-.939l-1.182-.368.1-.364H41.3l.731.208.6.169c-.056-.069-.091-.13-.138-.177a2.476,2.476,0,0,0-.788-.563.19.19,0,0,1-.143-.208,1.638,1.638,0,0,0-.026-.338,3.653,3.653,0,0,1,.433.212,3.7,3.7,0,0,1,.372.338.432.432,0,0,0,0-.1c-.043-.134-.091-.264-.139-.4a.307.307,0,0,0-.177-.216.13.13,0,0,1-.061-.082,1.957,1.957,0,0,0-.035-.433,3.371,3.371,0,0,1,.433.208.433.433,0,0,1,.138.216c.074.229.143.463.2.7s.108.515.147.775a.2.2,0,0,0,.186.225.394.394,0,0,1,.087.043L43,9.023l-.325-.1c-.139.325-.242.658-.368.982s-.234.649-.364,1c-.1-.143-.19-.255-.268-.377a.2.2,0,0,1,0-.13c.039-.13.091-.26.143-.433h-.195a.61.61,0,0,1-.628-.545.433.433,0,0,1,.208-.433.926.926,0,0,1,.632-.108" transform="translate(-23.286 -3.687)" fill="#b7202e"/><path d="M32.881,9.84a.227.227,0,0,0-.026-.13c-.026-.043,0-.151,0-.242l.489-.043.385-.026a.281.281,0,0,1,.234.043c.026.022.082,0,.121,0h.866a.827.827,0,0,1,0,.385h-.325v1.9a.234.234,0,0,0,.108.216.537.537,0,0,1,.173.628.48.48,0,0,1-.489.351.775.775,0,0,1-.537-.169,1.731,1.731,0,0,1-.225-.212,4.9,4.9,0,0,1-.467-.662.221.221,0,0,1,.286.1,1.848,1.848,0,0,0,.433.493.6.6,0,0,0,.576.139.255.255,0,0,0,.2-.242.2.2,0,0,0-.286-.216.991.991,0,0,0-.177.121.931.931,0,0,0-.1.113l-.2-.29a.506.506,0,0,1,.506-.264c0-.078-.069-.1-.113-.121a.2.2,0,0,1-.1-.195c0-.247,0-.493,0-.744v-.186a6.121,6.121,0,0,0-.7.061.2.2,0,0,0-.164.242.779.779,0,0,0,.074.221,1.818,1.818,0,0,0,.355.541l.121.1-.151.113a.758.758,0,0,1-.087-.069c-.147-.173-.3-.342-.433-.524a1.017,1.017,0,0,1-.2-.636.377.377,0,0,1,.113-.3.294.294,0,0,1,.156-.087c.277-.03.554-.048.866-.074a1.954,1.954,0,0,0,.035.251,1.558,1.558,0,0,0,0-.589h-.238a.381.381,0,0,0-.3-.035l-.649.043h-.126" transform="translate(-18.665 -5.326)" fill="#b7202e"/><path d="M44.456,63.007l-.394-1.177.377-.13,1.117,3.246-.342.117c-.039-.087-.069-.164-.108-.26-.026.048-.043.074-.056.1a.9.9,0,0,1-.887.5,1.086,1.086,0,0,1-.835-.519,1.783,1.783,0,0,1-.3-1.134.944.944,0,0,1,1.324-.809.206.206,0,0,1,.108.043m-1.043.9a1.731,1.731,0,0,0,.316.866.679.679,0,0,0,.506.294.628.628,0,0,0,.675-.675,1.632,1.632,0,0,0-.359-.961.654.654,0,0,0-.723-.216.671.671,0,0,0-.433.688" transform="translate(-24.437 -34.996)" fill="#b7202e"/><path d="M36.695,63.22c.03.16.056.3.087.433l-.372.078c0-.03-.039-.056-.069-.1a.277.277,0,0,0-.026.048l-.493,1.4c-.2.558-.394,1.112-.589,1.671-.052.143-.052.143-.208.147h-.3L33.28,63.558l.472-.022,1.186,3a.368.368,0,0,0,.048-.091q.467-1.428.939-2.857c.039-.126.043-.126.173-.134h.2a.272.272,0,0,1,.026-.139l.368-.065" transform="translate(-18.914 -35.858)" fill="#b7202e"/><path d="M55.727,60.53l-.117.1-.2.16-.242-.16c-.061.048-.052.121-.069.182a1.3,1.3,0,0,1-.645.8.723.723,0,0,1-.433.1.7.7,0,0,1-.576-.926,1.16,1.16,0,0,1,.255-.4l.519-.554c.039-.048.069-.1.117-.169-.069-.074-.13-.147-.2-.212a.333.333,0,0,0-.333-.074.982.982,0,0,0-.593.454.433.433,0,0,0-.026.316.673.673,0,0,0,.056.186l-.329.195a.749.749,0,0,1-.078-.7,1.584,1.584,0,0,1,1-.866.537.537,0,0,1,.571.151,2.506,2.506,0,0,1,.247.277c.139.164.268.338.411.506a2.22,2.22,0,0,0,.671.645m-1.186-.632c-.108.139-.195.26-.29.372s-.2.234-.307.351a.814.814,0,0,0-.069.1.377.377,0,0,0,0,.433.39.39,0,0,0,.433.126.866.866,0,0,0,.537-.736,1.026,1.026,0,0,0-.329-.662" transform="translate(-29.973 -33.427)" fill="#b7202e"/><path d="M23.908,65.153,23.561,65a.779.779,0,0,1,.714-.489,1.731,1.731,0,0,1,1,.268.584.584,0,0,1,.281.705c-.082.338-.186.675-.277,1.017a4.623,4.623,0,0,0-.113.5,1.934,1.934,0,0,0,0,.32l-.238-.065c-.169-.048-.177-.056-.164-.238v-.1a.179.179,0,0,0-.177.039,1.3,1.3,0,0,1-1.06-.074.693.693,0,0,1,.316-1.3,3.51,3.51,0,0,1,.506,0l.6.061c.134,0,.143,0,.182-.134a.433.433,0,0,0-.247-.563,1.819,1.819,0,0,0-.433-.13.459.459,0,0,0-.433.173l-.113.143m1.091.84a.344.344,0,0,0-.074,0l-.693-.056a1.876,1.876,0,0,0-.312,0,.346.346,0,0,0-.333.273.355.355,0,0,0,.143.411.866.866,0,0,0,.307.13.727.727,0,0,0,.788-.255,1.3,1.3,0,0,0,.19-.489" transform="translate(-13.181 -36.587)" fill="#b7202e"/><path d="M12.091,60.894l-.307-.273.117-.286h-.19a1.251,1.251,0,0,1-.961-.58.68.68,0,0,1,.4-1.039.757.757,0,0,1,.541.065c.126.065.242.143.364.212s.359.225.541.329.134.061.221-.043a.433.433,0,0,0,0-.628,1.731,1.731,0,0,0-.3-.268.476.476,0,0,0-.541-.03l-.121.065c-.082-.1-.16-.19-.251-.29a.762.762,0,0,1,.7-.186,1.636,1.636,0,0,1,.978.757.58.58,0,0,1-.065.71c-.2.251-.433.5-.632.744l-.052.056a2.086,2.086,0,0,0-.433.705m.433-1.3-.069-.048-.623-.346a1.67,1.67,0,0,0-.247-.13.368.368,0,0,0-.5.208.4.4,0,0,0,.069.407.866.866,0,0,0,.433.307.671.671,0,0,0,.718-.147c.078-.078.147-.16.234-.251" transform="translate(-6.068 -32.852)" fill="#b7202e"/><path d="M64.907,44.845c-.052.113-.108.225-.164.342a.8.8,0,0,1-.463-.762,1.766,1.766,0,0,1,.268-.879.615.615,0,0,1,.779-.3c.294.087.589.186.866.277a2.251,2.251,0,0,0,.9.177c-.039.117-.074.221-.1.325a.1.1,0,0,1-.108.069h-.221a.678.678,0,0,0,.052.195,1.26,1.26,0,0,1-.082.991.671.671,0,0,1-.757.377.684.684,0,0,1-.554-.675,4,4,0,0,1,.043-.506c.03-.216.065-.433.091-.645,0-.13,0-.138-.117-.177a.433.433,0,0,0-.589.242,1.788,1.788,0,0,0-.138.454.433.433,0,0,0,.143.377l.151.139m.866-1.047a5.058,5.058,0,0,1-.061.58c-.022.19-.048.273-.056.411a.381.381,0,0,0,.29.433.39.39,0,0,0,.433-.2.909.909,0,0,0,.1-.671.766.766,0,0,0-.714-.537" transform="translate(-36.495 -24.502)" fill="#b7202e"/><path d="M62.544,50.911c-.061.121-.121.221-.186.346-1-.545-2-1.1-3.008-1.645l.2-.351,1.069.593a.307.307,0,0,0-.026-.169,1.021,1.021,0,0,1,.433-1.026.615.615,0,0,1,.532-.078,1.618,1.618,0,0,1,.346.143l1.342.74.078.052-.186.342-.147-.074-1.195-.68a1.207,1.207,0,0,0-.255-.113.459.459,0,0,0-.5.156.641.641,0,0,0,.1.948,7.089,7.089,0,0,0,.744.433l.584.325.087.056" transform="translate(-33.699 -27.538)" fill="#b7202e"/><path d="M54,22.591l-.169.082c-.113.052-.195,0-.2-.126a.212.212,0,0,1,0-.091c.048-.16.1-.316.151-.472a.251.251,0,0,1,.078-.113c.108-.1.177-.087.255.035l.065.091.524-.29a4.16,4.16,0,0,0-.325-.55L52.6,22.275v-.364a.2.2,0,0,1,.121-.212c.433-.26.866-.528,1.272-.8l.156-.1-.138-.255.32-.2a19.684,19.684,0,0,1,1.121,1.887l-.329.182-.186-.338-.545.286c.1.173.182.333.277.515l-.372.212c-.1-.169-.19-.329-.29-.506" transform="translate(-29.869 -11.537)" fill="#b7202e"/><path d="M20.583,12.077l.576-.338.576-.325a.472.472,0,0,0-.078-.065c-.16-.069-.32-.147-.485-.2a.541.541,0,0,0-.493.043.2.2,0,0,1-.277-.03,2.688,2.688,0,0,0-.251-.195.969.969,0,0,1,.8-.16,4.384,4.384,0,0,1,.931.433.177.177,0,0,0,.251,0l.19.338-.342.2.364.667-.307.169-.2.113a.29.29,0,0,0-.108.433.4.4,0,0,0,.6.074.177.177,0,0,0-.03-.048.238.238,0,0,1-.048-.307.3.3,0,0,1,.307-.164.2.2,0,0,1,.113.048.467.467,0,0,1,.164.472.238.238,0,0,0,0,.056.935.935,0,0,1,.377.247l-.229.134-.3-.2a.147.147,0,0,0-.147,0,.866.866,0,0,1-1.112-.325,1.03,1.03,0,0,1-.117-.316.338.338,0,0,1,.2-.394l.268-.151.035-.043-.169-.312-.866.476c-.065-.113-.121-.221-.186-.338" transform="translate(-11.467 -6.113)" fill="#b7202e"/><path d="M3.161,48.694a.948.948,0,0,1-.619-.234,1.242,1.242,0,0,1-.433-.866,1.008,1.008,0,0,1,.381-.922,1.8,1.8,0,0,1,.982-.433.969.969,0,0,1,.654.151,1.251,1.251,0,0,1,.528,1.238,1.021,1.021,0,0,1-.273.545,1.852,1.852,0,0,1-1.229.519m.4-2.034a1.472,1.472,0,0,0-.931.433.667.667,0,0,0-.134.77.654.654,0,0,0,.662.433,1.372,1.372,0,0,0,.97-.433.667.667,0,0,0,.143-.779.7.7,0,0,0-.7-.433" transform="translate(-1.229 -26.223)" fill="#b7202e"/><path d="M12.855,21.393l-.164.242-.32-.195a11.686,11.686,0,0,1,1.169-1.77l.3.216-.195.29,1.705,1.242a2.255,2.255,0,0,1-.433.156.335.335,0,0,1-.147-.065l-1.2-.866-.16-.108a2.649,2.649,0,0,0-.333.485l1.8,1.082a1.731,1.731,0,0,1-.433.208.323.323,0,0,1-.138-.052L13.05,21.5l-.195-.108" transform="translate(-7.053 -11.156)" fill="#b7202e"/><path d="M47.5,62.322l.377-.2,1.571,1.415a.4.4,0,0,0,0-.061c-.082-.515-.16-1.034-.238-1.549a2.312,2.312,0,0,0-.056-.381.117.117,0,0,1,.069-.139l.273-.139c.035.247.069.476.1.705.091.688.182,1.372.268,2.06a4.012,4.012,0,0,1,.017.6.615.615,0,0,1-.433.606c-.113.03-.126.026-.19-.069s-.087-.126-.139-.2l.16-.065a.433.433,0,0,0,.286-.463h0a.645.645,0,0,0-.251-.532c-.571-.48-1.125-.978-1.684-1.472a1.148,1.148,0,0,1-.108-.1" transform="translate(-26.978 -34.751)" fill="#b7202e"/><path d="M18.047,61.8l.381.2c-.1.693-.2,1.381-.307,2.082l1.562-1.415.338.177a.554.554,0,0,1-.069.091q-1.1.974-2.212,1.943a1.528,1.528,0,0,1-.385.255.6.6,0,0,1-.662-.117.126.126,0,0,1-.048-.16l.1-.255.16.108a.433.433,0,0,0,.545-.039.688.688,0,0,0,.294-.511c.069-.692.169-1.385.255-2.077l.043-.286" transform="translate(-9.471 -35.052)" fill="#b7202e"/><path d="M48.179,14.249l.238-.2.134.1.6.467c.048.039.091.074.048.143l.091-.052.952.887-.255.281a12.985,12.985,0,0,0-1.3-1.1c-.433.545-.866,1.1-1.3,1.666-.056-.169-.108-.3-.143-.433a.2.2,0,0,1,.043-.126c.078-.108.16-.212.255-.333l-.108-.022a.628.628,0,0,1-.351-.957.476.476,0,0,1,.532-.19c.281.065.312.1.29.385a.189.189,0,0,1-.022.1.7.7,0,0,0-.164-.061,1.731,1.731,0,0,0-.333-.056.273.273,0,0,0-.164.065.126.126,0,0,0,0,.221.515.515,0,0,0,.316.108h.325l.493-.632-.169-.134c-.039-.035-.078-.069-.035-.126Z" transform="translate(-26.684 -7.969)" fill="#b7202e"/><path d="M26,10.517c.043.082.074.143.1.2h.022a.921.921,0,0,0-.048-.216,5.5,5.5,0,0,1,1.026-.29l.1.342-.325.108c.19.671.377,1.333.571,2.013a1.857,1.857,0,0,1-.433-.13c-.026,0-.048-.065-.056-.1-.039-.113-.069-.225-.108-.355a1.61,1.61,0,0,1-.134.1.619.619,0,0,1-.935-.368.571.571,0,0,1,.411-.641.147.147,0,0,1,.087,0l.229.195c-.087.056-.16.1-.229.151a.515.515,0,0,0-.2.264.186.186,0,0,0,.039.2c.061.052.126.03.19,0a.705.705,0,0,0,.29-.273c.03-.052.065-.1.108-.169-.069-.247-.147-.515-.229-.8-.394.139-.757.312-1.151.433-.048-.113-.1-.225-.147-.355l.844-.342" transform="translate(-14.313 -5.791)" fill="#b7202e"/><path d="M50.006,19.2a.151.151,0,0,1-.169-.156,2.986,2.986,0,0,1,.056-.866.744.744,0,0,1,.342-.463.407.407,0,0,1,.654.338v.1c.333,0,.433.074.4.4l.147-.052c.039.048.082.091.121.143.108.143.377.056.433-.1a.173.173,0,0,0-.043-.173l-.229-.286.29-.242c.238.264.433.545.684.827l-.294.247L52.2,18.7l-.082.1a.727.727,0,0,1-.433.277.532.532,0,0,1-.355-.065.182.182,0,0,0,0,.255.658.658,0,0,0,.338.234,1.268,1.268,0,0,1,.221.056,4.327,4.327,0,0,1-.364.294.139.139,0,0,1-.1,0,.623.623,0,0,1-.407-.822,3.382,3.382,0,0,1,.177-.372c-.108-.182-.234-.2-.381-.048l-.268.286c-.052-.113-.091-.208-.143-.316l.208-.225c.056-.061.117-.113.065-.2a.255.255,0,0,0-.264-.121.39.39,0,0,0-.247.221,1.6,1.6,0,0,0-.134.584,1.468,1.468,0,0,1-.035.385" transform="translate(-28.299 -9.998)" fill="#b7202e"/><path d="M56.21,55.845l.281-.307,1.913.827a2.325,2.325,0,0,0-.177-.377c-.061-.126-.126-.247-.19-.372l-.186-.364c-.061-.126-.126-.247-.19-.372s-.126-.247-.19-.381c.1-.1.182-.19.277-.3l.13.251.978,1.991c.069.138.069.138-.035.251-.182.19-.126.177-.359.082l-2.108-.866-.143-.065" transform="translate(-31.92 -30.741)" fill="#b7202e"/><path d="M3.173,21.7c.061.139.1.26.164.372a.281.281,0,0,0,.121.087c.13.061.264.113.433.173-.048.113-.087.216-.134.333-.6-.242-1.173-.467-1.757-.705l.134-.329.731.294.026-.03-.065-.147-.346-.753a.221.221,0,0,1,0-.208c.048-.1.087-.208.139-.333l.091.182c.091.2.177.4.264.6.061.134.065.134.212.1l.978-.212h.208c-.061.147-.1.268-.156.381a.169.169,0,0,1-.117.061l-.8.108-.117.026" transform="translate(-1.172 -11.599)" fill="#b7202e"/><path d="M22.194,4.894l.325-.087a.1.1,0,0,1,.069,0,.216.216,0,0,0,.221,0c.221-.074.273-.182.195-.4a.549.549,0,0,0-.069-.177.628.628,0,0,0-.065.1.5.5,0,0,1-.757.16.835.835,0,0,1-.32-.766.511.511,0,0,1,.693-.433l.1.03a.384.384,0,0,0-.026-.164l.268-.1a.563.563,0,0,1,.048.082c.138.355.281.714.411,1.073a1.783,1.783,0,0,1,.082.372.333.333,0,0,1-.13.3,1.069,1.069,0,0,1-.71.264.329.329,0,0,1-.333-.268M22.12,3.786a.731.731,0,0,0,.147.394.286.286,0,0,0,.325.117.3.3,0,0,0,.212-.307.615.615,0,0,0-.169-.433.29.29,0,0,0-.325-.043.3.3,0,0,0-.177.29" transform="translate(-12.394 -1.731)" fill="#b7202e"/><path d="M9.272,11.419l.242-.229.775.407.026-.022c-.134-.26-.3-.5-.433-.762l.225-.238.792.433a1.775,1.775,0,0,0-.212-.433c-.069-.134-.143-.26-.221-.4l.208-.216a8.6,8.6,0,0,1,.675,1.272l-.242.216-.736-.4-.026.026c.134.247.29.48.433.736l-.229.247-1.3-.636" transform="translate(-5.283 -5.649)" fill="#b7202e"/><path d="M18.853,3.614l.909,1.64-.26.156c-.035-.048-.069-.087-.108-.134,0,.03-.03.048-.039.074a.519.519,0,0,1-.866.225.974.974,0,0,1-.338-.61.532.532,0,0,1,.615-.606h.1l-.307-.58.294-.169m-.022.939a.3.3,0,0,0-.333.316.693.693,0,0,0,.225.433.29.29,0,0,0,.493-.277A.74.74,0,0,0,19,4.644a.983.983,0,0,0-.173-.1" transform="translate(-10.329 -2.047)" fill="#b7202e"/><path d="M54.248,8.421c-.052.052-.091.082-.134.121l-.234-.186c.377-.493.762-.978,1.151-1.476l.139.1.126.108-.394.519h.126a.528.528,0,0,1,.493.662.948.948,0,0,1-.489.61.511.511,0,0,1-.762-.385L54.248,8.4m.19-.078a.277.277,0,0,0,.433.251.7.7,0,0,0,.316-.433.26.26,0,0,0-.082-.281.273.273,0,0,0-.286-.065.649.649,0,0,0-.381.519" transform="translate(-30.597 -3.903)" fill="#b7202e"/><path d="M67.91,40.152a2.612,2.612,0,0,1-.065.39L65.4,40.108c.026-.121.043-.225.065-.342l.338.039c-.1-.117-.182-.2-.247-.3a.433.433,0,0,1-.039-.359.736.736,0,0,1,.195-.333l.329.19-.065.121a.433.433,0,0,0,.208.636,1.969,1.969,0,0,0,.467.151c.368.074.744.134,1.112.2a1.116,1.116,0,0,1,.147.035" transform="translate(-37.131 -22.013)" fill="#b7202e"/><path d="M14.5,25.7v.242c-.087.03-.173.065-.268.091a.268.268,0,0,0-.2.186.541.541,0,0,1-.121.177.2.2,0,0,1-.225.056.242.242,0,0,1-.164-.186.359.359,0,0,1,.212-.394.19.19,0,0,0,.108-.216.115.115,0,0,0-.186-.1c-.1.056-.2.147-.3.221s-.164.143-.255.2a.511.511,0,0,1-.216.082.234.234,0,0,1-.286-.273v-.043l.39-1.034a1.342,1.342,0,0,1,.359.117c-.1.281-.208.55-.307.822h.026a.822.822,0,0,1,.1-.108,2.524,2.524,0,0,1,.346-.264A.333.333,0,0,1,14,25.41a2.233,2.233,0,0,1,.13.333l.156-.026L14.5,25.7" transform="translate(-7.178 -14.01)" fill="#b7202e"/><path d="M54.55,26.741c.039-.173.069-.307.1-.433s.078-.082.126-.1l1.151-.463.433-.177c-.03-.091-.056-.177-.087-.281l.346-.143c.139.333.264.649.4.991l-.355.147c-.048-.108-.091-.2-.138-.32l-.97.394-1,.4" transform="translate(-30.977 -14.259)" fill="#b7202e"/><path d="M61.208,16.979c.026-.052.048-.091.069-.139l-.117-.052a.567.567,0,0,1-.307-.333.372.372,0,0,1,.113-.433.368.368,0,0,1,.472,0c.082.061.151.139.229.208l.182.169a.2.2,0,0,0,.052.026c.126-.078.151-.121.126-.216a.338.338,0,0,0-.338-.255,1.189,1.189,0,0,1-.061-.13.527.527,0,0,0-.048-.139.433.433,0,0,1,.433.078,1.056,1.056,0,0,1,.3.459.329.329,0,0,1-.121.411c-.13.1-.264.177-.4.268a1.324,1.324,0,0,0-.433.359L61.191,17m.489-.454a3.429,3.429,0,0,0-.3-.264.16.16,0,0,0-.255.13.273.273,0,0,0,.061.182c.121.156.307.134.493-.048" transform="translate(-34.537 -8.881)" fill="#b7202e"/><path d="M8.26,14.54a.744.744,0,0,1,.727.723.736.736,0,0,1-.7.705.757.757,0,0,1-.736-.714.727.727,0,0,1,.71-.714m-.082.325a.325.325,0,0,0-.316.433.576.576,0,0,0,.48.342.32.32,0,0,0,.3-.433.576.576,0,0,0-.467-.342" transform="translate(-4.319 -8.247)" fill="#b7202e"/><path d="M16.106,7.894l.29-.13a.506.506,0,0,1-.091.48.727.727,0,0,1-.433.281.55.55,0,0,1-.511-.113.918.918,0,0,1-.333-.541.55.55,0,0,1,.225-.589A.58.58,0,0,1,15.89,7.2a.9.9,0,0,1,.416.355c-.238.186-.493.338-.727.519a.307.307,0,0,0,.372.16c.134-.043.177-.134.173-.342m-.251-.3c-.143-.186-.3-.221-.433-.108a.268.268,0,0,0,0,.433l.433-.3" transform="translate(-8.552 -4.051)" fill="#b7202e"/><path d="M25.883,3.133c.061.19.16.277.3.281s.212-.065.281-.264l.32-.026a.528.528,0,0,1-.229.433.818.818,0,0,1-.433.134.519.519,0,0,1-.42-.19.866.866,0,0,1-.2-.792.563.563,0,0,1,.472-.433.571.571,0,0,1,.623.242.757.757,0,0,1,.147.381l-.866.238m.48-.346c-.078-.234-.225-.316-.394-.242a.264.264,0,0,0-.117.381l.511-.139" transform="translate(-14.485 -1.28)" fill="#b7202e"/><path d="M64.691,21.954l-.355-.792a.277.277,0,0,0-.234.29c0,.156.078.221.307.277.026.091.056.186.082.29a.454.454,0,0,1-.433-.126.723.723,0,0,1-.229-.493.653.653,0,0,1,.065-.3.887.887,0,0,1,.874-.394.628.628,0,0,1,.294,1.017.866.866,0,0,1-.364.229m.035-.4c.195-.078.268-.229.2-.381s-.234-.195-.433-.1c.074.16.147.32.225.48" transform="translate(-36.24 -11.74)" fill="#b7202e"/><path d="M58.212,12.119l-.615-.632a.286.286,0,0,0-.126.355c.052.134.143.173.385.16l.108.156a.741.741,0,0,1,.056.1.459.459,0,0,1-.515,0,1.026,1.026,0,0,1-.255-.238.532.532,0,0,1-.043-.615.9.9,0,0,1,.433-.433.623.623,0,0,1,.783.866,1.039,1.039,0,0,1-.247.294m-.1-.394c.164-.16.173-.325.043-.433a.273.273,0,0,0-.411.061c.117.126.238.251.368.381" transform="translate(-32.441 -6.199)" fill="#b7202e"/><path d="M45.839,3.851,45,3.587a.286.286,0,0,0,.052.368c.117.1.225.1.411-.039l.277.143a.476.476,0,0,1-.467.229,1.1,1.1,0,0,1-.351-.1.528.528,0,0,1-.307-.515.961.961,0,0,1,.2-.576.584.584,0,0,1,.667-.2.567.567,0,0,1,.433.563.818.818,0,0,1-.074.394m-.268-.3a.277.277,0,0,0-.048-.342.238.238,0,0,0-.286-.056.234.234,0,0,0-.164.238l.5.16" transform="translate(-25.344 -1.622)" fill="#b7202e"/><path d="M6.61,18.609l-.48-.277c-.091-.052-.186-.108-.281-.156a.265.265,0,0,0-.32.052.281.281,0,0,0,0,.368.944.944,0,0,0,.208.139c.156.1.312.182.472.273l.121.082-.164.29L5,18.7l.143-.264.164.061v-.164a.528.528,0,0,1,.061-.312.4.4,0,0,1,.584-.195c.286.147.558.312.866.48l-.173.3" transform="translate(-2.873 -10.078)" fill="#b7202e"/><path d="M66.216,25.053l-.151-.264a.342.342,0,0,0,0-.433c-.03-.052-.069-.1-.139-.074s-.074.061-.074.126v.247a2.259,2.259,0,0,1,0,.342.364.364,0,0,1-.5.325.48.48,0,0,1-.242-.186.948.948,0,0,1-.126-.623.476.476,0,0,1,.221-.372c.056.1.1.19.156.29a.338.338,0,0,0-.056.454.433.433,0,0,0,.065.087.117.117,0,0,0,.2-.082.914.914,0,0,0,0-.151v-.4a.346.346,0,0,1,.234-.346.364.364,0,0,1,.433.1.939.939,0,0,1,.221.632.377.377,0,0,1-.195.329" transform="translate(-36.892 -13.588)" fill="#b7202e"/><path d="M15.648,63.1l-.338-.221L16.66,60.8l.338.221L15.648,63.1" transform="translate(-8.721 -34.485)" fill="#b7202e"/><path d="M62.264,54.458l-.234.329L60,53.368l.229-.338,2.034,1.428" transform="translate(-34.068 -30.078)" fill="#b7202e"/><path d="M41.54,67.807l-.394.069-.476-2.428.4-.078c.16.818.312,1.614.472,2.437" transform="translate(-23.105 -37.077)" fill="#b7202e"/><path d="M50.2,3.67l.316.173-.753,1.368.822.467-.139.26L49.3,5.3l.9-1.632" transform="translate(-28 -2.082)" fill="#b7202e"/><path d="M63.159,19.3l-.2.156a2.372,2.372,0,0,1-.169-.208.3.3,0,0,1,.108-.472c.16-.1.329-.195.493-.294.052-.03.108-.061.164-.1a.631.631,0,0,0-.048-.156l.2-.121.1.117a.112.112,0,0,0,.061-.022.26.26,0,0,1,.364,0c.039.03.082.052.147.1l-.394.234.1.216c-.069.043-.134.087-.212.13l-.147-.2-.615.364a.1.1,0,0,0-.03.16l.069.1" transform="translate(-35.608 -10.272)" fill="#b7202e"/><path d="M12.46,8.266l.264-.216,1.2,1.433-.26.225L12.46,8.266" transform="translate(-7.104 -4.565)" fill="#b7202e"/><path d="M44.17,13.947c.078-.151.143-.286.212-.433.03-.056.082-.056.134-.043a.524.524,0,0,1,.368.281.866.866,0,0,1-.29,1.082.242.242,0,0,1-.316,0,.173.173,0,0,1,.043-.307.965.965,0,0,0,.221-.113.5.5,0,0,0,.134-.164.19.19,0,0,0-.121-.281,1.043,1.043,0,0,0-.26-.035.524.524,0,0,0-.126,0" transform="translate(-25.09 -7.636)" fill="#b7202e"/><path d="M59.346,14.29l-.216-.264,1.052-.866.19.229-.1.13a.365.365,0,0,1,.333.113.316.316,0,0,1,.082.221l-.26.1c-.022-.039-.035-.074-.052-.1a.212.212,0,0,0-.312-.1,1.839,1.839,0,0,0-.273.177c-.147.113-.29.229-.433.355" transform="translate(-33.574 -7.464)" fill="#b7202e"/><path d="M10.843,25.7l.493-1.32.364.138c-.169.433-.338.866-.506,1.32L10.83,25.7" transform="translate(-6.18 -13.828)" fill="#b7202e"/><path d="M53.244,6.7l.29.177L52.82,8.029l-.29-.182L53.244,6.7" transform="translate(-29.832 -3.8)" fill="#b7202e"/><path d="M52.971,27.209a.58.58,0,0,1,.32.329.307.307,0,0,1,0,.268,1.334,1.334,0,0,1-.151.251,4.685,4.685,0,0,1-.381.433c-.065.069-.069.069-.2,0,0-.035.039-.069.061-.1.117-.164.238-.329.351-.493s.074-.147-.026-.242l-.225-.212.117-.134.13-.139" transform="translate(-29.849 -15.41)" fill="#b7202e"/><path d="M46.568,12.529,45.75,12.1c.061-.117.113-.221.173-.346l.822.433-.177.351" transform="translate(-25.986 -6.665)" fill="#b7202e"/><path d="M48.667,13.512h0c-.035.048-.078.03-.121,0l-.705-.433.2-.329.77.48-.143.281" transform="translate(-27.172 -7.232)" fill="#b7202e"/><path d="M58.571,52.373l-.381-.264.229-.329.381.264-.229.329" transform="translate(-33.042 -29.369)" fill="#b7202e"/><path d="M19.273,58.972l.325.212a2.1,2.1,0,0,1-.242.394L19,59.344l.255-.394" transform="translate(-10.813 -33.436)" fill="#b7202e"/><path d="M54.45,5.938l.164-.268.286.177-.16.268-.29-.177" transform="translate(-30.92 -3.216)" fill="#b7202e"/></g></g></svg>