<svg id="Layer_1" data-name="Layer 1" xmlns="http://www.w3.org/2000/svg" viewBox="0 0 20 25.2"><defs><style>.cls-1{fill:#fff;}.cls-2{fill:#2962ff;}</style></defs><polygon class="cls-1" points="15.4 0.59 0.59 0.59 0.59 24.61 19.41 24.61 19.41 4.6 15.4 0.59"/><polygon class="cls-1" points="16.02 2.6 0.59 2.6 0.59 0.59 15.4 0.59 16.02 2.6"/><path class="cls-2" d="M14,11.35a1.12,1.12,0,0,0,0-1.57l-3.88,3.88L7,10.56l3.09-3.09,1.16,1.16L9.5,10.4l.78.78L12.44,9a.56.56,0,0,0,0-.79L10.51,6.3a.56.56,0,0,0-.79,0L5.85,10.17a.56.56,0,0,0,0,.79l3.87,3.87a.56.56,0,0,0,.79,0Z" transform="translate(0 -0.4)"/><polygon class="cls-1" points="15.4 4.6 19.41 4.6 15.4 0.59 15.4 4.6"/><path class="cls-2" d="M12.07,21.11a.93.93,0,0,1-.14.59.53.53,0,0,1-.45.18A.55.55,0,0,1,11,21.7a.92.92,0,0,1-.15-.58V18.88h-1V21.2a1.51,1.51,0,0,0,.42,1.14,1.68,1.68,0,0,0,1.19.4,1.7,1.7,0,0,0,1.22-.41,1.56,1.56,0,0,0,.42-1.16V18.88h-1v2.23ZM19.83,4.57l-4-4A.59.59,0,0,0,15.4.4H.59A.59.59,0,0,0,0,1V25a.59.59,0,0,0,.59.59H19.41A.59.59,0,0,0,20,25V5A.63.63,0,0,0,19.83,4.57ZM16,2.43l2,2H16v-2ZM1.19,1.59H14.81V2.4H1.19ZM18.81,24.41H1.19V3.59H14.81V5a.6.6,0,0,0,.59.6h3.41V24.41ZM13.9,18.88v3.81h1.48a1.69,1.69,0,0,0,1.06-.3,1,1,0,0,0,.39-.82,1,1,0,0,0-.16-.56.94.94,0,0,0-.51-.32v0a.79.79,0,0,0,.43-.29.92.92,0,0,0,.16-.55.79.79,0,0,0-.37-.72,2.31,2.31,0,0,0-1.15-.23Zm1.39,3h-.36v-.8h.34a.58.58,0,0,1,.37.11.32.32,0,0,1,.13.29C15.77,21.76,15.61,21.89,15.29,21.89ZM15.7,20a.32.32,0,0,1-.12.27.57.57,0,0,1-.34.09h-.31v-.68h.29C15.54,19.66,15.7,19.77,15.7,20ZM8.9,19.2a1.6,1.6,0,0,0-1.08-.32H6.51v3.81h1V21.42h.29a1.53,1.53,0,0,0,1.07-.34,1.28,1.28,0,0,0,.38-1A1.13,1.13,0,0,0,8.9,19.2Zm-.81,1.26a.54.54,0,0,1-.37.13H7.53v-.88H7.8c.28,0,.43.13.43.39A.49.49,0,0,1,8.09,20.46Zm-3.61-.77a1.39,1.39,0,0,0-1.07.4A1.54,1.54,0,0,0,3,21.23a1.46,1.46,0,0,0,.41,1.12,1.58,1.58,0,0,0,1.14.39,3.58,3.58,0,0,0,.61,0,1.78,1.78,0,0,0,.49-.17v-.73a2.21,2.21,0,0,1-.49.17A1.89,1.89,0,0,1,4.7,22a.65.65,0,0,1-.46-.14.45.45,0,0,1-.18-.38H5.87V21a1.31,1.31,0,0,0-.36-1A1.38,1.38,0,0,0,4.48,19.69Zm-.4,1.16a.54.54,0,0,1,.14-.36.44.44,0,0,1,.3-.11.39.39,0,0,1,.31.13.47.47,0,0,1,.12.34Z" transform="translate(0 -0.4)"/></svg>