<?xml version="1.0" encoding="utf-8"?>
<!-- Generator: Adobe Illustrator 25.2.2, SVG Export Plug-In . SVG Version: 6.00 Build 0)  -->
<svg version="1.1" id="Layer_1" xmlns="http://www.w3.org/2000/svg" xmlns:xlink="http://www.w3.org/1999/xlink" x="0px" y="0px"
	 viewBox="0 0 62.1 25.3" style="enable-background:new 0 0 62.1 25.3;" xml:space="preserve">
<style type="text/css">
	.st0{fill:#2962FF;}
	.st1{fill:#FFFFFF;}
	.st2{fill-rule:evenodd;clip-rule:evenodd;fill:#2962FF;}
</style>
<path class="st0" d="M57.6,1.1H3C2.2,1.1,1.5,1.4,0.9,2C0.3,2.6,0,3.4,0,4.2v2c0,1.7,1.4,3,3,3h1.8V22c0,1.7,1.4,3,3,3c0,0,0,0,0,0
	h49.7c0.8,0,1.6-0.3,2.2-0.9c0.6-0.6,0.9-1.4,0.9-2.2V4.2c0-0.8-0.3-1.6-0.9-2.2C59.2,1.4,58.4,1.1,57.6,1.1"/>
<path class="st1" d="M57.6,2.2H3c-1.1,0-2,0.9-2,2c0,0,0,0,0,0v2c0,1.1,0.9,2,2,2c0,0,0,0,0,0h3V22c0,1.1,0.9,2,2,2h49.5
	c1.1,0,2-0.9,2-2c0,0,0,0,0,0V4.2C59.6,3.1,58.7,2.2,57.6,2.2C57.6,2.2,57.6,2.2,57.6,2.2"/>
<path class="st2" d="M56.8,18.4c0,0,0,0.2,0,0.3c-0.1,0.6-0.6,1.1-1.3,1.2c-0.2,0-0.4,0-0.6-0.2c-0.2-0.1-0.3-0.3-0.4-0.5l0,0V19
	l0,0c0-0.1,0-0.1,0-0.2c0,0,0-0.2,0-0.3l0,0l0,0c0-0.7,0-1.5,0-2.4v-0.9c0-0.6,0-1.2,0-1.7c0,0,0-0.2,0-0.3c0.1-0.7,0.6-1.2,1.3-1.2
	c0.2-0.1,0.4-0.1,0.6,0c0.2,0.1,0.4,0.3,0.5,0.5l0,0v0.2l0,0l0,0c0,0.1,0,0.2,0,0.2c0,0,0,0.2,0,0.3l0,0l0,0c0,0.7,0,1.5,0,2.4v0.7
	C56.9,17,56.9,17.7,56.8,18.4z M34.7,12.9c-0.8,1.5-0.8,3.2-0.2,4.7c0.7,0.8,1.8,1.1,2.8,0.6c0.7-0.4,1-1.2,1-2c0.2-1,0-2.1-0.5-3
	c-0.5-0.4-1.1-0.6-1.7-0.5C35.6,12.6,35.1,12.7,34.7,12.9z M45.5,15c0,1.4,0,2.6,1,3c0.7,0.3,1.6,0.3,2.3,0c0.2-0.1,0.4-0.3,0.5-0.4
	c0.6-1.4,0.6-3,0-4.4c-0.4-0.6-1.2-0.9-1.9-0.8C45.9,12.5,45.5,13.4,45.5,15z M18.6,10.9c-1.6,0-3.2,0.9-3.8,2.4
	c-0.4,1.4-0.6,2.9-0.4,4.3c-0.1,0.5-0.1,1,0,1.5c0.3,0.7,1,1,1.7,0.7c0.3-0.1,0.6-0.4,0.7-0.7c0.1-0.5,0.1-1,0-1.5
	c-0.2-1.4-0.1-2.9,0.3-4.2c0.6-0.8,1.7-1.1,2.6-0.7c1.3,0.5,1,3,1,5c-0.1,0.5-0.1,1,0,1.5c0.3,0.7,1,1,1.7,0.7
	c0.3-0.1,0.6-0.4,0.7-0.7c0.1-0.5,0.1-1,0-1.5c0-1.6-0.2-3.6,0.5-4.5c0.7-0.6,1.7-0.7,2.5-0.3c1.2,0.6,0.9,3,0.9,4.7
	c-0.1,0.5-0.1,1.1,0,1.6c0.2,0.7,0.9,1,1.6,0.8c0,0,0,0,0.1,0c0.3-0.1,0.6-0.4,0.7-0.8c0.1-0.6,0.1-1.3,0-1.9c0-0.7,0-1.2,0-1.9
	c0.2-2-1.1-3.8-3-4.4c-1.1-0.2-2.3-0.1-3.3,0.3c-0.4,0.2-0.7,0.4-1,0.7C21.1,11.1,19.8,10.7,18.6,10.9z M34.1,11.3
	c-1.7,0.8-2.7,2.6-2.4,4.4c0.1,2.4,2,4.3,4.4,4.2c0.2,0,0.4,0,0.5,0c2.3,0.1,4.2-1.7,4.3-4c0-0.3,0-0.6-0.1-0.8
	c0-2.3-1.9-4.2-4.2-4.2c-0.2,0-0.5,0-0.7,0.1C35.3,10.9,34.7,11,34.1,11.3z M45.5,9.4c0.1-0.6,0.1-1.1,0-1.7c-0.3-0.7-1-1-1.7-0.7
	c-0.3,0.1-0.6,0.4-0.7,0.7c0,0.4,0,0.8,0,1.2v3.5c-0.1,1.5,0,3,0.2,4.5c0.3,1.1,1.1,2.1,2.1,2.5c1.3,0.5,2.8,0.6,4.1,0.2
	c1.8-0.6,3-2.4,2.8-4.3c0.3-2.3-1.3-4.4-3.6-4.7c-0.4,0-0.8,0-1.1,0c-0.7,0-1.3,0.2-1.9,0.4V9.4"/>
<path class="st2" d="M12.1,17.9c0,1.1-0.9,2-2,2s-2-0.9-2-2s0.9-2,2-2S12.1,16.8,12.1,17.9"/>
</svg>
