<svg xmlns="http://www.w3.org/2000/svg" width="22.45" height="27.935">
    <g data-name="Group 17998">
        <path data-name="Path 20870" d="M28.976 19.268a3.365 3.365 0 0 1-1.342.033 6.4 6.4 0 0 1-1.694-.501 5.031 5.031 0 0 1 2.445.135 2.672 2.672 0 0 1 .591.337m-5.592-.919-.121.033c-.27.073-.532.145-.785.209l-.341.087c-.686.174-1.387.351-2.08.562.263-.635.508-1.277.747-1.9.177-.464.358-.939.546-1.407q.143.235.3.471a9.171 9.171 0 0 0 1.736 1.95m-1.746-7.167a5.914 5.914 0 0 1-.372 2.26 3.619 3.619 0 0 1-.066-2.678 1.541 1.541 0 0 1 .23-.37 1.737 1.737 0 0 1 .208.789m-3.581 9.922c-.172.307-.347.594-.526.866-.433.653-1.142 1.352-1.506 1.352a.179.179 0 0 1-.142-.073.136.136 0 0 1-.045-.115 2.143 2.143 0 0 1 .791-1.064 7.782 7.782 0 0 1 1.429-.966M30.135 19.3c-.056-.8-1.4-1.312-1.415-1.317a5.1 5.1 0 0 0-1.728-.274 10.352 10.352 0 0 0-2.381.322 8.286 8.286 0 0 1-2.126-2.185 13.883 13.883 0 0 1-.648-1.093 8.1 8.1 0 0 0 .8-3.622c-.061-1.066-.542-1.783-1.2-1.783-.449 0-.835.332-1.149.988-.56 1.169-.413 2.666.437 4.451a60.929 60.929 0 0 0-.866 2.188c-.343.9-.7 1.824-1.094 2.705a9.662 9.662 0 0 0-2.8 1.635 2.89 2.89 0 0 0-1.139 1.774 1.134 1.134 0 0 0 .319.857 1.18 1.18 0 0 0 .87.385c1.092 0 2.142-1.5 2.341-1.8a16.292 16.292 0 0 0 1.144-2.057c.927-.335 1.914-.585 2.871-.826l.343-.087c.258-.066.525-.138.8-.213.291-.079.59-.16.894-.237a7.907 7.907 0 0 0 3.07 1.182 3.689 3.689 0 0 0 2.161-.219.794.794 0 0 0 .485-.773m2.114 6.874a1.476 1.476 0 0 1-1.538 1.559H14.05a1.477 1.477 0 0 1-1.55-1.557V4.058A1.476 1.476 0 0 1 14.05 2.5H25.3l.006.006V6.9a2.458 2.458 0 0 0 2.549 2.548h4.36l.037.037v16.7zM31.216 8.443h-3.364A1.47 1.47 0 0 1 26.3 6.9V3.511zm2.034 17.733V9.068L26.3 2.093v-.032h-.03l-.558-.561H14.05a2.462 2.462 0 0 0-2.55 2.558v22.119a2.463 2.463 0 0 0 2.55 2.558H30.7a2.462 2.462 0 0 0 2.55-2.558" transform="translate(-11.15 -1.15)" style="fill:#1c4bff;stroke:#1c4bff;stroke-width:.7px"/>
    </g>
</svg>
