<svg id="arrows-expand" xmlns="http://www.w3.org/2000/svg" width="37.183" height="37.182"><defs><style>.cls-1{fill:#fff;fill-rule:evenodd}</style></defs><path id="Path_61" data-name="Path 61" class="cls-1" d="M1.605.575a1.43 1.43 0 011.43 1.43v10.01h10.01a1.43 1.43 0 010 2.86H1.605a1.43 1.43 0 01-1.43-1.43V2.005a1.43 1.43 0 011.43-1.43z" transform="translate(-.175 22.306)"/><path id="Path_62" data-name="Path 62" class="cls-1" d="M15.489 21.941a1.43 1.43 0 010 2.025L2.618 36.836a1.431 1.431 0 01-2.025-2.022l12.871-12.87a1.43 1.43 0 012.025 0zM36.837.594a1.43 1.43 0 010 2.025l-12.871 12.87a1.431 1.431 0 01-2.022-2.025L34.815.594a1.43 1.43 0 012.022 0z" transform="translate(-.175 -.175)"/><path id="Path_63" data-name="Path 63" class="cls-1" d="M.575 1.605a1.43 1.43 0 011.43-1.43h11.44a1.43 1.43 0 011.43 1.43v11.44a1.43 1.43 0 01-2.86 0V3.035H2.005a1.43 1.43 0 01-1.43-1.43z" transform="translate(22.307 -.174)"/></svg>