<svg xmlns="http://www.w3.org/2000/svg" width="16.828" height="16.828"><defs><style>.cls-1{fill-rule:evenodd}</style></defs><g id="Group_18360" data-name="Group 18360" transform="translate(-254.472 -23.486)"><path id="Path_20898" data-name="Path 20898" class="cls-1" d="M23.89 12.661H4.489a1.118 1.118 0 01-1.213-.986 1.118 1.118 0 011.213-.987h19.4a1.117 1.117 0 011.212.987 1.117 1.117 0 01-1.212.986" transform="rotate(45 114.125 321.992)"/><path id="Path_20953" data-name="Path 20953" class="cls-1" d="M23.89 12.661H4.489a1.118 1.118 0 01-1.213-.986 1.118 1.118 0 011.213-.987h19.4a1.117 1.117 0 011.212.987 1.117 1.117 0 01-1.212.986" transform="rotate(-45 162.95 -278.416)"/></g></svg>