<svg xmlns="http://www.w3.org/2000/svg" width="15.989" height="22.7"><g data-name="Group 17625"><path data-name="Path 19464" d="M7.994.251A7.694 7.694 0 00.508 5.936 8.55 8.55 0 00.25 8.221c.013 2.593 1.415 4.864 3.036 7.107s3.467 4.474 4.466 6.953a.258.258 0 00.485 0c1-2.479 2.844-4.71 4.466-6.953s3.024-4.513 3.036-7.107a8.55 8.55 0 00-.258-2.285A7.694 7.694 0 007.994.251zm0 .517a7.18 7.18 0 016.985 5.306 8.049 8.049 0 01.24 2.147c-.012 2.407-1.333 4.585-2.94 6.808a39.315 39.315 0 00-4.288 6.566 39.315 39.315 0 00-4.288-6.566c-1.607-2.223-2.928-4.4-2.94-6.808a8.049 8.049 0 01.242-2.148A7.18 7.18 0 017.994.767zM7.97 4.539a3.388 3.388 0 103.4 3.392 3.382 3.382 0 00-3.4-3.393zm0 .517a2.871 2.871 0 11-2.867 2.867A2.877 2.877 0 017.97 5.051z" fill="#fff" stroke="#fff" stroke-width=".5"/></g></svg>