<svg xmlns="http://www.w3.org/2000/svg" width="32" height="32"><g fill="#b7202e"><path d="M15.751 2.246l-.069.022c-.307.039-.307.039-.433-.238-.074-.164-.074-.16-.26-.147s-.3.026-.433.03a.164.164 0 00-.182.147 2.929 2.929 0 01-.087.3l-.372.03.043-.164.49-1.629c.039-.134.039-.139.177-.139.307 0 .225-.069.368.212.225.459.433.922.667 1.385l.091.19M14.73.917h-.039c-.065.221-.13.433-.2.693l.541-.035c-.108-.242-.2-.433-.3-.662m1.946.749a.7.7 0 011.394-.048.684.684 0 01-.684.736.654.654 0 01-.71-.688m1.052-.039a.636.636 0 000-.091.333.333 0 00-.654-.069.593.593 0 000 .368.329.329 0 00.3.247.32.32 0 00.329-.212 1.367 1.367 0 00.056-.238m.89.887l-.325-.074.3-1.3.294.061v.177l.143-.065a.528.528 0 01.541.056.32.32 0 01.151.286 1.182 1.182 0 01-.022.216c-.056.251-.113.5-.173.753a.481.481 0 01-.035.1l-.32-.074.134-.6a2.018 2.018 0 00.052-.273c0-.151-.03-.229-.147-.268a.273.273 0 00-.325.1.615.615 0 00-.074.173c-.052.208-.1.433-.151.632l-.035.108M15.997.398h.329c.022.312 0 .619 0 .922v.939h-.342c0-.619.03-1.229.026-1.861m11.137 16.236a11.227 11.227 0 01-22.376.056 5.635 5.635 0 0010.859.935l-.216-.134a4 4 0 01-1.467-1.515 2.8 2.8 0 01-.359-1.3 2.6 2.6 0 01.38-1.442 5.392 5.392 0 01.493-.675 6.9 6.9 0 00.948-1.337 3.263 3.263 0 00.359-1.3 4.056 4.056 0 00-.1-.97c-.043-.221-.074-.433-.113-.658v-.14a.831.831 0 01.126.065 7.241 7.241 0 012.419 2.753 5.1 5.1 0 01-.2 4.848 4.692 4.692 0 01-1.056 1.151l-.407.333c-.043.039-.078.082-.121.121a.177.177 0 00-.043.221 5.643 5.643 0 0010.474.385 6.151 6.151 0 00.411-1.372M3.446 19.914a9.346 9.346 0 00-.108-.368l.065-.048a.671.671 0 00.433-.757 1.532 1.532 0 00-.143-.55.584.584 0 00-.307-.294.433.433 0 00-.571.29 4.129 4.129 0 00-.061.567 4.526 4.526 0 01-.035.684 1.588 1.588 0 01-.056.286.892.892 0 01-1.363.489 1.164 1.164 0 01-.433-.554 1.926 1.926 0 01-.13-1.156 1.082 1.082 0 01.736-.835h.073c.039.126.074.247.113.368a.407.407 0 01-.074.048.762.762 0 00-.489.675 1.3 1.3 0 00.264.991.515.515 0 00.433.2.433.433 0 00.4-.277 1.372 1.372 0 00.087-.372 4.7 4.7 0 01.035-.684 2.766 2.766 0 01.082-.532.77.77 0 01.731-.628.866.866 0 01.809.4 1.692 1.692 0 01.264.688 1.562 1.562 0 010 .6.948.948 0 01-.744.762m1.18 2.691l-.234.195v.035a.9.9 0 01.744.346.7.7 0 01.1.818h.173a.866.866 0 01.718.433.649.649 0 01-.078.827 1.3 1.3 0 01-.16.147c-.433.342-.866.68-1.3 1.017l-.082.052-.242-.3.126-.1 1.052-.822a2.112 2.112 0 00.255-.225.377.377 0 00.069-.472.576.576 0 00-.757-.281 1.3 1.3 0 00-.268.156l-1 .818-.143.1-.238-.307.126-.108c.364-.281.727-.563 1.086-.866a1.528 1.528 0 00.255-.247.372.372 0 000-.459.58.58 0 00-.723-.216 2.069 2.069 0 00-.381.238c-.294.221-.589.454-.866.684l-.143.108-.247-.312 1.963-1.532c.078.1.143.177.225.273M9.652 6.522l.234.3-.26.225 1.3 1.649a.489.489 0 01-.113.03h-.182a.3.3 0 01-.325-.147c-.29-.385-.589-.762-.866-1.138l-.151-.117a1.852 1.852 0 00-.489.433l1.467 1.515c-.177.026-.32.056-.467.074a.2.2 0 01-.113-.065c-.169-.169-.329-.342-.5-.515a1.79 1.79 0 00-.126-.117l-.433.48.346.32a.173.173 0 01-.169.087h-.558a.2.2 0 01-.212-.126.229.229 0 01.056-.255c.2-.216.394-.433.589-.658.035-.035.069-.078.113-.13l-.307-.316c-.368.316-.649.7-.991 1.043l-.286-.255.744-.831.117.078-.052-.151a11.435 11.435 0 011.64-1.415m9.59-.929a3.038 3.038 0 00.035.329l-.338.035a.671.671 0 00-.134.03.164.164 0 00-.13.186.173.173 0 00.151.173 1.588 1.588 0 00.32 0 1 1 0 00.182-.052v.173a4.224 4.224 0 00.346-.939l-1.182-.368.1-.364h.116l.731.208.6.169c-.056-.069-.091-.13-.138-.177a2.476 2.476 0 00-.788-.563.19.19 0 01-.143-.208 1.638 1.638 0 00-.026-.338 3.653 3.653 0 01.433.212 3.7 3.7 0 01.372.338.432.432 0 000-.1c-.043-.134-.091-.264-.139-.4a.307.307 0 00-.177-.216.13.13 0 01-.061-.082 1.957 1.957 0 00-.035-.433 3.371 3.371 0 01.433.208.433.433 0 01.138.216c.074.229.143.463.2.7s.108.515.147.775a.2.2 0 00.186.225.394.394 0 01.087.043l-.12.363-.325-.1c-.139.325-.242.658-.368.982s-.234.649-.364 1c-.1-.143-.19-.255-.268-.377a.2.2 0 010-.13c.039-.13.091-.26.143-.433h-.195a.61.61 0 01-.628-.545.433.433 0 01.208-.433.926.926 0 01.632-.108m-4.333-.678a.227.227 0 00-.026-.13c-.026-.043 0-.151 0-.242l.489-.043.385-.026a.281.281 0 01.234.043c.026.022.082 0 .121 0h.866a.827.827 0 010 .385h-.325v1.9a.234.234 0 00.108.216.537.537 0 01.173.628.48.48 0 01-.489.351.775.775 0 01-.537-.169 1.731 1.731 0 01-.225-.212 4.9 4.9 0 01-.467-.662.221.221 0 01.286.1 1.848 1.848 0 00.433.493.6.6 0 00.576.139.255.255 0 00.2-.242.2.2 0 00-.286-.216.991.991 0 00-.177.121.931.931 0 00-.1.113l-.2-.29a.506.506 0 01.506-.264c0-.078-.069-.1-.113-.121a.2.2 0 01-.1-.195v-.93a6.121 6.121 0 00-.7.061.2.2 0 00-.164.242.779.779 0 00.074.221 1.818 1.818 0 00.355.541l.121.1-.151.113a.758.758 0 01-.087-.069c-.147-.173-.3-.342-.433-.524a1.017 1.017 0 01-.2-.636.377.377 0 01.113-.3.294.294 0 01.156-.087c.277-.03.554-.048.866-.074a1.954 1.954 0 00.035.251 1.558 1.558 0 000-.589h-.238a.381.381 0 00-.3-.035l-.649.043h-.126"/><path d="M20.719 28.409l-.394-1.177.377-.13 1.117 3.246-.342.117c-.039-.087-.069-.164-.108-.26-.026.048-.043.074-.056.1a.9.9 0 01-.887.5 1.086 1.086 0 01-.835-.519 1.783 1.783 0 01-.3-1.134.944.944 0 011.324-.809.206.206 0 01.108.043m-1.043.9a1.731 1.731 0 00.316.866.679.679 0 00.506.294.628.628 0 00.675-.675 1.632 1.632 0 00-.359-.961.654.654 0 00-.723-.216.671.671 0 00-.433.688m-1.181-1.522c.03.16.056.3.087.433l-.372.078c0-.03-.039-.056-.069-.1a.277.277 0 00-.026.048l-.493 1.4c-.2.558-.394 1.112-.589 1.671-.052.143-.052.143-.208.147h-.3l-1.445-3.339.472-.022 1.186 3a.368.368 0 00.048-.091q.467-1.428.939-2.857c.039-.126.043-.126.173-.134h.2a.272.272 0 01.026-.139l.368-.065m7.976-.289l-.117.1-.2.16-.242-.16c-.061.048-.052.121-.069.182a1.3 1.3 0 01-.645.8.723.723 0 01-.433.1.7.7 0 01-.576-.926 1.16 1.16 0 01.255-.4l.519-.554c.039-.048.069-.1.117-.169-.069-.074-.13-.147-.2-.212a.333.333 0 00-.333-.074.982.982 0 00-.593.454.433.433 0 00-.026.316.673.673 0 00.056.186l-.329.195a.749.749 0 01-.078-.7 1.584 1.584 0 011-.866.537.537 0 01.571.151 2.506 2.506 0 01.247.277c.139.164.268.338.411.506a2.22 2.22 0 00.671.645m-1.186-.632c-.108.139-.195.26-.29.372s-.2.234-.307.351a.814.814 0 00-.069.1.377.377 0 000 .433.39.39 0 00.433.126.866.866 0 00.537-.736 1.026 1.026 0 00-.329-.662m-13.822 2.1l-.347-.153a.779.779 0 01.714-.489 1.731 1.731 0 011 .268.584.584 0 01.281.705c-.082.338-.186.675-.277 1.017a4.623 4.623 0 00-.113.5 1.934 1.934 0 000 .32l-.238-.065c-.169-.048-.177-.056-.164-.238v-.1a.179.179 0 00-.177.039 1.3 1.3 0 01-1.06-.074.693.693 0 01.316-1.3 3.51 3.51 0 01.506 0l.6.061c.134 0 .143 0 .182-.134a.433.433 0 00-.247-.563 1.819 1.819 0 00-.433-.13.459.459 0 00-.433.173l-.113.143m1.091.84a.344.344 0 00-.074 0l-.693-.056a1.876 1.876 0 00-.312 0 .346.346 0 00-.333.273.355.355 0 00.143.411.866.866 0 00.307.13.727.727 0 00.788-.255 1.3 1.3 0 00.19-.489M6.723 28.44l-.307-.273.117-.286h-.19a1.251 1.251 0 01-.961-.58.68.68 0 01.4-1.039.757.757 0 01.541.065c.126.065.242.143.364.212s.359.225.541.329.134.061.221-.043a.433.433 0 000-.628 1.731 1.731 0 00-.3-.268.476.476 0 00-.541-.03l-.121.065c-.082-.1-.16-.19-.251-.29a.762.762 0 01.7-.186 1.636 1.636 0 01.978.757.58.58 0 01-.065.71c-.2.251-.433.5-.632.744l-.052.056a2.086 2.086 0 00-.433.705m.433-1.3l-.069-.048-.623-.346a1.67 1.67 0 00-.247-.13.368.368 0 00-.5.208.4.4 0 00.069.407.866.866 0 00.433.307.671.671 0 00.718-.147c.078-.078.147-.16.234-.251m21.932-6.419c-.052.113-.108.225-.164.342a.8.8 0 01-.463-.762 1.766 1.766 0 01.268-.879.615.615 0 01.779-.3c.294.087.589.186.866.277a2.251 2.251 0 00.9.177c-.039.117-.074.221-.1.325a.1.1 0 01-.108.069h-.221a.678.678 0 00.052.195 1.26 1.26 0 01-.082.991.671.671 0 01-.757.377.684.684 0 01-.554-.675 4 4 0 01.043-.506c.03-.216.065-.433.091-.645 0-.13 0-.138-.117-.177a.433.433 0 00-.589.242 1.788 1.788 0 00-.138.454.433.433 0 00.143.377l.151.139m.866-1.047a5.058 5.058 0 01-.061.58c-.022.19-.048.273-.056.411a.381.381 0 00.29.433.39.39 0 00.433-.2.909.909 0 00.1-.671.766.766 0 00-.714-.537m-.425 4.04c-.061.121-.121.221-.186.346-1-.545-2-1.1-3.008-1.645l.2-.351 1.069.593a.307.307 0 00-.026-.169 1.021 1.021 0 01.433-1.026.615.615 0 01.532-.078 1.618 1.618 0 01.346.143l1.342.74.078.052-.186.342-.147-.074-1.195-.68a1.207 1.207 0 00-.255-.113.459.459 0 00-.5.156.641.641 0 00.1.948 7.089 7.089 0 00.744.433l.584.325.087.056m-4.726-12.317l-.169.082c-.113.052-.195 0-.2-.126a.212.212 0 010-.091c.048-.16.1-.316.151-.472a.251.251 0 01.078-.113c.108-.1.177-.087.255.035l.065.091.524-.29a4.16 4.16 0 00-.325-.55l-1.779 1.118v-.364a.2.2 0 01.121-.212c.433-.26.866-.528 1.272-.8l.156-.1-.138-.255.32-.2a19.684 19.684 0 011.121 1.887l-.329.182-.186-.338-.545.286c.1.173.182.333.277.515l-.372.212c-.1-.169-.19-.329-.29-.506M9.816 6.362l.576-.338.576-.325a.472.472 0 00-.078-.065c-.16-.069-.32-.147-.485-.2a.541.541 0 00-.493.043.2.2 0 01-.277-.03 2.688 2.688 0 00-.251-.195.969.969 0 01.8-.16 4.384 4.384 0 01.931.433.177.177 0 00.251 0l.19.338-.342.2.364.667-.307.169-.2.113a.29.29 0 00-.108.433.4.4 0 00.6.074.177.177 0 00-.03-.048.238.238 0 01-.048-.307.3.3 0 01.307-.164.2.2 0 01.113.048.467.467 0 01.164.472.238.238 0 000 .056.935.935 0 01.377.247l-.229.134-.3-.2a.147.147 0 00-.147 0 .866.866 0 01-1.112-.325 1.03 1.03 0 01-.117-.316.338.338 0 01.2-.394l.268-.151.035-.043-.169-.312-.866.476c-.065-.113-.121-.221-.186-.338M2.632 22.869a.948.948 0 01-.619-.234 1.242 1.242 0 01-.433-.866 1.008 1.008 0 01.381-.922 1.8 1.8 0 01.982-.433.969.969 0 01.654.151 1.251 1.251 0 01.528 1.238 1.021 1.021 0 01-.273.545 1.852 1.852 0 01-1.229.519m.4-2.034a1.472 1.472 0 00-.931.433.667.667 0 00-.134.77.654.654 0 00.662.433 1.372 1.372 0 00.97-.433.667.667 0 00.143-.779.7.7 0 00-.7-.433m3.469-10.189l-.164.242-.32-.195a11.686 11.686 0 011.169-1.77l.3.216-.195.29 1.705 1.242a2.255 2.255 0 01-.433.156.335.335 0 01-.147-.065l-1.2-.866-.16-.108a2.649 2.649 0 00-.333.485l1.8 1.082a1.731 1.731 0 01-.433.208.323.323 0 01-.138-.052l-1.256-.758-.195-.108m14.72 17.335l.377-.2 1.571 1.415a.4.4 0 000-.061c-.082-.515-.16-1.034-.238-1.549a2.312 2.312 0 00-.056-.381.117.117 0 01.069-.139l.273-.139c.035.247.069.476.1.705.091.688.182 1.372.268 2.06a4.012 4.012 0 01.017.6.615.615 0 01-.433.606c-.113.03-.126.026-.19-.069s-.087-.126-.139-.2l.16-.065a.433.433 0 00.286-.463.645.645 0 00-.251-.532c-.571-.48-1.125-.978-1.684-1.472a1.148 1.148 0 01-.108-.1m-11.968-.839l.381.2c-.1.693-.2 1.381-.307 2.082l1.562-1.415.338.177a.554.554 0 01-.069.091q-1.1.974-2.212 1.943a1.528 1.528 0 01-.385.255.6.6 0 01-.662-.117.126.126 0 01-.048-.16l.1-.255.16.108a.433.433 0 00.545-.039.688.688 0 00.294-.511c.069-.692.169-1.385.255-2.077l.043-.286M22.195 6.678l.238-.2.134.1.6.467c.048.039.091.074.048.143l.091-.052.952.887-.255.281a12.985 12.985 0 00-1.3-1.1c-.433.545-.866 1.1-1.3 1.666-.056-.169-.108-.3-.143-.433a.2.2 0 01.043-.126c.078-.108.16-.212.255-.333l-.108-.022a.628.628 0 01-.351-.957.476.476 0 01.532-.19c.281.065.312.1.29.385a.189.189 0 01-.022.1.7.7 0 00-.164-.061 1.731 1.731 0 00-.333-.056.273.273 0 00-.164.065.126.126 0 000 .221.515.515 0 00.316.108h.325l.493-.632-.169-.134c-.039-.035-.078-.069-.035-.126zm-9.808-1.554a4.1 4.1 0 01.1.2h.022a.921.921 0 00-.048-.216 5.5 5.5 0 011.026-.29l.1.342-.325.108c.19.671.377 1.333.571 2.013a1.857 1.857 0 01-.433-.13c-.026 0-.048-.065-.056-.1-.039-.113-.069-.225-.108-.355a1.61 1.61 0 01-.134.1.619.619 0 01-.935-.368.571.571 0 01.411-.641.147.147 0 01.087 0l.229.195c-.087.056-.16.1-.229.151a.515.515 0 00-.2.264.186.186 0 00.039.2c.061.052.126.03.19 0a.705.705 0 00.29-.273c.03-.052.065-.1.108-.169-.069-.247-.147-.515-.229-.8-.394.139-.757.312-1.151.433-.048-.113-.1-.225-.147-.355l.844-.342"/><path d="M22.407 9.6a.151.151 0 01-.169-.156 2.986 2.986 0 01.056-.866.744.744 0 01.342-.463.407.407 0 01.654.338v.1c.333 0 .433.074.4.4l.147-.052c.039.048.082.091.121.143.108.143.377.056.433-.1a.173.173 0 00-.043-.173l-.229-.286.29-.242c.238.264.433.545.684.827l-.294.247-.198-.217-.082.1a.727.727 0 01-.433.277.532.532 0 01-.355-.065.182.182 0 000 .255.658.658 0 00.338.234 1.268 1.268 0 01.221.056 4.327 4.327 0 01-.364.294.139.139 0 01-.1 0 .623.623 0 01-.407-.822 3.382 3.382 0 01.177-.372c-.108-.182-.234-.2-.381-.048l-.268.286c-.052-.113-.091-.208-.143-.316l.208-.225c.056-.061.117-.113.065-.2a.255.255 0 00-.264-.121.39.39 0 00-.247.221 1.6 1.6 0 00-.134.584 1.468 1.468 0 01-.035.385m2.593 15.879l.281-.307 1.913.827a2.325 2.325 0 00-.177-.377c-.061-.126-.126-.247-.19-.372l-.186-.364c-.061-.126-.126-.247-.19-.372s-.126-.247-.19-.381c.1-.1.182-.19.277-.3l.13.251.978 1.991c.069.138.069.138-.035.251-.182.19-.126.177-.359.082l-2.108-.866-.143-.065M2.701 10.499c.061.139.1.26.164.372a.281.281 0 00.121.087c.13.061.264.113.433.173-.048.113-.087.216-.134.333-.6-.242-1.173-.467-1.757-.705l.134-.329.731.294.026-.03-.065-.147-.346-.753a.221.221 0 010-.208c.048-.1.087-.208.139-.333l.091.182c.091.2.177.4.264.6.061.134.065.134.212.1l.978-.212H3.9c-.061.147-.1.268-.156.381a.169.169 0 01-.117.061l-.8.108-.117.026m7.79-6.938l.325-.087a.1.1 0 01.069 0 .216.216 0 00.221 0c.221-.074.273-.182.195-.4a.549.549 0 00-.069-.177.628.628 0 00-.065.1.5.5 0 01-.757.16.835.835 0 01-.32-.766.511.511 0 01.693-.433l.1.03a.384.384 0 00-.026-.164l.268-.1a.563.563 0 01.048.082c.138.355.281.714.411 1.073a1.783 1.783 0 01.082.372.333.333 0 01-.13.3 1.069 1.069 0 01-.71.264.329.329 0 01-.333-.268m-.076-1.094a.731.731 0 00.147.394.286.286 0 00.325.117.3.3 0 00.212-.307.615.615 0 00-.169-.433.29.29 0 00-.325-.043.3.3 0 00-.177.29m-5.75 3.697l.242-.229.775.407.026-.022c-.134-.26-.3-.5-.433-.762l.225-.238.792.433a1.775 1.775 0 00-.212-.433c-.069-.134-.143-.26-.221-.4l.208-.216a8.6 8.6 0 01.675 1.272l-.242.216-.736-.4-.026.026c.134.247.29.48.433.736l-.229.247-1.3-.636m4.558-4.204l.909 1.64-.26.156c-.035-.048-.069-.087-.108-.134 0 .03-.03.048-.039.074a.519.519 0 01-.866.225.974.974 0 01-.338-.61.532.532 0 01.615-.606h.1l-.307-.58.294-.169m-.022.939a.3.3 0 00-.333.316.693.693 0 00.225.433.29.29 0 00.493-.277.74.74 0 00-.216-.377.983.983 0 00-.173-.1m15.153 2.021c-.052.052-.091.082-.134.121l-.234-.186c.377-.493.762-.978 1.151-1.476l.139.1.126.108-.394.519h.126a.528.528 0 01.493.662.948.948 0 01-.489.61.511.511 0 01-.762-.385l-.022-.094m.19-.078a.277.277 0 00.433.251.7.7 0 00.316-.433.26.26 0 00-.082-.281.273.273 0 00-.286-.065.649.649 0 00-.381.519m6.938 13.729a2.612 2.612 0 01-.065.39l-2.445-.434c.026-.121.043-.225.065-.342l.338.039c-.1-.117-.182-.2-.247-.3a.433.433 0 01-.039-.359.736.736 0 01.195-.333l.329.19-.065.121a.433.433 0 00.208.636 1.969 1.969 0 00.467.151c.368.074.744.134 1.112.2a1.116 1.116 0 01.147.035M8.022 12.088v.242c-.087.03-.173.065-.268.091a.268.268 0 00-.2.186.541.541 0 01-.121.177.2.2 0 01-.225.056.242.242 0 01-.164-.186.359.359 0 01.212-.394.19.19 0 00.108-.216.115.115 0 00-.186-.1c-.1.056-.2.147-.3.221s-.164.143-.255.2a.511.511 0 01-.216.082.234.234 0 01-.286-.273v-.043l.39-1.034a1.342 1.342 0 01.359.117c-.1.281-.208.55-.307.822h.026a.822.822 0 01.1-.108 2.524 2.524 0 01.346-.264.333.333 0 01.487.134 2.233 2.233 0 01.13.333l.156-.026.214-.017m16.251.792c.039-.173.069-.307.1-.433s.078-.082.126-.1l1.151-.463.433-.177a9.972 9.972 0 01-.087-.281l.346-.143c.139.333.264.649.4.991l-.355.147c-.048-.108-.091-.2-.138-.32l-.97.394-1 .4m3.092-4.399c.026-.052.048-.091.069-.139l-.117-.052a.567.567 0 01-.307-.333.372.372 0 01.113-.433.368.368 0 01.472 0c.082.061.151.139.229.208l.182.169a.2.2 0 00.052.026c.126-.078.151-.121.126-.216a.338.338 0 00-.338-.255 1.189 1.189 0 01-.061-.13.527.527 0 00-.048-.139.433.433 0 01.433.078 1.056 1.056 0 01.3.459.329.329 0 01-.121.411c-.13.1-.264.177-.4.268a1.324 1.324 0 00-.433.359l-.168-.26m.489-.454a3.429 3.429 0 00-.3-.264.16.16 0 00-.255.13.273.273 0 00.061.182c.121.156.307.134.493-.048M4.641 6.691a.744.744 0 01.727.723.736.736 0 01-.7.705.757.757 0 01-.736-.714.727.727 0 01.71-.714m-.082.325a.325.325 0 00-.316.433.576.576 0 00.48.342.32.32 0 00.3-.433.576.576 0 00-.467-.342m3.697-2.775l.29-.13a.506.506 0 01-.091.48.727.727 0 01-.433.281.55.55 0 01-.511-.113.918.918 0 01-.333-.541.55.55 0 01.225-.589.58.58 0 01.637-.082.9.9 0 01.416.355c-.238.186-.493.338-.727.519a.307.307 0 00.372.16c.134-.043.177-.134.173-.342m-.251-.3c-.143-.186-.3-.221-.433-.108a.268.268 0 000 .433l.433-.3m4.077-1.713c.061.19.16.277.3.281s.212-.065.281-.264l.32-.026a.528.528 0 01-.229.433.818.818 0 01-.433.134.519.519 0 01-.42-.19.866.866 0 01-.2-.792.563.563 0 01.472-.433.571.571 0 01.623.242.757.757 0 01.147.381l-.866.238m.48-.346c-.078-.234-.225-.316-.394-.242a.264.264 0 00-.117.381l.511-.139m16.578 8.703l-.355-.792a.277.277 0 00-.234.29c0 .156.078.221.307.277.026.091.056.186.082.29a.454.454 0 01-.433-.126.723.723 0 01-.229-.493.653.653 0 01.065-.3.887.887 0 01.874-.394.628.628 0 01.294 1.017.866.866 0 01-.364.229m.035-.4c.195-.078.268-.229.2-.381s-.234-.195-.433-.1c.074.16.147.32.225.48m-2.714-3.891l-.615-.632a.286.286 0 00-.126.355c.052.134.143.173.385.16l.108.156a.741.741 0 01.056.1.459.459 0 01-.515 0 1.026 1.026 0 01-.255-.238.532.532 0 01-.043-.615.9.9 0 01.433-.433.623.623 0 01.783.866 1.039 1.039 0 01-.247.294m-.1-.394c.164-.16.173-.325.043-.433a.273.273 0 00-.411.061c.117.126.238.251.368.381m-5.14-3.319l-.839-.264a.286.286 0 00.052.368c.117.1.225.1.411-.039l.277.143a.476.476 0 01-.467.229 1.1 1.1 0 01-.351-.1.528.528 0 01-.307-.515.961.961 0 01.2-.576.584.584 0 01.667-.2.567.567 0 01.433.563.818.818 0 01-.074.394m-.268-.3a.277.277 0 00-.048-.342.238.238 0 00-.286-.056.234.234 0 00-.164.238l.5.16M4.437 8.929l-.48-.277c-.091-.052-.186-.108-.281-.156a.265.265 0 00-.32.052.281.281 0 000 .368.944.944 0 00.208.139c.156.1.312.182.472.273l.121.082-.164.29-1.166-.68.143-.264.164.061v-.164a.528.528 0 01.061-.312.4.4 0 01.584-.195c.286.147.558.312.866.48l-.173.3m25.552 2.937l-.151-.264a.342.342 0 000-.433c-.03-.052-.069-.1-.139-.074s-.074.061-.074.126v.247a2.259 2.259 0 010 .342.364.364 0 01-.5.325.48.48 0 01-.242-.186.948.948 0 01-.126-.623.476.476 0 01.221-.372c.056.1.1.19.156.29a.338.338 0 00-.056.454.433.433 0 00.065.087.117.117 0 00.2-.082.914.914 0 000-.151v-.4a.346.346 0 01.234-.346.364.364 0 01.433.1.939.939 0 01.221.632.377.377 0 01-.195.329M7.627 29.013l-.338-.221 1.35-2.079.338.221-1.35 2.079m21.269-4.235l-.234.329-2.03-1.419.229-.338 2.034 1.428m-9.76 6.35l-.394.069-.476-2.428.4-.078c.16.818.312 1.614.472 2.437M22.9 1.986l.316.173-.753 1.368.822.467-.139.26L22 3.616l.9-1.632m5.351 7.442l-.2.156a2.372 2.372 0 01-.169-.208.3.3 0 01.108-.472c.16-.1.329-.195.493-.294.052-.03.108-.061.164-.1a.631.631 0 00-.048-.156l.2-.121.1.117a.112.112 0 00.061-.022.26.26 0 01.364 0c.039.03.082.052.147.1l-.394.234.1.216c-.069.043-.134.087-.212.13l-.147-.2-.615.364a.1.1 0 00-.03.16l.069.1M6.056 4.099l.264-.216 1.2 1.433-.26.225-1.204-1.442m13.724 2.61c.078-.151.143-.286.212-.433.03-.056.082-.056.134-.043a.524.524 0 01.368.281.866.866 0 01-.29 1.082.242.242 0 01-.316 0 .173.173 0 01.043-.307.965.965 0 00.221-.113.5.5 0 00.134-.164.19.19 0 00-.121-.281 1.043 1.043 0 00-.26-.035.524.524 0 00-.126 0m6.693.528l-.216-.264 1.052-.866.19.229-.1.13a.365.365 0 01.333.113.316.316 0 01.082.221l-.26.1c-.022-.039-.035-.074-.052-.1a.212.212 0 00-.312-.1 1.839 1.839 0 00-.273.177c-.147.113-.29.229-.433.355M5.363 12.27l.493-1.32.364.138c-.169.433-.338.866-.506 1.32l-.364-.138m18.762-8.972l.29.177-.714 1.152-.29-.182.714-1.147m-.29 8.899a.58.58 0 01.32.329.307.307 0 010 .268 1.334 1.334 0 01-.151.251 4.685 4.685 0 01-.381.433c-.065.069-.069.069-.2 0 0-.035.039-.069.061-.1.117-.164.238-.329.351-.493s.074-.147-.026-.242l-.225-.212.117-.134.13-.139m-2.536-5.896l-.818-.429c.061-.117.113-.221.173-.346l.822.433-.177.351m.913.407c-.035.048-.078.03-.121 0l-.705-.433.2-.329.77.48-.143.281m4.033 16.725l-.381-.264.229-.329.381.264-.229.329M9.16 25.934l.325.212a2.1 2.1 0 01-.242.394l-.356-.234.255-.394M24.23 3.12l.164-.268.286.177-.16.268-.29-.177"/></g></svg>