<svg xmlns="http://www.w3.org/2000/svg" width="1281" height="640"><defs><style>.cls-3{fill:#319b89;opacity:.48}.cls-3,.cls-9{mix-blend-mode:multiply;isolation:isolate}.cls-4{fill:#899b99}.cls-5{fill:#beccca}.cls-6{fill:#ededed}.cls-7{fill:#edb035}.cls-8{fill:#efefef}.cls-9{fill:#ba8a35;opacity:.44}.cls-16{fill:#fff}.cls-14{fill:#ffc95c}</style></defs><g id="Group_18526" data-name="Group 18526" transform="translate(1 -80)"><path id="c1533ca17faf82086832733f7b21be66" transform="translate(-1 80)" d="M0 0h1280v640H0z" fill="#311b92"/><g id="Group_18525" data-name="Group 18525" transform="translate(0 80)"><path id="Rectangle_7268" data-name="Rectangle 7268" d="M0 0h1280v640H0z" fill="#1ab59b"/><g id="Group_18520" data-name="Group 18520" transform="translate(881.557 101.255)"><path id="Path_20964" data-name="Path 20964" class="cls-3" d="M1667.694 600.041l17.592-.165-88.954-391.092h-17.842z" transform="translate(-1359.65 -123.352)"/><path id="Path_20965" data-name="Path 20965" class="cls-3" d="M1415.681 600l17.716.124-89.09-391.339h-17.841z" transform="translate(-1232.515 -123.352)"/><path id="Path_20966" data-name="Path 20966" class="cls-4" d="M1162.785 607.242h-17.842l90.694-398.458h17.841z" transform="translate(-1140.946 -123.352)"/><path id="Path_20967" data-name="Path 20967" class="cls-5" d="M1318.67 879.536h-134.293l5.2-23.786h134.293z" transform="translate(-1160.838 -449.717)"/><path id="Path_20968" data-name="Path 20968" class="cls-5" d="M1352.17 719.2h-134.293l5.2-23.786h134.293z" transform="translate(-1177.737 -368.836)"/><path id="Path_20969" data-name="Path 20969" class="cls-5" d="M1392.336 556.7h-134.292l5.2-23.786h134.296z" transform="translate(-1198 -286.862)"/><path id="Path_20970" data-name="Path 20970" class="cls-6" d="M1392.2 571.206h-134.29l2.032-9.513h134.293z" transform="translate(-1197.932 -301.378)"/><path id="Path_20971" data-name="Path 20971" class="cls-5" d="M1426.336 396.7h-134.292l5.2-23.786h134.296z" transform="translate(-1215.151 -206.149)"/><path id="Path_20972" data-name="Path 20972" class="cls-4" d="M1327.962 125.658S1347.865 44 1420.215 44s50.478 81.658 50.478 81.658h-17.842s20.387-63.323-33.132-70.261-73.916 70.261-73.916 70.261z" transform="translate(-1233.27 -40.225)"/><path id="Path_20973" data-name="Path 20973" class="cls-6" d="M1425.536 411.873h-134.293l2.032-9.513h134.293z" transform="translate(-1214.747 -221.002)"/><path id="Path_20974" data-name="Path 20974" class="cls-6" d="M1352.536 733.873h-134.293l2.032-9.513h134.293z" transform="translate(-1177.922 -383.436)"/><path id="Path_20975" data-name="Path 20975" class="cls-6" d="M1318.536 893.873h-134.293l2.032-9.513h134.293z" transform="translate(-1160.771 -464.149)"/><path id="Path_20976" data-name="Path 20976" class="cls-4" d="M1414.81 607.242h-17.841l90.694-398.458h17.837z" transform="translate(-1268.081 -123.352)"/><g id="Group_18519" data-name="Group 18519"><path id="Path_20977" data-name="Path 20977" class="cls-6" d="M1269.869 520.216l-8.3.186c.858-3.656 86.246-367.175 96.033-414.155 3.859-18.525.535-34.6-9.883-47.773a56.341 56.341 0 00-2.505-2.953 35.452 35.452 0 00-27.525-11.474c-26.894.918-48.449 13.013-64.225 36.081a122.392 122.392 0 00-17.992 42.379l-.038.189-90.442 397.521-8.115.124 90.806-399.317a129.024 129.024 0 0119.237-45.371c8.863-12.961 19.694-22.913 32.189-29.578 15.619-8.332 32.953-11.131 53.2-9.013l2.23.557c.428.208 14.42 4.007 21.742 17.654 6.259 11.665 14.516 26.52 9.084 52.593-9.809 47.075-94.638 408.693-95.496 412.35z" transform="translate(-1136.877 -36.382)"/></g></g><g id="Group_18521" data-name="Group 18521" transform="translate(722.092 448.328)"><path id="Path_20978" data-name="Path 20978" class="cls-7" d="M827.64 857.334l46.472-114.1c3.451-8.473 12.857-8.66 16.511-.327l51.8 118.142z" transform="translate(-821.416 -736.769)"/><path id="Path_20979" data-name="Path 20979" class="cls-8" d="M881.431 823.03h57.8l-10.752-24.53h-37.057z" transform="translate(-848.551 -767.91)"/><path id="Path_20980" data-name="Path 20980" class="cls-8" d="M840.091 924.529h100.341L929.677 900h-79.6z" transform="translate(-827.697 -819.112)"/><path id="Path_20981" data-name="Path 20981" class="cls-9" d="M969.436 871.018s1.947-45.713-14.7-121.858l50.316 114.887z" transform="translate(-885.532 -743.02)"/><rect id="Rectangle_7270" data-name="Rectangle 7270" width="126.769" height="19.822" rx="9.911" transform="translate(0 117.311)" fill="#f7bb34"/><path id="Path_20982" data-name="Path 20982" d="M1022.651 973.5h-31.258l-.049 19.822h31.306c4.251 0 7.729-4.46 7.729-9.911.001-5.451-3.479-9.911-7.728-9.911z" transform="translate(-903.998 -856.189)" fill="#e2a833"/><path id="Path_20983" data-name="Path 20983" d="M840.624 992.84h-7.15l7.054-17.84h7.15z" transform="translate(-824.359 -856.946)" fill="#ffc655"/><path id="Path_20984" data-name="Path 20984" d="M858.015 877.768l-7.817-.289 33.465-86.124 7.817.289z" transform="translate(-832.795 -764.305)" opacity=".68" fill="#fff"/></g><path id="Path_20985" data-name="Path 20985" class="cls-7" d="M315.111 0L0 228.222v-59.111L234 0z"/><path id="Path_20986" data-name="Path 20986" class="cls-8" d="M0 311.267l14.544-10.711L4.852 248.8 0 252.433z" transform="translate(0 -82.933)"/><path id="Path_20987" data-name="Path 20987" class="cls-8" d="M100.841 227.081l35.345-25.574-9.692-51.756-35.345 25.574z" transform="translate(-30.383 -49.917)"/><path id="Path_20988" data-name="Path 20988" class="cls-8" d="M237.729 128.033l35.345-25.575-9.692-51.758-35.345 25.577z" transform="translate(-76.012 -16.901)"/><path id="Path_20989" data-name="Path 20989" class="cls-8" d="M375.309 45.1l35.345-25.574L407 0h-40z" transform="translate(-122.333)"/><g id="Group_18523" data-name="Group 18523" transform="translate(964.24 219.477)"><g id="Group_18522" data-name="Group 18522"><path id="Rectangle_7271" data-name="Rectangle 7271" class="cls-7" d="M43.823 0a43.823 43.823 0 0143.823 43.823v18.288H0V43.823A43.823 43.823 0 0143.823 0z" transform="translate(15.498)"/><path id="Path_20990" data-name="Path 20990" class="cls-9" d="M1431.237 346.929s-7.246-49 31.056-49c0 0 8.626 5.866 8.626 21.739v27.375z" transform="translate(-1367.776 -286.544)"/><path id="Path_20991" data-name="Path 20991" class="cls-9" d="M1387.32 275.182s-15.182 6.9-15.643 16.563h21.854s8.052-13.572 18.864-16.793z" transform="translate(-1338.006 -274.952)"/><path id="Path_20992" data-name="Path 20992" class="cls-7" d="M1406.931 383.43l-100.231.616a2.947 2.947 0 01-1.4-5.549l21.866-11.631 79.767 8.569z" transform="translate(-1303.73 -321.319)"/><path id="Path_20993" data-name="Path 20993" class="cls-9" d="M1334.308 368.191l47.791-.3a70.043 70.043 0 01.474-7.289l-47.565.355z" transform="translate(-1319.155 -318.158)"/><rect id="Rectangle_7272" data-name="Rectangle 7272" class="cls-14" width="7.936" height="18.806" rx="3.968" transform="translate(22.054 17.081)"/></g><rect id="Rectangle_7273" data-name="Rectangle 7273" class="cls-14" width="53.106" height="3.221" rx="1.611" transform="translate(4.741 56.946)"/><path id="Path_20994" data-name="Path 20994" d="M1430.671 387.975c23.846.073 23.885-12.592.039-12.665l40.257 4.385v7.994z" transform="translate(-1367.765 -325.579)" fill="#d1972f"/></g><g id="Group_18524" data-name="Group 18524" transform="translate(142.821 197.1)"><path id="Path_20995" data-name="Path 20995" class="cls-16" d="M214.231 323.138h6.869l5.515 28.533c.959 5.674 2.078 11.269 3.037 16.944h.32c1.2-5.674 2.478-11.349 3.677-16.944l7.273-28.533H247l7.273 28.533c1.279 5.515 2.557 11.269 3.836 16.944h.32c.96-5.674 1.919-11.349 2.958-16.944l5.515-28.533h6.398l-10.87 52.43h-7.993L246.52 344a316.161 316.161 0 01-2.557-11.909h-.32c-.8 4.076-1.758 7.833-2.638 11.909l-7.752 31.57h-7.913z" transform="translate(-214.231 -318.662)"/><path id="Path_20996" data-name="Path 20996" class="cls-16" d="M302.226 360.784c0-12.708 8.552-20.461 17.423-20.461 9.911 0 15.506 7.113 15.506 18.223a25.355 25.355 0 01-.24 3.756H308.7c.479 8.232 5.514 13.508 12.948 13.508a17.554 17.554 0 009.67-3.037l2.318 4.316a23.127 23.127 0 01-12.788 4c-10.39-.006-18.622-7.598-18.622-20.305zm27.174-3.2c0-7.832-3.517-12.068-9.591-12.068-5.435 0-10.39 4.4-11.189 12.068z" transform="translate(-237.565 -323.219)"/><path id="Path_20997" data-name="Path 20997" class="cls-16" d="M366.164 369.956h-.24l-.559 4h-5.275v-56.909h6.554v15.506l-.16 7.033c3.517-3.117 7.833-5.435 12.149-5.435 10.07 0 15.425 7.752 15.425 19.741 0 13.267-7.913 21.019-16.784 21.019-3.597 0-7.674-1.837-11.11-4.955zm21.1-15.985c0-8.551-2.877-14.306-10.23-14.306-3.277 0-6.713 1.839-10.39 5.275v20.381c3.436 2.956 6.953 4.076 9.511 4.076 6.394.003 11.109-5.834 11.109-15.426z" transform="translate(-252.908 -317.047)"/><path id="Path_20998" data-name="Path 20998" class="cls-16" d="M414.366 375.729l3.277-4.4c3.357 2.717 6.794 4.635 11.429 4.635 5.115 0 7.673-2.717 7.673-6.074 0-4-4.636-5.754-8.872-7.353-5.515-2-11.589-4.635-11.589-11.189 0-6.234 4.955-11.03 13.347-11.03a19.387 19.387 0 0112.068 4.4l-3.117 4.155c-2.637-2-5.435-3.436-8.872-3.436-4.875 0-7.113 2.637-7.113 5.595 0 3.676 4.236 5.034 8.632 6.713 5.595 2.078 11.829 4.4 11.829 11.748 0 6.314-5.035 11.588-14.226 11.588a23.375 23.375 0 01-14.466-5.352z" transform="translate(-267.301 -323.219)"/><path id="Path_20999" data-name="Path 20999" class="cls-16" d="M464.181 323.458a4.568 4.568 0 019.112 0 4.568 4.568 0 01-9.112 0zm1.2 12.228h6.553v38.844h-6.554z" transform="translate(-280.51 -317.624)"/><path id="Path_21000" data-name="Path 21000" class="cls-16" d="M492.015 364.56v-21.5h-5.755v-4.956l6.074-.4.8-10.87h5.515v10.87h10.47v5.355h-10.47v21.581c0 4.8 1.518 7.512 5.994 7.512a14.081 14.081 0 004.4-1.039l1.279 4.956a23.968 23.968 0 01-7.193 1.438c-8.317 0-11.114-5.274-11.114-12.947z" transform="translate(-286.365 -319.643)"/><path id="Path_21001" data-name="Path 21001" class="cls-16" d="M523.9 360.784c0-12.708 8.552-20.461 17.424-20.461 9.911 0 15.5 7.113 15.5 18.223a25.37 25.37 0 01-.24 3.756h-26.215c.48 8.232 5.515 13.508 12.948 13.508a17.558 17.558 0 009.671-3.037l2.318 4.316a23.129 23.129 0 01-12.788 4c-10.391-.006-18.618-7.598-18.618-20.305zm27.174-3.2c0-7.832-3.517-12.068-9.59-12.068-5.436 0-10.39 4.4-11.19 12.068z" transform="translate(-296.345 -323.219)"/><path id="Path_21002" data-name="Path 21002" class="cls-16" d="M623.636 323.458a4.568 4.568 0 019.112 0 4.568 4.568 0 01-9.112 0zm1.2 12.228h6.554v38.844h-6.554z" transform="translate(-322.793 -317.624)"/><path id="Path_21003" data-name="Path 21003" class="cls-16" d="M646.15 375.729l3.277-4.4c3.357 2.717 6.794 4.635 11.43 4.635 5.114 0 7.672-2.717 7.672-6.074 0-4-4.636-5.754-8.872-7.353-5.515-2-11.589-4.635-11.589-11.189 0-6.234 4.955-11.03 13.347-11.03a19.388 19.388 0 0112.069 4.4l-3.117 4.155c-2.637-2-5.435-3.436-8.872-3.436-4.875 0-7.113 2.637-7.113 5.595 0 3.676 4.236 5.034 8.632 6.713 5.594 2.078 11.829 4.4 11.829 11.748 0 6.314-5.035 11.588-14.227 11.588a23.377 23.377 0 01-14.466-5.352z" transform="translate(-328.763 -323.219)"/><path id="Path_21004" data-name="Path 21004" class="cls-16" d="M219.887 496.769v-24.616h6.634v23.737c0 7.273 2.158 10.39 7.273 10.39 4 0 6.794-2 10.47-6.554v-27.573h6.554V511h-5.435l-.559-6.074h-.24c-3.6 4.236-7.434 7.034-12.788 7.034-8.232-.005-11.909-5.28-11.909-15.191z" transform="translate(-215.731 -358.176)"/><path id="Path_21005" data-name="Path 21005" class="cls-16" d="M279.819 471.807h5.434l.56 5.594h.24c3.676-3.676 7.673-6.554 13.028-6.554 8.152 0 11.829 5.275 11.829 15.186v24.616h-6.554v-23.737c0-7.273-2.238-10.39-7.353-10.39-4 0-6.713 2.078-10.63 5.994v28.133h-6.553z" transform="translate(-231.623 -357.83)"/><path id="Path_21006" data-name="Path 21006" class="cls-16" d="M335.509 485.136c0-12.628 7.992-20.461 16.864-20.461 4.476 0 7.433 1.678 10.87 4.476l-.32-6.633v-14.946h6.634v56.905h-5.435l-.56-4.555h-.24c-3.037 2.957-7.193 5.515-11.748 5.515-9.751 0-16.065-7.353-16.065-20.301zm27.414 9.431v-20.3c-3.277-2.958-6.234-4.076-9.431-4.076-6.234 0-11.189 5.994-11.189 14.866 0 9.271 3.916 14.866 10.71 14.866 3.596-.001 6.712-1.76 9.91-5.356z" transform="translate(-246.39 -351.658)"/><path id="Path_21007" data-name="Path 21007" class="cls-16" d="M395.767 491.308c0-12.707 8.552-20.461 17.423-20.461 9.911 0 15.506 7.114 15.506 18.223a25.346 25.346 0 01-.24 3.756h-26.215c.479 8.232 5.514 13.508 12.948 13.508a17.548 17.548 0 009.67-3.038l2.318 4.316a23.127 23.127 0 01-12.788 4c-10.389-.003-18.622-7.596-18.622-20.304zm27.174-3.2c0-7.833-3.517-12.068-9.591-12.068-5.435 0-10.39 4.4-11.189 12.068z" transform="translate(-262.369 -357.83)"/><path id="Path_21008" data-name="Path 21008" class="cls-16" d="M453.631 471.807h5.435l.56 7.033h.24c2.637-4.876 6.633-7.993 11.029-7.993a9.641 9.641 0 014.156.8l-1.279 5.754a10.871 10.871 0 00-3.756-.639c-3.277 0-7.193 2.4-9.831 8.952v24.936h-6.554z" transform="translate(-277.713 -357.83)"/><path id="Path_21009" data-name="Path 21009" class="cls-16" d="M509.21 491.308c0-13.028 8.712-20.461 18.7-20.461a16.12 16.12 0 0111.349 4.556l-3.357 4.316c-2.238-2-4.635-3.436-7.753-3.436-7.034 0-12.148 6.073-12.148 15.025 0 8.872 4.875 14.866 11.988 14.866a13.8 13.8 0 009.111-3.916l2.878 4.4a18.949 18.949 0 01-12.548 4.956c-10.307-.005-18.22-7.438-18.22-20.306z" transform="translate(-292.451 -357.83)"/><path id="Path_21010" data-name="Path 21010" class="cls-16" d="M556.526 491.308c0-13.028 8.472-20.461 17.983-20.461s17.983 7.433 17.983 20.461c0 12.868-8.472 20.3-17.983 20.3s-17.983-7.432-17.983-20.3zm29.172 0c0-8.952-4.476-15.025-11.189-15.025-6.634 0-11.19 6.073-11.19 15.025 0 8.872 4.556 14.866 11.19 14.866 6.713-.001 11.191-5.995 11.191-14.866z" transform="translate(-304.997 -357.83)"/><path id="Path_21011" data-name="Path 21011" class="cls-16" d="M619.393 471.807h5.435l.559 5.594h.24c3.676-3.676 7.673-6.554 13.028-6.554 8.152 0 11.829 5.275 11.829 15.186v24.616h-6.554v-23.737c0-7.273-2.238-10.39-7.353-10.39-4 0-6.714 2.078-10.629 5.994v28.133h-6.554z" transform="translate(-321.668 -357.83)"/><path id="Path_21012" data-name="Path 21012" class="cls-16" d="M673.017 506.253l3.277-4.4c3.357 2.717 6.794 4.636 11.429 4.636 5.115 0 7.672-2.717 7.672-6.075 0-4-4.634-5.754-8.871-7.353-5.515-2-11.59-4.635-11.59-11.189 0-6.234 4.956-11.03 13.347-11.03a19.388 19.388 0 0112.069 4.4l-3.117 4.155c-2.637-2-5.434-3.437-8.871-3.437-4.876 0-7.114 2.638-7.114 5.594 0 3.677 4.236 5.036 8.632 6.714 5.595 2.078 11.829 4.4 11.829 11.748 0 6.314-5.036 11.59-14.226 11.59a23.377 23.377 0 01-14.466-5.353z" transform="translate(-335.887 -357.83)"/><path id="Path_21013" data-name="Path 21013" class="cls-16" d="M721.735 495.085v-21.5h-5.754v-4.955l6.075-.4.8-10.87h5.515v10.87h10.47v5.355h-10.47v21.579c0 4.8 1.519 7.513 5.995 7.513a14.122 14.122 0 004.4-1.038l1.279 4.955a24 24 0 01-7.193 1.439c-8.319 0-11.117-5.276-11.117-12.948z" transform="translate(-347.28 -354.254)"/><path id="Path_21014" data-name="Path 21014" class="cls-16" d="M759.053 471.807h5.435l.559 7.033h.24c2.637-4.876 6.633-7.993 11.029-7.993a9.641 9.641 0 014.156.8l-1.279 5.754a10.864 10.864 0 00-3.756-.639c-3.277 0-7.193 2.4-9.831 8.952v24.936h-6.554z" transform="translate(-358.701 -357.83)"/><path id="Path_21015" data-name="Path 21015" class="cls-16" d="M796.033 496.769v-24.616h6.633v23.737c0 7.273 2.158 10.39 7.273 10.39 4 0 6.794-2 10.471-6.554v-27.573h6.553V511h-5.434l-.56-6.074h-.24c-3.6 4.236-7.433 7.034-12.788 7.034-8.232-.005-11.908-5.28-11.908-15.191z" transform="translate(-368.507 -358.176)"/><path id="Path_21016" data-name="Path 21016" class="cls-16" d="M852.048 491.308c0-13.028 8.712-20.461 18.7-20.461A16.121 16.121 0 01882.1 475.4l-3.357 4.316c-2.238-2-4.635-3.436-7.752-3.436-7.034 0-12.149 6.073-12.149 15.025 0 8.872 4.876 14.866 11.989 14.866a13.8 13.8 0 009.111-3.916l2.878 4.4a18.948 18.948 0 01-12.548 4.956c-10.311-.002-18.224-7.435-18.224-20.303z" transform="translate(-383.361 -357.83)"/><path id="Path_21017" data-name="Path 21017" class="cls-16" d="M903.922 495.085v-21.5h-5.755v-4.955l6.074-.4.8-10.87h5.515v10.87h10.47v5.355h-10.47v21.579c0 4.8 1.518 7.513 5.994 7.513a14.117 14.117 0 004.4-1.038l1.279 4.955a24 24 0 01-7.193 1.439c-8.317 0-11.114-5.276-11.114-12.948z" transform="translate(-395.59 -354.254)"/><path id="Path_21018" data-name="Path 21018" class="cls-16" d="M939.608 453.983a4.568 4.568 0 019.111 0 4.568 4.568 0 01-9.111 0zm1.2 12.229h6.553v38.842h-6.553z" transform="translate(-406.579 -352.235)"/><path id="Path_21019" data-name="Path 21019" class="cls-16" d="M964.08 491.308c0-13.028 8.472-20.461 17.984-20.461s17.982 7.433 17.982 20.461c0 12.868-8.472 20.3-17.982 20.3s-17.984-7.432-17.984-20.3zm29.172 0c0-8.952-4.476-15.025-11.188-15.025-6.634 0-11.19 6.073-11.19 15.025 0 8.872 4.556 14.866 11.19 14.866 6.712-.001 11.188-5.995 11.188-14.866z" transform="translate(-413.068 -357.83)"/><path id="Path_21020" data-name="Path 21020" class="cls-16" d="M1026.948 471.807h5.435l.559 5.594h.24c3.676-3.676 7.672-6.554 13.027-6.554 8.152 0 11.829 5.275 11.829 15.186v24.616h-6.554v-23.737c0-7.273-2.238-10.39-7.354-10.39-4 0-6.713 2.078-10.629 5.994v28.133h-6.554z" transform="translate(-429.739 -357.83)"/></g><path id="Rectangle_7274" data-name="Rectangle 7274" class="cls-16" transform="translate(146.418 394.744)" d="M0 0h157.992v2.735H0z"/><text id="COMING_SOON" data-name="COMING SOON" transform="translate(151.23 477.253)" font-size="67" font-family="MyriadPro-Semibold,Myriad Pro" font-weight="600" fill="#fff"><tspan x="0" y="0">COMING SOON</tspan></text><rect id="Rectangle_7269" data-name="Rectangle 7269" width="598.883" height="15.736" rx="7.868" transform="translate(660.474 576.592)" style="mix-blend-mode:multiply;isolation:isolate" fill="#3da898" opacity=".34"/></g></g></svg>