<svg xmlns="http://www.w3.org/2000/svg" width="161.472" height="46.787"><defs><style>.cls-1{fill:#a50c22}</style></defs><g id="Group_10838" data-name="Group 10838"><g id="Group_10776" data-name="Group 10776"><g id="Group_5395" data-name="Group 5395"><g id="Group_5385" data-name="Group 5385"><g id="Group_5325" data-name="Group 5325" transform="translate(19.933 .073)"><path id="Path_9801" data-name="Path 9801" class="cls-1" d="M1571.029-1194.051a.779.779 0 01-.1.034c-.461.056-.461.056-.657-.363-.114-.242-.114-.242-.389-.219-.226.017-.451.037-.675.046a.246.246 0 00-.274.222 4.149 4.149 0 01-.134.458l-.559.042c.028-.1.045-.177.067-.249q.379-1.227.761-2.452c.061-.2.063-.207.271-.214.46-.012.341-.1.551.325.34.691.672 1.389 1.006 2.082.044.09.085.182.134.289m-1.536-2l-.061.006-.3 1.047.817-.055c-.161-.361-.3-.684-.456-1" transform="translate(-1568.24 1196.763)"/></g><g id="Group_5326" data-name="Group 5326" transform="translate(24.11 .802)"><path id="Path_9802" data-name="Path 9802" class="cls-1" d="M1572.638-1194.892a1.018 1.018 0 011.036-1.1 1.024 1.024 0 011.066 1.03 1.025 1.025 0 01-1.033 1.109.99.99 0 01-1.068-1.035m1.583-.059h-.022a1.161 1.161 0 000-.14.5.5 0 00-.437-.47.5.5 0 00-.551.366.922.922 0 00-.017.551.5.5 0 00.454.373.483.483 0 00.491-.318 2.374 2.374 0 00.083-.359" transform="translate(-1572.638 1195.995)"/></g><g id="Group_5327" data-name="Group 5327" transform="translate(26.6 1.094)"><path id="Path_9803" data-name="Path 9803" class="cls-1" d="M1575.751-1193.6l-.491-.109c.154-.667.3-1.313.458-1.981l.444.091c-.007.088-.01.161-.017.27.081-.037.143-.07.21-.1a.818.818 0 01.82.082.483.483 0 01.227.434 1.742 1.742 0 01-.035.324c-.082.38-.171.757-.258 1.136-.01.045-.031.086-.053.155l-.484-.113c.072-.316.141-.611.2-.9a3.864 3.864 0 00.079-.412c.024-.23-.047-.347-.223-.407a.418.418 0 00-.492.162.861.861 0 00-.107.257c-.081.316-.154.634-.231.952-.01.044-.028.088-.051.161" transform="translate(-1575.26 1195.687)"/></g><g id="Group_5328" data-name="Group 5328" transform="translate(23.055)"><path id="Path_9804" data-name="Path 9804" class="cls-1" d="M1571.569-1196.839h.495c.035.467 0 .93 0 1.392s-.013.931-.021 1.413h-.513c-.01-.932.047-1.853.04-2.8" transform="translate(-1571.528 1196.839)"/></g><g id="Group_5329" data-name="Group 5329" transform="translate(6.188 11.649)"><path id="Path_9805" data-name="Path 9805" class="cls-1" d="M1587.472-1171.765a16.907 16.907 0 01-16.859 15.566 16.907 16.907 0 01-16.843-15.482 8.5 8.5 0 008.42 7.044 8.419 8.419 0 007.932-5.633 9.199 9.199 0 00-.324-.2 6.036 6.036 0 01-2.213-2.294 4.313 4.313 0 01-.54-1.942 3.921 3.921 0 01.575-2.184 8.051 8.051 0 01.745-1.015 10.214 10.214 0 001.423-2.02 4.877 4.877 0 00.544-1.99 6.189 6.189 0 00-.147-1.461c-.065-.328-.116-.658-.169-.989a1.412 1.412 0 010-.208 1.874 1.874 0 01.185.1 10.937 10.937 0 013.647 4.15 7.387 7.387 0 01.772 3.527 7.386 7.386 0 01-1.078 3.775 7.084 7.084 0 01-1.589 1.73c-.206.166-.41.335-.613.505-.066.055-.122.121-.184.18a.277.277 0 00-.067.336 8.479 8.479 0 00.71 1.5 8.313 8.313 0 005.794 4.006 8.453 8.453 0 009.258-4.926 9.347 9.347 0 00.623-2.066" transform="translate(-1553.769 1184.575)"/></g><g id="Group_5330" data-name="Group 5330" transform="translate(0 25.69)"><path id="Path_9806" data-name="Path 9806" class="cls-1" d="M1551.447-1166.09l-.161-.556a.538.538 0 01.093-.065 1.01 1.01 0 00.647-1.146 2.246 2.246 0 00-.228-.828.864.864 0 00-.463-.44.62.62 0 00-.858.435 6.068 6.068 0 00-.094.856c-.024.342-.026.685-.051 1.026a2.259 2.259 0 01-.087.433 1.344 1.344 0 01-2.054.738 1.741 1.741 0 01-.681-.839 2.92 2.92 0 01-.2-1.737 1.623 1.623 0 011.16-1.258.7.7 0 01.112-.013l.172.556a1.055 1.055 0 01-.115.068 1.165 1.165 0 00-.762 1.031 1.994 1.994 0 00.4 1.491.765.765 0 00.675.306.644.644 0 00.6-.412 2.125 2.125 0 00.13-.564c.031-.341.027-.685.053-1.027a4.643 4.643 0 01.107-.806 1.167 1.167 0 011.108-.945 1.3 1.3 0 011.214.605 2.549 2.549 0 01.4 1.037 2.485 2.485 0 010 .906 1.422 1.422 0 01-1.123 1.148" transform="translate(-1547.255 1169.792)"/></g><g id="Group_5331" data-name="Group 5331" transform="translate(2.705 33.023)"><path id="Path_9807" data-name="Path 9807" class="cls-1" d="M1553.378-1161.657l-.347.292.008.049a1.366 1.366 0 011.122.524 1.065 1.065 0 01.153 1.229c.1.012.18.025.26.029a1.312 1.312 0 011.083.676.977.977 0 01-.12 1.246 1.943 1.943 0 01-.237.224q-.976.765-1.952 1.525c-.03.024-.064.043-.123.083l-.363-.457c.072-.06.129-.113.189-.159.527-.414 1.056-.824 1.581-1.239a3.653 3.653 0 00.387-.338.566.566 0 00.1-.708.874.874 0 00-1.145-.428 2.18 2.18 0 00-.4.24c-.508.388-1.009.784-1.512 1.177l-.216.16-.362-.464c.073-.063.128-.115.189-.161.545-.428 1.093-.851 1.636-1.282a2.479 2.479 0 00.384-.373.552.552 0 00.015-.693.871.871 0 00-1.121-.344 3.138 3.138 0 00-.573.356c-.448.337-.886.688-1.328 1.032-.066.052-.135.1-.218.161l-.373-.469 2.941-2.3.335.415" transform="translate(-1550.102 1162.072)"/></g><g id="Group_5332" data-name="Group 5332" transform="translate(9.861 9.226)"><path id="Path_9808" data-name="Path 9808" class="cls-1" d="M1561.317-1187.126l.35.45-.4.337 1.936 2.484a1.18 1.18 0 01-.169.048c-.093.009-.188 0-.279.017a.457.457 0 01-.489-.22c-.434-.58-.886-1.146-1.333-1.717-.051-.068-.106-.131-.172-.211a2.869 2.869 0 00-.734.619c.726.751 1.447 1.5 2.206 2.288-.263.045-.48.09-.7.113-.052.006-.124-.053-.169-.1-.253-.254-.5-.515-.749-.771-.054-.054-.11-.105-.19-.179l-.656.725.522.486a.253.253 0 01-.254.125l-.841-.011a.3.3 0 01-.32-.187.346.346 0 01.084-.385c.3-.327.595-.659.89-.99.052-.058.1-.118.169-.2l-.462-.479c-.558.479-.98 1.052-1.494 1.571l-.432-.383 1.125-1.251.174.121.014-.018-.1-.152a16.577 16.577 0 012.471-2.132" transform="translate(-1557.637 1187.126)"/></g><g id="Group_5333" data-name="Group 5333" transform="translate(26.727 4.278)"><path id="Path_9809" data-name="Path 9809" class="cls-1" d="M1576.655-1188.824l.052.5c-.185.018-.346.032-.506.052a.918.918 0 00-.2.047.243.243 0 00-.193.28.254.254 0 00.227.257 2.292 2.292 0 00.483-.016 1.708 1.708 0 00.27-.076l-.023.258a6.42 6.42 0 00.522-1.417l-1.753-.49c.054-.2.1-.364.153-.546a1.691 1.691 0 01.17.026l1.1.315.9.257a2.874 2.874 0 00-.209-.268 3.6 3.6 0 00-1.19-.848.293.293 0 01-.215-.312c0-.154-.023-.307-.039-.511a5.05 5.05 0 01.681.323 5.015 5.015 0 01.558.5.885.885 0 00-.015-.145c-.067-.2-.136-.4-.209-.595a.474.474 0 00-.272-.33.174.174 0 01-.085-.123c-.025-.2-.037-.4-.057-.649a5.263 5.263 0 01.655.311.637.637 0 01.209.327c.113.348.217.7.3 1.054.09.386.163.777.222 1.169.027.183.082.311.278.341a.68.68 0 01.133.062l-.185.533-.49-.156c-.206.488-.365.99-.55 1.482s-.357.974-.552 1.51c-.154-.213-.286-.383-.4-.565a.28.28 0 01.006-.2c.062-.2.134-.394.214-.624h-.292a.92.92 0 01-.955-.889.675.675 0 01.31-.639 1.407 1.407 0 01.95-.209" transform="translate(-1575.393 1192.335)"/></g><g id="Group_5334" data-name="Group 5334" transform="translate(21.41 6.126)"><path id="Path_9810" data-name="Path 9810" class="cls-1" d="M1569.853-1189.714c-.015-.076-.034-.136-.04-.2-.009-.116-.011-.232-.018-.367.255-.023.493-.044.731-.063.195-.015.388-.03.583-.042a.437.437 0 01.352.064c.037.032.121.016.181.016h1.338a1.265 1.265 0 01.019.576l-.487.023c-.007.094-.015.176-.015.259v2.618a.35.35 0 00.161.328.824.824 0 01.262.947.74.74 0 01-.742.53 1.186 1.186 0 01-.806-.256 2.635 2.635 0 01-.339-.319 7.629 7.629 0 01-.7-1 .335.335 0 01.43.161 2.8 2.8 0 00.639.74.9.9 0 00.867.212.391.391 0 00.307-.368.3.3 0 00-.427-.322 1.17 1.17 0 00-.27.18 1.474 1.474 0 00-.155.168l-.3-.435a.755.755 0 01.763-.4c-.019-.116-.107-.147-.173-.185a.287.287 0 01-.148-.291c.007-.373 0-.747 0-1.121 0-.084-.007-.167-.012-.281-.367.031-.714.049-1.058.091a.3.3 0 00-.245.368 1.246 1.246 0 00.108.33 2.727 2.727 0 00.566.767c.05.048.106.09.183.155l-.228.17a1.016 1.016 0 01-.13-.1c-.221-.26-.454-.513-.657-.788a1.537 1.537 0 01-.311-.961.6.6 0 01.169-.447.463.463 0 01.237-.132c.417-.045.836-.071 1.278-.107l.053.378a2.348 2.348 0 00.01-.885l-.221-.013c-.046 0-.107.01-.138-.013-.139-.113-.294-.066-.446-.056-.326.021-.652.047-.978.069h-.188" transform="translate(-1569.795 1190.389)"/></g><g id="Group_5335" data-name="Group 5335" transform="translate(28.042 40.246)"><path id="Path_9811" data-name="Path 9811" class="cls-1" d="M1578.944-1152.527c-.208-.61-.4-1.166-.594-1.745l.566-.195 1.684 4.89-.517.179-.164-.393c-.039.069-.068.11-.087.154a1.342 1.342 0 01-1.331.758 1.66 1.66 0 01-1.264-.784 2.7 2.7 0 01-.455-1.7 1.426 1.426 0 012-1.221c.032.018.07.027.162.062m-1.569 1.369a2.577 2.577 0 00.472 1.3 1.038 1.038 0 00.761.449.946.946 0 001.016-1.022 2.431 2.431 0 00-.537-1.442.97.97 0 00-1.089-.327 1 1 0 00-.623 1.037" transform="translate(-1576.777 1154.467)"/></g><g id="Group_5336" data-name="Group 5336" transform="translate(21.694 41.21)"><path id="Path_9812" data-name="Path 9812" class="cls-1" d="M1575.237-1153.452l.129.681c-.2.042-.373.076-.557.114l-.106-.149a.658.658 0 00-.038.073l-.748 2.113-.883 2.511c-.077.217-.078.217-.313.224-.117 0-.233.007-.351.009-.023 0-.046-.006-.1-.011l-2.176-5.085.709-.033 1.79 4.515a.919.919 0 00.071-.136l1.41-4.3c.06-.186.067-.188.262-.2l.3-.014c.014-.074.027-.131.042-.206l.554-.1" transform="translate(-1570.094 1153.452)"/></g><g id="Group_5337" data-name="Group 5337" transform="translate(34.406 38.396)"><path id="Path_9813" data-name="Path 9813" class="cls-1" d="M1587.918-1153.991c-.074.066-.125.112-.177.156-.1.079-.192.155-.3.241-.127-.083-.242-.159-.366-.237-.095.066-.081.18-.106.269a1.949 1.949 0 01-.971 1.2 1.074 1.074 0 01-.65.148 1.046 1.046 0 01-.868-1.395 1.765 1.765 0 01.384-.608q.393-.432.779-.869a3 3 0 00.178-.25c-.1-.112-.2-.224-.3-.322a.511.511 0 00-.5-.113 1.507 1.507 0 00-.894.706.645.645 0 00-.043.478c.018.083.049.163.084.278l-.493.3a1.122 1.122 0 01-.116-1.025 2.376 2.376 0 011.5-1.34.818.818 0 01.858.229 4.6 4.6 0 01.373.418c.208.253.405.513.618.761a3.354 3.354 0 001.013.974m-1.791-.95c-.159.206-.292.388-.434.561s-.308.351-.46.527a1.079 1.079 0 00-.108.152.562.562 0 00.018.674.587.587 0 00.671.188 1.307 1.307 0 00.808-1.106 1.512 1.512 0 00-.5-1" transform="translate(-1583.478 1156.416)"/></g><g id="Group_5338" data-name="Group 5338" transform="translate(15.05 42.045)"><path id="Path_9814" data-name="Path 9814" class="cls-1" d="M1564.259-1151.6l-.518-.233a1.176 1.176 0 011.073-.733 2.589 2.589 0 011.511.4.887.887 0 01.429 1.064c-.127.512-.284 1.019-.421 1.53-.066.248-.129.5-.171.75a3.122 3.122 0 000 .484c-.135-.036-.246-.065-.356-.1-.258-.073-.266-.087-.251-.356 0-.046.007-.09.011-.145-.108-.042-.189.026-.269.055a1.938 1.938 0 01-1.625-.127 1.007 1.007 0 01-.465-1.354 1.019 1.019 0 01.944-.617 5.669 5.669 0 01.788.059c.3.028.6.068.9.094.2.016.217 0 .272-.2a.637.637 0 00-.371-.847 2.709 2.709 0 00-.644-.192.68.68 0 00-.664.259l-.173.211m1.645 1.264a.825.825 0 00-.108-.026 76.14 76.14 0 00-1.047-.082 3.278 3.278 0 00-.465-.015.537.537 0 00-.507.412.543.543 0 00.217.618 1.336 1.336 0 00.466.2 1.082 1.082 0 001.156-.369 1.941 1.941 0 00.289-.737" transform="translate(-1563.1 1152.573)"/></g><g id="Group_5339" data-name="Group 5339" transform="translate(6.925 37.72)"><path id="Path_9815" data-name="Path 9815" class="cls-1" d="M1556.741-1152.615l-.465-.407.178-.434-.29-.029a1.889 1.889 0 01-1.446-.877 1.022 1.022 0 01.609-1.56 1.133 1.133 0 01.816.1c.188.093.363.211.542.319.273.164.542.337.819.493.181.1.2.09.332-.067a.643.643 0 00.01-.944 2.66 2.66 0 00-.45-.4.712.712 0 00-.813-.044c-.054.03-.108.056-.179.093-.124-.144-.245-.281-.378-.434a1.141 1.141 0 011.052-.28 2.425 2.425 0 011.473 1.143.866.866 0 01-.094 1.064c-.308.382-.635.748-.953 1.122l-.076.087a3.1 3.1 0 00-.687 1.058m.631-1.927c-.058-.039-.081-.057-.106-.07q-.467-.264-.934-.523a2.984 2.984 0 00-.37-.194.564.564 0 00-.753.311.6.6 0 00.1.615 1.334 1.334 0 00.63.46.989.989 0 001.078-.222c.116-.113.223-.235.354-.376" transform="translate(-1554.545 1157.126)"/></g><g id="Group_5340" data-name="Group 5340" transform="translate(41.903 28.136)"><path id="Path_9816" data-name="Path 9816" class="cls-1" d="M1592.318-1164.7c-.084.17-.163.336-.249.512a1.186 1.186 0 01-.7-1.145 2.666 2.666 0 01.4-1.374.927.927 0 011.175-.459c.448.128.889.283 1.336.42a3.482 3.482 0 001.362.266l-.154.486a.143.143 0 01-.161.105c-.1 0-.2-.01-.333-.017.029.108.051.2.08.293a1.923 1.923 0 01-.157 1.535 1.014 1.014 0 01-1.143.569 1.029 1.029 0 01-.837-1.016 5.33 5.33 0 01.069-.765c.041-.324.1-.647.135-.971.024-.2 0-.211-.173-.269a.652.652 0 00-.892.364 2.844 2.844 0 00-.206.688.617.617 0 00.214.567c.072.068.148.134.232.208m1.305-1.578c-.031.3-.058.586-.091.87-.024.208-.068.415-.082.623a.576.576 0 00.438.633.585.585 0 00.667-.307 1.332 1.332 0 00.143-1.013 1.155 1.155 0 00-1.075-.806" transform="translate(-1591.371 1167.217)"/></g><g id="Group_5341" data-name="Group 5341" transform="translate(38.689 31.634)"><path id="Path_9817" data-name="Path 9817" class="cls-1" d="M1592.8-1159.952c-.1.177-.183.333-.286.518-1.517-.833-3.013-1.669-4.527-2.508l.3-.529 1.612.89c-.018-.119-.025-.186-.038-.254a1.542 1.542 0 01.657-1.542.944.944 0 01.805-.117 2.688 2.688 0 01.517.212c.677.368 1.35.745 2.023 1.118.033.019.063.042.117.078l-.281.515c-.087-.044-.157-.076-.223-.112-.606-.335-1.21-.673-1.819-1.006a1.936 1.936 0 00-.384-.167.675.675 0 00-.752.238.959.959 0 00.146 1.423c.356.249.746.449 1.125.666.289.166.585.324.878.487.039.022.076.051.134.089" transform="translate(-1587.987 1163.535)"/></g><g id="Group_5342" data-name="Group 5342" transform="translate(34.281 13.259)"><path id="Path_9818" data-name="Path 9818" class="cls-1" d="M1585.471-1179.489c-.1.05-.177.09-.255.125-.17.074-.292 0-.3-.19a.407.407 0 01.012-.14c.072-.238.145-.477.227-.71a.426.426 0 01.12-.168c.162-.148.268-.129.385.056.024.038.053.073.1.131l.789-.435a6 6 0 00-.486-.826l-2.692 1.679a1.178 1.178 0 01-.022-.177c0-.123.027-.249.02-.372a.317.317 0 01.18-.318c.645-.391 1.282-.8 1.921-1.2.072-.045.142-.092.235-.154l-.211-.389.485-.3a29.481 29.481 0 011.683 2.843l-.493.274-.3-.511-.811.449.42.777-.566.319c-.147-.256-.284-.5-.435-.761" transform="translate(-1583.346 1182.88)"/></g><g id="Group_5343" data-name="Group 5343" transform="translate(13.137 7.018)"><path id="Path_9819" data-name="Path 9819" class="cls-1" d="M1561.733-1187.485l.869-.484.871-.486a.683.683 0 00-.119-.1c-.242-.105-.483-.218-.731-.306a.835.835 0 00-.743.064.3.3 0 01-.418-.045 4.488 4.488 0 00-.377-.29 1.451 1.451 0 011.177-.27 6.366 6.366 0 011.4.631.27.27 0 00.381-.008c.1.176.188.334.29.511l-.518.307.545 1-.459.255c-.1.057-.205.112-.305.172a.435.435 0 00-.16.637.6.6 0 00.9.11.462.462 0 00-.047-.07.364.364 0 01-.07-.465.457.457 0 01.464-.247.3.3 0 01.165.075c.175.2.349.408.251.709a.338.338 0 000 .084 1.418 1.418 0 01.567.376 22.98 22.98 0 00-.347.2l-.436-.252a.212.212 0 00-.22 0 1.268 1.268 0 01-1.677-.488 1.5 1.5 0 01-.178-.476.507.507 0 01.306-.594c.136-.077.271-.153.406-.232.013-.007.022-.022.055-.06l-.255-.47-1.3.717c-.1-.172-.185-.333-.284-.509" transform="translate(-1561.085 1189.45)"/></g><g id="Group_5344" data-name="Group 5344" transform="translate(1.342 30.162)"><path id="Path_9820" data-name="Path 9820" class="cls-1" d="M1550.292-1161.4a1.434 1.434 0 01-.935-.358 1.872 1.872 0 01-.678-1.265 1.527 1.527 0 01.586-1.425 2.8 2.8 0 011.485-.628 1.491 1.491 0 01.981.232 1.881 1.881 0 01.822 1.835 1.578 1.578 0 01-.409.824 2.851 2.851 0 01-1.853.785m.609-3.069a2.221 2.221 0 00-1.4.65 1 1 0 00-.21 1.165.99.99 0 001 .635 2.072 2.072 0 001.46-.643 1 1 0 00.209-1.166 1.053 1.053 0 00-1.053-.641" transform="translate(-1548.667 1165.083)"/></g><g id="Group_5345" data-name="Group 5345" transform="translate(8.064 12.824)"><path id="Path_9821" data-name="Path 9821" class="cls-1" d="M1556.475-1180.748l-.251.369c-.161-.1-.31-.191-.48-.293a17.716 17.716 0 011.757-2.666l.457.326-.291.433 2.564 1.871a3.068 3.068 0 01-.658.235c-.065.014-.159-.047-.223-.095-.608-.435-1.211-.876-1.815-1.315l-.242-.169a3.984 3.984 0 00-.491.747l2.711 1.632a2.651 2.651 0 01-.636.31c-.053.02-.145-.037-.209-.076-.634-.378-1.268-.76-1.9-1.14-.092-.056-.186-.107-.293-.168" transform="translate(-1555.745 1183.338)"/></g><g id="Group_5346" data-name="Group 5346" transform="translate(30.961 39.938)"><path id="Path_9822" data-name="Path 9822" class="cls-1" d="M1579.851-1153.2l.57-.3 2.337 2.135a.415.415 0 00.013-.093l-.357-2.33c-.029-.193-.048-.386-.082-.577a.169.169 0 01.1-.208c.132-.062.26-.132.413-.211.052.375.1.721.146 1.066.137 1.033.277 2.067.406 3.1a6.307 6.307 0 01.059.907.92.92 0 01-.7.911c-.171.047-.188.043-.292-.1-.067-.095-.129-.192-.205-.3l.241-.1a.628.628 0 00.431-.7v-.023a.966.966 0 00-.379-.8c-.859-.72-1.692-1.472-2.533-2.213-.051-.045-.1-.093-.166-.157" transform="translate(-1579.851 1154.792)"/></g><g id="Group_5347" data-name="Group 5347" transform="translate(10.842 40.284)"><path id="Path_9823" data-name="Path 9823" class="cls-1" d="M1560.8-1154.427c.213.112.388.205.574.305l-.462 3.136c.8-.721 1.572-1.424 2.354-2.13l.507.267a.853.853 0 01-.1.135c-1.108.98-2.214 1.961-3.329 2.933a2.513 2.513 0 01-.583.38.892.892 0 01-1-.174.19.19 0 01-.069-.244c.05-.12.1-.241.155-.382.092.062.166.115.244.162a.633.633 0 00.816-.059 1.027 1.027 0 00.445-.767c.105-1.045.255-2.085.387-3.127.017-.13.037-.259.063-.434" transform="translate(-1558.67 1154.427)"/></g><g id="Group_5348" data-name="Group 5348" transform="translate(30.647 9.156)"><path id="Path_9824" data-name="Path 9824" class="cls-1" d="M1581.306-1186.9l.353-.3c.043.033.125.093.2.154.3.235.6.471.9.7.071.056.138.107.076.214l.137-.078 1.43 1.332-.386.427a19.087 19.087 0 00-1.92-1.647l-1.959 2.506c-.082-.251-.157-.453-.21-.66a.27.27 0 01.065-.184c.116-.162.241-.319.381-.5l-.162-.039a.937.937 0 01-.524-1.437.721.721 0 01.8-.289c.419.1.464.161.431.581 0 .045-.015.088-.027.15a1.953 1.953 0 00-.248-.093 3.023 3.023 0 00-.5-.083.431.431 0 00-.253.1.192.192 0 000 .333.751.751 0 00.477.16h.491l.737-.946c-.094-.078-.172-.14-.249-.2-.062-.051-.12-.1-.051-.193z" transform="translate(-1579.52 1187.199)"/></g><g id="Group_5349" data-name="Group 5349" transform="translate(16.385 6.644)"><path id="Path_9825" data-name="Path 9825" class="cls-1" d="M1565.779-1189.369c.065.125.109.213.153.3l.029-.01-.069-.329a7.927 7.927 0 011.542-.435l.143.515c-.171.056-.315.105-.489.165l.863 3.032a2.769 2.769 0 01-.672-.2c-.042-.015-.069-.1-.088-.153-.055-.168-.1-.339-.161-.533l-.2.147a.94.94 0 01-1.412-.556.862.862 0 01.622-.967.179.179 0 01.127.029c.116.089.225.186.348.29-.127.085-.241.152-.343.233a.778.778 0 00-.312.4.276.276 0 00.062.3.239.239 0 00.284.006 1 1 0 00.436-.409c.047-.076.1-.15.167-.255l-.348-1.205c-.593.213-1.139.468-1.734.69l-.223-.539 1.274-.514" transform="translate(-1564.505 1189.844)"/></g><g id="Group_5350" data-name="Group 5350" transform="translate(32.485 11.477)"><path id="Path_9826" data-name="Path 9826" class="cls-1" d="M1581.721-1182.38c-.161-.019-.246-.083-.254-.237a4.592 4.592 0 01.083-1.324 1.1 1.1 0 01.516-.694.612.612 0 01.986.508c0 .052.008.105.011.158.505-.016.635.111.6.6.074-.026.142-.049.221-.079.063.073.128.14.183.213.163.218.565.088.656-.151a.251.251 0 00-.061-.26c-.113-.138-.223-.278-.348-.434l.441-.365c.358.4.67.821 1.028 1.249l-.445.365-.287-.316-.12.143a1.114 1.114 0 01-.656.416.8.8 0 01-.533-.095.276.276 0 00.009.384 1.047 1.047 0 00.512.353c.094.032.195.049.33.084a5.256 5.256 0 01-.546.44c-.031.022-.106 0-.152-.016a.937.937 0 01-.61-1.237 5.941 5.941 0 01.241-.557c-.165-.273-.351-.3-.573-.072-.129.134-.255.272-.405.43l-.212-.476c.105-.115.208-.229.313-.342.08-.087.172-.167.1-.3a.377.377 0 00-.4-.18.579.579 0 00-.375.328 2.634 2.634 0 00-.2.883c-.019.191-.032.383-.048.58" transform="translate(-1581.456 1184.756)"/></g><g id="Group_5351" data-name="Group 5351" transform="translate(36.639 35.335)"><path id="Path_9827" data-name="Path 9827" class="cls-1" d="M1585.829-1157.154l.425-.462 2.884 1.246a3.239 3.239 0 00-.271-.564c-.09-.19-.189-.375-.285-.562l-.285-.561-.287-.56-.288-.571.417-.449c.076.145.139.26.2.378l1.474 2.994c.1.21.1.211-.054.378-.276.291-.187.27-.542.125q-1.589-.644-3.174-1.3a3.013 3.013 0 01-.21-.1" transform="translate(-1585.829 1159.638)"/></g><g id="Group_5352" data-name="Group 5352" transform="translate(1.303 13.328)"><path id="Path_9828" data-name="Path 9828" class="cls-1" d="M1550.394-1180.923c.09.205.158.386.249.557a.392.392 0 00.181.131c.2.088.4.167.629.26l-.2.505-2.627-1.063.205-.5c.382.151.752.3 1.121.444l.039-.04c-.033-.075-.065-.149-.1-.223-.181-.38-.358-.761-.544-1.138a.331.331 0 01-.011-.311c.071-.153.131-.312.212-.505.056.116.1.2.134.279l.4.9c.091.2.1.2.321.16l1.51-.3c.082-.015.164-.024.283-.041-.087.216-.15.4-.235.571a.256.256 0 01-.171.091c-.407.067-.815.124-1.223.185-.045.007-.089.02-.173.04" transform="translate(-1548.626 1182.807)"/></g><g id="Group_5353" data-name="Group 5353" transform="translate(14.193 2.015)"><path id="Path_9829" data-name="Path 9829" class="cls-1" d="M1562.822-1191.969c.163-.044.325-.09.488-.128a.148.148 0 01.105.031.326.326 0 00.332.031c.334-.111.412-.273.293-.607-.028-.079-.063-.156-.107-.264-.044.066-.075.1-.1.147a.741.741 0 01-1.135.242 1.266 1.266 0 01-.487-1.221.771.771 0 011.047-.624l.151.048-.044-.251.409-.155a.866.866 0 01.069.124c.209.537.421 1.072.617 1.613a2.71 2.71 0 01.125.565.5.5 0 01-.195.453 1.622 1.622 0 01-1.071.4.5.5 0 01-.5-.4m-.109-1.644a1.068 1.068 0 00.219.6.429.429 0 00.488.177.46.46 0 00.322-.462.952.952 0 00-.255-.633.429.429 0 00-.509-.11.434.434 0 00-.265.43" transform="translate(-1562.197 1194.718)"/></g><g id="Group_5354" data-name="Group 5354" transform="translate(6.065 6.54)"><path id="Path_9830" data-name="Path 9830" class="cls-1" d="M1553.64-1187.8l.364-.347q.584.308 1.168.613a.409.409 0 00.036-.034c-.2-.388-.456-.747-.673-1.146l.344-.358 1.187.67a2.634 2.634 0 00-.313-.626c-.105-.2-.219-.392-.336-.6l.312-.327a12.4 12.4 0 011.036 1.869c-.106.1-.219.2-.36.328l-1.11-.61-.04.042c.2.372.44.724.658 1.109-.112.12-.222.237-.348.369l-1.924-.956" transform="translate(-1553.64 1189.954)"/></g><g id="Group_5355" data-name="Group 5355" transform="translate(11.835 2.362)"><path id="Path_9831" data-name="Path 9831" class="cls-1" d="M1560.777-1194.352c.461.831.908 1.641 1.369 2.471l-.393.231-.16-.2a.791.791 0 00-.059.108.786.786 0 01-1.3.345 1.476 1.476 0 01-.508-.922.8.8 0 01.927-.909 1.42 1.42 0 00.151 0l-.475-.874.449-.249m-.038 1.412a.454.454 0 00-.5.476 1.039 1.039 0 00.336.67.441.441 0 00.534.087.454.454 0 00.213-.5 1.072 1.072 0 00-.323-.58 1.091 1.091 0 00-.26-.153" transform="translate(-1559.714 1194.352)"/></g><g id="Group_5356" data-name="Group 5356" transform="translate(35.12 4.484)"><path id="Path_9832" data-name="Path 9832" class="cls-1" d="M1584.788-1189.794l-.2.181-.358-.279c.574-.748 1.15-1.477 1.734-2.226.078.055.146.1.212.151s.117.1.191.161l-.6.786c.091.01.141.019.192.022a.8.8 0 01.739 1 1.4 1.4 0 01-.737.919.771.771 0 01-1.148-.578c0-.031-.013-.06-.028-.133m.287-.121a.416.416 0 00.649.376 1.062 1.062 0 00.48-.636.391.391 0 00-.124-.422.413.413 0 00-.429-.1.977.977 0 00-.575.783" transform="translate(-1584.229 1192.118)"/></g><g id="Group_5357" data-name="Group 5357" transform="translate(42.635 25.3)"><path id="Path_9833" data-name="Path 9833" class="cls-1" d="M1595.919-1168.183c-.032.2-.062.377-.1.586l-3.682-.65c.034-.184.063-.341.1-.518l.506.059a5.851 5.851 0 01-.37-.455.631.631 0 01-.059-.54 1.111 1.111 0 01.293-.5l.5.288c-.04.073-.071.126-.1.181a.656.656 0 00.313.974 3.222 3.222 0 00.708.226c.556.111 1.117.2 1.676.3.061.011.121.029.22.053" transform="translate(-1592.141 1170.203)"/></g><g id="Group_5358" data-name="Group 5358" transform="translate(8.239 16.074)"><path id="Path_9834" data-name="Path 9834" class="cls-1" d="M1558.795-1178.415v.364c-.125.045-.26.1-.4.139a.409.409 0 00-.311.278.835.835 0 01-.178.269.294.294 0 01-.341.084.356.356 0 01-.25-.282.545.545 0 01.324-.591.28.28 0 00.159-.324c-.019-.167-.137-.241-.28-.157a4.977 4.977 0 00-.449.332c-.129.1-.249.213-.386.3a.858.858 0 01-.322.124.357.357 0 01-.43-.412.239.239 0 01.012-.069l.585-1.556a2.178 2.178 0 01.541.175l-.463 1.243.043.022a1.669 1.669 0 01.156-.163 3.936 3.936 0 01.516-.394.5.5 0 01.737.211 3.369 3.369 0 01.2.5l.24-.037c.091-.016.181-.035.3-.058" transform="translate(-1555.929 1179.916)"/></g><g id="Group_5359" data-name="Group 5359" transform="translate(35.557 16.377)"><path id="Path_9835" data-name="Path 9835" class="cls-1" d="M1584.69-1177.171c.059-.264.107-.467.148-.671.022-.107.112-.12.189-.151l1.73-.7c.209-.084.416-.171.642-.264-.046-.142-.085-.272-.134-.427l.526-.213c.2.5.4.978.605 1.488-.178.076-.345.145-.534.224l-.213-.479-1.458.588-1.5.605" transform="translate(-1584.69 1179.597)"/></g><g id="Group_5360" data-name="Group 5360" transform="translate(39.645 10.181)"><path id="Path_9836" data-name="Path 9836" class="cls-1" d="M1589.577-1184.106l.1-.206-.177-.082a.852.852 0 01-.463-.5.562.562 0 01.175-.671.549.549 0 01.708-.01 4.4 4.4 0 01.343.315c.091.084.182.17.274.253a.405.405 0 00.076.041c.193-.118.229-.181.192-.329-.058-.229-.214-.349-.51-.381-.027-.061-.062-.128-.091-.2s-.046-.127-.071-.2a.647.647 0 01.667.114 1.6 1.6 0 01.457.693.5.5 0 01-.185.619c-.2.14-.4.269-.6.4a2.138 2.138 0 00-.638.541l-.257-.4m.733-.683a5.144 5.144 0 00-.447-.4.242.242 0 00-.388.2.444.444 0 00.092.274c.185.229.464.2.743-.075" transform="translate(-1588.994 1186.12)"/></g><g id="Group_5361" data-name="Group 5361" transform="translate(4.919 9.479)"><path id="Path_9837" data-name="Path 9837" class="cls-1" d="M1553.505-1186.859a1.117 1.117 0 011.093 1.085 1.113 1.113 0 01-1.056 1.068 1.152 1.152 0 01-1.108-1.079 1.1 1.1 0 011.071-1.073m-.1.491a.486.486 0 00-.476.651.853.853 0 00.719.51.488.488 0 00.462-.664.864.864 0 00-.7-.5" transform="translate(-1552.434 1186.859)"/></g><g id="Group_5362" data-name="Group 5362" transform="translate(9.833 4.653)"><path id="Path_9838" data-name="Path 9838" class="cls-1" d="M1559.2-1190.8l.438-.2a.756.756 0 01-.116.727 1.118 1.118 0 01-.626.423.829.829 0 01-.768-.171 1.39 1.39 0 01-.506-.816.845.845 0 01.339-.885.877.877 0 01.964-.124 1.343 1.343 0 01.548.532c-.355.281-.74.511-1.089.785a.458.458 0 00.558.242c.2-.068.27-.2.257-.514m-.327-.456c-.215-.282-.459-.332-.657-.164a.41.41 0 00.007.62l.651-.456" transform="translate(-1557.607 1191.94)"/></g><g id="Group_5363" data-name="Group 5363" transform="translate(16.604 1.473)"><path id="Path_9839" data-name="Path 9839" class="cls-1" d="M1565.356-1193.973c.091.289.241.423.445.424s.32-.1.424-.4l.484-.041a.791.791 0 01-.348.634 1.18 1.18 0 01-.682.2.765.765 0 01-.6-.265 1.313 1.313 0 01-.305-1.194.839.839 0 01.713-.655.853.853 0 01.938.363 1.176 1.176 0 01.219.573l-1.288.356m.719-.519c-.117-.351-.339-.478-.588-.368a.4.4 0 00-.177.576l.765-.208" transform="translate(-1564.736 1195.288)"/></g><g id="Group_5364" data-name="Group 5364" transform="translate(41.572 13.48)"><path id="Path_9840" data-name="Path 9840" class="cls-1" d="M1592.355-1180.741c-.195-.412-.378-.8-.562-1.193a.413.413 0 00-.351.434c.007.234.114.335.462.418l.123.44a.689.689 0 01-.658-.193 1.078 1.078 0 01-.345-.744.971.971 0 01.1-.446 1.343 1.343 0 011.34-.6.943.943 0 01.442 1.534 1.3 1.3 0 01-.546.347m.051-.612c.294-.111.406-.341.3-.573s-.349-.293-.636-.15l.337.723" transform="translate(-1591.022 1182.647)"/></g><g id="Group_5365" data-name="Group 5365" transform="translate(37.261 7.099)"><path id="Path_9841" data-name="Path 9841" class="cls-1" d="M1588.1-1187.547c-.323-.33-.625-.643-.926-.951a.434.434 0 00-.191.533c.08.207.215.266.579.242.051.074.111.155.165.238.031.045.054.093.086.149a.71.71 0 01-.758-.025 1.663 1.663 0 01-.386-.365.8.8 0 01-.067-.919 1.4 1.4 0 01.689-.641.881.881 0 011.039.237.873.873 0 01.137 1.057 1.485 1.485 0 01-.367.444m-.148-.59c.25-.244.266-.49.067-.669a.411.411 0 00-.62.091l.553.578" transform="translate(-1586.483 1189.365)"/></g><g id="Group_5366" data-name="Group 5366" transform="translate(29.089 1.867)"><path id="Path_9842" data-name="Path 9842" class="cls-1" d="M1579.712-1193.381l-1.254-.4a.43.43 0 00.076.557c.181.156.338.143.618-.064l.418.219a.713.713 0 01-.7.342 1.624 1.624 0 01-.53-.155.794.794 0 01-.459-.778 1.416 1.416 0 01.3-.866.884.884 0 011-.3.857.857 0 01.643.845 1.262 1.262 0 01-.117.6m-.4-.449a.422.422 0 00-.073-.52.365.365 0 00-.429-.083.355.355 0 00-.249.361l.75.242" transform="translate(-1577.88 1194.873)"/></g><g id="Group_5367" data-name="Group 5367" transform="translate(3.251 11.583)"><path id="Path_9843" data-name="Path 9843" class="cls-1" d="M1553.11-1183.381a77.195 77.195 0 00-.721-.412c-.141-.081-.282-.166-.429-.237-.216-.1-.365-.074-.479.079a.42.42 0 00.035.556 1.434 1.434 0 00.279.208c.234.142.47.274.706.412.059.035.115.074.186.121-.083.145-.159.278-.249.439l-1.762-1.016.219-.4.247.092-.026-.247a.81.81 0 01.089-.474.6.6 0 01.881-.29c.427.222.84.471 1.281.722l-.259.448" transform="translate(-1550.677 1184.644)"/></g><g id="Group_5368" data-name="Group 5368" transform="translate(42.343 15.622)"><path id="Path_9844" data-name="Path 9844" class="cls-1" d="M1593.715-1178.748l-.229-.394a.518.518 0 000-.668c-.042-.074-.1-.145-.207-.111-.087.03-.106.107-.1.19 0 .125.014.249.021.373a4.619 4.619 0 01.017.513.544.544 0 01-.752.488.706.706 0 01-.365-.278 1.417 1.417 0 01-.263-.924.71.71 0 01.332-.562l.235.434a.512.512 0 00-.089.688.475.475 0 00.1.127.174.174 0 00.3-.119 1.512 1.512 0 00-.01-.233c-.011-.2-.029-.4-.028-.6a.516.516 0 01.354-.523.546.546 0 01.635.161 1.415 1.415 0 01.335.948.564.564 0 01-.294.494" transform="translate(-1591.834 1180.392)"/></g><g id="Group_5369" data-name="Group 5369" transform="translate(9.98 39.634)"><path id="Path_9845" data-name="Path 9845" class="cls-1" d="M1558.27-1151.646l-.508-.332c.677-1.046 1.348-2.078 2.033-3.135l.511.331-2.035 3.135" transform="translate(-1557.762 1155.112)"/></g><g id="Group_5370" data-name="Group 5370" transform="translate(39.112 34.572)"><path id="Path_9846" data-name="Path 9846" class="cls-1" d="M1591.839-1158.294l-.349.5-3.058-2.142.343-.5c1.03.72 2.038 1.427 3.064 2.147" transform="translate(-1588.432 1160.441)"/></g><g id="Group_5371" data-name="Group 5371" transform="translate(26.514 42.621)"><path id="Path_9847" data-name="Path 9847" class="cls-1" d="M1576.479-1148.3l-.6.106-.712-3.661.6-.114.712 3.668" transform="translate(-1575.169 1151.967)"/></g><g id="Group_5372" data-name="Group 5372" transform="translate(32.138 2.393)"><path id="Path_9848" data-name="Path 9848" class="cls-1" d="M1582.451-1194.32l.478.263-1.139 2.06 1.243.7-.21.393-1.734-.96 1.361-2.457" transform="translate(-1581.09 1194.32)"/></g><g id="Group_5373" data-name="Group 5373" transform="translate(40.884 11.807)"><path id="Path_9849" data-name="Path 9849" class="cls-1" d="M1590.963-1182.608c-.1.075-.19.145-.306.231a2.941 2.941 0 01-.251-.309.454.454 0 01.162-.714c.243-.155.495-.293.743-.44.08-.047.159-.1.25-.151l-.074-.236.3-.181.16.177a.321.321 0 00.092-.033.381.381 0 01.542.01c.06.046.126.083.222.143l-.591.355.154.325-.317.2-.223-.306c-.314.184-.623.362-.927.546a.152.152 0 00-.042.241c.03.044.061.086.1.144" transform="translate(-1590.298 1184.408)"/></g><g id="Group_5374" data-name="Group 5374" transform="translate(8.119 5.245)"><path id="Path_9850" data-name="Path 9850" class="cls-1" d="M1555.8-1190.99l.4-.327 1.813 2.16-.388.341-1.824-2.174" transform="translate(-1555.802 1191.317)"/></g><g id="Group_5375" data-name="Group 5375" transform="translate(28.79 8.801)"><path id="Path_9851" data-name="Path 9851" class="cls-1" d="M1577.565-1186.869c.118-.231.218-.429.322-.628a.164.164 0 01.2-.066.8.8 0 01.554.429 1.275 1.275 0 01-.44 1.629.37.37 0 01-.474-.028.257.257 0 01.067-.461 1.613 1.613 0 00.328-.173.708.708 0 00.207-.246.292.292 0 00-.183-.428 1.875 1.875 0 00-.388-.05 1.086 1.086 0 00-.2.022" transform="translate(-1577.565 1187.573)"/></g><g id="Group_5376" data-name="Group 5376" transform="translate(38.547 8.598)"><path id="Path_9852" data-name="Path 9852" class="cls-1" d="M1588.16-1186.107l-.323-.4 1.584-1.282.287.348-.154.195c.191.027.378.011.5.166a.466.466 0 01.126.335l-.393.148c-.029-.059-.052-.107-.078-.153a.316.316 0 00-.468-.158 2.619 2.619 0 00-.41.266c-.223.167-.438.346-.674.533" transform="translate(-1587.837 1187.787)"/></g><g id="Group_5377" data-name="Group 5377" transform="translate(7.081 15.895)"><path id="Path_9853" data-name="Path 9853" class="cls-1" d="M1554.71-1178.12c.261-.68.507-1.323.762-1.984l.546.208-.761 1.984-.547-.208" transform="translate(-1554.71 1180.104)"/></g><g id="Group_5378" data-name="Group 5378" transform="translate(34.24 4.365)"><path id="Path_9854" data-name="Path 9854" class="cls-1" d="M1584.384-1192.243l.438.272-1.079 1.728-.44-.271 1.081-1.73" transform="translate(-1583.303 1192.243)"/></g><g id="Group_5379" data-name="Group 5379" transform="translate(34.271 17.768)"><path id="Path_9855" data-name="Path 9855" class="cls-1" d="M1583.948-1178.133a.881.881 0 01.478.5.457.457 0 01.009.407 2.061 2.061 0 01-.225.38c-.183.232-.381.451-.575.674-.1.109-.1.106-.3.038.031-.053.057-.106.09-.154.175-.248.355-.492.526-.743.117-.173.109-.218-.036-.363-.1-.1-.216-.2-.344-.319.062-.071.12-.14.18-.206s.127-.137.195-.209" transform="translate(-1583.336 1178.133)"/></g><g id="Group_5380" data-name="Group 5380" transform="translate(29.824 7.68)"><path id="Path_9856" data-name="Path 9856" class="cls-1" d="M1579.887-1187.6l-1.233-.629.262-.522 1.234.626-.263.524" transform="translate(-1578.654 1188.753)"/></g><g id="Group_5381" data-name="Group 5381" transform="translate(31.176 8.309)"><path id="Path_9857" data-name="Path 9857" class="cls-1" d="M1581.333-1186.942h-.006c-.057.077-.12.05-.182.01-.349-.218-.7-.434-1.069-.667.1-.166.2-.32.306-.5l1.162.725-.212.425" transform="translate(-1580.077 1188.091)"/></g><g id="Group_5382" data-name="Group 5382" transform="translate(37.931 33.753)"><path id="Path_9858" data-name="Path 9858" class="cls-1" d="M1587.765-1160.406l-.576-.4.349-.493.571.4-.344.5" transform="translate(-1587.189 1161.303)"/></g><g id="Group_5383" data-name="Group 5383" transform="translate(12.414 38.428)"><path id="Path_9859" data-name="Path 9859" class="cls-1" d="M1560.707-1156.382l.49.319a3.322 3.322 0 01-.37.6l-.5-.325c.132-.2.252-.387.383-.591" transform="translate(-1560.324 1156.382)"/></g><g id="Group_5384" data-name="Group 5384" transform="translate(35.492 3.699)"><path id="Path_9860" data-name="Path 9860" class="cls-1" d="M1584.621-1192.546l.248-.4.436.266-.247.4-.437-.269" transform="translate(-1584.621 1192.945)"/></g></g><g id="Group_5393" data-name="Group 5393" transform="translate(52.496 10.551)"><g id="Group_5386" data-name="Group 5386" transform="translate(0 .01)"><path id="Path_9861" data-name="Path 9861" class="cls-1" d="M1608.609-1168.4a11.506 11.506 0 01-3.2-.427 9.55 9.55 0 01-2.882-1.425v-3.875h2.257l.369 2.51a5.029 5.029 0 001.51.706 6.816 6.816 0 001.95.267 4.464 4.464 0 001.729-.3 2.4 2.4 0 001.07-.828 2.149 2.149 0 00.37-1.261 2.215 2.215 0 00-.324-1.192 2.809 2.809 0 00-1.076-.931 9.581 9.581 0 00-2.037-.759 14.391 14.391 0 01-3.152-1.2 5.237 5.237 0 01-1.91-1.667 4.059 4.059 0 01-.642-2.29 4.053 4.053 0 01.735-2.4 4.977 4.977 0 012.042-1.642 7.272 7.272 0 013.02-.613 9.586 9.586 0 013.316.486 7.933 7.933 0 012.435 1.331v3.622h-2.21l-.416-2.36a4.431 4.431 0 00-1.233-.574 6.021 6.021 0 00-1.788-.237 3.9 3.9 0 00-1.55.289 2.484 2.484 0 00-1.053.816 2.077 2.077 0 00-.382 1.256 1.864 1.864 0 00.336 1.11 2.917 2.917 0 001.122.862 13.652 13.652 0 002.129.781 9.9 9.9 0 014.155 2.014 4.232 4.232 0 011.411 3.274 4.067 4.067 0 01-.757 2.448 4.905 4.905 0 01-2.129 1.625 8.221 8.221 0 01-3.211.579" transform="translate(-1602.523 1185.72)"/></g><g id="Group_5387" data-name="Group 5387" transform="translate(13.793)"><path id="Path_9862" data-name="Path 9862" class="cls-1" d="M1624.4-1168.4a7.086 7.086 0 01-3.031-.63 6.7 6.7 0 01-2.32-1.776 8.137 8.137 0 01-1.486-2.708 10.785 10.785 0 01-.522-3.425v-.255a10.746 10.746 0 01.522-3.413 8.2 8.2 0 011.486-2.714 6.662 6.662 0 012.32-1.782 7.058 7.058 0 013.019-.631 7.276 7.276 0 013.089.631 6.6 6.6 0 012.327 1.782 8.127 8.127 0 011.468 2.714 10.945 10.945 0 01.51 3.413v.255a10.985 10.985 0 01-.51 3.425 8.062 8.062 0 01-1.468 2.708 6.635 6.635 0 01-2.327 1.776 7.247 7.247 0 01-3.078.63m0-2.315a3.94 3.94 0 002.517-.781 4.582 4.582 0 001.469-2.182 10.056 10.056 0 00.481-3.263v-.277a9.76 9.76 0 00-.486-3.227 4.661 4.661 0 00-1.475-2.176 3.917 3.917 0 00-2.517-.787 3.783 3.783 0 00-2.442.787 4.755 4.755 0 00-1.481 2.176 9.557 9.557 0 00-.5 3.227v.277a9.762 9.762 0 00.5 3.258 4.7 4.7 0 001.487 2.187 3.827 3.827 0 002.447.781" transform="translate(-1617.044 1185.731)"/></g><g id="Group_5388" data-name="Group 5388" transform="translate(30.119 .243)"><path id="Path_9863" data-name="Path 9863" class="cls-1" d="M1634.233-1168.628v-1.783l1.828-.347v-12.577l-1.828-.347v-1.794h6.006l4.94 12.185h.07l4.79-12.185h6.074v1.794l-1.84.347v12.577l1.84.347v1.783h-6.584v-1.783l1.933-.347v-3.922l.023-7.371-.058-.011-5.219 13.052h-2.117l-5.369-12.983-.057.012.151 7.1v4.119l2 .347v1.783z" transform="translate(-1634.233 1185.476)"/></g><g id="Group_5389" data-name="Group 5389" transform="translate(52.764 .243)"><path id="Path_9864" data-name="Path 9864" class="cls-1" d="M1658.074-1168.628v-1.782l1.227-.173 5.577-14.892h2.834l5.509 14.892 1.225.173v1.782h-5.357v-1.782l1.2-.219-.891-2.65h-6.272l-.914 2.65 1.215.219v1.782zm5.82-6.884h4.756l-2.186-6.237-.15-.451h-.07l-.162.474z" transform="translate(-1658.074 1185.475)"/></g><g id="Group_5390" data-name="Group 5390" transform="translate(70.514 .243)"><path id="Path_9865" data-name="Path 9865" class="cls-1" d="M1676.761-1168.628v-1.783l1.84-.347v-12.577l-1.84-.347v-1.794h6.583v1.794l-1.828.347v12.577l1.828.347v1.783z" transform="translate(-1676.761 1185.476)"/></g><g id="Group_5391" data-name="Group 5391" transform="translate(78.29 .243)"><path id="Path_9866" data-name="Path 9866" class="cls-1" d="M1689.715-1168.628v-1.783l1.828-.347v-3.795l-5.068-8.9-1.528-.231v-1.794h6.341v1.794l-1.608.208 3.125 5.9.254.509.046-.023.243-.475 3.379-5.913-1.91-.208v-1.794h6.214v1.794l-1.585.231-5 8.667v4.026l1.84.347v1.783z" transform="translate(-1684.947 1185.476)"/></g><g id="Group_5392" data-name="Group 5392" transform="translate(92.603 .243)"><path id="Path_9867" data-name="Path 9867" class="cls-1" d="M1700.017-1168.628v-1.782l1.227-.173 5.577-14.892h2.835l5.508 14.892 1.226.173v1.782h-5.358v-1.782l1.2-.219-.891-2.65h-6.272l-.914 2.65 1.215.219v1.782zm5.82-6.884h4.756l-2.186-6.237-.15-.451h-.071l-.161.474z" transform="translate(-1700.017 1185.475)"/></g></g><g id="Group_5394" data-name="Group 5394" transform="translate(52.498 31.821)"><path id="Path_9868" data-name="Path 9868" class="cls-1" d="M1605.039-1157.168l-1.93-5.224-.584-.067v-.872h2.764v.872l-.55.085 1.1 3.463.06.241h.025l.055-.229 1.071-3.475-.66-.085v-.872h2.582v.872l-.6.067-1.727 5.224z" transform="translate(-1602.525 1163.337)"/><path id="Path_9869" data-name="Path 9869" class="cls-1" d="M1615.88-1157.168v-.868l.639-.135v-4.154l-.639-.135v-.872h2.76v.872l-.639.135v4.154l.639.135v.868z" transform="translate(-1603.195 1163.337)"/><path id="Path_9870" data-name="Path 9870" class="cls-1" d="M1625.468-1157.168v-.868l.648-.157v-4.106l-.648-.16v-.872h2.887a2.819 2.819 0 011.478.387 2.721 2.721 0 011.008 1.071 3.312 3.312 0 01.364 1.577v.1a3.308 3.308 0 01-.364 1.577 2.706 2.706 0 01-1.008 1.069 2.827 2.827 0 01-1.478.385zm2.134-1.125h.677a1.275 1.275 0 00.787-.237 1.451 1.451 0 00.481-.667 2.823 2.823 0 00.164-1v-.1a2.8 2.8 0 00-.164-1 1.449 1.449 0 00-.481-.665 1.281 1.281 0 00-.787-.237h-.677z" transform="translate(-1603.676 1163.337)"/><path id="Path_9871" data-name="Path 9871" class="cls-1" d="M1639.923-1157.168v-.868l.639-.135v-1.029l-1.787-3.171-.644-.088v-.872h2.667v.872l-.381.067.847 1.69.1.216h.039l.1-.2.991-1.7-.643-.067v-.872h2.617v.872l-.653.088-1.77 3.053v1.147l.643.135v.868z" transform="translate(-1604.311 1163.337)"/><path id="Path_9872" data-name="Path 9872" class="cls-1" d="M1650.19-1157.168v-.868l.432-.063 1.837-5.233h1.609l1.842 5.233.432.063v.868h-2.3v-.868l.4-.076-.186-.669h-1.981l-.178.669.4.076v.868zm2.4-2.655h1.351l-.6-1.867-.067-.216h-.025l-.072.236z" transform="translate(-1604.916 1163.337)"/><path id="Path_9873" data-name="Path 9873" class="cls-1" d="M1664.991-1157.168l-1.931-5.224-.584-.067v-.872h2.765v.872l-.551.085 1.1 3.463.06.241h.025l.055-.229 1.071-3.475-.66-.085v-.872h2.583v.872l-.6.067-1.728 5.224z" transform="translate(-1605.532 1163.337)"/><path id="Path_9874" data-name="Path 9874" class="cls-1" d="M1675.831-1157.168v-.868l.639-.135v-4.154l-.639-.135v-.872h2.76v.872l-.639.135v4.154l.639.135v.868z" transform="translate(-1606.202 1163.337)"/><path id="Path_9875" data-name="Path 9875" class="cls-1" d="M1685.42-1157.168v-.868l.639-.135v-4.154l-.639-.135v-.872h2.764v.872l-.639.135v1.559h2.245v-1.559l-.64-.135v-.872h2.76v.872l-.638.135v4.154l.638.135v.868h-2.76v-.868l.64-.135v-1.456h-2.245v1.456l.639.135v.868z" transform="translate(-1606.683 1163.337)"/><path id="Path_9876" data-name="Path 9876" class="cls-1" d="M1698.168-1157.168v-.868l.432-.063 1.837-5.233h1.609l1.842 5.233.432.063v.868h-2.3v-.868l.4-.076-.186-.669h-1.981l-.178.669.4.076v.868zm2.4-2.655h1.351l-.6-1.867-.067-.216h-.026l-.072.236z" transform="translate(-1607.323 1163.337)"/><path id="Path_9877" data-name="Path 9877" class="cls-1" d="M1711.252-1157.169v-.868l.639-.135v-4.154l-.639-.135v-.877h3.031a3.184 3.184 0 011.27.233 1.872 1.872 0 01.83.663 1.765 1.765 0 01.293 1.018 1.859 1.859 0 01-.294 1.008 2.162 2.162 0 01-.807.747 2.348 2.348 0 01-1.168.277l-1.029-.013v1.233l.639.135v.868zm2.125-3.375h.923a.989.989 0 00.665-.2.728.728 0 00.233-.582.856.856 0 00-.238-.633.911.911 0 00-.677-.239h-.906zm1.778 3.375l-.829-2.4 1.291-.44.749 1.833.584.148v.863z" transform="translate(-1607.979 1163.337)"/></g></g></g></g></svg>