<svg id="Layer_1" data-name="Layer 1" xmlns="http://www.w3.org/2000/svg" viewBox="0 0 20 25.2"><defs><style>.cls-1{fill:#fff}.cls-2{fill:#2962ff}</style></defs><path class="cls-1" d="M15.4.59H.59v24.02h18.82V4.6L15.4.59z"/><path class="cls-1" d="M16.02 2.6H.59V.59H15.4l.62 2.01z"/><path class="cls-2" d="M14 11.35a1.12 1.12 0 000-1.57l-3.88 3.88L7 10.56l3.09-3.09 1.16 1.16L9.5 10.4l.78.78L12.44 9a.56.56 0 000-.79L10.51 6.3a.56.56 0 00-.79 0l-3.87 3.87a.56.56 0 000 .79l3.87 3.87a.56.56 0 00.79 0z" transform="translate(0 -.4)"/><path class="cls-1" d="M15.4 4.6h4.01L15.4.59V4.6z"/><path class="cls-2" d="M12.07 21.11a.93.93 0 01-.14.59.53.53 0 01-.45.18.55.55 0 01-.48-.18.92.92 0 01-.15-.58v-2.24h-1v2.32a1.51 1.51 0 00.42 1.14 1.68 1.68 0 001.19.4 1.7 1.7 0 001.22-.41 1.56 1.56 0 00.42-1.16v-2.29h-1v2.23zm7.76-16.54l-4-4A.59.59 0 0015.4.4H.59A.59.59 0 000 1v24a.59.59 0 00.59.59h18.82A.59.59 0 0020 25V5a.63.63 0 00-.17-.43zM16 2.43l2 2h-2v-2zM1.19 1.59h13.62v.81H1.19zm17.62 22.82H1.19V3.59h13.62V5a.6.6 0 00.59.6h3.41v18.81zm-4.91-5.53v3.81h1.48a1.69 1.69 0 001.06-.3 1 1 0 00.39-.82 1 1 0 00-.16-.56.94.94 0 00-.51-.32.79.79 0 00.43-.29.92.92 0 00.16-.55.79.79 0 00-.37-.72 2.31 2.31 0 00-1.15-.23zm1.39 3h-.36v-.8h.34a.58.58 0 01.37.11.32.32 0 01.13.29c0 .28-.16.41-.48.41zM15.7 20a.32.32 0 01-.12.27.57.57 0 01-.34.09h-.31v-.68h.29c.32-.02.48.09.48.32zm-6.8-.8a1.6 1.6 0 00-1.08-.32H6.51v3.81h1v-1.27h.29a1.53 1.53 0 001.07-.34 1.28 1.28 0 00.38-1 1.13 1.13 0 00-.35-.88zm-.81 1.26a.54.54 0 01-.37.13h-.19v-.88h.27c.28 0 .43.13.43.39a.49.49 0 01-.14.36zm-3.61-.77a1.39 1.39 0 00-1.07.4A1.54 1.54 0 003 21.23a1.46 1.46 0 00.41 1.12 1.58 1.58 0 001.14.39 3.58 3.58 0 00.61 0 1.78 1.78 0 00.49-.17v-.73a2.21 2.21 0 01-.49.17A1.89 1.89 0 014.7 22a.65.65 0 01-.46-.14.45.45 0 01-.18-.38h1.81V21a1.31 1.31 0 00-.36-1 1.38 1.38 0 00-1.03-.31zm-.4 1.16a.54.54 0 01.14-.36.44.44 0 01.3-.11.39.39 0 01.31.13.47.47 0 01.12.34z" transform="translate(0 -.4)"/></svg>