<svg version="1.1" id="Layer_1" xmlns="http://www.w3.org/2000/svg" x="0" y="0" viewBox="0 0 62.1 25.3" xml:space="preserve"><path d="M57.6 1.1H3c-.8 0-1.5.3-2.1.9-.6.6-.9 1.4-.9 2.2v2c0 1.7 1.4 3 3 3h1.8V22c0 1.7 1.4 3 3 3h49.7c.8 0 1.6-.3 2.2-.9.6-.6.9-1.4.9-2.2V4.2c0-.8-.3-1.6-.9-2.2-.5-.6-1.3-.9-2.1-.9" fill="#2962ff"/><path d="M57.6 2.2H3c-1.1 0-2 .9-2 2v2c0 1.1.9 2 2 2h3V22c0 1.1.9 2 2 2h49.5c1.1 0 2-.9 2-2V4.2c.1-1.1-.8-2-1.9-2" fill="#fff"/><path d="M56.8 18.4v.3c-.1.6-.6 1.1-1.3 1.2-.2 0-.4 0-.6-.2-.2-.1-.3-.3-.4-.5v-6c.1-.7.6-1.2 1.3-1.2.2-.1.4-.1.6 0 .2.1.4.3.5.5v3.8c0 .7 0 1.4-.1 2.1zm-22.1-5.5c-.8 1.5-.8 3.2-.2 4.7.7.8 1.8 1.1 2.8.6.7-.4 1-1.2 1-2 .2-1 0-2.1-.5-3-.5-.4-1.1-.6-1.7-.5-.5-.1-1 0-1.4.2zM45.5 15c0 1.4 0 2.6 1 3 .7.3 1.6.3 2.3 0 .2-.1.4-.3.5-.4.6-1.4.6-3 0-4.4-.4-.6-1.2-.9-1.9-.8-1.5.1-1.9 1-1.9 2.6zm-26.9-4.1c-1.6 0-3.2.9-3.8 2.4-.4 1.4-.6 2.9-.4 4.3-.1.5-.1 1 0 1.5.3.7 1 1 1.7.7.3-.1.6-.4.7-.7.1-.5.1-1 0-1.5-.2-1.4-.1-2.9.3-4.2.6-.8 1.7-1.1 2.6-.7 1.3.5 1 3 1 5-.1.5-.1 1 0 1.5.3.7 1 1 1.7.7.3-.1.6-.4.7-.7.1-.5.1-1 0-1.5 0-1.6-.2-3.6.5-4.5.7-.6 1.7-.7 2.5-.3 1.2.6.9 3 .9 4.7-.1.5-.1 1.1 0 1.6.2.7.9 1 1.6.8h.1c.3-.1.6-.4.7-.8.1-.6.1-1.3 0-1.9v-1.9c.2-2-1.1-3.8-3-4.4-1.1-.2-2.3-.1-3.3.3-.4.2-.7.4-1 .7-1-.9-2.3-1.3-3.5-1.1zm15.5.4c-1.7.8-2.7 2.6-2.4 4.4.1 2.4 2 4.3 4.4 4.2h.5c2.3.1 4.2-1.7 4.3-4 0-.3 0-.6-.1-.8 0-2.3-1.9-4.2-4.2-4.2-.2 0-.5 0-.7.1-.6-.1-1.2 0-1.8.3zm11.4-1.9c.1-.6.1-1.1 0-1.7-.3-.7-1-1-1.7-.7-.3.1-.6.4-.7.7v4.7c-.1 1.5 0 3 .2 4.5.3 1.1 1.1 2.1 2.1 2.5 1.3.5 2.8.6 4.1.2 1.8-.6 3-2.4 2.8-4.3.3-2.3-1.3-4.4-3.6-4.7h-1.1c-.7 0-1.3.2-1.9.4V9.4m-33.6 8.5c0 1.1-.9 2-2 2s-2-.9-2-2 .9-2 2-2 2 .9 2 2" fill-rule="evenodd" clip-rule="evenodd" fill="#2962ff"/></svg>