<svg xmlns="http://www.w3.org/2000/svg" width="22.45" height="27.935"><g data-name="Group 17998"><path data-name="Path 20870" d="M17.826 18.118a3.365 3.365 0 01-1.342.033 6.4 6.4 0 01-1.694-.501 5.031 5.031 0 012.445.135 2.672 2.672 0 01.591.337m-5.592-.919l-.121.033c-.27.073-.532.145-.785.209l-.341.087c-.686.174-1.387.351-2.08.562.263-.635.508-1.277.747-1.9.177-.464.358-.939.546-1.407q.143.235.3.471a9.171 9.171 0 001.736 1.95m-1.746-7.167a5.914 5.914 0 01-.372 2.26 3.619 3.619 0 01-.066-2.678 1.541 1.541 0 01.23-.37 1.737 1.737 0 01.208.789m-3.581 9.922c-.172.307-.347.594-.526.866-.433.653-1.142 1.352-1.506 1.352a.179.179 0 01-.142-.073.136.136 0 01-.045-.115 2.143 2.143 0 01.791-1.064 7.782 7.782 0 011.429-.966m12.075-1.814c-.056-.8-1.4-1.312-1.415-1.317a5.1 5.1 0 00-1.728-.274 10.352 10.352 0 00-2.381.322 8.286 8.286 0 01-2.126-2.185 13.883 13.883 0 01-.648-1.093 8.1 8.1 0 00.8-3.622c-.061-1.066-.542-1.783-1.2-1.783-.449 0-.835.332-1.149.988-.56 1.169-.413 2.666.437 4.451a60.929 60.929 0 00-.866 2.188c-.343.9-.7 1.824-1.094 2.705a9.662 9.662 0 00-2.8 1.635 2.89 2.89 0 00-1.139 1.774 1.134 1.134 0 00.319.857 1.18 1.18 0 00.87.385c1.092 0 2.142-1.5 2.341-1.8a16.292 16.292 0 001.144-2.057c.927-.335 1.914-.585 2.871-.826l.343-.087c.258-.066.525-.138.8-.213.291-.079.59-.16.894-.237a7.907 7.907 0 003.07 1.182 3.689 3.689 0 002.161-.219.794.794 0 00.485-.773m2.114 6.874a1.476 1.476 0 01-1.538 1.559H2.9a1.477 1.477 0 01-1.55-1.557V2.908A1.476 1.476 0 012.9 1.35h11.25l.006.006V5.75a2.458 2.458 0 002.549 2.548h4.36l.037.037v16.7zM20.066 7.293h-3.364A1.47 1.47 0 0115.15 5.75V2.361zM22.1 25.026V7.918L15.15.943V.911h-.03L14.562.35H2.9A2.462 2.462 0 00.35 2.908v22.119a2.463 2.463 0 002.55 2.558h16.65a2.462 2.462 0 002.55-2.558" fill="#1c4bff" stroke="#1c4bff" stroke-width=".7"/></g></svg>