<?xml version="1.0" encoding="utf-8"?><svg xmlns="http://www.w3.org/2000/svg" id="Layer_1" viewBox="0 0 35.2 30"><path fill="#4C5672" d="M17.6 29.8C9.4 29.8 2.8 23.2 2.8 15S9.4.2 17.6.2 32.4 6.8 32.4 15s-6.6 14.8-14.8 14.8zm0-29C9.8.8 3.4 7.2 3.4 15s6.4 14.2 14.2 14.2S31.8 22.8 31.8 15 25.4.8 17.6.8z"/><path fill="none" d="M7.9 8.8V5.9c0-.1 0-.1.1-.1h19.3c.1 0 .1 0 .1.1v17.2c0 .1 0 .1-.1.1H8c-.1 0-.1 0-.1-.1v-.8c.1 0 .1.1.1.1.1 0 .1.1.2.1.2 0 .5-.1.7-.1.3 0 .6-.1 1-.1.7-.1 1.4-.1 2.1 0 .4 0 .8 0 1.1.1.5 0 1 .1 1.4.2.7.1 1.5.3 2.2.5.1 0 .2 0 .2.1h1c1.1-.3 2.1-.6 3.3-.7.4 0 .7-.1 1.1-.1h1.9c.4 0 .7 0 1.1.1.5 0 1 .1 1.5.2h.1c.2-.1.2-.1.2-.3V9.3c0-.2 0-.2-.2-.2h-.4c-.1 0-.1 0-.1.1v12c0 .2 0 .2-.2.2h-1.3c-.5 0-.9 0-1.4.1-.8.1-1.5.2-2.3.4-1.2.3-2.3.6-3.4 1.1-.1 0-.1.1-.2.1-.1.1-.2 0-.3 0-.4-.2-.8-.3-1.2-.5-.6-.2-1.3-.4-1.9-.6-.9-.2-1.7-.4-2.6-.5-.3 0-.6-.1-.9-.1h-2c-.2 0-.2 0-.2-.2V9.3c0-.2 0-.2-.2-.2 0-.3-.2-.3-.4-.3z"/><path fill="#E5E4E6" d="M7.9 22.3V8.8 22.1c0 .1.1.2 0 .2z"/><path fill="#4C5672" d="M17.4 21.6c-.1 0-.1 0-.2-.1-1.5-.8-3-1.4-4.6-1.8-.8-.2-1.6-.3-2.3-.4-.1 0-.2 0-.2-.3V5.8c0-.1 0-.2.1-.2.1-.1.2-.1.2 0 2.4.2 4.7 1 7 2.3.1.1.2.1.2.3v13.2c0 .1 0 .2-.2.2zm-7-2.5c.7.1 1.5.2 2.3.4 1.5.4 3 .9 4.5 1.7v-2.4V8.3C15 7 12.8 6.2 10.4 6v13.1zM17.9 21.7h-.1s-.1-.1-.1-.2h.2-.2V8.3c0-.1.1-.2.2-.3l1.2-.6c.1 0 .2-.1.3 0 .1.1.1.2.1.2V11c.2-.2.4-.4.6-.7 0 0 .1-.1.2-.1s.2.1.2.1c.2.2.4.4.5.6v-.5-3.6c0-.1.1-.2.2-.3 1-.3 2-.6 2.9-.7.2 0 .4 0 .6-.1h.3s.1 0 .2.1.1.2.1.2v13.3c0 .2-.1.3-.2.3-1 .1-2 .3-3 .5-1.3.4-2.7.9-3.9 1.6h-.3zm-.1-.4zm1.1-13.6c-.3.2-.6.3-1 .5v12.9c1.2-.7 2.5-1.2 3.8-1.5 1-.3 2-.5 3-.5V6h-.2c-.2 0-.4 0-.5.1-.9.1-1.9.4-2.8.7v5.1l-.6-.7c-.2-.2-.3-.4-.5-.6-.2.2-.4.5-.6.7l-.1.2s-.1.1-.2.1l-.2.1v-4z"/><path fill="#4C5672" d="M18 23.3h-1c-1-.3-2.1-.5-3.2-.7-1.2-.1-2.4-.2-3.8-.1-.6 0-1.2.1-1.9.2-.1 0-.2 0-.2-.1l-.1-.1-.1-.1V8.7l.2-.1h.7c.1 0 .2 0 .2.1 0 0 .1.1.1.2v12h1.7c1.2.1 2.3.2 3.5.5 1.1.3 2.3.7 3.5 1.2h.1c1-.4 2-.8 2.9-1.1.9-.3 1.9-.4 2.8-.5.9-.1 1.9-.1 2.8-.1h.1v-12s0-.2.1-.2c.1-.1.2-.1.2-.1.2 0 .4 0 .6.1.1 0 .1 0 .2.1v13.5c0 .1-.1.2-.1.3-.2.2-.4.2-.6.1-1.1-.1-2.1-.2-3.2-.2-2 0-3.7.3-5.4.8H18zm-.3-.4h.3c1.7-.6 3.5-.8 5.5-.8 1.1 0 2.2.1 3.3.2h.3V9h-.4v12c0 .1 0 .2-.1.2 0 .1-.1.1-.2.1h-.2c-.9 0-1.9 0-2.8.1-.9.1-1.8.3-2.7.5-1 .2-1.9.5-3 1 .1 0 0 0 0 0zm-6.2-.8a16.54 16.54 0 0 1 5.6.8H17.3a23 23 0 0 0-3.4-1.2c-1.2-.3-2.3-.4-3.4-.5H8.7c-.1 0-.2 0-.2-.1-.1-.1-.1-.2-.1-.2v-12h-.3V22.2l.1.1c.6-.1 1.3-.2 1.9-.2h1.4zM27.1 8.8c0 .1 0 .1 0 0z"/><path fill="#4C5672" d="M17.6 22.4c-.1 0-.3 0-.4-.1-1.3-.6-2.7-1-4.1-1.2-1.3-.2-2.6-.3-3.9-.3 0 0-.1 0-.2-.1s-.1-.2-.1-.2v-7.6-5.4c0-.1 0-.2.1-.2 0-.2.1-.2.2-.2h.6c.1 0 .1 0 .2.1 0 0 .1.1.1.2v12.1c1.7.1 3.4.5 5.1 1.2.8.3 1.5.7 2.3 1.1.1.1.3.1.4 0 1.6-.9 3.2-1.5 4.8-1.9.9-.2 1.7-.3 2.6-.4v-12s0-.1.1-.2.2-.1.2-.1h.5c.1 0 .2 0 .2.1 0 0 .1.1.1.2v13.1s0 .1-.1.2-.2.1-.2.1c-.9 0-1.9 0-2.8.1-1.8.2-3.5.7-5.2 1.4h-.5zm7.9-14.9v12c0 .2-.2.3-.3.3-.8 0-1.7.2-2.6.4-1.3.3-2.5.8-3.8 1.4 1.4-.5 2.8-.8 4.2-1 .9-.1 1.9-.2 2.8-.1V7.6c0-.1-.1-.1-.3-.1zM9.9 20.4c1.1 0 2.2.1 3.3.3 1 .2 2.1.5 3.1.8l-1.2-.6c-1.7-.7-3.4-1.1-5.1-1.2-.1 0-.3-.1-.3-.3v-12h-.4v12.9c.2.1.4.1.6.1zm16-13z"/><path fill="none" d="M17.2 23.6h.7v.7h-.7z"/><path fill="#4C5672" d="M16.8 21.1h1.4v1.4h-1.4zM26 20.2h.4v.9H26zM24.9 18.8h.4v.9h-.4zM8.7 20.4h.7v.7h-.7zM9.7 18.9h.7v.7h-.7z"/><g><path fill="#D5322B" d="M18.9 7.3l2.2-.8.1 5.9-1.2-.9-1.1.9z"/><path fill="#D43329" d="M18.9 12.5V7.3l2.3-.9.1 6.1-1.3-.9-1.1.9zm0-5.2v4.9l1.1-.8 1 .8V6.5l-2.1.8z"/></g></svg>