<?xml version="1.0" encoding="utf-8"?><svg xmlns="http://www.w3.org/2000/svg" id="Layer_1" viewBox="0 0 35.2 30"><path fill="#4C5672" d="M13.3 24.4c.5 0 .8-.3.8-.7l1.5-13.3v13.2c0 .4.3.7.7.7h4.5c.2 0 .4-.1.5-.2.1.1.3.2.5.2h4.5c.4 0 .7-.3.7-.7V6.8c0-.4-.3-.7-.7-.7h-4.5c-.2 0-.4.1-.5.2-.1-.2-.3-.3-.5-.3h-4.5c-.2 0-.4.1-.6.3-.1-.1-.3-.2-.4-.2l-4.5-.5c-.2 0-.4 0-.5.2s-.3.3-.3.5L8.1 23c0 .2 0 .4.2.5s.3.3.5.3l4.5.6zm8.3-17.6c0-.1.1-.3.3-.3h4.5c.1 0 .3.1.3.3v1.4h-5V6.8zm0 1.9h5v1h-5v-1zm0 1.4h5v10.2h-5V10.1zm0 10.7h5v1h-5v-1zm0 1.5h5v1.4c0 .1-.1.3-.3.3h-4.5c-.1 0-.3-.1-.3-.3v-1.4zM16 6.8c0-.1.1-.3.3-.3h4.5c.1 0 .3.1.3.3v1.4h-5V6.8zm0 1.9h5v1h-5v-1zm0 1.4h5v10.2h-5V10.1zm0 10.7h5v1h-5v-1zm0 1.5h5v1.4c0 .1-.1.3-.3.3h-4.5c-.1 0-.3-.1-.3-.3v-1.4zm-5.5-16c0-.1 0-.1.1-.2 0 0 .1-.1.2 0l4.5.5c.1 0 .3.1.2.3l-.2 1.4-5-.6.2-1.4zm-.2 1.9l5 .6-.1 1-5-.6.1-1zm-.2 1.5l5 .6-1.1 10-5-.6 1.1-10zM8.9 20.2l5 .6-.1 1-5-.6.1-1zm-.3 2.9l.2-1.4 5 .6-.2 1.4c0 .1 0 .1-.1.2 0 0-.1.1-.2 0l-4.5-.5c-.1 0-.1 0-.2-.1v-.2z"/><path fill="#D5322B" d="M18.5 13.2c-.8 0-1.4.9-1.4 2s.6 2 1.4 2c.8 0 1.4-.9 1.4-2s-.6-2-1.4-2zm0 3.7c-.6 0-1.1-.8-1.1-1.7s.5-1.7 1.1-1.7 1.1.8 1.1 1.7-.5 1.7-1.1 1.7z"/><path fill="#D43329" d="M18.5 17.3c-.8 0-1.5-.9-1.5-2.1 0-1.2.7-2.1 1.5-2.1s1.5.9 1.5 2.1c0 1.2-.6 2.1-1.5 2.1zm0-4c-.7 0-1.3.9-1.3 1.9 0 1.1.6 1.9 1.3 1.9s1.3-.9 1.3-1.9c.1-1-.5-1.9-1.3-1.9zm0 3.7c-.6 0-1.1-.8-1.1-1.8s.5-1.8 1.1-1.8 1.1.8 1.1 1.8-.4 1.8-1.1 1.8zm0-3.4c-.5 0-1 .7-1 1.6s.4 1.6 1 1.6 1-.7 1-1.6-.4-1.6-1-1.6z"/><path fill="#D5322B" d="M13.3 13.6c-.2-.4-.6-.7-1-.8-.4-.1-.8.1-1.1.5-.3.4-.5.9-.6 1.4-.1 1.3.4 2.3 1.2 2.4h.1c.8 0 1.5-.9 1.6-2 .1-.5 0-1-.2-1.5zm-.1 1.5c-.1 1-.7 1.7-1.3 1.6s-1-.9-.9-1.9c.1-.5.2-.9.5-1.2.2-.3.5-.4.7-.4h.1c.3 0 .5.2.7.6.1.4.2.8.2 1.3z"/><path fill="#D43329" d="M11.9 17.2h-.1c-.9-.1-1.4-1.2-1.3-2.4.1-.5.3-1.1.6-1.5.4-.4.8-.6 1.2-.6.4.1.8.4 1 .8.2.4.3 1 .3 1.6-.1 1.2-.9 2.1-1.7 2.1zm.3-4.3c-.3 0-.7.2-1 .5-.3.4-.5.9-.6 1.4-.1 1.2.5 2.2 1.2 2.2h.1c.7 0 1.4-.8 1.5-1.9.1-.6 0-1.1-.2-1.5-.2-.4-.5-.7-.9-.7h-.1zm-.3 3.9c-.3 0-.5-.2-.7-.4-.3-.4-.4-1-.3-1.6.1-.5.2-1 .5-1.3.2-.3.5-.4.8-.4h.1c.3 0 .6.3.8.6.2.4.3.9.2 1.4-.1.6-.3 1.2-.7 1.5-.3.2-.5.2-.7.2zm.3-3.5c-.3 0-.5.1-.8.4-.3.3-.4.7-.5 1.2-.1.6 0 1.1.3 1.5.1.2.3.3.5.3s.4 0 .6-.2c.3-.3.6-.8.7-1.4h.1-.1c.1-.5 0-.9-.2-1.3-.1-.3-.3-.5-.6-.5z"/><g><path fill="#D5322B" d="M24.1 13.2c-.8 0-1.4.9-1.4 2s.6 2 1.4 2c.8 0 1.4-.9 1.4-2s-.6-2-1.4-2zm0 3.7c-.6 0-1.1-.8-1.1-1.7s.5-1.7 1.1-1.7 1.1.8 1.1 1.7-.5 1.7-1.1 1.7z"/><path fill="#D43329" d="M24.1 17.3c-.8 0-1.5-.9-1.5-2.1 0-1.2.7-2.1 1.5-2.1s1.5.9 1.5 2.1c0 1.2-.7 2.1-1.5 2.1zm0-4c-.7 0-1.3.9-1.3 1.9 0 1.1.6 1.9 1.3 1.9.7 0 1.3-.9 1.3-1.9 0-1-.6-1.9-1.3-1.9zm0 3.7c-.6 0-1.1-.8-1.1-1.8s.5-1.8 1.1-1.8 1.1.8 1.1 1.8-.5 1.8-1.1 1.8zm0-3.4c-.5 0-1 .7-1 1.6s.4 1.6 1 1.6 1-.7 1-1.6-.5-1.6-1-1.6z"/></g><g><path fill="#4C5672" d="M17.6 29.8C9.4 29.8 2.8 23.2 2.8 15S9.4.2 17.6.2 32.4 6.8 32.4 15s-6.6 14.8-14.8 14.8zm0-29C9.8.8 3.4 7.2 3.4 15s6.4 14.2 14.2 14.2S31.8 22.8 31.8 15 25.4.8 17.6.8z"/></g></svg>