<?xml version="1.0" encoding="utf-8"?><svg xmlns="http://www.w3.org/2000/svg" id="Layer_1" viewBox="0 0 35.2 30"><path fill="#4C5672" d="M17.6 29.8C9.4 29.8 2.8 23.2 2.8 15S9.4.2 17.6.2 32.4 6.8 32.4 15s-6.6 14.8-14.8 14.8zm0-29C9.8.8 3.4 7.2 3.4 15s6.4 14.2 14.2 14.2S31.8 22.8 31.8 15 25.4.8 17.6.8z"/><path fill="none" d="M24.4 11.1l-2.2-2.8v2.8z"/><path fill="#4C5672" d="M13.4 13.8h9.5c.2 0 .4-.2.4-.4s-.2-.4-.4-.4h-9.5c-.2 0-.4.2-.4.4s.2.4.4.4zM13.4 11.6h6.2c.2 0 .4-.2.4-.4s-.2-.4-.4-.4h-6.2c-.2 0-.4.2-.4.4.1.2.2.4.4.4zM13.4 15.9h9.5c.2 0 .4-.2.4-.4s-.2-.4-.4-.4h-9.5c-.2 0-.4.2-.4.4s.2.4.4.4zM19.6 17.4h-6.2c-.2 0-.4.2-.4.4s.2.4.4.4h6.2c.2 0 .4-.2.4-.4 0-.3-.2-.4-.4-.4z"/><path fill="#D43329" d="M13.4 10.9h6.2c.2 0 .4.2.4.4s-.2.4-.4.4h-6.2c-.2 0-.4-.2-.4-.4.1-.3.2-.4.4-.4zm0 2.1h9.5c.2 0 .4.2.4.4s-.2.4-.4.4h-9.5c-.2 0-.4-.2-.4-.4s.2-.4.4-.4zm0 2.2h9.5c.2 0 .4.2.4.4s-.2.4-.4.4h-9.5c-.2 0-.4-.2-.4-.4s.2-.4.4-.4zm6.2 2.9h-6.2c-.2 0-.4-.2-.4-.4s.2-.4.4-.4h6.2c.2 0 .4.2.4.4s-.2.4-.4.4z"/><path fill="#4C5672" d="M10.2 22.9c-.4 0-.7-.3-.7-.7V6.1c0-.4.3-.7.7-.7h10.9V7h-.7v-.9H10.1l.1 16.8z"/><path fill="#4C5672" d="M10.2 22.1h1v.8h-1z"/><path fill="none" d="M23.2 11.1l-2.1-2.8v2.8z"/><path fill="none" d="M22.2 11.1h2.2l-2.2-2.8z"/><path fill="#4C5672" d="M25.4 11.4s0-.1 0 0c0-.1 0-.1 0 0v-.1L22.1 7H11.3c-.2 0-.4.2-.4.4V24c0 .2.2.4.4.4h14v-.7H11.6V7.6h9.9v3.8c0 .2.2.4.4.4h2.8V24h.7V11.4zm-3.2-.3V8.3l2.1 2.8h-2.1z"/><path fill="#4C5672" d="M25.2 24.2h-.4c-.1 0-.1-.1-.1-.1v-.9c0-.1.1-.1.1-.1h.5c.1 0 .1.1.1.1v.8c0 .2-.1.2-.2.2z"/></svg>