<?xml version="1.0" encoding="utf-8"?><svg xmlns="http://www.w3.org/2000/svg" id="Layer_1" viewBox="0 0 35.2 30"><path fill="#4C5672" d="M17.6 29.8C9.4 29.8 2.8 23.2 2.8 15S9.4.2 17.6.2 32.4 6.8 32.4 15s-6.6 14.8-14.8 14.8zm0-29C9.8.8 3.4 7.2 3.4 15s6.4 14.2 14.2 14.2S31.8 22.8 31.8 15 25.4.8 17.6.8z"/><path fill="none" d="M22.8 9.8l-1.9-2.5v2.5z"/><path fill="#4C5672" d="M11.3 20.9V6.7h8.9v3.4c0 .2.1.3.3.3H23v6.3c.3.1.5.4.6.6v-7.2l-2.9-3.7H11c-.2 0-.3.1-.3.3v14.8c0 .2.1.3.3.3h7.9v-.6h-7.6zM22.8 9.8h-1.9V7.3l1.9 2.5z"/><path fill="#4C5672" d="M13 12.1h8.4c.2 0 .3-.1.3-.3s-.1-.3-.3-.3H13c-.2 0-.3.1-.3.3s.1.3.3.3zM13 10.2h5.5c.2 0 .3-.1.3-.3 0-.2-.1-.3-.3-.3H13c-.2 0-.3.1-.3.3 0 .2.1.3.3.3zM13 14.1h8.4c.2 0 .3-.1.3-.3 0-.2-.1-.3-.3-.3H13c-.2 0-.3.1-.3.3 0 .1.1.3.3.3zM18.5 15.4H13c-.2 0-.3.1-.3.3s.1.3.3.3h5.5c.2 0 .3-.1.3-.3s-.1-.3-.3-.3z"/><path fill="none" d="M13 9.6h5.5c.2 0 .3.1.3.3 0 .2-.1.3-.3.3H13c-.2 0-.3-.1-.3-.3 0-.2.1-.3.3-.3zm0 1.9h8.4c.2 0 .3.1.3.3s-.1.3-.3.3H13c-.2 0-.3-.1-.3-.3s.1-.3.3-.3zm0 2h8.4c.2 0 .3.1.3.3 0 .2-.1.3-.3.3H13c-.2 0-.3-.1-.3-.3 0-.2.1-.3.3-.3zm5.5 2.5H13c-.2 0-.3-.1-.3-.3s.1-.3.3-.3h5.5c.2 0 .3.1.3.3s-.1.3-.3.3z"/><g><path fill="#F39400" d="M23.1 20.7c.1 0 .1 0 0 0 .4-.2.6-.4.7-.6 0-.1.1-.1.1-.2s0-.1.1-.2c.1-.4.1-.8-.1-1.1 0-.1-.1-.1-.2-.1l-.1.1v.1c0 .1.1.1.1.2.1.3.1.6 0 .8 0 .1-.1.1-.1.2s-.1.1-.1.2c-.1.1-.2.2-.3.2-.1 0-.1.1-.2.1s-.1.1-.1.2c.1 0 .2.1.2.1z"/></g><g><path fill="#363B4E" d="M24.5 25.3a.9.9 0 0 1-.8-.4L22 22.3l2-1 1.7 2.6c.1.2.2.4.1.6-.1.3-.3.5-.6.7-.2.1-.5.1-.7.1zM23 22.5l1.3 2c.1.1.3.1.5 0 .1-.1.2-.2.2-.3L23.6 22l-.6.5z"/></g><g><path fill="#D43329" d="M21.5 22.9c-2 0-3.6-1.6-3.6-3.6s1.6-3.6 3.6-3.6 3.6 1.6 3.6 3.6-1.7 3.6-3.6 3.6zm0-6.5a2.9 2.9 0 1 0 2.9 2.9c0-1.6-1.4-2.9-2.9-2.9z"/></g><g><path fill="#4C5672" d="M10.1 20.4c-.4 0-.7-.3-.7-.7V5.4c0-.4.3-.7.7-.7h9.8v1.5h-.8v-.8h-9l.1 14.3-.1.7z"/><path fill="#4C5672" d="M10.1 19.6h.9v.8h-.9z"/></g></svg>