<?xml version="1.0" encoding="utf-8"?>
<!-- Generator: Adobe Illustrator 22.1.0, SVG Export Plug-In . SVG Version: 6.00 Build 0)  -->
<svg version="1.1" xmlns="http://www.w3.org/2000/svg" xmlns:xlink="http://www.w3.org/1999/xlink" x="0px" y="0px"
	 viewBox="0 0 648 378.3" style="enable-background:new 0 0 648 378.3;" xml:space="preserve">
<style type="text/css">
	.st0{opacity:0.22;}
	.st1{fill:#E0E0E0;}
	.st2{fill:#E8E8E8;}
	.st3{fill:#162443;}
	.st4{fill:#B3B3B3;}
	.st5{fill:#3E3E3D;}
	.st6{fill:#6F6F6F;}
	.st7{fill:#FFFFFF;}
	.st8{fill:none;stroke:#162443;stroke-width:3.3;stroke-linecap:round;stroke-linejoin:round;stroke-miterlimit:10;}
	.st9{fill:#DD9AB2;}
	.st10{fill:#D6819F;}
	.st11{fill:none;stroke:#162443;stroke-width:2.75;stroke-linecap:round;stroke-linejoin:round;stroke-miterlimit:10;}
	.st12{fill:#D8D8D8;}
	.st13{fill:#B77112;}
	.st14{clip-path:url(#SVGID_2_);enable-background:new    ;}
	.st15{fill-rule:evenodd;clip-rule:evenodd;fill:#F1F1F1;}
	.st16{fill-rule:evenodd;clip-rule:evenodd;fill:#842D2C;}
	.st17{fill-rule:evenodd;clip-rule:evenodd;fill:#A47023;}
	.st18{fill-rule:evenodd;clip-rule:evenodd;fill:#3A67B3;}
	.st19{fill-rule:evenodd;clip-rule:evenodd;fill:#2D509A;}
	.st20{fill-rule:evenodd;clip-rule:evenodd;fill:#202944;}
	.st21{fill-rule:evenodd;clip-rule:evenodd;fill:#5A1529;}
	.st22{fill-rule:evenodd;clip-rule:evenodd;fill:#B93E3A;}
	.st23{fill-rule:evenodd;clip-rule:evenodd;fill:#F4EBE1;}
	.st24{fill:#363D47;}
	.st25{fill:#5A1529;}
	.st26{fill:#842D2C;}
	.st27{fill:#202944;}
	.st28{fill:#B93E3A;}
	.st29{fill:#272727;}
	.st30{fill:#363636;}
	.st31{fill:#AAAAAA;}
	.st32{fill:#2D509A;}
	.st33{fill:#70BDFD;}
	.st34{fill:#F8FEFF;}
	.st35{fill:#333333;}
	.st36{fill:#F8FEFF;stroke:#F8FEFF;stroke-width:3;stroke-miterlimit:10;}
	.st37{fill:#2D438E;}
	.st38{fill:#354272;}
	.st39{fill:none;stroke:#354272;stroke-width:5;stroke-miterlimit:10;}
	.st40{fill:#302E45;}
	.st41{fill:#ECE7DF;}
	.st42{fill:#A47023;}
	.st43{fill:#FAFCFB;}
	.st44{opacity:0.35;}
	.st45{opacity:0.68;fill:#E0E0E0;}
	.st46{opacity:0.64;fill:#E0E0E0;}
	.st47{fill:#EAEAEA;}
	.st48{opacity:7.000000e-02;fill:#262626;}
	.st49{opacity:0.64;fill:#262626;}
	.st50{opacity:5.000000e-02;fill:#606060;}
</style>
<g id="BACKGROUND">
</g>
<g id="OBJECTS">
	<g class="st0">
		<path class="st1" d="M351.8,52.8C286.6,73.6,79.9-29.1,96.1,111.2c2.5,20.9,16,50.3,4.6,69.8c-8.2,14.6-23.3,23.1-37.9,28.8
			c-38,15.5-52.2,44.5-42.6,85.9c25.8,111.6,166,85.1,239.6,52c52.4-24.6,114.1-28.9,168.3-8c42.5,17,68.9,52.5,118.8,42.1
			c44.2-8.9,50.9-50.6,38-89.5c-7.3-24-12.6-34.2,1.9-57.4c12.3-23,33.8-40.5,35.5-67.5c0.4-29.2-13.1-58.7-39.1-69.8
			c-21.3-9.1-40.6-5.4-61.6-11c-46.8-13.2-76.9-85.9-135-60.9c-14.5,6.8-22.6,22.6-38.4,27.2"/>
	</g>
	<g>
		<g>
			<path class="st2" d="M328.2,40.9c3.5,0,3.5-5.5,0-5.5C324.6,35.4,324.6,40.9,328.2,40.9L328.2,40.9z"/>
		</g>
	</g>
	<g>
		<g>
			<path class="st2" d="M56.6,180.1c7.1,0,7.1-11,0-11C49.5,169.1,49.5,180.1,56.6,180.1L56.6,180.1z"/>
		</g>
	</g>
	<g>
		<g>
			<path class="st2" d="M607.8,253.2c7.1,0,7.1-11,0-11C600.7,242.2,600.7,253.2,607.8,253.2L607.8,253.2z"/>
		</g>
	</g>
	<g>
		<g>
			<path class="st2" d="M297.2,34.5c7.1,0,7.1-11,0-11C290.2,23.5,290.1,34.5,297.2,34.5L297.2,34.5z"/>
		</g>
	</g>
	<g>
		<g>
			<path class="st2" d="M626.1,223c9.2,0,9.2-14.3,0-14.3C616.9,208.7,616.9,223,626.1,223L626.1,223z"/>
		</g>
	</g>
	<g>
		<g>
			<path class="st2" d="M25.6,209.2c9.2,0,9.2-14.3,0-14.3C16.4,194.9,16.4,209.2,25.6,209.2L25.6,209.2z"/>
		</g>
	</g>
	<g>
		<g>
			<path class="st2" d="M534.5,66c9.2,0,9.2-14.3,0-14.3C525.3,51.7,525.2,66,534.5,66L534.5,66z"/>
		</g>
	</g>
	<g>
		<g>
			<path class="st2" d="M323.6,17.8c10.6,0,10.6-16.5,0-16.5C313,1.3,313,17.8,323.6,17.8L323.6,17.8z"/>
		</g>
	</g>
	<g>
		<g>
			<path class="st2" d="M636,246.5c5.3,0,5.3-8.2,0-8.2C630.7,238.3,630.7,246.5,636,246.5L636,246.5z"/>
		</g>
	</g>
	<g>
		<g>
			<path class="st2" d="M22.4,173c5.3,0,5.3-8.2,0-8.2C17.1,164.7,17.1,173,22.4,173L22.4,173z"/>
		</g>
	</g>
	<g>
		<g>
			<path class="st2" d="M563.1,81.3c5.3,0,5.3-8.2,0-8.2C557.8,73,557.8,81.3,563.1,81.3L563.1,81.3z"/>
		</g>
	</g>
	<g>
		<g>
			<path class="st2" d="M560.8,57c3.5,0,3.5-5.5,0-5.5C557.3,51.5,557.3,57,560.8,57L560.8,57z"/>
		</g>
	</g>
	<g>
		<g>
			<path class="st2" d="M96.4,39.3c7.1,0,7.1-11,0-11C89.4,28.3,89.4,39.3,96.4,39.3L96.4,39.3z"/>
		</g>
	</g>
	<g>
		<g>
			<path class="st2" d="M618.1,355.4c7.1,0,7.1-11,0-11C611,344.4,611,355.4,618.1,355.4L618.1,355.4z"/>
		</g>
	</g>
	<g>
		<g>
			<path class="st2" d="M22.2,363.4c7.1,0,7.1-11,0-11C15.1,352.4,15.1,363.4,22.2,363.4L22.2,363.4z"/>
		</g>
	</g>
	<g>
		<g>
			<path class="st2" d="M123.9,27.4c3.5,0,3.5-5.5,0-5.5C120.4,21.9,120.4,27.4,123.9,27.4L123.9,27.4z"/>
		</g>
	</g>
	<g>
		<g>
			<path class="st2" d="M619.3,320.6c3.5,0,3.5-5.5,0-5.5C615.7,315.1,615.7,320.6,619.3,320.6L619.3,320.6z"/>
		</g>
	</g>
	<g>
		<g>
			<path class="st2" d="M49.7,376.7c3.5,0,3.5-5.5,0-5.5C46.1,371.2,46.1,376.7,49.7,376.7L49.7,376.7z"/>
		</g>
	</g>
	<g>
		<g>
			<path class="st3" d="M180.9,225.5c-6.1,2.3-11.2,2.9-14.6-3.4c-2.4-4.6-3.8-9.5-6.7-13.9c-2.7-4.1-6.6-8.8-11.5-10.3
				c-4.4-1.3-9.1,0.5-13.6,0.8c-9.8,0.7-23.8-1.8-26-13.1c-1.8-9-1-17.6-5.1-26.1c-1.1-2.4-4.7-0.3-3.6,2.1c3.5,7.3,3.3,15,4.4,22.8
				c0.8,6.4,3.6,11.6,9.6,14.6c9.1,4.5,19,3.9,28.7,2.8c10.6-1.3,15.4,11.5,18.9,19.4c1.5,3.4,3.2,7.1,6.7,9
				c4.3,2.4,9.6,0.9,13.9-0.7C184.5,228.6,183.4,224.6,180.9,225.5L180.9,225.5z"/>
		</g>
	</g>
	<g>
		<g>
			<path class="st3" d="M108.8,150.1c-2.2,2.8-4.8,4.7-8,6.3c-1.9,1-0.2,3.8,1.7,2.8c3.7-1.9,6.6-4.1,9.1-7.5
				C113,150.1,110.1,148.5,108.8,150.1L108.8,150.1z"/>
		</g>
	</g>
	<g>
		<g>
			<path class="st3" d="M99.1,142.2c0,5.8,0.9,11.6,0.9,17.4c0,2.1,3.3,2.1,3.3,0c-0.1-5.8-0.9-11.6-0.9-17.4
				C102.4,140.1,99.1,140.1,99.1,142.2L99.1,142.2z"/>
		</g>
	</g>
	<g>
		<g>
			<path class="st3" d="M89.5,147.1c3.6,4.5,7.3,9.1,12.3,12.2c1.8,1.1,3.5-1.7,1.7-2.8c-4.7-2.9-8.2-7.4-11.6-11.7
				C90.6,143.1,88.2,145.4,89.5,147.1L89.5,147.1z"/>
		</g>
	</g>
	<g>
		<g>
			<path class="st3" d="M85,155.3c4.8,4.6,10.8,6,17.2,4.1c2-0.6,1.2-3.8-0.9-3.2c-5.3,1.6-9.9,0.6-14-3.2
				C85.8,151.5,83.4,153.9,85,155.3L85,155.3z"/>
		</g>
	</g>
	<g>
		<g>
			<path class="st3" d="M460.4,241.3c0.1-4.9,0.5-10.6,5.7-12.8c4.1-1.7,9.1-1.4,13.4-1.7c5.6-0.3,13.7,0.5,16.5-5.5
				c3.5-7.5,3.4-16,11.6-20.3c6.7-3.5,14.7-3.1,21.7-5.6c8.8-3.1,12.2-10.3,12.7-19.2c0.1-2.7-4-2.6-4.1,0
				c-0.5,10-5.4,14.6-14.8,16.6c-7,1.5-14.6,2-20.5,6.6c-3.1,2.4-5.2,5.5-6.7,9c-1.4,3.5-1.9,7.7-3.6,11.1c-1.4,2.8-4.3,2.7-7.2,2.9
				c-4.9,0.4-9.9,0.4-14.9,1c-10.3,1.3-13.8,7.9-14,17.9C456.3,243.9,460.4,243.9,460.4,241.3L460.4,241.3z"/>
		</g>
	</g>
	<g>
		<g>
			<path class="st3" d="M528.3,167.4c2.2,5.2,6,9.1,11.2,11.2c2,0.8,2.8-2.4,0.9-3.2c-4-1.7-7.3-4.9-8.9-8.9
				C530.7,164.6,527.5,165.5,528.3,167.4L528.3,167.4z"/>
		</g>
	</g>
	<g>
		<g>
			<path class="st3" d="M536.5,160.6c0,4.6,0,9.2,0,13.8c0,2.1,3.3,2.1,3.3,0c0-4.6,0-9.2,0-13.8
				C539.8,158.5,536.5,158.5,536.5,160.6L536.5,160.6z"/>
		</g>
	</g>
	<g>
		<g>
			<path class="st3" d="M545.7,162c-1.7,5-4.7,8.8-8.7,12.1c-1.6,1.3,0.7,3.7,2.3,2.3c4.5-3.7,7.7-8,9.6-13.6
				C549.6,160.8,546.4,160,545.7,162L545.7,162z"/>
		</g>
	</g>
	<g>
		<g>
			<path class="st3" d="M552.3,168c-2.6,4.1-6.6,6.6-10.9,8.4c-1.9,0.8-1.1,4,0.9,3.2c5.2-2.1,9.9-5.1,12.9-9.9
				C556.3,167.9,553.4,166.2,552.3,168L552.3,168z"/>
		</g>
	</g>
	<path class="st4" d="M494.6,340.9c0,4.8-36,6.2-39.9,6.2H185.2c-3.9,0-39.9-1.4-39.9-6.2l32.9-49.3c0-4.8,3.2-8.7,7-8.7h269.5
		c3.9,0,7,3.9,7,8.7L494.6,340.9z"/>
	<polygon class="st5" points="264.5,329.9 195.2,329.9 207.4,300.6 270,300.6 	"/>
	<polygon class="st5" points="375.3,329.9 444.6,329.9 432.5,300.6 369.8,300.6 	"/>
	<polygon class="st5" points="452.3,329.9 476.7,329.9 456.7,300.6 438.3,300.6 	"/>
	<polygon class="st5" points="187.5,329.9 163.1,329.9 183.1,300.6 201.5,300.6 	"/>
	<polygon class="st5" points="369.3,329.9 270.6,329.9 276.1,300.6 363.8,300.6 	"/>
	<rect x="169.2" y="305.9" class="st4" width="301.5" height="4.5"/>
	<rect x="165.9" y="316.9" class="st4" width="308.1" height="4.5"/>
	<path class="st5" d="M496.4,352.3c0,3.9-0.8,7-4.7,7H148.1c-3.9,0-4.7-3.2-4.7-7v-6c0-3.9,0.8-7,4.7-7h343.6c3.9,0,4.7,3.2,4.7,7
		V352.3z"/>
	<path class="st6" d="M384.3,349.5c0,2-1.6,3.7-3.7,3.7H259.2c-2,0-3.7-1.6-3.7-3.7l0,0c0-2,1.6-3.7,3.7-3.7h121.5
		C382.7,345.8,384.3,347.4,384.3,349.5L384.3,349.5z"/>
	<path class="st5" d="M465.2,285c0,3.9-3.2,7-7,7H181.6c-3.9,0-7-3.2-7-7V104.6c0-3.9,3.2-7,7-7h276.5c3.9,0,7,3.2,7,7V285z"/>
	<g>
		<g>
			<path class="st7" d="M319.9,106.1c2.3,0,2.3-3.5,0-3.5C317.7,102.6,317.7,106.1,319.9,106.1L319.9,106.1z"/>
		</g>
	</g>
	<path class="st7" d="M444.9,273.6c0,3.3-2.7,6.1-6.1,6.1H201c-3.3,0-6.1-2.7-6.1-6.1V118.5c0-3.3,2.7-6.1,6.1-6.1h237.8
		c3.3,0,6.1,2.7,6.1,6.1V273.6z"/>
	<line class="st8" x1="283.5" y1="175.3" x2="262.8" y2="196.1"/>
	<line class="st8" x1="283.5" y1="196.1" x2="262.8" y2="175.3"/>
	<line class="st8" x1="377.1" y1="175.3" x2="356.3" y2="196.1"/>
	<line class="st8" x1="377.1" y1="196.1" x2="356.3" y2="175.3"/>
	<path class="st9" d="M367.7,221.1v20.5c0,4.1-3.3,7.3-7.3,7.3h-4c-4.1,0-7.3-3.3-7.3-7.3v-20.5"/>
	<g>
		<polygon class="st10" points="360.4,222.2 358.4,246 356.5,222.2 		"/>
	</g>
	<line class="st11" x1="257.8" y1="221.1" x2="382.1" y2="221.1"/>
	<g>
		<g>
			<path class="st12" d="M237.4,214.4c7.1,0,7.1-11,0-11C230.3,203.4,230.3,214.4,237.4,214.4L237.4,214.4z"/>
		</g>
	</g>
	<g>
		<g>
			<path class="st12" d="M402.4,214.4c7.1,0,7.1-11,0-11C395.4,203.4,395.3,214.4,402.4,214.4L402.4,214.4z"/>
		</g>
	</g>
	<g>
		<g>
			<path class="st13" d="M419.9,73.5c0,20.2,0,40.3,0,60.5c0,3.5,5.5,3.5,5.5,0c0-20.2,0-40.3,0-60.5
				C425.4,69.9,419.9,69.9,419.9,73.5L419.9,73.5z"/>
		</g>
	</g>
	<g>
		<g>
			<path class="st13" d="M422.6,154.6c5.3,0,5.3-8.2,0-8.2C417.3,146.4,417.3,154.6,422.6,154.6L422.6,154.6z"/>
		</g>
	</g>
</g>
<g id="DESIGNED_BY_FREEPIK">
</g>
</svg>
