<svg xmlns="http://www.w3.org/2000/svg" width="155.32" height="152.967" viewBox="0 0 155.32 152.967">
    <defs>
        <clipPath id="a">
            <rect data-name="Rectangle 7313" width="155.32" height="152.967" rx="5" style="fill:#f38400"/>
        </clipPath>
    </defs>
    <g data-name="Mask Group 404" style="clip-path:url(#a)">
        <g data-name="noun_Book Flip_498531" style="opacity:.088">
            <g data-name="Group 18646">
                <g data-name="Group 18645">
                    <path data-name="Path 22122" d="M116.438 163.474a1.469 1.469 0 0 0 1.317 0c4.6-2.3 12.511-3.52 22.864-3.52 7.9 0 14.472.72 14.54.726a1.445 1.445 0 0 0 1.144-.368 1.479 1.479 0 0 0 .488-1.1V109.23a1.466 1.466 0 0 0-1.153-1.435c-.185-.041-1.97-.432-4.728-.9v-7.953a1.471 1.471 0 0 0-1.47-1.47c-.382 0-4.64.018-10.291.565v-4.976a1.471 1.471 0 0 0-1.47-1.47c-.5 0-11.953.168-21.009 11.426-12.032-5.463-31.089-5.546-31.918-5.546a1.471 1.471 0 0 0-1.47 1.47v7.95c-2.758.47-4.543.862-4.728.9a1.469 1.469 0 0 0-1.152 1.442v49.986a1.471 1.471 0 0 0 1.632 1.464c.068-.006 6.639-.726 14.54-.726 10.353-.002 18.26 1.215 22.864 3.517zm-36.1-53.044a137.5 137.5 0 0 1 2.94-.544v39.042a1.471 1.471 0 0 0 1.47 1.47c.2 0 19.439.082 30.874 5.36v4.161c-5.11-1.929-12.511-2.905-22.053-2.905-5.713 0-10.75.368-13.232.588zm35.284-4.663v10.818h2.94v-11.227a27.381 27.381 0 0 1 17.642-10.691v47.011c-3.455.385-12.273 2.276-19.542 11.32-10.262-4.658-25.625-5.4-30.445-5.516v-47.043c4.743.132 19.818.902 29.41 5.328zm32.344 41.712c-4.084.1-15.743.641-25.452 3.637a25.765 25.765 0 0 1 15.166-6.6 1.473 1.473 0 0 0 1.464-1.47v-42.034c3.831-.382 7.051-.523 8.821-.57zm5.881 10.124a156.561 156.561 0 0 0-13.232-.588c-9.542 0-16.942.976-22.053 2.905v-4.161c11.435-5.278 30.677-5.36 30.874-5.36a1.471 1.471 0 0 0 1.47-1.47v-39.038a137.5 137.5 0 0 1 2.94.544z"/>
                    <path data-name="Rectangle 7310" d="M115.627 125.405h2.94v11.761h-2.94z"/>
                    <path data-name="Rectangle 7311" d="M115.627 140.107h2.94v2.94h-2.94z"/>
                    <path data-name="Rectangle 7312" d="M115.627 145.988h2.94v2.94h-2.94z"/>
                    <path data-name="Path 22123" d="M103.865 119.525v-5.881l-8.821 7.351 8.821 7.351v-5.881h20.579v-2.94h-20.579z"/>
                </g>
            </g>
        </g>
    </g>
</svg>
