<svg xmlns="http://www.w3.org/2000/svg" width="27.012" height="33.647" viewBox="0 0 27.012 33.647">
    <g data-name="Group 18637" style="opacity:.2">
        <path data-name="Path 20870" d="M32.642 23a4.071 4.071 0 0 1-1.623.04 7.743 7.743 0 0 1-2.05-.611 6.087 6.087 0 0 1 2.958.163 3.232 3.232 0 0 1 .715.408m-6.765-1.112-.146.039c-.326.089-.644.175-.95.253l-.413.1c-.83.21-1.678.425-2.516.68.318-.768.614-1.544.9-2.3.214-.562.433-1.136.66-1.7q.172.285.36.57a11.094 11.094 0 0 0 2.1 2.359m-2.111-8.66a7.154 7.154 0 0 1-.451 2.734 4.378 4.378 0 0 1-.08-3.239 1.864 1.864 0 0 1 .278-.448 2.1 2.1 0 0 1 .252.954m-4.332 12c-.208.371-.419.719-.637 1.047-.524.79-1.381 1.635-1.821 1.635a.216.216 0 0 1-.172-.088.164.164 0 0 1-.055-.139 2.593 2.593 0 0 1 .957-1.287 9.414 9.414 0 0 1 1.728-1.168m14.61-2.191c-.067-.967-1.7-1.588-1.711-1.593a6.168 6.168 0 0 0-2.09-.332 12.523 12.523 0 0 0-2.88.39 10.024 10.024 0 0 1-2.572-2.643 16.226 16.226 0 0 1-.784-1.323 9.8 9.8 0 0 0 .971-4.382C24.9 11.863 24.322 11 23.531 11c-.543 0-1.01.4-1.39 1.2-.678 1.415-.5 3.225.529 5.384-.371.87-.715 1.773-1.048 2.646-.415 1.086-.842 2.207-1.323 3.273a11.689 11.689 0 0 0-3.384 1.978 3.5 3.5 0 0 0-1.378 2.146 1.372 1.372 0 0 0 .386 1.037 1.427 1.427 0 0 0 1.053.466c1.321 0 2.591-1.814 2.832-2.178a19.71 19.71 0 0 0 1.384-2.488c1.121-.4 2.316-.707 3.473-1l.415-.105c.312-.079.636-.167.968-.258.352-.1.713-.194 1.081-.287a9.565 9.565 0 0 0 3.714 1.43 4.463 4.463 0 0 0 2.614-.265.961.961 0 0 0 .587-.935m2.556 8.308a1.785 1.785 0 0 1-1.876 1.884H14.585a1.787 1.787 0 0 1-1.875-1.884V4.595a1.785 1.785 0 0 1 1.875-1.885H28.19l.007.007v5.31a2.973 2.973 0 0 0 3.084 3.083h5.275l.045.045zM35.351 9.9h-4.069a1.779 1.779 0 0 1-1.873-1.872V3.933zm2.461 21.453v-20.7l-8.4-8.438v-.037h-.04l-.678-.678H14.585A2.978 2.978 0 0 0 11.5 4.595v26.758a2.98 2.98 0 0 0 3.085 3.094h20.143a2.978 2.978 0 0 0 3.084-3.095" transform="translate(-11.15 -1.15)" style="stroke:#000;stroke-width:.7px"/>
    </g>
</svg>
