<svg xmlns="http://www.w3.org/2000/svg" width="20" height="20">
    <defs>
        <style>
            .cls-2{stroke:#000;stroke-width:.2px}
        </style>
    </defs>
    <g id="Group_18365" data-name="Group 18365" transform="translate(-1034 -19)">
        <g id="Group_18323" data-name="Group 18323" transform="translate(1447 -1225)">
            <g id="noun_about_us_3395986" data-name="noun_about us_3395986" transform="translate(-412 1245)">
                <path id="Path_19372" data-name="Path 19372" class="cls-2" d="M24.454 11.534a3.757 3.757 0 1 0-3.744-3.757 3.757 3.757 0 0 0 3.744 3.757zm0-6.858A3.094 3.094 0 1 1 21.36 7.77a3.094 3.094 0 0 1 3.094-3.094z" transform="translate(-15.169 -4.02)"/>
                <path id="Path_19373" data-name="Path 19373" class="cls-2" d="M46.321 24.643A2.321 2.321 0 1 0 44 22.321a2.321 2.321 0 0 0 2.321 2.321zm0-3.979a1.658 1.658 0 1 1-1.658 1.658 1.658 1.658 0 0 1 1.658-1.659z" transform="translate(-30.735 -14.701)"/>
                <path id="Path_19374" data-name="Path 19374" class="cls-2" d="M19.586 29.891a2.985 2.985 0 0 0-1.87.663 4.311 4.311 0 0 0-4.1-2.985h-.663a4.311 4.311 0 0 0-4.1 2.985A2.985 2.985 0 0 0 4 32.876v4.434a.332.332 0 0 0 .332.332h4.311v.332a.332.332 0 0 0 .332.332H17.6a.332.332 0 0 0 .332-.332v-.332h4.311a.332.332 0 0 0 .332-.332v-4.434a2.985 2.985 0 0 0-2.989-2.985zM4.663 36.978v-4.1A2.321 2.321 0 0 1 8.686 31.3a4.145 4.145 0 0 0-.043.577v5.1zm12.6.663H9.306v-5.76a3.648 3.648 0 0 1 3.648-3.648h.663a3.648 3.648 0 0 1 3.648 3.648zm4.643-.663h-3.978v-5.1a4.145 4.145 0 0 0-.043-.577 2.321 2.321 0 0 1 4.023 1.572z" transform="translate(-4 -19.76)"/>
                <path id="Path_19375" data-name="Path 19375" class="cls-2" d="M8.321 24.643A2.321 2.321 0 1 0 6 22.321a2.321 2.321 0 0 0 2.321 2.322zm0-3.979a1.658 1.658 0 1 1-1.658 1.658 1.658 1.658 0 0 1 1.658-1.658z" transform="translate(-5.337 -14.701)"/>
            </g>
        </g>
    </g>
</svg>
