<svg xmlns="http://www.w3.org/2000/svg" width="20" height="20">
    <defs>
        <style>
            .cls-3{stroke:#000;stroke-width:.5px}
        </style>
    </defs>
    <g id="Group_18059" data-name="Group 18059" transform="translate(-1001 -19)">
        <g id="Group_17837" data-name="Group 17837" transform="translate(116 3)">
            <g id="noun_Business_4020858" transform="translate(886 17)">
                <path id="Path_19332" data-name="Path 19332" class="cls-3" d="M36.664 124.235a.193.193 0 0 0-.2-.185H18.779a.193.193 0 0 0-.2.185v5.286a.921.921 0 0 0 .019.186.152.152 0 0 0 0 .03v5.141a1.668 1.668 0 0 0 1.724 1.6h14.6a1.668 1.668 0 0 0 1.724-1.6v-5.141a.188.188 0 0 0 0-.029.921.921 0 0 0 .019-.187zm-.414 10.643a1.283 1.283 0 0 1-1.326 1.232H20.32a1.283 1.283 0 0 1-1.326-1.232v-4.57l.051.035 3.588 2.289a1.509 1.509 0 0 0 .412.183v1.932a.581.581 0 0 0 .6.558h1a.581.581 0 0 0 .6-.558v-1.874H30v1.874a.581.581 0 0 0 .6.558h1a.581.581 0 0 0 .6-.558v-1.931a1.511 1.511 0 0 0 .411-.183l3.587-2.29a.652.652 0 0 0 .051-.035zm-12.807-.13v-1.874h1.4v1.874a.2.2 0 0 1-.2.188h-1a.2.2 0 0 1-.201-.188zm6.957 0v-1.874h1.4v1.874a.2.2 0 0 1-.2.188h-1a.2.2 0 0 1-.2-.188zm5.868-5.227a.615.615 0 0 1-.293.517l-3.586 2.29a1.123 1.123 0 0 1-.609.177h-8.315a1.123 1.123 0 0 1-.609-.177l-3.586-2.29a.615.615 0 0 1-.294-.517v-5.1h17.29z" transform="translate(-18.58 -120.065)"/>
                <path id="Path_19333" data-name="Path 19333" class="cls-3" d="M141.437 40.021h1a.221.221 0 0 0 .2-.239v-1.017a1.331 1.331 0 0 1 1.183-1.439h3.243a1.331 1.331 0 0 1 1.183 1.439v1.017a.221.221 0 0 0 .2.239h1a.246.246 0 0 0 0-.478h-.806v-.777a1.774 1.774 0 0 0-1.576-1.916h-3.243a1.774 1.774 0 0 0-1.576 1.916v.777h-.806a.246.246 0 0 0 0 .478z" transform="translate(-136.523 -36.85)"/>
            </g>
        </g>
    </g>
</svg>
