<svg xmlns="http://www.w3.org/2000/svg" width="18.8" height="18.65">
    <defs>
        <style>
            .cls-2{stroke:#000;stroke-width:.3px}
        </style>
    </defs>
    <g id="Group_18322" data-name="Group 18322" transform="translate(-885.85 -16.85)">
        <g id="noun_Business_4020858" transform="translate(886 17)">
            <path id="Path_19332" data-name="Path 19332" class="cls-2" d="M37.079 124.247a.2.2 0 0 0-.2-.2H18.783a.2.2 0 0 0-.2.2v5.631a1.02 1.02 0 0 0 .019.2.168.168 0 0 0 0 .032v5.476a1.738 1.738 0 0 0 1.763 1.707H35.3a1.738 1.738 0 0 0 1.764-1.707v-5.476a.208.208 0 0 0 0-.031 1.021 1.021 0 0 0 .019-.2zm-.424 11.337A1.336 1.336 0 0 1 35.3 136.9H20.36a1.336 1.336 0 0 1-1.36-1.315v-4.868l.052.038 3.67 2.439a1.514 1.514 0 0 0 .422.2v2.058a.605.605 0 0 0 .613.594h1.02a.605.605 0 0 0 .614-.595v-2h4.87v2a.606.606 0 0 0 .613.594H31.9a.605.605 0 0 0 .614-.595v-2.057a1.517 1.517 0 0 0 .421-.2l3.669-2.439.052-.038zm-13.1-.138v-2h1.434v2a.2.2 0 0 1-.207.2h-1.02a.2.2 0 0 1-.208-.2zm7.117 0v-2h1.434v2a.2.2 0 0 1-.207.2h-1.02a.2.2 0 0 1-.208-.2zm6-5.568a.661.661 0 0 1-.3.551l-3.669 2.44a1.116 1.116 0 0 1-.623.189h-8.5a1.116 1.116 0 0 1-.623-.189l-3.668-2.44a.662.662 0 0 1-.3-.551v-5.434h17.684z" transform="translate(-18.58 -120.344)"/>
            <path id="Path_19333" data-name="Path 19333" class="cls-2" d="M141.461 39.8h1.133a.222.222 0 0 0 .222-.222v-.946a1.339 1.339 0 0 1 1.338-1.338h3.666a1.339 1.339 0 0 1 1.338 1.338v.946a.222.222 0 0 0 .222.222h1.133a.222.222 0 0 0 0-.444h-.913v-.723a1.785 1.785 0 0 0-1.782-1.782h-3.666a1.785 1.785 0 0 0-1.782 1.782v.723h-.911a.222.222 0 0 0 0 .444z" transform="translate(-136.854 -36.85)"/>
        </g>
    </g>
</svg>
