<svg xmlns="http://www.w3.org/2000/svg" width="20.201" height="20">
    <defs>
        <style>
            .cls-2{stroke:#000;stroke-width:.2px}
        </style>
    </defs>
    <g id="Group_18364" data-name="Group 18364" transform="translate(-733.9 -19)">
        <g id="noun_Community_939420" transform="translate(728.572 8.053)">
            <g id="Group_17596" data-name="Group 17596" transform="translate(5.428 12.947)">
                <g id="Group_17595" data-name="Group 17595">
                    <path id="Path_19334" data-name="Path 19334" class="cls-2" d="M71.29 54.177a.337.337 0 0 0-.328.269 7.29 7.29 0 0 1-2.85 4.328.338.338 0 0 0-.111.421.337.337 0 0 0 .5.125 7.963 7.963 0 0 0 3.116-4.73.338.338 0 0 0-.327-.413z" transform="translate(-53.935 -44.927)"/>
                    <path id="Path_19335" data-name="Path 19335" class="cls-2" d="M39.832 14.54a.336.336 0 0 0 0-.582 7.922 7.922 0 0 0-7.663-.045.336.336 0 0 0 0 .584.335.335 0 0 0 .329 0 7.251 7.251 0 0 1 7 .041.335.335 0 0 0 .332 0z" transform="translate(-26.037 -12.947)"/>
                    <path id="Path_19336" data-name="Path 19336" class="cls-2" d="M15.373 54.177a.338.338 0 0 0-.328.413 7.965 7.965 0 0 0 3.212 4.8.338.338 0 0 0 .5-.121.337.337 0 0 0-.112-.43 7.289 7.289 0 0 1-2.945-4.393.338.338 0 0 0-.327-.269z" transform="translate(-12.879 -44.927)"/>
                    <path id="Path_19337" data-name="Path 19337" class="cls-2" d="M44.446 55.581a2.26 2.26 0 1 0-2.26 2.26 2.263 2.263 0 0 0 2.26-2.26zm-3.847 0a1.587 1.587 0 1 1 1.587 1.587 1.589 1.589 0 0 1-1.586-1.587z" transform="translate(-32.186 -44.263)"/>
                    <path id="Path_19338" data-name="Path 19338" class="cls-2" d="M41.044 77.917a.317.317 0 0 0 .311.277h.045a.312.312 0 0 0 .313-.347 2.567 2.567 0 0 0-2.54-2.216h-1.656a2.567 2.567 0 0 0-2.539 2.216.312.312 0 0 0 .313.347h.045a.317.317 0 0 0 .311-.277 1.893 1.893 0 0 1 1.87-1.613h1.657a1.893 1.893 0 0 1 1.87 1.613z" transform="translate(-28.346 -61.568)"/>
                    <path id="Path_19339" data-name="Path 19339" class="cls-2" d="M14.9 19.323a2.26 2.26 0 1 0-2.26 2.26 2.263 2.263 0 0 0 2.26-2.26zm-3.847 0a1.587 1.587 0 1 1 1.587 1.587 1.589 1.589 0 0 1-1.588-1.587z" transform="translate(-9.268 -16.14)"/>
                    <path id="Path_19340" data-name="Path 19340" class="cls-2" d="M5.431 41.589a.312.312 0 0 0 .313.347h.045a.317.317 0 0 0 .311-.277 1.893 1.893 0 0 1 1.87-1.613h1.657a1.893 1.893 0 0 1 1.87 1.613.317.317 0 0 0 .311.277h.045a.312.312 0 0 0 .313-.347 2.567 2.567 0 0 0-2.54-2.216H7.97a2.567 2.567 0 0 0-2.539 2.216z" transform="translate(-5.428 -33.444)"/>
                    <path id="Path_19341" data-name="Path 19341" class="cls-2" d="M73.992 19.323a2.26 2.26 0 1 0-2.26 2.26 2.263 2.263 0 0 0 2.26-2.26zm-3.847 0a1.587 1.587 0 1 1 1.587 1.587 1.589 1.589 0 0 1-1.587-1.587z" transform="translate(-55.103 -16.14)"/>
                    <path id="Path_19342" data-name="Path 19342" class="cls-2" d="M70.947 41.936a.312.312 0 0 0 .313-.347 2.567 2.567 0 0 0-2.54-2.216h-1.657a2.567 2.567 0 0 0-2.54 2.216.312.312 0 0 0 .313.347h.045a.318.318 0 0 0 .312-.277 1.893 1.893 0 0 1 1.87-1.613h1.657a1.893 1.893 0 0 1 1.87 1.613.317.317 0 0 0 .312.277z" transform="translate(-51.263 -33.444)"/>
                </g>
            </g>
        </g>
    </g>
</svg>
