<svg xmlns="http://www.w3.org/2000/svg" width="20.1" height="20">
    <g data-name="Group 18366">
        <g data-name="Group 18324">
            <g data-name="Group 18263">
                <g data-name="Group 17599">
                    <path data-name="Path 19377" d="M9.452 16a.227.227 0 0 0-.185.227v2.118h-2.04a.227.227 0 0 0-.227.224v12.666a.227.227 0 0 0 .227.227h19.1a.227.227 0 1 0 0-.455H7.455V18.8h1.812v10.558a.227.227 0 1 0 .455 0V16.451h16.347v12.73a.227.227 0 1 0 .455 0V16.224A.227.227 0 0 0 26.3 16H9.495a.227.227 0 0 0-.043 0zm2.495 2.58a.227.227 0 0 0-.178.227v5.16a.227.227 0 0 0 .227.227h5.444a.227.227 0 0 0 .227-.227V18.8a.227.227 0 0 0-.227-.227H12a.227.227 0 0 0-.053.004zm7.946 0a.229.229 0 1 0 .05.455h4.08a.227.227 0 1 0 0-.455h-4.08a.227.227 0 0 0-.05-.003zm-7.669.455h4.989v4.705h-4.989zm7.669 2.125a.229.229 0 1 0 .05.455h4.08a.227.227 0 1 0 0-.455h-4.08a.228.228 0 0 0-.05-.003zm0 2.58a.229.229 0 1 0 .05.455h4.08a.227.227 0 1 0 0-.455h-4.08a.227.227 0 0 0-.05-.003zm-8.173 2.58a.229.229 0 1 0 .05.455h12.252a.227.227 0 1 0 0-.455H11.769a.228.228 0 0 0-.05-.003zm0 2.58a.229.229 0 0 0 .05.455h12.217a.227.227 0 1 0 0-.455H11.769a.228.228 0 0 0-.05 0z" transform="translate(-6.9 -13.872)" style="stroke:#000;stroke-width:.2px"/>
                </g>
            </g>
        </g>
    </g>
</svg>
