<svg xmlns="http://www.w3.org/2000/svg" width="20" height="20">
    <g data-name="Group 18362">
        <path data-name="Path 20926" d="M18.824 2H1.75a.751.751 0 0 0-.75.75v11.17a.751.751 0 0 0 .75.75h6.688l-.489 2.067H5.531a.356.356 0 0 0 0 .713h9.512a.356.356 0 0 0 0-.713h-2.418l-.489-2.067h6.688a.751.751 0 0 0 .75-.75V2.75a.751.751 0 0 0-.75-.75zM8.681 16.736l.489-2.067h2.234l.489 2.067zm10.18-2.816a.038.038 0 0 1-.037.037H1.75a.038.038 0 0 1-.037-.037V2.75a.038.038 0 0 1 .037-.037h17.074a.038.038 0 0 1 .037.037z"/>
        <path data-name="Path 20927" d="M16.48 4.001a1.055 1.055 0 0 0-1 1.391l-3.2 3.2a1.042 1.042 0 0 0-.421-.088 1.054 1.054 0 0 0-.5.126l-1.64-1.4a1.055 1.055 0 1 0-2.011.036l-3.2 3.2a1.042 1.042 0 0 0-.421-.088 1.055 1.055 0 1 0 1 .719l3.2-3.2a1.042 1.042 0 0 0 .421.088 1.058 1.058 0 0 0 .456-.1l1.67 1.425a1.055 1.055 0 1 0 2.025-.084l3.2-3.2a1.042 1.042 0 0 0 .421.088 1.055 1.055 0 1 0 0-2.11z"/>
    </g>
</svg>
