<?xml version="1.0" encoding="utf-8"?>
<!-- Generator: Adobe Illustrator 22.1.0, SVG Export Plug-In . SVG Version: 6.00 Build 0)  -->
<svg version="1.1" id="Layer_1" xmlns="http://www.w3.org/2000/svg" xmlns:xlink="http://www.w3.org/1999/xlink" x="0px" y="0px"
	 viewBox="0 0 90 90" style="enable-background:new 0 0 90 90;" xml:space="preserve">
<style type="text/css">
	.st0{fill:#FFFFFF;}
	.st1{fill:none;stroke:#690F27;stroke-width:2;stroke-miterlimit:10;}
	.st2{fill:#691127;}
	.st3{fill:#690F26;}
	.st4{fill:#F6951E;}
	.st5{fill:none;stroke:#691027;stroke-width:2;stroke-miterlimit:10;}
	.st6{fill:#690A27;}
	.st7{fill:#691128;}
	.st8{fill:#691228;}
	.st9{fill:none;}
	.st10{fill:none;stroke:#691128;stroke-width:2;stroke-miterlimit:10;}
	.st11{fill:#010101;}
	.st12{fill:#690D28;}
	.st13{fill:#691029;}
	.st14{fill:#6A112A;}
	.st15{fill:none;stroke:#691228;stroke-width:2;stroke-linecap:round;stroke-linejoin:round;}
	.st16{fill:none;stroke:#142443;stroke-width:2;stroke-miterlimit:10;}
	.st17{fill:#152443;}
	.st18{fill:none;stroke:#690F27;stroke-miterlimit:10;}
	.st19{fill:#691127;stroke:#691027;stroke-width:0.5;stroke-miterlimit:10;}
	.st20{fill:#691028;stroke:#690F27;stroke-width:0.25;stroke-miterlimit:10;}
	.st21{fill:#690F27;}
	.st22{fill:#FFFFFF;stroke:#FFFFFF;stroke-width:0.9;stroke-miterlimit:10;}
	.st23{fill:none;stroke:#FFFFFF;stroke-width:0.9;stroke-miterlimit:10;}
	.st24{fill:#691027;stroke:#691027;stroke-width:0.6;stroke-miterlimit:10;}
	.st25{fill:#6A102A;}
	.st26{fill:#691027;}
	.st27{fill:#6A1329;}
	.st28{fill:none;stroke:#142443;stroke-miterlimit:10;}
	.st29{fill:#152543;}
	.st30{fill:#142543;}
	.st31{fill:#010101;stroke:#010101;stroke-width:0.4;stroke-miterlimit:10;}
	.st32{fill:#8B173B;}
	.st33{fill:#AA5826;}
	.st34{fill:#C33C36;}
	.st35{fill:#C85927;}
	.st36{fill:#313B4E;}
	.st37{fill:none;stroke:#000000;stroke-width:1.2;stroke-miterlimit:10;}
	.st38{fill:none;stroke:#FFFFFF;stroke-miterlimit:10;}
	.st39{fill:#FFFFFF;stroke:#FFFFFF;stroke-width:0.1;stroke-miterlimit:10;}
	.st40{fill:#FFFFFF;stroke:#FFFFFF;stroke-width:0.3;stroke-miterlimit:10;}
	.st41{fill:#D1D3D4;}
	.st42{fill:#3B599A;}
	.st43{fill:#5FA9DD;}
	.st44{fill:#FFFFFF;stroke:#FFFFFF;stroke-miterlimit:10;}
	.st45{fill:#152443;stroke:#FFFFFF;stroke-miterlimit:10;}
	.st46{fill:none;stroke:#000000;stroke-miterlimit:10;}
	.st47{fill:none;stroke:#142543;stroke-miterlimit:10;}
	.st48{fill:#152543;stroke:#142543;stroke-width:0.5;stroke-miterlimit:10;}
	.st49{fill:#122543;}
	.st50{fill:none;stroke:#132543;stroke-width:0.5;stroke-miterlimit:10;}
	.st51{fill:#4B4B4B;}
	.st52{fill:#10A24A;}
	.st53{fill:#0FA24A;}
	.st54{fill:#142543;stroke:#132543;stroke-width:0.25;stroke-miterlimit:10;}
	.st55{fill:#D73D36;}
	.st56{fill:#690E26;}
	.st57{fill:#D73D36;stroke:#D63E35;stroke-width:0.75;stroke-miterlimit:10;}
	.st58{fill:none;stroke:#D63D35;stroke-miterlimit:10;}
	.st59{fill:none;stroke:#010101;stroke-width:3;stroke-linejoin:round;stroke-miterlimit:10;}
	.st60{fill:none;stroke:#122443;}
	.st61{fill:#152443;stroke:#000000;stroke-width:0.15;stroke-miterlimit:10;}
	.st62{fill:url(#SVGID_1_);}
	.st63{fill:url(#SVGID_2_);stroke:url(#SVGID_3_);stroke-width:0.25;stroke-miterlimit:10;}
	.st64{fill:#8F2E51;}
</style>
<g>
	<path class="st4" d="M81.8,31.9v-5l-0.7-0.3c-0.2-0.1-5.2-2-12.2-2.3v2.3c5,0.2,9,1.4,10.6,1.9v46.7c-3.2-1.3-7-2-11.1-2
		c-10.1,0-19.8,3.9-22.7,5.2V59.8l1.4,1.5V48h-3.5v13.3l1.4-1.5v18.6c-2.9-1.2-13.1-5.1-23.2-5.1c-4,0-7.6,0.6-10.6,1.8V28.4
		c1.8-0.6,6.6-2,12.5-2c0.4,0,0.8,0,1.3,0v-2.3c-0.4,0-0.8,0-1.3,0c-7.9,0-13.8,2.3-14.1,2.4l-0.7,0.3v4.7C6.5,31.9,5,32.7,5,34.1
		c0,6.8,0,48.1,0,48.1h35.4c1.2,1.1,3,1.8,5,1.8c2,0,3.8-0.7,5-1.8H85c0,0,0-45.7,0-48.1C85,33,83.8,32.3,81.8,31.9z"/>
	<g>
		<path class="st4" d="M48.7,13.1c0,0,0-0.1,0-0.1c0-0.1-0.1-0.2-0.1-0.3c0,0-0.1-0.2,0-0.1c0,0,0-0.1-0.1-0.1
			c-0.1-0.1-0.1-0.2-0.2-0.3c0,0,0,0,0,0c0,0,0,0,0,0c0,0-0.1-0.1-0.1-0.1c-0.1-0.1-0.1-0.1-0.2-0.2c0,0-0.1-0.1-0.1-0.1
			c0,0-0.1,0-0.1-0.1c-0.1-0.1-0.2-0.1-0.3-0.2c0,0,0,0,0,0c0,0,0,0,0,0c0,0-0.1,0-0.1-0.1c-0.1,0-0.2-0.1-0.3-0.1c0,0,0,0,0,0
			c0,0,0,0,0,0c-0.1,0-0.1,0-0.2,0c-0.1,0-0.3,0-0.4,0c0,0,0,0,0,0c0,0,0,0,0,0c-0.1,0-0.1,0-0.2,0c-0.3,0.1-0.3,0.1-0.5,0.2
			c-0.3,0.2-0.6,0.4-0.8,0.7c-0.1,0.1-0.1,0.2-0.2,0.3c0,0,0,0.1,0,0.1c0,0,0,0.1,0,0.2c0,0.1,0,0.2-0.1,0.3c0,0,0,0.1,0,0.1
			c0,0.1,0,0.1,0,0.2c0,0.1,0,0.2,0,0.4c0,0,0,0.1,0,0.1c0,0.1,0,0.1,0,0.2c0,0.1,0.1,0.2,0.1,0.3c0,0,0,0.1,0,0.1
			c0,0,0,0.1,0.1,0.1c0,0.1,0.1,0.1,0.1,0.2c0,0,0,0.1,0.1,0.1c0.1,0.1,0.1,0.1,0.2,0.2c0.1,0.1,0.1,0.1,0.2,0.2c0,0,0.1,0,0.1,0.1
			c0,0,0.1,0.1,0.1,0.1c0.3,0.2,0.7,0.3,1.1,0.3c0.1,0,0.2,0,0.3,0c0,0,0.1,0,0.1,0c0.1,0,0.1,0,0.2,0c0.1,0,0.2-0.1,0.3-0.1
			c0,0,0.1,0,0.1,0c0,0,0.1,0,0.1-0.1c0.1,0,0.2-0.1,0.2-0.2c0,0,0.1,0,0.1-0.1c0,0,0.1-0.1,0.1-0.1c0.1-0.1,0.1-0.1,0.2-0.2
			c0,0,0,0,0,0c0,0,0,0,0,0c0,0,0.1-0.1,0.1-0.1c0.1-0.1,0.1-0.2,0.1-0.3c0,0,0,0,0,0c0,0,0,0,0,0c0,0,0-0.1,0.1-0.1
			c0-0.1,0.1-0.2,0.1-0.3c0,0,0,0,0,0c0,0,0,0,0,0c0-0.1,0-0.1,0-0.2c0-0.1,0-0.2,0-0.3C48.7,13.2,48.7,13.1,48.7,13.1z"/>
		<path class="st4" d="M34.8,25.9c0-1.2,0-2.3-0.1-3.5c-0.9,0-1.8,0-2.7,0c0,1.4,0,2.8-0.1,4.1c0,2.5-0.1,5.1-0.1,7.6
			c0,1.2,0,2.3-0.1,3.5c1,0,2,0,3,0c0.1,0,0.1,0,0.2,0c0-1.4,0-2.8-0.1-4.1C34.8,31,34.8,28.4,34.8,25.9z"/>
		<path class="st4" d="M31.7,37.7c0-1.2,0-2.3,0.1-3.5c0-2.5,0.1-5.1,0.1-7.6c0-1.4,0-2.8,0.1-4.1c0.9,0,1.8,0,2.7,0
			c0,1.2,0,2.3,0.1,3.5c0,2.5,0.1,5.1,0.1,7.6c0,1.4,0,2.8,0.1,4.1c0.2,0,0.4,0,0.6,0c0.2,0,0.4,0,0.5,0c0-1.2,0-2.3-0.1-3.5
			c0-2.5-0.1-5.1-0.1-7.6c0-1.5,0-3.1-0.1-4.6c0,0,0,0,0,0c0-0.3-0.2-0.6-0.6-0.6c-1.3,0-2.6,0-3.8,0c-0.3,0-0.5,0.3-0.6,0.6
			c0,1.3,0,2.7-0.1,4c0,2.5-0.1,5.1-0.1,7.6c0,1.4,0,2.8-0.1,4.1c0.2,0,0.4,0,0.5,0C31.4,37.7,31.5,37.7,31.7,37.7z"/>
		<path class="st4" d="M52.8,38.7c0.1,0,0.2,0,0.3,0c0,0,0-0.1,0-0.1C53,38.6,52.9,38.6,52.8,38.7C52.8,38.6,52.8,38.7,52.8,38.7z"
			/>
		<path class="st4" d="M61.7,15.9c-2-1.2-4.1-2.3-6.1-3.5c-2.1-1.2-4.2-2.4-6.3-3.6c-0.9-0.5-1.8-1-2.6-1.5
			c-0.7,0.4-1.4,0.8-2.2,1.2c-2.1,1.2-4.1,2.3-6.2,3.5c-2.1,1.2-4.2,2.4-6.3,3.6c-0.9,0.5-1.8,1-2.6,1.5c0,0.4,0,0.7,0,1.1
			c0.2,0,0.5,0,0.7,0c1.6,0,3.1,0,4.7,0c2.3,0,4.6,0,7,0c2.6,0,5.2,0,7.8,0c2.4,0,4.9,0,7.3,0c1.8,0,3.6,0,5.4,0c0.5,0,1,0,1.6,0
			c0-0.4,0-0.7,0-1.1C63.1,16.7,62.4,16.3,61.7,15.9z M49.1,15.5c-0.6,0.8-1.6,1.2-2.5,1.2c-1.4,0-2.8-1-3.1-2.4
			c-0.4-1.4,0.2-2.9,1.5-3.7c0.9-0.5,2-0.6,2.9-0.1c0.9,0.4,1.6,1.2,1.8,2.1C50,13.6,49.7,14.6,49.1,15.5z"/>
		<path class="st4" d="M28.8,19.3c0.7,0,1.4,0,2.1,0c1.8,0,3.6,0,5.4,0c2.4,0,4.9,0,7.3,0c2.6,0,5.2,0,7.8,0c2.3,0,4.6,0,7,0
			c1.6,0,3.1,0,4.7,0c0.4,0,0.8,0,1.2,0c0.3,0,0.6-0.3,0.6-0.6c0-0.7,0-1.3,0-2c0-0.2-0.1-0.4-0.3-0.5c-1-0.6-1.9-1.1-2.9-1.7
			c-2.1-1.2-4.2-2.4-6.3-3.6c-2-1.2-4.1-2.3-6.1-3.5c-0.8-0.4-1.5-0.9-2.3-1.3c0,0-0.1,0-0.1,0c0,0-0.1,0-0.1,0c0,0-0.1,0-0.1,0
			c0,0-0.1,0-0.1,0c0,0-0.1,0-0.1,0c0,0-0.1,0-0.1,0c-1,0.6-1.9,1.1-2.9,1.7c-2.1,1.2-4.2,2.4-6.3,3.6c-2.1,1.2-4.1,2.3-6.2,3.5
			c-0.8,0.5-1.6,0.9-2.4,1.4c-0.2,0.1-0.3,0.3-0.3,0.5c0,0.7,0,1.3,0,2C28.2,19,28.5,19.3,28.8,19.3z M62.2,18.2c-1.8,0-3.6,0-5.4,0
			c-2.4,0-4.9,0-7.3,0c-2.6,0-5.2,0-7.8,0c-2.3,0-4.6,0-7,0c-1.6,0-3.1,0-4.7,0c-0.2,0-0.5,0-0.7,0c0-0.4,0-0.7,0-1.1
			c0.9-0.5,1.8-1,2.6-1.5c2.1-1.2,4.2-2.4,6.3-3.6c2.1-1.2,4.1-2.3,6.2-3.5c0.7-0.4,1.4-0.8,2.2-1.2c0.9,0.5,1.8,1,2.6,1.5
			c2.1,1.2,4.2,2.4,6.3,3.6c2,1.2,4.1,2.3,6.1,3.5c0.7,0.4,1.4,0.8,2,1.2c0,0.4,0,0.7,0,1.1C63.3,18.2,62.8,18.2,62.2,18.2z"/>
		<path class="st4" d="M47.9,10.5c-1-0.4-2-0.4-2.9,0.1c-1.3,0.7-1.9,2.3-1.5,3.7c0.4,1.4,1.7,2.4,3.1,2.4c1,0,1.9-0.4,2.5-1.2
			c0.6-0.8,0.9-1.9,0.6-2.9C49.5,11.7,48.8,10.9,47.9,10.5z M48.7,13.7C48.7,13.7,48.7,13.7,48.7,13.7
			C48.7,13.7,48.7,13.8,48.7,13.7c0,0.2-0.1,0.3-0.1,0.4c0,0.1,0,0.1-0.1,0.1c0,0,0,0,0,0c0,0,0,0,0,0c0,0.1-0.1,0.2-0.1,0.3
			c0,0-0.1,0.1-0.1,0.1c0,0,0,0,0,0c0,0,0,0,0,0c-0.1,0.1-0.1,0.2-0.2,0.2c0,0-0.1,0.1-0.1,0.1c0,0,0,0-0.1,0.1
			c-0.1,0.1-0.2,0.1-0.2,0.2c0,0-0.1,0-0.1,0.1c0,0-0.1,0-0.1,0c-0.1,0-0.2,0.1-0.3,0.1c-0.1,0-0.1,0-0.2,0c0,0-0.1,0-0.1,0
			c-0.1,0-0.2,0-0.3,0c-0.4,0-0.7-0.1-1.1-0.3c0,0-0.1-0.1-0.1-0.1c0,0-0.1,0-0.1-0.1c-0.1-0.1-0.1-0.1-0.2-0.2
			c-0.1-0.1-0.1-0.1-0.2-0.2c0,0-0.1-0.1-0.1-0.1c0-0.1-0.1-0.1-0.1-0.2c0,0,0-0.1-0.1-0.1c0,0,0-0.1,0-0.1c0-0.1-0.1-0.2-0.1-0.3
			c0-0.1,0-0.1,0-0.2c0,0,0-0.1,0-0.1c0-0.1,0-0.2,0-0.4c0-0.1,0-0.1,0-0.2c0,0,0-0.1,0-0.1c0-0.1,0-0.2,0.1-0.3c0-0.1,0-0.1,0-0.2
			c0,0,0-0.1,0-0.1c0-0.1,0.1-0.2,0.2-0.3c0.2-0.3,0.5-0.6,0.8-0.7c0.2-0.1,0.3-0.1,0.5-0.2c0.1,0,0.1,0,0.2,0c0,0,0,0,0,0
			c0,0,0,0,0,0c0.1,0,0.3,0,0.4,0c0.1,0,0.1,0,0.2,0c0,0,0,0,0,0c0,0,0,0,0,0c0.1,0,0.2,0,0.3,0.1c0.1,0,0.1,0,0.1,0.1c0,0,0,0,0,0
			c0,0,0,0,0,0c0.1,0.1,0.2,0.1,0.3,0.2c0,0,0.1,0,0.1,0.1c0,0,0.1,0.1,0.1,0.1c0.1,0.1,0.2,0.1,0.2,0.2c0,0,0.1,0.1,0.1,0.1
			c0,0,0,0,0,0c0,0,0,0,0,0c0.1,0.1,0.1,0.2,0.2,0.3c0,0,0,0.1,0.1,0.1c0-0.1,0,0.1,0,0.1c0,0.1,0.1,0.2,0.1,0.3c0,0,0,0.1,0,0.1
			c0,0,0,0.1,0,0.1c0,0.1,0,0.2,0,0.3C48.7,13.6,48.7,13.7,48.7,13.7z"/>
		<path class="st4" d="M40.7,26.5c0,2.5-0.1,5.1-0.1,7.6c0,1.1,0,2.3-0.1,3.4c0.4,0,0.8,0,1.2,0c0.7,0,1.3,0,2,0
			c0-1.4,0-2.7-0.1-4.1c0-2.5-0.1-5.1-0.1-7.6c0-1.1,0-2.3-0.1-3.4c-0.9,0-1.8,0-2.7,0C40.7,23.8,40.7,25.1,40.7,26.5z"/>
		<path class="st4" d="M39.4,38.1c0,0.3,0.3,0.6,0.6,0.6c1.2,0,2.4,0,3.7,0c0.2,0,0.4,0,0.7,0c0.1,0,0.2-0.1,0.3-0.1
			c0.1-0.1,0.2-0.3,0.2-0.4c0-0.2,0-0.4,0-0.6c0-1.1,0-2.3-0.1-3.4c0-2.5-0.1-5.1-0.1-7.6c0-1.5,0-3.1-0.1-4.6c0,0,0,0,0,0
			c0-0.3-0.2-0.6-0.6-0.6c-1.3,0-2.6,0-3.8,0c-0.3,0-0.5,0.3-0.6,0.6c0,1.3,0,2.7-0.1,4c0,2.5-0.1,5.1-0.1,7.6c0,1.4,0,2.7-0.1,4.1
			C39.4,37.7,39.4,37.9,39.4,38.1C39.4,38.1,39.4,38.1,39.4,38.1z M43.5,25.9c0,2.5,0.1,5.1,0.1,7.6c0,1.4,0,2.7,0.1,4.1
			c-0.7,0-1.3,0-2,0c-0.4,0-0.8,0-1.2,0c0-1.1,0-2.3,0.1-3.4c0-2.5,0.1-5.1,0.1-7.6c0-1.4,0-2.7,0.1-4.1c0.9,0,1.8,0,2.7,0
			C43.5,23.6,43.5,24.7,43.5,25.9z"/>
		<g>
			<path class="st4" d="M49.2,26.5c0,2.5-0.1,5.1-0.1,7.6c0,1.1,0,2.3-0.1,3.4c0.4,0,0.8,0,1.2,0c0.7,0,1.3,0,2,0
				c0-1.4,0-2.7-0.1-4.1c0-2.5-0.1-5.1-0.1-7.6c0-1.1,0-2.3-0.1-3.4c-0.9,0-1.8,0-2.7,0C49.3,23.8,49.3,25.1,49.2,26.5z"/>
			<path class="st4" d="M47.9,38.1c0,0.3,0.3,0.6,0.6,0.6c1.2,0,2.4,0,3.7,0c0.2,0,0.4,0,0.7,0c0.1,0,0.2-0.1,0.3-0.1
				c0.1-0.1,0.2-0.3,0.2-0.4c0-0.2,0-0.4,0-0.6c0-1.1,0-2.3-0.1-3.4c0-2.5-0.1-5.1-0.1-7.6c0-1.5,0-3.1-0.1-4.6c0,0,0,0,0,0
				c0-0.3-0.2-0.6-0.6-0.6c-1.3,0-2.6,0-3.8,0c-0.3,0-0.5,0.3-0.6,0.6c0,1.3,0,2.7-0.1,4c0,2.5-0.1,5.1-0.1,7.6c0,1.4,0,2.7-0.1,4.1
				C48,37.7,48,37.9,47.9,38.1C48,38.1,48,38.1,47.9,38.1z M52.1,25.8c0,2.5,0.1,5.1,0.1,7.6c0,1.4,0,2.7,0.1,4.1c-0.7,0-1.3,0-2,0
				c-0.4,0-0.8,0-1.2,0c0-1.1,0-2.3,0.1-3.4c0-2.5,0.1-5.1,0.1-7.6c0-1.4,0-2.7,0.1-4.1c0.9,0,1.8,0,2.7,0
				C52.1,23.5,52.1,24.7,52.1,25.8z"/>
		</g>
		<g>
			<path class="st4" d="M58.2,26.5c0,2.5-0.1,5.1-0.1,7.6c0,1.1,0,2.3-0.1,3.4c0.4,0,0.8,0,1.2,0c0.7,0,1.3,0,2,0
				c0-1.4,0-2.7-0.1-4.1c0-2.5-0.1-5.1-0.1-7.6c0-1.1,0-2.3-0.1-3.4c-0.9,0-1.8,0-2.7,0C58.3,23.8,58.2,25.1,58.2,26.5z"/>
			<path class="st4" d="M56.9,38.1c0,0.3,0.3,0.6,0.6,0.6c1.2,0,2.4,0,3.7,0c0.2,0,0.4,0,0.7,0c0.1,0,0.2-0.1,0.3-0.1
				c0.1-0.1,0.2-0.3,0.2-0.4c0-0.2,0-0.4,0-0.6c0-1.1,0-2.3-0.1-3.4c0-2.5-0.1-5.1-0.1-7.6c0-1.5,0-3.1-0.1-4.6c0,0,0,0,0,0
				c0-0.3-0.2-0.6-0.6-0.6c-1.3,0-2.6,0-3.8,0c-0.3,0-0.5,0.3-0.6,0.6c0,1.3,0,2.7-0.1,4c0,2.5-0.1,5.1-0.1,7.6c0,1.4,0,2.7-0.1,4.1
				C56.9,37.7,56.9,37.9,56.9,38.1C56.9,38.1,56.9,38.1,56.9,38.1z M61.1,25.8c0,2.5,0.1,5.1,0.1,7.6c0,1.4,0,2.7,0.1,4.1
				c-0.7,0-1.3,0-2,0c-0.4,0-0.8,0-1.2,0c0-1.1,0-2.3,0.1-3.4c0-2.5,0.1-5.1,0.1-7.6c0-1.4,0-2.7,0.1-4.1c0.9,0,1.8,0,2.7,0
				C61.1,23.5,61.1,24.7,61.1,25.8z"/>
		</g>
		<path class="st4" d="M64,42.2H28.9c-0.4,0-0.8-0.4-0.8-0.8v-3c0-0.4,0.4-0.8,0.8-0.8H64c0.4,0,0.8,0.4,0.8,0.8v3
			C64.8,41.9,64.5,42.2,64,42.2z"/>
	</g>
</g>
</svg>
