<?xml version="1.0" encoding="utf-8"?>
<!-- Generator: Adobe Illustrator 22.1.0, SVG Export Plug-In . SVG Version: 6.00 Build 0)  -->
<svg version="1.1" id="Layer_1" xmlns="http://www.w3.org/2000/svg" xmlns:xlink="http://www.w3.org/1999/xlink" x="0px" y="0px"
	 viewBox="0 0 90 90" style="enable-background:new 0 0 90 90;" xml:space="preserve">
<style type="text/css">
	.st0{fill:#FFFFFF;}
	.st1{fill:none;stroke:#690F27;stroke-width:2;stroke-miterlimit:10;}
	.st2{fill:#691127;}
	.st3{fill:#690F26;}
	.st4{fill:#F6951E;}
	.st5{fill:none;stroke:#691027;stroke-width:2;stroke-miterlimit:10;}
	.st6{fill:#690A27;}
	.st7{fill:#691128;}
	.st8{fill:#691228;}
	.st9{fill:none;}
	.st10{fill:none;stroke:#691128;stroke-width:2;stroke-miterlimit:10;}
	.st11{fill:#010101;}
	.st12{fill:#690D28;}
	.st13{fill:#691029;}
	.st14{fill:#6A112A;}
	.st15{fill:none;stroke:#691228;stroke-width:2;stroke-linecap:round;stroke-linejoin:round;}
	.st16{fill:none;stroke:#142443;stroke-width:2;stroke-miterlimit:10;}
	.st17{fill:#152443;}
	.st18{fill:none;stroke:#690F27;stroke-miterlimit:10;}
	.st19{fill:#691127;stroke:#691027;stroke-width:0.5;stroke-miterlimit:10;}
	.st20{fill:#691028;stroke:#690F27;stroke-width:0.25;stroke-miterlimit:10;}
	.st21{fill:#690F27;}
	.st22{fill:#FFFFFF;stroke:#FFFFFF;stroke-width:0.9;stroke-miterlimit:10;}
	.st23{fill:none;stroke:#FFFFFF;stroke-width:0.9;stroke-miterlimit:10;}
	.st24{fill:#691027;stroke:#691027;stroke-width:0.6;stroke-miterlimit:10;}
	.st25{fill:#6A102A;}
	.st26{fill:#691027;}
	.st27{fill:#6A1329;}
	.st28{fill:none;stroke:#142443;stroke-miterlimit:10;}
	.st29{fill:#152543;}
	.st30{fill:#142543;}
	.st31{fill:#010101;stroke:#010101;stroke-width:0.4;stroke-miterlimit:10;}
	.st32{fill:#8B173B;}
	.st33{fill:#AA5826;}
	.st34{fill:#C33C36;}
	.st35{fill:#C85927;}
	.st36{fill:#313B4E;}
	.st37{fill:none;stroke:#000000;stroke-width:1.2;stroke-miterlimit:10;}
	.st38{fill:none;stroke:#FFFFFF;stroke-miterlimit:10;}
	.st39{fill:#FFFFFF;stroke:#FFFFFF;stroke-width:0.1;stroke-miterlimit:10;}
	.st40{fill:#FFFFFF;stroke:#FFFFFF;stroke-width:0.3;stroke-miterlimit:10;}
	.st41{fill:#D1D3D4;}
	.st42{fill:#3B599A;}
	.st43{fill:#5FA9DD;}
	.st44{fill:#FFFFFF;stroke:#FFFFFF;stroke-miterlimit:10;}
	.st45{fill:#152443;stroke:#FFFFFF;stroke-miterlimit:10;}
	.st46{fill:none;stroke:#000000;stroke-miterlimit:10;}
	.st47{fill:none;stroke:#142543;stroke-miterlimit:10;}
	.st48{fill:#152543;stroke:#142543;stroke-width:0.5;stroke-miterlimit:10;}
	.st49{fill:#122543;}
	.st50{fill:none;stroke:#132543;stroke-width:0.5;stroke-miterlimit:10;}
	.st51{fill:#4B4B4B;}
	.st52{fill:#10A24A;}
	.st53{fill:#0FA24A;}
	.st54{fill:#142543;stroke:#132543;stroke-width:0.25;stroke-miterlimit:10;}
	.st55{fill:#D73D36;}
	.st56{fill:#690E26;}
	.st57{fill:#D73D36;stroke:#D63E35;stroke-width:0.75;stroke-miterlimit:10;}
	.st58{fill:none;stroke:#D63D35;stroke-miterlimit:10;}
	.st59{fill:none;stroke:#010101;stroke-width:3;stroke-linejoin:round;stroke-miterlimit:10;}
	.st60{fill:none;stroke:#122443;}
	.st61{fill:#152443;stroke:#000000;stroke-width:0.15;stroke-miterlimit:10;}
	.st62{fill:url(#SVGID_1_);}
	.st63{fill:url(#SVGID_2_);stroke:url(#SVGID_3_);stroke-width:0.25;stroke-miterlimit:10;}
	.st64{fill:#8F2E51;}
</style>
<g>
	<path class="st4" d="M21.5,28.2l-3,9.7c0,0,12.3,1.2,22.6,4.4c10.3,3.2,21.1,9.3,21.1,9.3l3.1-9.8c0,0-9.2-9.3-20.2-12.7
		C34.1,25.5,21.5,28.2,21.5,28.2z"/>
	<path class="st4" d="M54,65.5C51.7,64,32.3,50.8,27.1,41.6l-0.3-0.5l-0.6,0c-4.5-0.2-8,2.4-9.5,3.8c-0.6-0.6-1.2-1.3-1.9-1.9
		l-0.8-0.8l-0.8,0.8c-2.9,3.1-4.3,5.9-3.9,8.5c0.3,2.1,1.7,3.9,4.1,5.2c0.4,0.2,5.4,3.6,10.8,8c-0.9,1-4.3,3.2-5.6,4
		c-1.4,1-7.2,6.2-7.2,6.2l3.7,0.9l1.3,2.5c0,0,1.8-4.3,3.7-6.5c1.9-2.1,5.3-3.9,5.3-3.9s-1.8,2.6-3.2,5.2c-1.3,2.5-1.7,7-1.7,7
		l2.3-0.7l1.6,3.4c0,0,0.4-4.8,1.4-8c0.8-2.6,2.7-5,3.4-5.8c6.9,6.1,14.1,13.4,15.5,14.8c0.9,1,2,1.7,3.5,2.1
		c0.5,0.1,1.1,0.2,1.6,0.2c3,0,5.8-1.9,7.6-5.1c2.1-3.8,2.7-9.6-1-13.4C55.8,66.4,54.8,65.8,54,65.5z M24.8,62.2
		c-5-3.9-9.5-7-10.2-7.4c-1.8-1-2.9-2.3-3.1-3.7c-0.2-1.7,0.6-3.7,2.6-5.9c4.9,5,9,8.9,12.6,12.1C25.1,59.8,24.8,61.2,24.8,62.2z
		 M27.9,55.5c-2.8-2.5-6-5.5-9.7-9.2c1.2-1.1,4-3.1,7.4-3.2c1.8,2.9,4.7,6.1,8,9.2C31.9,52.5,29.7,53.2,27.9,55.5z M30.1,66.5
		c0.2-1.3,0.6-3.2,1.5-5.1c6.2,5,9.7,6.9,11.2,7.5c-0.2,1.8-0.6,5.9,0.1,9.6C39.6,75.2,34.7,70.5,30.1,66.5z M55.9,79.9
		c-1.3,2.3-3.8,4.6-6.9,3.9c-5.3-1.2-4.7-11.5-4-15.4l0.2-1l-1-0.2c0,0-3.3-0.9-11.5-7.6c1.5-1.8,4-2.6,5.9-2.9
		c4.6,3.8,9.2,7.1,11.9,9c-0.1,0-0.2,0.1-0.2,0.1c-3.2,1.8-4.5,7-3.8,9.5c0.8,2.9,2.8,4.8,4.8,4.8c0.9,0,3-0.5,3.8-4.4l0.1-0.6
		l-0.5-0.4c-3-2.5-4.6-4-5.3-4.8c0.5-1,1.1-1.8,1.9-2.2c1.2-0.7,2.5-0.2,4,1.3C58.2,72,57.7,76.7,55.9,79.9z M52.9,75.8
		c-0.4,1.3-1,2.1-1.7,2.2c0,0,0,0,0,0c-0.9,0-2.1-1.1-2.7-3.2c-0.2-0.7-0.1-1.7,0.1-2.7C49.5,72.8,50.9,74.1,52.9,75.8z"/>
	<path class="st4" d="M83.3,42.3c1.7-0.3,2.4-2.5,1.2-3.8l-1.1-1.2l0.4-1.3c0,0,3.5-6.4-5.3-5.2c-0.5,0.1-0.7,0.2-0.9,0.4L52.4,4.9
		C51.8,4.3,51,4,50.1,4.2L6.9,13.8c-1.8,0.4-2.4,2.6-1,3.9L16,26.7l0.6-1.9c0.1-0.3,0.3-0.5,0.6-0.5c2.6-0.5,16.4-2.8,28.5,1
		c12.1,3.8,22.5,13.4,24.5,15.3c0.2,0.2,0.3,0.5,0.2,0.8v0c-0.5,1.6,0.9,3.2,2.6,2.9l5.1-1c0.6-0.1,1.1,0.4,0.9,1
		c-1.4,4.5-2.9,9.3-3.6,11.5c-0.1,0.4-0.6,0.6-1,0.5l-1.4-0.4c-0.4-0.1-0.8,0.1-1,0.5l-1.4,4.5c-0.2,0.6,0.4,1.2,1,1l2.8-0.9
		c0.3-0.1,0.6,0,0.8,0.2l2.2,2.5c0.4,0.5,1.1,0.3,1.3-0.3l1.4-4.6c0.1-0.4-0.1-0.8-0.5-1l-1.6-0.5c-0.4-0.1-0.6-0.6-0.5-1L81.6,43
		c0.1-0.3,0.3-0.5,0.6-0.5L83.3,42.3z M81.5,40c-0.3,1.1-1.5,1.7-2.7,1.4c-1.1-0.4-1.7-1.5-1.4-2.7c0.4-1.1,1.5-1.7,2.7-1.4
		S81.9,38.9,81.5,40z M79.6,33.4c1.1-0.3,3-0.7,2.5,0.9c-0.1,0.2-0.2,0.6-0.4,1.3L79.6,33.4z"/>
</g>
</svg>
