<?xml version="1.0" encoding="utf-8"?>
<!-- Generator: Adobe Illustrator 22.1.0, SVG Export Plug-In . SVG Version: 6.00 Build 0)  -->
<svg version="1.1" id="Layer_1" xmlns="http://www.w3.org/2000/svg" xmlns:xlink="http://www.w3.org/1999/xlink" x="0px" y="0px"
	 viewBox="0 0 90 90" style="enable-background:new 0 0 90 90;" xml:space="preserve">
<style type="text/css">
	.st0{fill:#FFFFFF;}
	.st1{fill:none;stroke:#690F27;stroke-width:2;stroke-miterlimit:10;}
	.st2{fill:#691127;}
	.st3{fill:#690F26;}
	.st4{fill:#F6951E;}
	.st5{fill:none;stroke:#691027;stroke-width:2;stroke-miterlimit:10;}
	.st6{fill:#690A27;}
	.st7{fill:#691128;}
	.st8{fill:#691228;}
	.st9{fill:none;}
	.st10{fill:none;stroke:#691128;stroke-width:2;stroke-miterlimit:10;}
	.st11{fill:#010101;}
	.st12{fill:#690D28;}
	.st13{fill:#691029;}
	.st14{fill:#6A112A;}
	.st15{fill:none;stroke:#691228;stroke-width:2;stroke-linecap:round;stroke-linejoin:round;}
	.st16{fill:none;stroke:#142443;stroke-width:2;stroke-miterlimit:10;}
	.st17{fill:#152443;}
	.st18{fill:none;stroke:#690F27;stroke-miterlimit:10;}
	.st19{fill:#691127;stroke:#691027;stroke-width:0.5;stroke-miterlimit:10;}
	.st20{fill:#691028;stroke:#690F27;stroke-width:0.25;stroke-miterlimit:10;}
	.st21{fill:#690F27;}
	.st22{fill:#FFFFFF;stroke:#FFFFFF;stroke-width:0.9;stroke-miterlimit:10;}
	.st23{fill:none;stroke:#FFFFFF;stroke-width:0.9;stroke-miterlimit:10;}
	.st24{fill:#691027;stroke:#691027;stroke-width:0.6;stroke-miterlimit:10;}
	.st25{fill:#6A102A;}
	.st26{fill:#691027;}
	.st27{fill:#6A1329;}
	.st28{fill:none;stroke:#142443;stroke-miterlimit:10;}
	.st29{fill:#152543;}
	.st30{fill:#142543;}
	.st31{fill:#010101;stroke:#010101;stroke-width:0.4;stroke-miterlimit:10;}
	.st32{fill:#8B173B;}
	.st33{fill:#AA5826;}
	.st34{fill:#C33C36;}
	.st35{fill:#C85927;}
	.st36{fill:#313B4E;}
	.st37{fill:none;stroke:#000000;stroke-width:1.2;stroke-miterlimit:10;}
	.st38{fill:none;stroke:#FFFFFF;stroke-miterlimit:10;}
	.st39{fill:#FFFFFF;stroke:#FFFFFF;stroke-width:0.1;stroke-miterlimit:10;}
	.st40{fill:#FFFFFF;stroke:#FFFFFF;stroke-width:0.3;stroke-miterlimit:10;}
	.st41{fill:#D1D3D4;}
	.st42{fill:#3B599A;}
	.st43{fill:#5FA9DD;}
	.st44{fill:#FFFFFF;stroke:#FFFFFF;stroke-miterlimit:10;}
	.st45{fill:#152443;stroke:#FFFFFF;stroke-miterlimit:10;}
	.st46{fill:none;stroke:#000000;stroke-miterlimit:10;}
	.st47{fill:none;stroke:#142543;stroke-miterlimit:10;}
	.st48{fill:#152543;stroke:#142543;stroke-width:0.5;stroke-miterlimit:10;}
	.st49{fill:#122543;}
	.st50{fill:none;stroke:#132543;stroke-width:0.5;stroke-miterlimit:10;}
	.st51{fill:#4B4B4B;}
	.st52{fill:#10A24A;}
	.st53{fill:#0FA24A;}
	.st54{fill:#142543;stroke:#132543;stroke-width:0.25;stroke-miterlimit:10;}
	.st55{fill:#D73D36;}
	.st56{fill:#690E26;}
	.st57{fill:#D73D36;stroke:#D63E35;stroke-width:0.75;stroke-miterlimit:10;}
	.st58{fill:none;stroke:#D63D35;stroke-miterlimit:10;}
	.st59{fill:none;stroke:#010101;stroke-width:3;stroke-linejoin:round;stroke-miterlimit:10;}
	.st60{fill:none;stroke:#122443;}
	.st61{fill:#152443;stroke:#000000;stroke-width:0.15;stroke-miterlimit:10;}
	.st62{fill:url(#SVGID_1_);}
	.st63{fill:url(#SVGID_2_);stroke:url(#SVGID_3_);stroke-width:0.25;stroke-miterlimit:10;}
	.st64{fill:#8F2E51;}
</style>
<g>
	<g>
		<path class="st4" d="M61.7,86.3H5.9c-0.5,0-0.9-0.4-0.9-0.9V4.6C5,4.3,5.1,4,5.4,3.9c0.2-0.2,0.5-0.2,0.8-0.1l55.8,17
			c0.4,0.1,0.7,0.5,0.7,0.9v63.8C62.7,85.9,62.3,86.3,61.7,86.3z M6.8,84.5h54V22.3L6.8,5.8V84.5z"/>
	</g>
	<g>
		<path class="st4" d="M84.1,86.3H61.7c-0.5,0-0.9-0.4-0.9-0.9c0-0.5,0.4-0.9,0.9-0.9h21.4V39H61.7c-0.5,0-0.9-0.4-0.9-0.9
			c0-0.5,0.4-0.9,0.9-0.9h22.3c0.5,0,0.9,0.4,0.9,0.9v47.3C85,85.9,84.6,86.3,84.1,86.3z"/>
	</g>
	<g>
		<path class="st4" d="M81.1,46.9H64.7c-0.5,0-0.9-0.4-0.9-0.9v-3.6c0-0.5,0.4-0.9,0.9-0.9h16.4c0.5,0,0.9,0.4,0.9,0.9V46
			C82,46.5,81.6,46.9,81.1,46.9z M65.6,45h14.6v-1.8H65.6V45z"/>
	</g>
	<g>
		<path class="st4" d="M81.1,56.5H64.7c-0.5,0-0.9-0.4-0.9-0.9v-3.6c0-0.5,0.4-0.9,0.9-0.9h16.4c0.5,0,0.9,0.4,0.9,0.9v3.6
			C82,56,81.6,56.5,81.1,56.5z M65.6,54.6h14.6v-1.8H65.6V54.6z"/>
	</g>
	<g>
		<path class="st4" d="M81.1,65.8H64.7c-0.5,0-0.9-0.4-0.9-0.9v-3.6c0-0.5,0.4-0.9,0.9-0.9h16.4c0.5,0,0.9,0.4,0.9,0.9v3.6
			C82,65.3,81.6,65.8,81.1,65.8z M65.6,63.9h14.6v-1.8H65.6V63.9z"/>
	</g>
	<g>
		<path class="st4" d="M81.1,75.3H64.7c-0.5,0-0.9-0.4-0.9-0.9v-3.6c0-0.5,0.4-0.9,0.9-0.9h16.4c0.5,0,0.9,0.4,0.9,0.9v3.6
			C82,74.9,81.6,75.3,81.1,75.3z M65.6,73.5h14.6v-1.8H65.6V73.5z"/>
	</g>
	<g>
		<path class="st4" d="M28.5,85.4V71.8h10.6v13.6h22.6V38.1V21.6L5.9,4.6v80.8H28.5z M40.7,67.1v-5.8h6.6v5.8H40.7z M50.8,67.1v-5.8
			h6.6v5.8H50.8z M27.2,67.1h-6.9v-5.8h6.9V67.1z M30.6,67.1v-5.8h6.6v5.8H30.6z M16.8,67.1h-6.6v-5.8h6.6V67.1z M47.4,58.3h-6.6
			v-5.8h6.6V58.3z M50.8,58.3v-5.8h6.6v5.8H50.8z M30.6,58.3v-5.8h6.6v5.8H30.6z M20.3,58.3v-5.8h6.9v5.8H20.3z M16.8,58.3h-6.6
			v-5.8h6.6V58.3z M47.4,49.5h-6.6v-5.8h6.6V49.5z M50.8,49.5v-5.8h6.6v5.8H50.8z M30.6,49.5v-5.8h6.6v5.8H30.6z M27.2,49.5h-6.9
			v-5.8h6.9V49.5z M16.8,49.5h-6.6v-5.8h6.6V49.5z M50.8,40.7v-5.8h6.6v5.8H50.8z M40.7,40.7v-5.8h6.6v5.8H40.7z M30.6,40.7v-5.8
			h6.6v5.8H30.6z M27.2,40.7h-6.9v-5.8h6.9V40.7z M16.8,40.7h-6.6v-5.8h6.6V40.7z M50.8,32v-5.8h6.6V32H50.8z M40.7,32v-5.8h6.6V32
			H40.7z M37.3,32h-6.6v-5.8h6.6V32z M27.2,32h-6.9v-5.8h6.9V32z M16.8,32h-6.6v-5.8h6.6V32z"/>
	</g>
</g>
</svg>
