<svg data-name="Group 17130" xmlns="http://www.w3.org/2000/svg" width="18" height="18" viewBox="0 0 18 18">
    <g data-name="Ellipse 2157" style="stroke:#000;fill:none">
        <circle cx="9" cy="9" r="9" style="stroke:none"/>
        <circle cx="9" cy="9" r="8.5" style="fill:none"/>
    </g>
    <path data-name="Path 37" d="M.49 4.913a.563.563 0 0 0 .8 0l2.975-2.979 2.977 2.979a.563.563 0 0 0 .8-.8L4.663.74a.563.563 0 0 0-.8 0L.49 4.117a.563.563 0 0 0 0 .8z" transform="translate(4.675 4.044)" style="fill-rule:evenodd"/>
    <path data-name="Path 38" d="M1.038 8.48a.563.563 0 0 0 .562-.563V.788a.563.563 0 1 0-1.125 0v7.129a.563.563 0 0 0 .563.563z" transform="translate(7.902 5.52)" style="fill-rule:evenodd"/>
</svg>
